G04 #@! TF.GenerationSoftware,KiCad,Pcbnew,(5.1.4)-1*
G04 #@! TF.CreationDate,2020-06-21T13:41:15+09:00*
G04 #@! TF.ProjectId,dooper-panel,646f6f70-6572-42d7-9061-6e656c2e6b69,rev?*
G04 #@! TF.SameCoordinates,Original*
G04 #@! TF.FileFunction,Soldermask,Top*
G04 #@! TF.FilePolarity,Negative*
%FSLAX46Y46*%
G04 Gerber Fmt 4.6, Leading zero omitted, Abs format (unit mm)*
G04 Created by KiCad (PCBNEW (5.1.4)-1) date 2020-06-21 13:41:15*
%MOMM*%
%LPD*%
G04 APERTURE LIST*
%ADD10C,0.010000*%
%ADD11C,0.100000*%
G04 APERTURE END LIST*
D10*
G36*
X79960116Y-111605247D02*
G01*
X80018817Y-111621209D01*
X80023056Y-111623079D01*
X80084052Y-111659029D01*
X80128604Y-111702071D01*
X80156960Y-111749424D01*
X80169372Y-111798305D01*
X80166091Y-111845933D01*
X80147366Y-111889526D01*
X80113448Y-111926301D01*
X80064588Y-111953478D01*
X80001036Y-111968275D01*
X79991896Y-111969129D01*
X79939952Y-111967762D01*
X79888815Y-111957784D01*
X79886524Y-111957070D01*
X79832030Y-111931206D01*
X79786212Y-111893271D01*
X79751780Y-111847242D01*
X79731443Y-111797098D01*
X79727911Y-111746817D01*
X79731339Y-111729214D01*
X79754573Y-111682305D01*
X79793234Y-111644937D01*
X79843157Y-111618628D01*
X79900173Y-111604892D01*
X79960116Y-111605247D01*
X79960116Y-111605247D01*
G37*
X79960116Y-111605247D02*
X80018817Y-111621209D01*
X80023056Y-111623079D01*
X80084052Y-111659029D01*
X80128604Y-111702071D01*
X80156960Y-111749424D01*
X80169372Y-111798305D01*
X80166091Y-111845933D01*
X80147366Y-111889526D01*
X80113448Y-111926301D01*
X80064588Y-111953478D01*
X80001036Y-111968275D01*
X79991896Y-111969129D01*
X79939952Y-111967762D01*
X79888815Y-111957784D01*
X79886524Y-111957070D01*
X79832030Y-111931206D01*
X79786212Y-111893271D01*
X79751780Y-111847242D01*
X79731443Y-111797098D01*
X79727911Y-111746817D01*
X79731339Y-111729214D01*
X79754573Y-111682305D01*
X79793234Y-111644937D01*
X79843157Y-111618628D01*
X79900173Y-111604892D01*
X79960116Y-111605247D01*
G36*
X80403052Y-109185062D02*
G01*
X80615976Y-109205992D01*
X80733789Y-109226621D01*
X80931369Y-109276710D01*
X81126843Y-109345484D01*
X81316537Y-109431225D01*
X81496781Y-109532216D01*
X81663902Y-109646738D01*
X81711699Y-109684097D01*
X81822677Y-109781024D01*
X81935082Y-109892999D01*
X82044201Y-110014806D01*
X82145319Y-110141227D01*
X82221068Y-110247832D01*
X82264665Y-110318540D01*
X82308830Y-110399798D01*
X82351853Y-110487566D01*
X82392024Y-110577802D01*
X82427633Y-110666466D01*
X82456971Y-110749516D01*
X82478327Y-110822912D01*
X82489992Y-110882612D01*
X82490121Y-110883689D01*
X82491124Y-110931766D01*
X82484898Y-110984387D01*
X82472958Y-111034884D01*
X82456821Y-111076588D01*
X82440932Y-111100146D01*
X82428218Y-111110310D01*
X82411623Y-111116369D01*
X82386150Y-111119114D01*
X82346799Y-111119340D01*
X82323149Y-111118828D01*
X82287282Y-111117630D01*
X82253966Y-111115662D01*
X82220814Y-111112427D01*
X82185441Y-111107428D01*
X82145463Y-111100169D01*
X82098493Y-111090152D01*
X82042146Y-111076883D01*
X81974038Y-111059863D01*
X81891782Y-111038596D01*
X81792993Y-111012587D01*
X81720545Y-110993369D01*
X81579395Y-110956088D01*
X81457134Y-110924363D01*
X81352289Y-110897939D01*
X81263386Y-110876566D01*
X81188951Y-110859988D01*
X81127511Y-110847954D01*
X81077591Y-110840211D01*
X81037718Y-110836505D01*
X81006419Y-110836584D01*
X80982218Y-110840194D01*
X80963643Y-110847084D01*
X80949219Y-110856999D01*
X80945635Y-110860372D01*
X80933113Y-110876071D01*
X80926108Y-110895770D01*
X80923221Y-110925614D01*
X80922931Y-110960152D01*
X80924134Y-110995149D01*
X80927932Y-111027567D01*
X80935505Y-111061577D01*
X80948034Y-111101348D01*
X80966701Y-111151051D01*
X80992686Y-111214857D01*
X81000107Y-111232647D01*
X81042518Y-111324294D01*
X81096995Y-111426654D01*
X81160843Y-111535261D01*
X81231367Y-111645645D01*
X81305870Y-111753339D01*
X81351370Y-111814818D01*
X81401869Y-111878148D01*
X81463291Y-111950215D01*
X81533031Y-112028347D01*
X81608482Y-112109871D01*
X81687036Y-112192115D01*
X81766090Y-112272407D01*
X81843034Y-112348073D01*
X81915265Y-112416440D01*
X81980174Y-112474837D01*
X82035156Y-112520590D01*
X82052560Y-112533852D01*
X82094553Y-112566352D01*
X82131208Y-112597578D01*
X82158417Y-112623847D01*
X82171672Y-112640655D01*
X82186182Y-112689872D01*
X82182291Y-112746228D01*
X82159840Y-112810028D01*
X82118672Y-112881575D01*
X82058628Y-112961177D01*
X81979551Y-113049137D01*
X81938610Y-113090642D01*
X81863004Y-113156005D01*
X81788605Y-113201528D01*
X81716222Y-113226761D01*
X81685273Y-113231317D01*
X81651179Y-113231926D01*
X81619205Y-113226911D01*
X81587976Y-113214863D01*
X81556116Y-113194375D01*
X81522250Y-113164039D01*
X81485002Y-113122449D01*
X81442997Y-113068196D01*
X81394858Y-112999873D01*
X81339211Y-112916074D01*
X81274679Y-112815389D01*
X81267224Y-112803609D01*
X81159362Y-112629603D01*
X81063474Y-112467263D01*
X80977387Y-112312499D01*
X80898930Y-112161220D01*
X80825929Y-112009335D01*
X80756214Y-111852754D01*
X80732170Y-111796044D01*
X80684277Y-111678938D01*
X80644250Y-111574269D01*
X80609969Y-111475799D01*
X80579319Y-111377291D01*
X80550181Y-111272506D01*
X80536488Y-111219637D01*
X80505350Y-111084893D01*
X80485016Y-110968290D01*
X80475485Y-110869758D01*
X80476759Y-110789226D01*
X80488836Y-110726624D01*
X80511718Y-110681881D01*
X80538626Y-110658421D01*
X80559281Y-110652199D01*
X80596669Y-110648082D01*
X80652319Y-110645960D01*
X80715861Y-110645646D01*
X80771962Y-110646704D01*
X80827491Y-110649567D01*
X80884612Y-110654634D01*
X80945491Y-110662301D01*
X81012294Y-110672968D01*
X81087184Y-110687033D01*
X81172328Y-110704892D01*
X81269890Y-110726945D01*
X81382036Y-110753590D01*
X81510931Y-110785223D01*
X81610525Y-110810107D01*
X81717307Y-110836831D01*
X81805765Y-110858687D01*
X81878073Y-110876123D01*
X81936402Y-110889588D01*
X81982927Y-110899531D01*
X82019820Y-110906402D01*
X82049255Y-110910648D01*
X82073404Y-110912719D01*
X82094441Y-110913064D01*
X82106776Y-110912613D01*
X82156460Y-110906797D01*
X82189429Y-110893205D01*
X82209753Y-110868107D01*
X82221502Y-110827772D01*
X82224999Y-110804277D01*
X82226557Y-110708109D01*
X82208055Y-110605446D01*
X82169548Y-110496421D01*
X82111085Y-110381172D01*
X82032719Y-110259832D01*
X81999882Y-110215000D01*
X81879341Y-110065855D01*
X81757034Y-109936087D01*
X81631126Y-109823901D01*
X81507917Y-109732915D01*
X81369609Y-109647572D01*
X81230369Y-109577130D01*
X81085996Y-109520027D01*
X80932291Y-109474704D01*
X80765054Y-109439599D01*
X80684098Y-109426695D01*
X80607663Y-109418808D01*
X80515271Y-109414557D01*
X80411810Y-109413862D01*
X80302169Y-109416642D01*
X80191237Y-109422817D01*
X80083903Y-109432304D01*
X80040418Y-109437339D01*
X79833583Y-109472914D01*
X79637646Y-109526487D01*
X79452789Y-109597969D01*
X79279197Y-109687272D01*
X79117051Y-109794307D01*
X78966536Y-109918985D01*
X78889036Y-109994777D01*
X78773335Y-110126160D01*
X78675292Y-110263144D01*
X78593599Y-110408297D01*
X78526950Y-110564187D01*
X78474038Y-110733379D01*
X78442194Y-110872509D01*
X78433477Y-110917962D01*
X78426773Y-110957508D01*
X78421826Y-110994989D01*
X78418386Y-111034244D01*
X78416198Y-111079114D01*
X78415009Y-111133438D01*
X78414566Y-111201059D01*
X78414617Y-111285814D01*
X78414628Y-111290725D01*
X78416296Y-111421591D01*
X78421093Y-111535219D01*
X78429705Y-111635403D01*
X78442816Y-111725939D01*
X78461110Y-111810620D01*
X78485271Y-111893244D01*
X78515984Y-111977604D01*
X78553933Y-112067496D01*
X78555220Y-112070383D01*
X78615419Y-112193713D01*
X78679310Y-112300061D01*
X78750162Y-112393615D01*
X78831246Y-112478565D01*
X78925835Y-112559100D01*
X78953001Y-112579801D01*
X79074366Y-112661134D01*
X79194793Y-112722599D01*
X79316881Y-112765206D01*
X79443226Y-112789965D01*
X79508858Y-112795970D01*
X79555943Y-112798442D01*
X79586807Y-112798627D01*
X79606352Y-112795766D01*
X79619477Y-112789099D01*
X79631083Y-112777865D01*
X79631976Y-112776877D01*
X79643895Y-112759022D01*
X79662443Y-112725666D01*
X79685623Y-112680647D01*
X79711439Y-112627804D01*
X79729546Y-112589222D01*
X79767541Y-112508442D01*
X79799633Y-112444236D01*
X79827716Y-112393494D01*
X79853685Y-112353101D01*
X79879434Y-112319945D01*
X79906856Y-112290914D01*
X79916833Y-112281490D01*
X79959941Y-112250461D01*
X80002496Y-112237780D01*
X80044828Y-112243788D01*
X80087261Y-112268825D01*
X80130125Y-112313229D01*
X80173744Y-112377342D01*
X80218448Y-112461504D01*
X80264562Y-112566054D01*
X80312413Y-112691332D01*
X80313229Y-112693601D01*
X80352332Y-112809382D01*
X80387601Y-112927371D01*
X80418654Y-113045252D01*
X80445108Y-113160713D01*
X80466581Y-113271439D01*
X80482691Y-113375116D01*
X80493055Y-113469429D01*
X80497292Y-113552066D01*
X80495018Y-113620712D01*
X80485852Y-113673052D01*
X80478300Y-113692925D01*
X80460082Y-113722046D01*
X80436054Y-113744051D01*
X80403266Y-113759890D01*
X80358770Y-113770514D01*
X80299618Y-113776873D01*
X80222861Y-113779919D01*
X80207649Y-113780179D01*
X80143859Y-113780329D01*
X80079260Y-113779140D01*
X80020831Y-113776822D01*
X79975551Y-113773586D01*
X79970372Y-113773040D01*
X79825422Y-113749765D01*
X79671736Y-113712289D01*
X79514359Y-113662488D01*
X79358337Y-113602239D01*
X79208712Y-113533420D01*
X79070530Y-113457906D01*
X78995352Y-113410260D01*
X78888764Y-113331516D01*
X78777891Y-113236774D01*
X78666267Y-113129717D01*
X78557428Y-113014027D01*
X78454906Y-112893387D01*
X78362237Y-112771478D01*
X78312599Y-112698895D01*
X78271336Y-112630667D01*
X78226793Y-112548409D01*
X78181936Y-112458325D01*
X78139735Y-112366617D01*
X78103156Y-112279490D01*
X78075168Y-112203145D01*
X78074679Y-112201658D01*
X78020485Y-112002723D01*
X77985869Y-111798072D01*
X77970595Y-111589464D01*
X77974426Y-111378654D01*
X77997127Y-111167400D01*
X78038463Y-110957458D01*
X78098197Y-110750587D01*
X78176093Y-110548541D01*
X78271916Y-110353079D01*
X78338109Y-110239380D01*
X78415036Y-110125967D01*
X78506192Y-110009631D01*
X78606502Y-109896148D01*
X78710888Y-109791293D01*
X78804773Y-109708542D01*
X78978442Y-109579906D01*
X79162979Y-109468476D01*
X79356681Y-109374678D01*
X79557845Y-109298937D01*
X79764767Y-109241680D01*
X79975744Y-109203331D01*
X80189074Y-109184317D01*
X80403052Y-109185062D01*
X80403052Y-109185062D01*
G37*
X80403052Y-109185062D02*
X80615976Y-109205992D01*
X80733789Y-109226621D01*
X80931369Y-109276710D01*
X81126843Y-109345484D01*
X81316537Y-109431225D01*
X81496781Y-109532216D01*
X81663902Y-109646738D01*
X81711699Y-109684097D01*
X81822677Y-109781024D01*
X81935082Y-109892999D01*
X82044201Y-110014806D01*
X82145319Y-110141227D01*
X82221068Y-110247832D01*
X82264665Y-110318540D01*
X82308830Y-110399798D01*
X82351853Y-110487566D01*
X82392024Y-110577802D01*
X82427633Y-110666466D01*
X82456971Y-110749516D01*
X82478327Y-110822912D01*
X82489992Y-110882612D01*
X82490121Y-110883689D01*
X82491124Y-110931766D01*
X82484898Y-110984387D01*
X82472958Y-111034884D01*
X82456821Y-111076588D01*
X82440932Y-111100146D01*
X82428218Y-111110310D01*
X82411623Y-111116369D01*
X82386150Y-111119114D01*
X82346799Y-111119340D01*
X82323149Y-111118828D01*
X82287282Y-111117630D01*
X82253966Y-111115662D01*
X82220814Y-111112427D01*
X82185441Y-111107428D01*
X82145463Y-111100169D01*
X82098493Y-111090152D01*
X82042146Y-111076883D01*
X81974038Y-111059863D01*
X81891782Y-111038596D01*
X81792993Y-111012587D01*
X81720545Y-110993369D01*
X81579395Y-110956088D01*
X81457134Y-110924363D01*
X81352289Y-110897939D01*
X81263386Y-110876566D01*
X81188951Y-110859988D01*
X81127511Y-110847954D01*
X81077591Y-110840211D01*
X81037718Y-110836505D01*
X81006419Y-110836584D01*
X80982218Y-110840194D01*
X80963643Y-110847084D01*
X80949219Y-110856999D01*
X80945635Y-110860372D01*
X80933113Y-110876071D01*
X80926108Y-110895770D01*
X80923221Y-110925614D01*
X80922931Y-110960152D01*
X80924134Y-110995149D01*
X80927932Y-111027567D01*
X80935505Y-111061577D01*
X80948034Y-111101348D01*
X80966701Y-111151051D01*
X80992686Y-111214857D01*
X81000107Y-111232647D01*
X81042518Y-111324294D01*
X81096995Y-111426654D01*
X81160843Y-111535261D01*
X81231367Y-111645645D01*
X81305870Y-111753339D01*
X81351370Y-111814818D01*
X81401869Y-111878148D01*
X81463291Y-111950215D01*
X81533031Y-112028347D01*
X81608482Y-112109871D01*
X81687036Y-112192115D01*
X81766090Y-112272407D01*
X81843034Y-112348073D01*
X81915265Y-112416440D01*
X81980174Y-112474837D01*
X82035156Y-112520590D01*
X82052560Y-112533852D01*
X82094553Y-112566352D01*
X82131208Y-112597578D01*
X82158417Y-112623847D01*
X82171672Y-112640655D01*
X82186182Y-112689872D01*
X82182291Y-112746228D01*
X82159840Y-112810028D01*
X82118672Y-112881575D01*
X82058628Y-112961177D01*
X81979551Y-113049137D01*
X81938610Y-113090642D01*
X81863004Y-113156005D01*
X81788605Y-113201528D01*
X81716222Y-113226761D01*
X81685273Y-113231317D01*
X81651179Y-113231926D01*
X81619205Y-113226911D01*
X81587976Y-113214863D01*
X81556116Y-113194375D01*
X81522250Y-113164039D01*
X81485002Y-113122449D01*
X81442997Y-113068196D01*
X81394858Y-112999873D01*
X81339211Y-112916074D01*
X81274679Y-112815389D01*
X81267224Y-112803609D01*
X81159362Y-112629603D01*
X81063474Y-112467263D01*
X80977387Y-112312499D01*
X80898930Y-112161220D01*
X80825929Y-112009335D01*
X80756214Y-111852754D01*
X80732170Y-111796044D01*
X80684277Y-111678938D01*
X80644250Y-111574269D01*
X80609969Y-111475799D01*
X80579319Y-111377291D01*
X80550181Y-111272506D01*
X80536488Y-111219637D01*
X80505350Y-111084893D01*
X80485016Y-110968290D01*
X80475485Y-110869758D01*
X80476759Y-110789226D01*
X80488836Y-110726624D01*
X80511718Y-110681881D01*
X80538626Y-110658421D01*
X80559281Y-110652199D01*
X80596669Y-110648082D01*
X80652319Y-110645960D01*
X80715861Y-110645646D01*
X80771962Y-110646704D01*
X80827491Y-110649567D01*
X80884612Y-110654634D01*
X80945491Y-110662301D01*
X81012294Y-110672968D01*
X81087184Y-110687033D01*
X81172328Y-110704892D01*
X81269890Y-110726945D01*
X81382036Y-110753590D01*
X81510931Y-110785223D01*
X81610525Y-110810107D01*
X81717307Y-110836831D01*
X81805765Y-110858687D01*
X81878073Y-110876123D01*
X81936402Y-110889588D01*
X81982927Y-110899531D01*
X82019820Y-110906402D01*
X82049255Y-110910648D01*
X82073404Y-110912719D01*
X82094441Y-110913064D01*
X82106776Y-110912613D01*
X82156460Y-110906797D01*
X82189429Y-110893205D01*
X82209753Y-110868107D01*
X82221502Y-110827772D01*
X82224999Y-110804277D01*
X82226557Y-110708109D01*
X82208055Y-110605446D01*
X82169548Y-110496421D01*
X82111085Y-110381172D01*
X82032719Y-110259832D01*
X81999882Y-110215000D01*
X81879341Y-110065855D01*
X81757034Y-109936087D01*
X81631126Y-109823901D01*
X81507917Y-109732915D01*
X81369609Y-109647572D01*
X81230369Y-109577130D01*
X81085996Y-109520027D01*
X80932291Y-109474704D01*
X80765054Y-109439599D01*
X80684098Y-109426695D01*
X80607663Y-109418808D01*
X80515271Y-109414557D01*
X80411810Y-109413862D01*
X80302169Y-109416642D01*
X80191237Y-109422817D01*
X80083903Y-109432304D01*
X80040418Y-109437339D01*
X79833583Y-109472914D01*
X79637646Y-109526487D01*
X79452789Y-109597969D01*
X79279197Y-109687272D01*
X79117051Y-109794307D01*
X78966536Y-109918985D01*
X78889036Y-109994777D01*
X78773335Y-110126160D01*
X78675292Y-110263144D01*
X78593599Y-110408297D01*
X78526950Y-110564187D01*
X78474038Y-110733379D01*
X78442194Y-110872509D01*
X78433477Y-110917962D01*
X78426773Y-110957508D01*
X78421826Y-110994989D01*
X78418386Y-111034244D01*
X78416198Y-111079114D01*
X78415009Y-111133438D01*
X78414566Y-111201059D01*
X78414617Y-111285814D01*
X78414628Y-111290725D01*
X78416296Y-111421591D01*
X78421093Y-111535219D01*
X78429705Y-111635403D01*
X78442816Y-111725939D01*
X78461110Y-111810620D01*
X78485271Y-111893244D01*
X78515984Y-111977604D01*
X78553933Y-112067496D01*
X78555220Y-112070383D01*
X78615419Y-112193713D01*
X78679310Y-112300061D01*
X78750162Y-112393615D01*
X78831246Y-112478565D01*
X78925835Y-112559100D01*
X78953001Y-112579801D01*
X79074366Y-112661134D01*
X79194793Y-112722599D01*
X79316881Y-112765206D01*
X79443226Y-112789965D01*
X79508858Y-112795970D01*
X79555943Y-112798442D01*
X79586807Y-112798627D01*
X79606352Y-112795766D01*
X79619477Y-112789099D01*
X79631083Y-112777865D01*
X79631976Y-112776877D01*
X79643895Y-112759022D01*
X79662443Y-112725666D01*
X79685623Y-112680647D01*
X79711439Y-112627804D01*
X79729546Y-112589222D01*
X79767541Y-112508442D01*
X79799633Y-112444236D01*
X79827716Y-112393494D01*
X79853685Y-112353101D01*
X79879434Y-112319945D01*
X79906856Y-112290914D01*
X79916833Y-112281490D01*
X79959941Y-112250461D01*
X80002496Y-112237780D01*
X80044828Y-112243788D01*
X80087261Y-112268825D01*
X80130125Y-112313229D01*
X80173744Y-112377342D01*
X80218448Y-112461504D01*
X80264562Y-112566054D01*
X80312413Y-112691332D01*
X80313229Y-112693601D01*
X80352332Y-112809382D01*
X80387601Y-112927371D01*
X80418654Y-113045252D01*
X80445108Y-113160713D01*
X80466581Y-113271439D01*
X80482691Y-113375116D01*
X80493055Y-113469429D01*
X80497292Y-113552066D01*
X80495018Y-113620712D01*
X80485852Y-113673052D01*
X80478300Y-113692925D01*
X80460082Y-113722046D01*
X80436054Y-113744051D01*
X80403266Y-113759890D01*
X80358770Y-113770514D01*
X80299618Y-113776873D01*
X80222861Y-113779919D01*
X80207649Y-113780179D01*
X80143859Y-113780329D01*
X80079260Y-113779140D01*
X80020831Y-113776822D01*
X79975551Y-113773586D01*
X79970372Y-113773040D01*
X79825422Y-113749765D01*
X79671736Y-113712289D01*
X79514359Y-113662488D01*
X79358337Y-113602239D01*
X79208712Y-113533420D01*
X79070530Y-113457906D01*
X78995352Y-113410260D01*
X78888764Y-113331516D01*
X78777891Y-113236774D01*
X78666267Y-113129717D01*
X78557428Y-113014027D01*
X78454906Y-112893387D01*
X78362237Y-112771478D01*
X78312599Y-112698895D01*
X78271336Y-112630667D01*
X78226793Y-112548409D01*
X78181936Y-112458325D01*
X78139735Y-112366617D01*
X78103156Y-112279490D01*
X78075168Y-112203145D01*
X78074679Y-112201658D01*
X78020485Y-112002723D01*
X77985869Y-111798072D01*
X77970595Y-111589464D01*
X77974426Y-111378654D01*
X77997127Y-111167400D01*
X78038463Y-110957458D01*
X78098197Y-110750587D01*
X78176093Y-110548541D01*
X78271916Y-110353079D01*
X78338109Y-110239380D01*
X78415036Y-110125967D01*
X78506192Y-110009631D01*
X78606502Y-109896148D01*
X78710888Y-109791293D01*
X78804773Y-109708542D01*
X78978442Y-109579906D01*
X79162979Y-109468476D01*
X79356681Y-109374678D01*
X79557845Y-109298937D01*
X79764767Y-109241680D01*
X79975744Y-109203331D01*
X80189074Y-109184317D01*
X80403052Y-109185062D01*
G36*
X68785765Y-52753981D02*
G01*
X68842334Y-52763983D01*
X68890361Y-52783078D01*
X68935847Y-52813244D01*
X68957317Y-52831162D01*
X69011695Y-52891426D01*
X69049181Y-52959607D01*
X69070255Y-53032692D01*
X69075397Y-53107670D01*
X69065087Y-53181528D01*
X69039806Y-53251254D01*
X69000035Y-53313836D01*
X68946254Y-53366261D01*
X68878943Y-53405519D01*
X68864802Y-53411189D01*
X68813908Y-53424352D01*
X68751621Y-53431933D01*
X68686577Y-53433568D01*
X68627414Y-53428894D01*
X68596754Y-53422462D01*
X68540002Y-53397147D01*
X68484428Y-53356833D01*
X68435208Y-53306615D01*
X68397516Y-53251586D01*
X68379435Y-53208558D01*
X68368796Y-53148098D01*
X68367221Y-53079176D01*
X68374474Y-53012078D01*
X68384884Y-52971094D01*
X68412620Y-52915227D01*
X68455105Y-52859869D01*
X68506725Y-52811348D01*
X68554697Y-52779622D01*
X68582420Y-52766188D01*
X68607967Y-52757751D01*
X68637673Y-52753182D01*
X68677873Y-52751350D01*
X68714652Y-52751092D01*
X68785765Y-52753981D01*
X68785765Y-52753981D01*
G37*
X68785765Y-52753981D02*
X68842334Y-52763983D01*
X68890361Y-52783078D01*
X68935847Y-52813244D01*
X68957317Y-52831162D01*
X69011695Y-52891426D01*
X69049181Y-52959607D01*
X69070255Y-53032692D01*
X69075397Y-53107670D01*
X69065087Y-53181528D01*
X69039806Y-53251254D01*
X69000035Y-53313836D01*
X68946254Y-53366261D01*
X68878943Y-53405519D01*
X68864802Y-53411189D01*
X68813908Y-53424352D01*
X68751621Y-53431933D01*
X68686577Y-53433568D01*
X68627414Y-53428894D01*
X68596754Y-53422462D01*
X68540002Y-53397147D01*
X68484428Y-53356833D01*
X68435208Y-53306615D01*
X68397516Y-53251586D01*
X68379435Y-53208558D01*
X68368796Y-53148098D01*
X68367221Y-53079176D01*
X68374474Y-53012078D01*
X68384884Y-52971094D01*
X68412620Y-52915227D01*
X68455105Y-52859869D01*
X68506725Y-52811348D01*
X68554697Y-52779622D01*
X68582420Y-52766188D01*
X68607967Y-52757751D01*
X68637673Y-52753182D01*
X68677873Y-52751350D01*
X68714652Y-52751092D01*
X68785765Y-52753981D01*
G36*
X94522056Y-53649785D02*
G01*
X94558833Y-53652297D01*
X94582325Y-53654906D01*
X94588365Y-53656579D01*
X94588920Y-53668089D01*
X94588507Y-53697904D01*
X94587219Y-53743182D01*
X94585145Y-53801080D01*
X94582380Y-53868755D01*
X94579317Y-53936911D01*
X94575781Y-54013021D01*
X94572546Y-54083759D01*
X94569756Y-54145869D01*
X94567556Y-54196092D01*
X94566090Y-54231172D01*
X94565532Y-54246602D01*
X94564631Y-54281013D01*
X94448858Y-54281013D01*
X94318123Y-54288887D01*
X94201543Y-54312496D01*
X94099149Y-54351813D01*
X94010969Y-54406816D01*
X93937032Y-54477479D01*
X93877367Y-54563778D01*
X93832003Y-54665689D01*
X93800968Y-54783187D01*
X93792512Y-54834988D01*
X93789715Y-54866083D01*
X93787168Y-54915036D01*
X93784958Y-54978532D01*
X93783172Y-55053254D01*
X93781898Y-55135888D01*
X93781224Y-55223115D01*
X93781138Y-55266439D01*
X93781138Y-55615068D01*
X93167049Y-55615068D01*
X93167049Y-53666923D01*
X93781138Y-53666923D01*
X93781138Y-54039328D01*
X93843802Y-53954813D01*
X93928725Y-53856500D01*
X94023720Y-53776709D01*
X94128203Y-53715724D01*
X94241587Y-53673828D01*
X94363285Y-53651308D01*
X94476644Y-53647736D01*
X94522056Y-53649785D01*
X94522056Y-53649785D01*
G37*
X94522056Y-53649785D02*
X94558833Y-53652297D01*
X94582325Y-53654906D01*
X94588365Y-53656579D01*
X94588920Y-53668089D01*
X94588507Y-53697904D01*
X94587219Y-53743182D01*
X94585145Y-53801080D01*
X94582380Y-53868755D01*
X94579317Y-53936911D01*
X94575781Y-54013021D01*
X94572546Y-54083759D01*
X94569756Y-54145869D01*
X94567556Y-54196092D01*
X94566090Y-54231172D01*
X94565532Y-54246602D01*
X94564631Y-54281013D01*
X94448858Y-54281013D01*
X94318123Y-54288887D01*
X94201543Y-54312496D01*
X94099149Y-54351813D01*
X94010969Y-54406816D01*
X93937032Y-54477479D01*
X93877367Y-54563778D01*
X93832003Y-54665689D01*
X93800968Y-54783187D01*
X93792512Y-54834988D01*
X93789715Y-54866083D01*
X93787168Y-54915036D01*
X93784958Y-54978532D01*
X93783172Y-55053254D01*
X93781898Y-55135888D01*
X93781224Y-55223115D01*
X93781138Y-55266439D01*
X93781138Y-55615068D01*
X93167049Y-55615068D01*
X93167049Y-53666923D01*
X93781138Y-53666923D01*
X93781138Y-54039328D01*
X93843802Y-53954813D01*
X93928725Y-53856500D01*
X94023720Y-53776709D01*
X94128203Y-53715724D01*
X94241587Y-53673828D01*
X94363285Y-53651308D01*
X94476644Y-53647736D01*
X94522056Y-53649785D01*
G36*
X77907462Y-53023757D02*
G01*
X78052733Y-53024483D01*
X78178444Y-53025173D01*
X78286212Y-53025876D01*
X78377653Y-53026645D01*
X78454382Y-53027532D01*
X78518015Y-53028586D01*
X78570168Y-53029861D01*
X78612457Y-53031408D01*
X78646498Y-53033277D01*
X78673907Y-53035520D01*
X78696300Y-53038190D01*
X78715292Y-53041337D01*
X78732500Y-53045013D01*
X78749539Y-53049268D01*
X78755200Y-53050756D01*
X78887092Y-53095084D01*
X79006624Y-53154742D01*
X79112161Y-53228790D01*
X79186262Y-53298671D01*
X79249080Y-53374187D01*
X79298496Y-53452512D01*
X79339055Y-53541294D01*
X79353122Y-53579456D01*
X79366094Y-53618394D01*
X79375299Y-53652262D01*
X79381540Y-53686529D01*
X79385620Y-53726665D01*
X79388344Y-53778140D01*
X79390082Y-53831033D01*
X79391524Y-53898314D01*
X79391167Y-53950197D01*
X79388609Y-53992415D01*
X79383447Y-54030698D01*
X79375276Y-54070780D01*
X79372331Y-54083370D01*
X79332407Y-54207974D01*
X79275210Y-54320540D01*
X79201250Y-54420518D01*
X79111042Y-54507363D01*
X79005095Y-54580527D01*
X78883923Y-54639464D01*
X78834871Y-54657713D01*
X78791879Y-54672822D01*
X78756860Y-54685749D01*
X78734361Y-54694784D01*
X78728571Y-54697787D01*
X78734387Y-54706476D01*
X78753046Y-54729561D01*
X78783319Y-54765615D01*
X78823975Y-54813212D01*
X78873784Y-54870925D01*
X78931517Y-54937327D01*
X78995943Y-55010992D01*
X79065833Y-55090494D01*
X79121315Y-55153339D01*
X79194652Y-55236361D01*
X79263616Y-55314631D01*
X79326960Y-55386716D01*
X79383431Y-55451185D01*
X79431783Y-55506606D01*
X79470764Y-55551548D01*
X79499125Y-55584580D01*
X79515617Y-55604270D01*
X79519446Y-55609418D01*
X79509251Y-55610697D01*
X79480238Y-55611732D01*
X79434760Y-55612501D01*
X79375175Y-55612987D01*
X79303836Y-55613170D01*
X79223100Y-55613030D01*
X79136022Y-55612554D01*
X78752599Y-55609775D01*
X78366374Y-55170383D01*
X77980150Y-54730992D01*
X77881603Y-54727961D01*
X77783056Y-54724931D01*
X77783056Y-55615068D01*
X77147791Y-55615068D01*
X77147791Y-54017883D01*
X77784816Y-54017883D01*
X77785018Y-54080104D01*
X77785566Y-54130078D01*
X77786439Y-54164988D01*
X77787617Y-54182021D01*
X77787848Y-54182940D01*
X77799470Y-54186685D01*
X77829205Y-54189851D01*
X77874000Y-54192430D01*
X77930801Y-54194410D01*
X77996554Y-54195784D01*
X78068204Y-54196540D01*
X78142697Y-54196670D01*
X78216980Y-54196164D01*
X78287998Y-54195013D01*
X78352698Y-54193206D01*
X78408024Y-54190734D01*
X78450924Y-54187588D01*
X78471259Y-54185087D01*
X78560716Y-54162343D01*
X78635580Y-54125777D01*
X78694915Y-54076382D01*
X78737788Y-54015146D01*
X78763263Y-53943060D01*
X78770531Y-53867950D01*
X78760049Y-53791235D01*
X78730998Y-53723269D01*
X78684693Y-53665516D01*
X78622448Y-53619443D01*
X78545579Y-53586514D01*
X78509524Y-53577017D01*
X78483146Y-53572072D01*
X78452558Y-53568267D01*
X78415064Y-53565509D01*
X78367971Y-53563708D01*
X78308585Y-53562769D01*
X78234213Y-53562602D01*
X78142160Y-53563113D01*
X78111276Y-53563380D01*
X77788349Y-53566340D01*
X77785533Y-53867955D01*
X77784981Y-53946228D01*
X77784816Y-54017883D01*
X77147791Y-54017883D01*
X77147791Y-53020034D01*
X77907462Y-53023757D01*
X77907462Y-53023757D01*
G37*
X77907462Y-53023757D02*
X78052733Y-53024483D01*
X78178444Y-53025173D01*
X78286212Y-53025876D01*
X78377653Y-53026645D01*
X78454382Y-53027532D01*
X78518015Y-53028586D01*
X78570168Y-53029861D01*
X78612457Y-53031408D01*
X78646498Y-53033277D01*
X78673907Y-53035520D01*
X78696300Y-53038190D01*
X78715292Y-53041337D01*
X78732500Y-53045013D01*
X78749539Y-53049268D01*
X78755200Y-53050756D01*
X78887092Y-53095084D01*
X79006624Y-53154742D01*
X79112161Y-53228790D01*
X79186262Y-53298671D01*
X79249080Y-53374187D01*
X79298496Y-53452512D01*
X79339055Y-53541294D01*
X79353122Y-53579456D01*
X79366094Y-53618394D01*
X79375299Y-53652262D01*
X79381540Y-53686529D01*
X79385620Y-53726665D01*
X79388344Y-53778140D01*
X79390082Y-53831033D01*
X79391524Y-53898314D01*
X79391167Y-53950197D01*
X79388609Y-53992415D01*
X79383447Y-54030698D01*
X79375276Y-54070780D01*
X79372331Y-54083370D01*
X79332407Y-54207974D01*
X79275210Y-54320540D01*
X79201250Y-54420518D01*
X79111042Y-54507363D01*
X79005095Y-54580527D01*
X78883923Y-54639464D01*
X78834871Y-54657713D01*
X78791879Y-54672822D01*
X78756860Y-54685749D01*
X78734361Y-54694784D01*
X78728571Y-54697787D01*
X78734387Y-54706476D01*
X78753046Y-54729561D01*
X78783319Y-54765615D01*
X78823975Y-54813212D01*
X78873784Y-54870925D01*
X78931517Y-54937327D01*
X78995943Y-55010992D01*
X79065833Y-55090494D01*
X79121315Y-55153339D01*
X79194652Y-55236361D01*
X79263616Y-55314631D01*
X79326960Y-55386716D01*
X79383431Y-55451185D01*
X79431783Y-55506606D01*
X79470764Y-55551548D01*
X79499125Y-55584580D01*
X79515617Y-55604270D01*
X79519446Y-55609418D01*
X79509251Y-55610697D01*
X79480238Y-55611732D01*
X79434760Y-55612501D01*
X79375175Y-55612987D01*
X79303836Y-55613170D01*
X79223100Y-55613030D01*
X79136022Y-55612554D01*
X78752599Y-55609775D01*
X78366374Y-55170383D01*
X77980150Y-54730992D01*
X77881603Y-54727961D01*
X77783056Y-54724931D01*
X77783056Y-55615068D01*
X77147791Y-55615068D01*
X77147791Y-54017883D01*
X77784816Y-54017883D01*
X77785018Y-54080104D01*
X77785566Y-54130078D01*
X77786439Y-54164988D01*
X77787617Y-54182021D01*
X77787848Y-54182940D01*
X77799470Y-54186685D01*
X77829205Y-54189851D01*
X77874000Y-54192430D01*
X77930801Y-54194410D01*
X77996554Y-54195784D01*
X78068204Y-54196540D01*
X78142697Y-54196670D01*
X78216980Y-54196164D01*
X78287998Y-54195013D01*
X78352698Y-54193206D01*
X78408024Y-54190734D01*
X78450924Y-54187588D01*
X78471259Y-54185087D01*
X78560716Y-54162343D01*
X78635580Y-54125777D01*
X78694915Y-54076382D01*
X78737788Y-54015146D01*
X78763263Y-53943060D01*
X78770531Y-53867950D01*
X78760049Y-53791235D01*
X78730998Y-53723269D01*
X78684693Y-53665516D01*
X78622448Y-53619443D01*
X78545579Y-53586514D01*
X78509524Y-53577017D01*
X78483146Y-53572072D01*
X78452558Y-53568267D01*
X78415064Y-53565509D01*
X78367971Y-53563708D01*
X78308585Y-53562769D01*
X78234213Y-53562602D01*
X78142160Y-53563113D01*
X78111276Y-53563380D01*
X77788349Y-53566340D01*
X77785533Y-53867955D01*
X77784981Y-53946228D01*
X77784816Y-54017883D01*
X77147791Y-54017883D01*
X77147791Y-53020034D01*
X77907462Y-53023757D01*
G36*
X70128116Y-55615068D02*
G01*
X69514027Y-55615068D01*
X69514027Y-52830492D01*
X70128116Y-52830492D01*
X70128116Y-55615068D01*
X70128116Y-55615068D01*
G37*
X70128116Y-55615068D02*
X69514027Y-55615068D01*
X69514027Y-52830492D01*
X70128116Y-52830492D01*
X70128116Y-55615068D01*
G36*
X69026991Y-55615068D02*
G01*
X68412901Y-55615068D01*
X68412901Y-53666923D01*
X69026991Y-53666923D01*
X69026991Y-55615068D01*
X69026991Y-55615068D01*
G37*
X69026991Y-55615068D02*
X68412901Y-55615068D01*
X68412901Y-53666923D01*
X69026991Y-53666923D01*
X69026991Y-55615068D01*
G36*
X66740038Y-55064506D02*
G01*
X68021155Y-55064506D01*
X68021155Y-55615068D01*
X66104773Y-55615068D01*
X66104773Y-53021071D01*
X66740038Y-53021071D01*
X66740038Y-55064506D01*
X66740038Y-55064506D01*
G37*
X66740038Y-55064506D02*
X68021155Y-55064506D01*
X68021155Y-55615068D01*
X66104773Y-55615068D01*
X66104773Y-53021071D01*
X66740038Y-53021071D01*
X66740038Y-55064506D01*
G36*
X91941112Y-53621967D02*
G01*
X92030661Y-53631703D01*
X92091090Y-53643583D01*
X92229087Y-53688566D01*
X92355858Y-53751102D01*
X92470391Y-53830417D01*
X92571673Y-53925739D01*
X92658693Y-54036292D01*
X92705711Y-54113367D01*
X92750543Y-54205346D01*
X92784897Y-54300670D01*
X92809812Y-54403595D01*
X92826327Y-54518377D01*
X92835243Y-54643643D01*
X92842044Y-54799812D01*
X91409080Y-54799812D01*
X91415656Y-54828928D01*
X91428786Y-54869639D01*
X91450421Y-54919486D01*
X91476607Y-54970484D01*
X91503391Y-55014645D01*
X91516372Y-55032417D01*
X91578013Y-55092736D01*
X91652413Y-55138163D01*
X91736423Y-55167786D01*
X91826896Y-55180692D01*
X91920685Y-55175968D01*
X91974026Y-55165140D01*
X92055327Y-55136853D01*
X92124431Y-55096157D01*
X92186127Y-55039756D01*
X92224997Y-54992487D01*
X92251209Y-54957525D01*
X92523306Y-55012641D01*
X92795404Y-55067756D01*
X92779586Y-55105835D01*
X92735193Y-55194152D01*
X92676481Y-55283433D01*
X92608335Y-55367323D01*
X92535639Y-55439466D01*
X92502102Y-55466892D01*
X92387917Y-55541385D01*
X92263463Y-55598922D01*
X92127382Y-55640000D01*
X91978317Y-55665118D01*
X91954752Y-55667540D01*
X91899332Y-55672642D01*
X91858111Y-55675654D01*
X91824215Y-55676562D01*
X91790770Y-55675352D01*
X91750902Y-55672012D01*
X91702533Y-55667032D01*
X91558613Y-55641679D01*
X91423298Y-55597557D01*
X91297814Y-55535747D01*
X91183382Y-55457327D01*
X91081229Y-55363379D01*
X90992577Y-55254980D01*
X90918652Y-55133210D01*
X90860676Y-54999149D01*
X90829998Y-54897614D01*
X90819879Y-54840659D01*
X90813406Y-54768546D01*
X90810518Y-54686969D01*
X90811160Y-54601620D01*
X90815273Y-54518191D01*
X90822800Y-54442376D01*
X90828552Y-54409333D01*
X91425453Y-54409333D01*
X91426284Y-54420141D01*
X91437786Y-54422193D01*
X91468102Y-54424084D01*
X91514872Y-54425759D01*
X91575736Y-54427165D01*
X91648333Y-54428250D01*
X91730302Y-54428959D01*
X91819283Y-54429239D01*
X91828324Y-54429241D01*
X91934823Y-54429096D01*
X92021781Y-54428623D01*
X92090832Y-54427769D01*
X92143608Y-54426480D01*
X92181743Y-54424699D01*
X92206870Y-54422373D01*
X92220621Y-54419448D01*
X92224636Y-54416006D01*
X92218213Y-54389414D01*
X92201453Y-54352400D01*
X92177666Y-54310733D01*
X92150160Y-54270184D01*
X92122244Y-54236522D01*
X92120915Y-54235142D01*
X92051999Y-54178465D01*
X91974665Y-54139630D01*
X91891856Y-54118610D01*
X91806513Y-54115375D01*
X91721579Y-54129897D01*
X91639996Y-54162149D01*
X91564704Y-54212101D01*
X91533196Y-54240811D01*
X91504187Y-54273534D01*
X91476240Y-54311224D01*
X91452023Y-54349404D01*
X91434205Y-54383599D01*
X91425453Y-54409333D01*
X90828552Y-54409333D01*
X90833683Y-54379866D01*
X90835316Y-54373112D01*
X90880563Y-54235218D01*
X90943600Y-54107884D01*
X91023233Y-53992284D01*
X91118271Y-53889594D01*
X91227521Y-53800989D01*
X91349788Y-53727644D01*
X91483882Y-53670735D01*
X91575983Y-53643325D01*
X91654312Y-53628933D01*
X91745941Y-53620579D01*
X91843873Y-53618258D01*
X91941112Y-53621967D01*
X91941112Y-53621967D01*
G37*
X91941112Y-53621967D02*
X92030661Y-53631703D01*
X92091090Y-53643583D01*
X92229087Y-53688566D01*
X92355858Y-53751102D01*
X92470391Y-53830417D01*
X92571673Y-53925739D01*
X92658693Y-54036292D01*
X92705711Y-54113367D01*
X92750543Y-54205346D01*
X92784897Y-54300670D01*
X92809812Y-54403595D01*
X92826327Y-54518377D01*
X92835243Y-54643643D01*
X92842044Y-54799812D01*
X91409080Y-54799812D01*
X91415656Y-54828928D01*
X91428786Y-54869639D01*
X91450421Y-54919486D01*
X91476607Y-54970484D01*
X91503391Y-55014645D01*
X91516372Y-55032417D01*
X91578013Y-55092736D01*
X91652413Y-55138163D01*
X91736423Y-55167786D01*
X91826896Y-55180692D01*
X91920685Y-55175968D01*
X91974026Y-55165140D01*
X92055327Y-55136853D01*
X92124431Y-55096157D01*
X92186127Y-55039756D01*
X92224997Y-54992487D01*
X92251209Y-54957525D01*
X92523306Y-55012641D01*
X92795404Y-55067756D01*
X92779586Y-55105835D01*
X92735193Y-55194152D01*
X92676481Y-55283433D01*
X92608335Y-55367323D01*
X92535639Y-55439466D01*
X92502102Y-55466892D01*
X92387917Y-55541385D01*
X92263463Y-55598922D01*
X92127382Y-55640000D01*
X91978317Y-55665118D01*
X91954752Y-55667540D01*
X91899332Y-55672642D01*
X91858111Y-55675654D01*
X91824215Y-55676562D01*
X91790770Y-55675352D01*
X91750902Y-55672012D01*
X91702533Y-55667032D01*
X91558613Y-55641679D01*
X91423298Y-55597557D01*
X91297814Y-55535747D01*
X91183382Y-55457327D01*
X91081229Y-55363379D01*
X90992577Y-55254980D01*
X90918652Y-55133210D01*
X90860676Y-54999149D01*
X90829998Y-54897614D01*
X90819879Y-54840659D01*
X90813406Y-54768546D01*
X90810518Y-54686969D01*
X90811160Y-54601620D01*
X90815273Y-54518191D01*
X90822800Y-54442376D01*
X90828552Y-54409333D01*
X91425453Y-54409333D01*
X91426284Y-54420141D01*
X91437786Y-54422193D01*
X91468102Y-54424084D01*
X91514872Y-54425759D01*
X91575736Y-54427165D01*
X91648333Y-54428250D01*
X91730302Y-54428959D01*
X91819283Y-54429239D01*
X91828324Y-54429241D01*
X91934823Y-54429096D01*
X92021781Y-54428623D01*
X92090832Y-54427769D01*
X92143608Y-54426480D01*
X92181743Y-54424699D01*
X92206870Y-54422373D01*
X92220621Y-54419448D01*
X92224636Y-54416006D01*
X92218213Y-54389414D01*
X92201453Y-54352400D01*
X92177666Y-54310733D01*
X92150160Y-54270184D01*
X92122244Y-54236522D01*
X92120915Y-54235142D01*
X92051999Y-54178465D01*
X91974665Y-54139630D01*
X91891856Y-54118610D01*
X91806513Y-54115375D01*
X91721579Y-54129897D01*
X91639996Y-54162149D01*
X91564704Y-54212101D01*
X91533196Y-54240811D01*
X91504187Y-54273534D01*
X91476240Y-54311224D01*
X91452023Y-54349404D01*
X91434205Y-54383599D01*
X91425453Y-54409333D01*
X90828552Y-54409333D01*
X90833683Y-54379866D01*
X90835316Y-54373112D01*
X90880563Y-54235218D01*
X90943600Y-54107884D01*
X91023233Y-53992284D01*
X91118271Y-53889594D01*
X91227521Y-53800989D01*
X91349788Y-53727644D01*
X91483882Y-53670735D01*
X91575983Y-53643325D01*
X91654312Y-53628933D01*
X91745941Y-53620579D01*
X91843873Y-53618258D01*
X91941112Y-53621967D01*
G36*
X90001313Y-53666923D02*
G01*
X90573051Y-53666923D01*
X90573051Y-54164547D01*
X90001313Y-54164547D01*
X90001313Y-54522306D01*
X90001580Y-54632832D01*
X90002537Y-54724429D01*
X90004417Y-54799336D01*
X90007454Y-54859796D01*
X90011883Y-54908049D01*
X90017937Y-54946336D01*
X90025850Y-54976898D01*
X90035856Y-55001976D01*
X90048190Y-55023811D01*
X90054645Y-55033295D01*
X90098340Y-55076858D01*
X90156122Y-55106122D01*
X90225994Y-55120560D01*
X90305958Y-55119647D01*
X90354446Y-55112226D01*
X90403686Y-55100591D01*
X90452838Y-55086083D01*
X90491966Y-55071662D01*
X90494826Y-55070393D01*
X90548948Y-55045842D01*
X90619232Y-55285745D01*
X90639027Y-55353576D01*
X90656665Y-55414520D01*
X90671318Y-55465678D01*
X90682160Y-55504150D01*
X90688363Y-55527037D01*
X90689517Y-55532149D01*
X90680139Y-55540569D01*
X90654738Y-55553957D01*
X90617414Y-55570685D01*
X90572268Y-55589126D01*
X90523399Y-55607654D01*
X90474906Y-55624641D01*
X90430891Y-55638461D01*
X90403041Y-55645825D01*
X90304468Y-55662927D01*
X90196574Y-55671870D01*
X90089819Y-55672051D01*
X90027966Y-55667409D01*
X89899882Y-55644314D01*
X89784721Y-55605280D01*
X89683103Y-55550754D01*
X89595647Y-55481178D01*
X89522973Y-55396997D01*
X89465699Y-55298655D01*
X89444791Y-55249043D01*
X89431188Y-55210753D01*
X89419871Y-55173029D01*
X89410637Y-55133511D01*
X89403283Y-55089836D01*
X89397605Y-55039644D01*
X89393400Y-54980574D01*
X89390464Y-54910265D01*
X89388593Y-54826356D01*
X89387584Y-54726484D01*
X89387233Y-54608290D01*
X89387224Y-54581376D01*
X89387224Y-54164547D01*
X89037828Y-54164547D01*
X89037828Y-53666923D01*
X89387224Y-53666923D01*
X89387224Y-53095185D01*
X90001313Y-53095185D01*
X90001313Y-53666923D01*
X90001313Y-53666923D01*
G37*
X90001313Y-53666923D02*
X90573051Y-53666923D01*
X90573051Y-54164547D01*
X90001313Y-54164547D01*
X90001313Y-54522306D01*
X90001580Y-54632832D01*
X90002537Y-54724429D01*
X90004417Y-54799336D01*
X90007454Y-54859796D01*
X90011883Y-54908049D01*
X90017937Y-54946336D01*
X90025850Y-54976898D01*
X90035856Y-55001976D01*
X90048190Y-55023811D01*
X90054645Y-55033295D01*
X90098340Y-55076858D01*
X90156122Y-55106122D01*
X90225994Y-55120560D01*
X90305958Y-55119647D01*
X90354446Y-55112226D01*
X90403686Y-55100591D01*
X90452838Y-55086083D01*
X90491966Y-55071662D01*
X90494826Y-55070393D01*
X90548948Y-55045842D01*
X90619232Y-55285745D01*
X90639027Y-55353576D01*
X90656665Y-55414520D01*
X90671318Y-55465678D01*
X90682160Y-55504150D01*
X90688363Y-55527037D01*
X90689517Y-55532149D01*
X90680139Y-55540569D01*
X90654738Y-55553957D01*
X90617414Y-55570685D01*
X90572268Y-55589126D01*
X90523399Y-55607654D01*
X90474906Y-55624641D01*
X90430891Y-55638461D01*
X90403041Y-55645825D01*
X90304468Y-55662927D01*
X90196574Y-55671870D01*
X90089819Y-55672051D01*
X90027966Y-55667409D01*
X89899882Y-55644314D01*
X89784721Y-55605280D01*
X89683103Y-55550754D01*
X89595647Y-55481178D01*
X89522973Y-55396997D01*
X89465699Y-55298655D01*
X89444791Y-55249043D01*
X89431188Y-55210753D01*
X89419871Y-55173029D01*
X89410637Y-55133511D01*
X89403283Y-55089836D01*
X89397605Y-55039644D01*
X89393400Y-54980574D01*
X89390464Y-54910265D01*
X89388593Y-54826356D01*
X89387584Y-54726484D01*
X89387233Y-54608290D01*
X89387224Y-54581376D01*
X89387224Y-54164547D01*
X89037828Y-54164547D01*
X89037828Y-53666923D01*
X89387224Y-53666923D01*
X89387224Y-53095185D01*
X90001313Y-53095185D01*
X90001313Y-53666923D01*
G36*
X87655085Y-53616958D02*
G01*
X87761824Y-53630131D01*
X87890146Y-53662197D01*
X88008562Y-53712316D01*
X88085182Y-53757493D01*
X88121267Y-53781175D01*
X88150674Y-53800140D01*
X88168925Y-53811513D01*
X88172280Y-53813378D01*
X88176156Y-53805503D01*
X88178983Y-53781453D01*
X88180208Y-53746221D01*
X88180221Y-53741920D01*
X88180221Y-53666923D01*
X88794310Y-53666923D01*
X88794310Y-55615068D01*
X88180221Y-55615068D01*
X88180221Y-55467747D01*
X88095672Y-55524339D01*
X87996643Y-55582727D01*
X87897534Y-55624203D01*
X87798396Y-55650386D01*
X87720626Y-55662637D01*
X87636143Y-55670300D01*
X87553114Y-55672949D01*
X87479704Y-55670154D01*
X87460254Y-55668125D01*
X87321643Y-55640604D01*
X87191982Y-55594239D01*
X87072388Y-55529857D01*
X86963978Y-55448288D01*
X86867868Y-55350360D01*
X86785175Y-55236902D01*
X86722474Y-55120741D01*
X86675922Y-54997219D01*
X86644171Y-54862843D01*
X86627490Y-54722161D01*
X86626510Y-54618234D01*
X87229261Y-54618234D01*
X87233418Y-54717104D01*
X87253780Y-54813063D01*
X87290067Y-54902731D01*
X87341998Y-54982727D01*
X87373246Y-55017546D01*
X87447162Y-55076984D01*
X87531175Y-55119265D01*
X87621894Y-55143560D01*
X87715930Y-55149039D01*
X87809895Y-55134872D01*
X87829503Y-55129260D01*
X87908240Y-55098454D01*
X87974805Y-55057145D01*
X88037293Y-55000280D01*
X88039006Y-54998475D01*
X88099888Y-54919953D01*
X88143022Y-54833974D01*
X88168899Y-54743128D01*
X88178013Y-54650001D01*
X88170857Y-54557181D01*
X88147925Y-54467255D01*
X88109711Y-54382810D01*
X88056706Y-54306435D01*
X87989405Y-54240716D01*
X87908301Y-54188241D01*
X87882168Y-54175825D01*
X87793086Y-54147630D01*
X87701137Y-54138466D01*
X87609565Y-54147402D01*
X87521613Y-54173508D01*
X87440526Y-54215852D01*
X87369548Y-54273506D01*
X87316829Y-54337959D01*
X87270686Y-54425281D01*
X87241590Y-54519833D01*
X87229261Y-54618234D01*
X86626510Y-54618234D01*
X86626146Y-54579720D01*
X86640407Y-54440068D01*
X86670543Y-54307751D01*
X86673875Y-54296894D01*
X86722368Y-54168714D01*
X86784006Y-54054258D01*
X86861570Y-53948784D01*
X86909042Y-53895994D01*
X87011023Y-53804222D01*
X87124105Y-53729883D01*
X87246671Y-53673483D01*
X87377102Y-53635526D01*
X87513779Y-53616516D01*
X87655085Y-53616958D01*
X87655085Y-53616958D01*
G37*
X87655085Y-53616958D02*
X87761824Y-53630131D01*
X87890146Y-53662197D01*
X88008562Y-53712316D01*
X88085182Y-53757493D01*
X88121267Y-53781175D01*
X88150674Y-53800140D01*
X88168925Y-53811513D01*
X88172280Y-53813378D01*
X88176156Y-53805503D01*
X88178983Y-53781453D01*
X88180208Y-53746221D01*
X88180221Y-53741920D01*
X88180221Y-53666923D01*
X88794310Y-53666923D01*
X88794310Y-55615068D01*
X88180221Y-55615068D01*
X88180221Y-55467747D01*
X88095672Y-55524339D01*
X87996643Y-55582727D01*
X87897534Y-55624203D01*
X87798396Y-55650386D01*
X87720626Y-55662637D01*
X87636143Y-55670300D01*
X87553114Y-55672949D01*
X87479704Y-55670154D01*
X87460254Y-55668125D01*
X87321643Y-55640604D01*
X87191982Y-55594239D01*
X87072388Y-55529857D01*
X86963978Y-55448288D01*
X86867868Y-55350360D01*
X86785175Y-55236902D01*
X86722474Y-55120741D01*
X86675922Y-54997219D01*
X86644171Y-54862843D01*
X86627490Y-54722161D01*
X86626510Y-54618234D01*
X87229261Y-54618234D01*
X87233418Y-54717104D01*
X87253780Y-54813063D01*
X87290067Y-54902731D01*
X87341998Y-54982727D01*
X87373246Y-55017546D01*
X87447162Y-55076984D01*
X87531175Y-55119265D01*
X87621894Y-55143560D01*
X87715930Y-55149039D01*
X87809895Y-55134872D01*
X87829503Y-55129260D01*
X87908240Y-55098454D01*
X87974805Y-55057145D01*
X88037293Y-55000280D01*
X88039006Y-54998475D01*
X88099888Y-54919953D01*
X88143022Y-54833974D01*
X88168899Y-54743128D01*
X88178013Y-54650001D01*
X88170857Y-54557181D01*
X88147925Y-54467255D01*
X88109711Y-54382810D01*
X88056706Y-54306435D01*
X87989405Y-54240716D01*
X87908301Y-54188241D01*
X87882168Y-54175825D01*
X87793086Y-54147630D01*
X87701137Y-54138466D01*
X87609565Y-54147402D01*
X87521613Y-54173508D01*
X87440526Y-54215852D01*
X87369548Y-54273506D01*
X87316829Y-54337959D01*
X87270686Y-54425281D01*
X87241590Y-54519833D01*
X87229261Y-54618234D01*
X86626510Y-54618234D01*
X86626146Y-54579720D01*
X86640407Y-54440068D01*
X86670543Y-54307751D01*
X86673875Y-54296894D01*
X86722368Y-54168714D01*
X86784006Y-54054258D01*
X86861570Y-53948784D01*
X86909042Y-53895994D01*
X87011023Y-53804222D01*
X87124105Y-53729883D01*
X87246671Y-53673483D01*
X87377102Y-53635526D01*
X87513779Y-53616516D01*
X87655085Y-53616958D01*
G36*
X85510837Y-53618788D02*
G01*
X85654549Y-53638984D01*
X85788816Y-53677132D01*
X85912734Y-53732332D01*
X86025393Y-53803684D01*
X86125889Y-53890286D01*
X86213314Y-53991238D01*
X86286761Y-54105641D01*
X86345325Y-54232593D01*
X86388098Y-54371195D01*
X86414173Y-54520546D01*
X86422655Y-54674146D01*
X86422655Y-54799812D01*
X85001127Y-54799812D01*
X85007201Y-54837243D01*
X85025436Y-54899532D01*
X85058900Y-54965503D01*
X85104143Y-55028869D01*
X85125629Y-55052985D01*
X85194014Y-55112421D01*
X85268347Y-55152342D01*
X85351806Y-55174225D01*
X85395994Y-55178753D01*
X85500726Y-55176126D01*
X85594922Y-55155192D01*
X85679054Y-55115736D01*
X85753591Y-55057542D01*
X85814560Y-54986626D01*
X85836406Y-54956390D01*
X86105708Y-55011716D01*
X86178247Y-55026710D01*
X86243663Y-55040404D01*
X86299181Y-55052205D01*
X86342025Y-55061518D01*
X86369421Y-55067746D01*
X86378587Y-55070233D01*
X86375564Y-55080338D01*
X86364552Y-55105029D01*
X86347465Y-55140173D01*
X86333568Y-55167514D01*
X86262553Y-55284823D01*
X86178718Y-55385678D01*
X86080644Y-55471463D01*
X85966918Y-55543567D01*
X85930325Y-55562352D01*
X85833767Y-55604431D01*
X85737394Y-55635050D01*
X85633934Y-55656164D01*
X85538579Y-55667770D01*
X85482834Y-55672779D01*
X85441441Y-55675713D01*
X85407678Y-55676574D01*
X85374823Y-55675363D01*
X85336154Y-55672080D01*
X85295061Y-55667807D01*
X85152941Y-55642758D01*
X85017353Y-55599281D01*
X84890494Y-55538549D01*
X84774563Y-55461736D01*
X84671757Y-55370016D01*
X84613993Y-55304194D01*
X84535116Y-55188845D01*
X84473533Y-55064677D01*
X84429110Y-54933914D01*
X84401710Y-54798777D01*
X84391196Y-54661491D01*
X84397432Y-54524277D01*
X84416277Y-54413007D01*
X85014485Y-54413007D01*
X85016465Y-54417222D01*
X85023690Y-54420649D01*
X85038090Y-54423369D01*
X85061595Y-54425459D01*
X85096134Y-54427000D01*
X85143636Y-54428069D01*
X85206032Y-54428745D01*
X85285250Y-54429108D01*
X85383219Y-54429236D01*
X85411526Y-54429241D01*
X85513753Y-54429194D01*
X85596790Y-54428990D01*
X85662624Y-54428533D01*
X85713239Y-54427728D01*
X85750623Y-54426479D01*
X85776761Y-54424691D01*
X85793638Y-54422268D01*
X85803241Y-54419115D01*
X85807555Y-54415136D01*
X85808566Y-54410235D01*
X85808566Y-54410144D01*
X85802029Y-54381609D01*
X85784634Y-54343097D01*
X85759705Y-54300359D01*
X85730565Y-54259144D01*
X85703117Y-54227736D01*
X85635223Y-54174176D01*
X85558295Y-54137878D01*
X85475488Y-54118786D01*
X85389955Y-54116846D01*
X85304853Y-54132004D01*
X85223334Y-54164204D01*
X85148554Y-54213392D01*
X85121240Y-54237807D01*
X85089900Y-54272821D01*
X85060199Y-54313712D01*
X85035513Y-54354939D01*
X85019219Y-54390964D01*
X85014485Y-54413007D01*
X84416277Y-54413007D01*
X84420283Y-54389360D01*
X84459611Y-54258963D01*
X84515280Y-54135307D01*
X84587154Y-54020616D01*
X84675097Y-53917114D01*
X84700559Y-53892327D01*
X84759238Y-53840118D01*
X84813993Y-53798221D01*
X84872152Y-53761701D01*
X84941043Y-53725620D01*
X84965415Y-53713899D01*
X85085361Y-53665937D01*
X85209555Y-53634543D01*
X85343676Y-53618324D01*
X85358587Y-53617444D01*
X85510837Y-53618788D01*
X85510837Y-53618788D01*
G37*
X85510837Y-53618788D02*
X85654549Y-53638984D01*
X85788816Y-53677132D01*
X85912734Y-53732332D01*
X86025393Y-53803684D01*
X86125889Y-53890286D01*
X86213314Y-53991238D01*
X86286761Y-54105641D01*
X86345325Y-54232593D01*
X86388098Y-54371195D01*
X86414173Y-54520546D01*
X86422655Y-54674146D01*
X86422655Y-54799812D01*
X85001127Y-54799812D01*
X85007201Y-54837243D01*
X85025436Y-54899532D01*
X85058900Y-54965503D01*
X85104143Y-55028869D01*
X85125629Y-55052985D01*
X85194014Y-55112421D01*
X85268347Y-55152342D01*
X85351806Y-55174225D01*
X85395994Y-55178753D01*
X85500726Y-55176126D01*
X85594922Y-55155192D01*
X85679054Y-55115736D01*
X85753591Y-55057542D01*
X85814560Y-54986626D01*
X85836406Y-54956390D01*
X86105708Y-55011716D01*
X86178247Y-55026710D01*
X86243663Y-55040404D01*
X86299181Y-55052205D01*
X86342025Y-55061518D01*
X86369421Y-55067746D01*
X86378587Y-55070233D01*
X86375564Y-55080338D01*
X86364552Y-55105029D01*
X86347465Y-55140173D01*
X86333568Y-55167514D01*
X86262553Y-55284823D01*
X86178718Y-55385678D01*
X86080644Y-55471463D01*
X85966918Y-55543567D01*
X85930325Y-55562352D01*
X85833767Y-55604431D01*
X85737394Y-55635050D01*
X85633934Y-55656164D01*
X85538579Y-55667770D01*
X85482834Y-55672779D01*
X85441441Y-55675713D01*
X85407678Y-55676574D01*
X85374823Y-55675363D01*
X85336154Y-55672080D01*
X85295061Y-55667807D01*
X85152941Y-55642758D01*
X85017353Y-55599281D01*
X84890494Y-55538549D01*
X84774563Y-55461736D01*
X84671757Y-55370016D01*
X84613993Y-55304194D01*
X84535116Y-55188845D01*
X84473533Y-55064677D01*
X84429110Y-54933914D01*
X84401710Y-54798777D01*
X84391196Y-54661491D01*
X84397432Y-54524277D01*
X84416277Y-54413007D01*
X85014485Y-54413007D01*
X85016465Y-54417222D01*
X85023690Y-54420649D01*
X85038090Y-54423369D01*
X85061595Y-54425459D01*
X85096134Y-54427000D01*
X85143636Y-54428069D01*
X85206032Y-54428745D01*
X85285250Y-54429108D01*
X85383219Y-54429236D01*
X85411526Y-54429241D01*
X85513753Y-54429194D01*
X85596790Y-54428990D01*
X85662624Y-54428533D01*
X85713239Y-54427728D01*
X85750623Y-54426479D01*
X85776761Y-54424691D01*
X85793638Y-54422268D01*
X85803241Y-54419115D01*
X85807555Y-54415136D01*
X85808566Y-54410235D01*
X85808566Y-54410144D01*
X85802029Y-54381609D01*
X85784634Y-54343097D01*
X85759705Y-54300359D01*
X85730565Y-54259144D01*
X85703117Y-54227736D01*
X85635223Y-54174176D01*
X85558295Y-54137878D01*
X85475488Y-54118786D01*
X85389955Y-54116846D01*
X85304853Y-54132004D01*
X85223334Y-54164204D01*
X85148554Y-54213392D01*
X85121240Y-54237807D01*
X85089900Y-54272821D01*
X85060199Y-54313712D01*
X85035513Y-54354939D01*
X85019219Y-54390964D01*
X85014485Y-54413007D01*
X84416277Y-54413007D01*
X84420283Y-54389360D01*
X84459611Y-54258963D01*
X84515280Y-54135307D01*
X84587154Y-54020616D01*
X84675097Y-53917114D01*
X84700559Y-53892327D01*
X84759238Y-53840118D01*
X84813993Y-53798221D01*
X84872152Y-53761701D01*
X84941043Y-53725620D01*
X84965415Y-53713899D01*
X85085361Y-53665937D01*
X85209555Y-53634543D01*
X85343676Y-53618324D01*
X85358587Y-53617444D01*
X85510837Y-53618788D01*
G36*
X80783385Y-53619254D02*
G01*
X80926952Y-53640350D01*
X81061628Y-53679694D01*
X81186300Y-53736392D01*
X81299855Y-53809548D01*
X81401182Y-53898269D01*
X81489168Y-54001658D01*
X81562701Y-54118822D01*
X81620667Y-54248866D01*
X81661955Y-54390894D01*
X81674350Y-54455710D01*
X81680934Y-54508009D01*
X81686138Y-54571818D01*
X81689279Y-54637484D01*
X81689891Y-54675406D01*
X81689933Y-54799812D01*
X80268405Y-54799812D01*
X80274233Y-54835725D01*
X80294454Y-54903585D01*
X80331267Y-54972429D01*
X80380906Y-55037415D01*
X80439604Y-55093697D01*
X80503596Y-55136432D01*
X80510914Y-55140155D01*
X80595055Y-55170246D01*
X80683966Y-55181829D01*
X80774119Y-55175877D01*
X80861984Y-55153365D01*
X80944033Y-55115266D01*
X81016737Y-55062553D01*
X81076568Y-54996201D01*
X81086758Y-54981258D01*
X81102966Y-54956242D01*
X81372627Y-55011642D01*
X81445213Y-55026644D01*
X81510673Y-55040343D01*
X81566236Y-55052146D01*
X81609130Y-55061459D01*
X81636582Y-55067688D01*
X81645812Y-55070180D01*
X81643428Y-55080832D01*
X81632815Y-55105271D01*
X81616330Y-55138946D01*
X81596335Y-55177305D01*
X81575187Y-55215799D01*
X81555247Y-55249877D01*
X81541731Y-55270929D01*
X81458272Y-55373823D01*
X81359408Y-55463360D01*
X81247052Y-55538371D01*
X81123114Y-55597688D01*
X80989507Y-55640142D01*
X80911734Y-55656023D01*
X80840183Y-55664975D01*
X80758509Y-55670625D01*
X80675516Y-55672662D01*
X80600006Y-55670773D01*
X80567632Y-55668240D01*
X80422968Y-55643480D01*
X80288036Y-55600822D01*
X80163724Y-55541606D01*
X80050918Y-55467171D01*
X79950504Y-55378859D01*
X79863370Y-55278009D01*
X79790402Y-55165962D01*
X79732486Y-55044059D01*
X79690510Y-54913640D01*
X79665360Y-54776046D01*
X79657923Y-54632616D01*
X79669085Y-54484691D01*
X79683131Y-54413007D01*
X80281763Y-54413007D01*
X80283743Y-54417222D01*
X80290968Y-54420649D01*
X80305368Y-54423369D01*
X80328873Y-54425459D01*
X80363412Y-54427000D01*
X80410914Y-54428069D01*
X80473310Y-54428745D01*
X80552528Y-54429108D01*
X80650497Y-54429236D01*
X80678804Y-54429241D01*
X80781031Y-54429194D01*
X80864068Y-54428990D01*
X80929902Y-54428533D01*
X80980517Y-54427728D01*
X81017901Y-54426479D01*
X81044039Y-54424691D01*
X81060916Y-54422268D01*
X81070519Y-54419115D01*
X81074833Y-54415136D01*
X81075844Y-54410235D01*
X81075844Y-54410144D01*
X81069312Y-54381633D01*
X81051927Y-54343129D01*
X81027008Y-54300377D01*
X80997872Y-54259120D01*
X80970395Y-54227621D01*
X80902061Y-54173416D01*
X80825041Y-54136788D01*
X80742368Y-54117672D01*
X80657074Y-54116008D01*
X80572189Y-54131731D01*
X80490746Y-54164779D01*
X80415776Y-54215091D01*
X80388667Y-54239652D01*
X80355229Y-54276975D01*
X80324600Y-54318944D01*
X80300082Y-54360208D01*
X80284976Y-54395414D01*
X80281763Y-54413007D01*
X79683131Y-54413007D01*
X79695511Y-54349833D01*
X79711171Y-54300620D01*
X79735065Y-54240378D01*
X79764047Y-54175936D01*
X79794974Y-54114124D01*
X79824701Y-54061774D01*
X79836410Y-54043759D01*
X79920077Y-53940118D01*
X80020440Y-53846947D01*
X80134619Y-53766651D01*
X80230697Y-53714844D01*
X80343790Y-53668871D01*
X80459265Y-53637982D01*
X80583695Y-53620578D01*
X80632039Y-53617301D01*
X80783385Y-53619254D01*
X80783385Y-53619254D01*
G37*
X80783385Y-53619254D02*
X80926952Y-53640350D01*
X81061628Y-53679694D01*
X81186300Y-53736392D01*
X81299855Y-53809548D01*
X81401182Y-53898269D01*
X81489168Y-54001658D01*
X81562701Y-54118822D01*
X81620667Y-54248866D01*
X81661955Y-54390894D01*
X81674350Y-54455710D01*
X81680934Y-54508009D01*
X81686138Y-54571818D01*
X81689279Y-54637484D01*
X81689891Y-54675406D01*
X81689933Y-54799812D01*
X80268405Y-54799812D01*
X80274233Y-54835725D01*
X80294454Y-54903585D01*
X80331267Y-54972429D01*
X80380906Y-55037415D01*
X80439604Y-55093697D01*
X80503596Y-55136432D01*
X80510914Y-55140155D01*
X80595055Y-55170246D01*
X80683966Y-55181829D01*
X80774119Y-55175877D01*
X80861984Y-55153365D01*
X80944033Y-55115266D01*
X81016737Y-55062553D01*
X81076568Y-54996201D01*
X81086758Y-54981258D01*
X81102966Y-54956242D01*
X81372627Y-55011642D01*
X81445213Y-55026644D01*
X81510673Y-55040343D01*
X81566236Y-55052146D01*
X81609130Y-55061459D01*
X81636582Y-55067688D01*
X81645812Y-55070180D01*
X81643428Y-55080832D01*
X81632815Y-55105271D01*
X81616330Y-55138946D01*
X81596335Y-55177305D01*
X81575187Y-55215799D01*
X81555247Y-55249877D01*
X81541731Y-55270929D01*
X81458272Y-55373823D01*
X81359408Y-55463360D01*
X81247052Y-55538371D01*
X81123114Y-55597688D01*
X80989507Y-55640142D01*
X80911734Y-55656023D01*
X80840183Y-55664975D01*
X80758509Y-55670625D01*
X80675516Y-55672662D01*
X80600006Y-55670773D01*
X80567632Y-55668240D01*
X80422968Y-55643480D01*
X80288036Y-55600822D01*
X80163724Y-55541606D01*
X80050918Y-55467171D01*
X79950504Y-55378859D01*
X79863370Y-55278009D01*
X79790402Y-55165962D01*
X79732486Y-55044059D01*
X79690510Y-54913640D01*
X79665360Y-54776046D01*
X79657923Y-54632616D01*
X79669085Y-54484691D01*
X79683131Y-54413007D01*
X80281763Y-54413007D01*
X80283743Y-54417222D01*
X80290968Y-54420649D01*
X80305368Y-54423369D01*
X80328873Y-54425459D01*
X80363412Y-54427000D01*
X80410914Y-54428069D01*
X80473310Y-54428745D01*
X80552528Y-54429108D01*
X80650497Y-54429236D01*
X80678804Y-54429241D01*
X80781031Y-54429194D01*
X80864068Y-54428990D01*
X80929902Y-54428533D01*
X80980517Y-54427728D01*
X81017901Y-54426479D01*
X81044039Y-54424691D01*
X81060916Y-54422268D01*
X81070519Y-54419115D01*
X81074833Y-54415136D01*
X81075844Y-54410235D01*
X81075844Y-54410144D01*
X81069312Y-54381633D01*
X81051927Y-54343129D01*
X81027008Y-54300377D01*
X80997872Y-54259120D01*
X80970395Y-54227621D01*
X80902061Y-54173416D01*
X80825041Y-54136788D01*
X80742368Y-54117672D01*
X80657074Y-54116008D01*
X80572189Y-54131731D01*
X80490746Y-54164779D01*
X80415776Y-54215091D01*
X80388667Y-54239652D01*
X80355229Y-54276975D01*
X80324600Y-54318944D01*
X80300082Y-54360208D01*
X80284976Y-54395414D01*
X80281763Y-54413007D01*
X79683131Y-54413007D01*
X79695511Y-54349833D01*
X79711171Y-54300620D01*
X79735065Y-54240378D01*
X79764047Y-54175936D01*
X79794974Y-54114124D01*
X79824701Y-54061774D01*
X79836410Y-54043759D01*
X79920077Y-53940118D01*
X80020440Y-53846947D01*
X80134619Y-53766651D01*
X80230697Y-53714844D01*
X80343790Y-53668871D01*
X80459265Y-53637982D01*
X80583695Y-53620578D01*
X80632039Y-53617301D01*
X80783385Y-53619254D01*
G36*
X71517117Y-53619764D02*
G01*
X71643792Y-53640888D01*
X71764483Y-53677729D01*
X71875647Y-53730034D01*
X71927135Y-53762310D01*
X71961873Y-53785916D01*
X71989504Y-53804083D01*
X72005808Y-53814062D01*
X72008288Y-53815152D01*
X72010480Y-53805458D01*
X72012068Y-53779947D01*
X72012731Y-53743977D01*
X72012735Y-53741038D01*
X72012735Y-53666923D01*
X72626824Y-53666923D01*
X72626824Y-55615068D01*
X72012735Y-55615068D01*
X72012735Y-55467747D01*
X71928186Y-55524339D01*
X71829157Y-55582727D01*
X71730047Y-55624203D01*
X71630909Y-55650386D01*
X71573684Y-55659642D01*
X71507040Y-55666957D01*
X71438315Y-55671828D01*
X71374851Y-55673751D01*
X71323986Y-55672221D01*
X71319237Y-55671797D01*
X71180751Y-55648243D01*
X71051319Y-55606239D01*
X70931944Y-55546920D01*
X70823628Y-55471421D01*
X70727375Y-55380876D01*
X70644186Y-55276421D01*
X70575065Y-55159190D01*
X70521014Y-55030318D01*
X70483035Y-54890941D01*
X70462131Y-54742193D01*
X70459455Y-54698576D01*
X70460222Y-54640043D01*
X71060021Y-54640043D01*
X71069462Y-54745478D01*
X71096209Y-54842878D01*
X71138915Y-54930335D01*
X71196234Y-55005939D01*
X71266818Y-55067782D01*
X71349320Y-55113956D01*
X71409233Y-55134808D01*
X71478728Y-55146288D01*
X71556060Y-55147043D01*
X71630940Y-55137297D01*
X71662017Y-55129260D01*
X71738790Y-55099423D01*
X71803887Y-55059659D01*
X71865251Y-55004982D01*
X71873109Y-54996794D01*
X71934257Y-54917525D01*
X71977726Y-54829687D01*
X72003552Y-54736193D01*
X72011772Y-54639958D01*
X72002420Y-54543896D01*
X71975534Y-54450920D01*
X71931149Y-54363943D01*
X71869301Y-54285880D01*
X71864288Y-54280795D01*
X71787404Y-54218149D01*
X71699731Y-54171742D01*
X71605826Y-54143956D01*
X71601057Y-54143100D01*
X71510771Y-54137765D01*
X71420611Y-54151700D01*
X71334029Y-54183264D01*
X71254476Y-54230814D01*
X71185406Y-54292709D01*
X71130460Y-54366978D01*
X71107479Y-54416247D01*
X71086909Y-54478422D01*
X71070886Y-54545233D01*
X71061541Y-54608413D01*
X71060021Y-54640043D01*
X70460222Y-54640043D01*
X70461556Y-54538369D01*
X70482476Y-54387865D01*
X70522219Y-54247060D01*
X70580786Y-54115948D01*
X70658179Y-53994523D01*
X70741556Y-53895994D01*
X70812141Y-53828994D01*
X70887303Y-53772399D01*
X70973709Y-53721481D01*
X71021454Y-53697515D01*
X71136627Y-53653234D01*
X71259991Y-53625684D01*
X71388002Y-53614612D01*
X71517117Y-53619764D01*
X71517117Y-53619764D01*
G37*
X71517117Y-53619764D02*
X71643792Y-53640888D01*
X71764483Y-53677729D01*
X71875647Y-53730034D01*
X71927135Y-53762310D01*
X71961873Y-53785916D01*
X71989504Y-53804083D01*
X72005808Y-53814062D01*
X72008288Y-53815152D01*
X72010480Y-53805458D01*
X72012068Y-53779947D01*
X72012731Y-53743977D01*
X72012735Y-53741038D01*
X72012735Y-53666923D01*
X72626824Y-53666923D01*
X72626824Y-55615068D01*
X72012735Y-55615068D01*
X72012735Y-55467747D01*
X71928186Y-55524339D01*
X71829157Y-55582727D01*
X71730047Y-55624203D01*
X71630909Y-55650386D01*
X71573684Y-55659642D01*
X71507040Y-55666957D01*
X71438315Y-55671828D01*
X71374851Y-55673751D01*
X71323986Y-55672221D01*
X71319237Y-55671797D01*
X71180751Y-55648243D01*
X71051319Y-55606239D01*
X70931944Y-55546920D01*
X70823628Y-55471421D01*
X70727375Y-55380876D01*
X70644186Y-55276421D01*
X70575065Y-55159190D01*
X70521014Y-55030318D01*
X70483035Y-54890941D01*
X70462131Y-54742193D01*
X70459455Y-54698576D01*
X70460222Y-54640043D01*
X71060021Y-54640043D01*
X71069462Y-54745478D01*
X71096209Y-54842878D01*
X71138915Y-54930335D01*
X71196234Y-55005939D01*
X71266818Y-55067782D01*
X71349320Y-55113956D01*
X71409233Y-55134808D01*
X71478728Y-55146288D01*
X71556060Y-55147043D01*
X71630940Y-55137297D01*
X71662017Y-55129260D01*
X71738790Y-55099423D01*
X71803887Y-55059659D01*
X71865251Y-55004982D01*
X71873109Y-54996794D01*
X71934257Y-54917525D01*
X71977726Y-54829687D01*
X72003552Y-54736193D01*
X72011772Y-54639958D01*
X72002420Y-54543896D01*
X71975534Y-54450920D01*
X71931149Y-54363943D01*
X71869301Y-54285880D01*
X71864288Y-54280795D01*
X71787404Y-54218149D01*
X71699731Y-54171742D01*
X71605826Y-54143956D01*
X71601057Y-54143100D01*
X71510771Y-54137765D01*
X71420611Y-54151700D01*
X71334029Y-54183264D01*
X71254476Y-54230814D01*
X71185406Y-54292709D01*
X71130460Y-54366978D01*
X71107479Y-54416247D01*
X71086909Y-54478422D01*
X71070886Y-54545233D01*
X71061541Y-54608413D01*
X71060021Y-54640043D01*
X70460222Y-54640043D01*
X70461556Y-54538369D01*
X70482476Y-54387865D01*
X70522219Y-54247060D01*
X70580786Y-54115948D01*
X70658179Y-53994523D01*
X70741556Y-53895994D01*
X70812141Y-53828994D01*
X70887303Y-53772399D01*
X70973709Y-53721481D01*
X71021454Y-53697515D01*
X71136627Y-53653234D01*
X71259991Y-53625684D01*
X71388002Y-53614612D01*
X71517117Y-53619764D01*
G36*
X74746298Y-52839385D02*
G01*
X74926092Y-52867849D01*
X74993185Y-52883647D01*
X75157552Y-52936015D01*
X75311561Y-53005521D01*
X75454015Y-53091092D01*
X75583717Y-53191656D01*
X75699470Y-53306139D01*
X75800077Y-53433469D01*
X75884341Y-53572572D01*
X75951065Y-53722377D01*
X75961545Y-53751625D01*
X75970400Y-53780376D01*
X75981333Y-53820388D01*
X75993319Y-53867308D01*
X76005332Y-53916780D01*
X76016349Y-53964451D01*
X76025343Y-54005966D01*
X76031291Y-54036971D01*
X76033168Y-54053110D01*
X76032806Y-54054387D01*
X76021927Y-54057391D01*
X75993048Y-54064490D01*
X75948815Y-54075073D01*
X75891874Y-54088528D01*
X75824869Y-54104242D01*
X75750448Y-54121603D01*
X75671255Y-54140001D01*
X75589937Y-54158823D01*
X75509138Y-54177456D01*
X75431506Y-54195290D01*
X75359685Y-54211713D01*
X75296321Y-54226112D01*
X75244060Y-54237875D01*
X75205548Y-54246391D01*
X75183430Y-54251049D01*
X75179561Y-54251719D01*
X75166702Y-54251576D01*
X75157526Y-54245042D01*
X75149881Y-54228109D01*
X75141611Y-54196770D01*
X75135554Y-54169841D01*
X75101194Y-54047623D01*
X75055652Y-53943307D01*
X74998632Y-53856635D01*
X74929837Y-53787345D01*
X74848970Y-53735178D01*
X74755736Y-53699873D01*
X74649838Y-53681171D01*
X74574969Y-53677793D01*
X74461587Y-53687445D01*
X74356714Y-53716487D01*
X74260325Y-53764927D01*
X74173252Y-53831985D01*
X74096341Y-53914937D01*
X74037693Y-54005948D01*
X73995923Y-54105485D01*
X73983124Y-54147287D01*
X73974820Y-54184353D01*
X73970093Y-54223590D01*
X73968025Y-54271906D01*
X73967667Y-54318070D01*
X73968347Y-54377680D01*
X73971000Y-54423050D01*
X73976544Y-54461086D01*
X73985898Y-54498696D01*
X73995923Y-54530655D01*
X74041651Y-54637952D01*
X74103137Y-54732638D01*
X74178937Y-54813234D01*
X74267609Y-54878261D01*
X74367709Y-54926241D01*
X74389683Y-54933894D01*
X74438679Y-54948282D01*
X74482972Y-54956742D01*
X74531760Y-54960595D01*
X74580263Y-54961247D01*
X74677868Y-54955095D01*
X74762996Y-54936273D01*
X74841209Y-54903208D01*
X74891108Y-54873242D01*
X74961325Y-54816760D01*
X75020120Y-54747908D01*
X75068761Y-54664620D01*
X75108514Y-54564832D01*
X75132948Y-54479183D01*
X75160276Y-54368743D01*
X75233782Y-54382749D01*
X75316389Y-54398628D01*
X75404070Y-54415732D01*
X75494405Y-54433564D01*
X75584974Y-54451632D01*
X75673356Y-54469439D01*
X75757132Y-54486493D01*
X75833879Y-54502297D01*
X75901179Y-54516358D01*
X75956610Y-54528181D01*
X75997752Y-54537271D01*
X76022185Y-54543135D01*
X76028024Y-54545030D01*
X76029807Y-54558335D01*
X76027058Y-54587957D01*
X76020596Y-54629728D01*
X76011240Y-54679476D01*
X75999808Y-54733032D01*
X75987119Y-54786224D01*
X75973990Y-54834882D01*
X75966089Y-54860637D01*
X75903668Y-55019133D01*
X75824132Y-55165528D01*
X75728260Y-55299044D01*
X75616829Y-55418902D01*
X75490618Y-55524327D01*
X75350405Y-55614539D01*
X75196969Y-55688762D01*
X75101552Y-55724403D01*
X74970544Y-55761087D01*
X74830856Y-55785598D01*
X74678376Y-55798588D01*
X74622614Y-55800503D01*
X74557934Y-55801265D01*
X74494266Y-55800767D01*
X74437498Y-55799140D01*
X74393520Y-55796514D01*
X74380247Y-55795141D01*
X74212569Y-55764682D01*
X74050528Y-55715865D01*
X73890364Y-55647504D01*
X73853962Y-55629185D01*
X73704210Y-55540090D01*
X73567793Y-55435057D01*
X73445571Y-55315260D01*
X73338410Y-55181877D01*
X73247170Y-55036081D01*
X73172716Y-54879049D01*
X73115910Y-54711956D01*
X73085789Y-54582763D01*
X73075658Y-54509624D01*
X73069495Y-54422297D01*
X73067285Y-54327392D01*
X73067958Y-54290045D01*
X73326168Y-54290045D01*
X73328668Y-54393350D01*
X73337411Y-54494417D01*
X73352120Y-54585847D01*
X73360274Y-54620601D01*
X73405221Y-54762524D01*
X73462323Y-54889963D01*
X73533980Y-55007233D01*
X73622595Y-55118647D01*
X73660269Y-55159362D01*
X73772765Y-55264521D01*
X73892236Y-55352114D01*
X74020633Y-55423059D01*
X74159907Y-55478276D01*
X74312011Y-55518683D01*
X74478896Y-55545201D01*
X74479679Y-55545290D01*
X74518292Y-55547247D01*
X74571978Y-55546757D01*
X74634818Y-55544164D01*
X74700897Y-55539811D01*
X74764295Y-55534044D01*
X74819095Y-55527206D01*
X74835324Y-55524593D01*
X74989232Y-55487891D01*
X75132820Y-55433664D01*
X75264987Y-55362798D01*
X75384631Y-55276182D01*
X75490651Y-55174703D01*
X75581946Y-55059246D01*
X75657413Y-54930699D01*
X75703195Y-54825623D01*
X75715576Y-54790189D01*
X75723257Y-54763092D01*
X75724725Y-54749742D01*
X75724493Y-54749391D01*
X75712912Y-54745614D01*
X75684875Y-54738829D01*
X75644434Y-54729854D01*
X75595639Y-54719507D01*
X75542544Y-54708607D01*
X75489200Y-54697970D01*
X75439659Y-54688416D01*
X75397974Y-54680761D01*
X75368196Y-54675823D01*
X75354377Y-54674421D01*
X75353908Y-54674591D01*
X75348438Y-54685007D01*
X75335937Y-54710124D01*
X75318567Y-54745571D01*
X75307644Y-54768049D01*
X75244545Y-54880256D01*
X75172049Y-54974584D01*
X75088327Y-55052932D01*
X74991550Y-55117199D01*
X74950834Y-55138391D01*
X74883460Y-55169005D01*
X74822983Y-55190831D01*
X74763132Y-55205204D01*
X74697633Y-55213459D01*
X74620217Y-55216931D01*
X74580263Y-55217288D01*
X74483958Y-55214618D01*
X74401700Y-55205387D01*
X74326993Y-55188175D01*
X74253344Y-55161561D01*
X74189436Y-55131853D01*
X74117175Y-55092106D01*
X74054946Y-55049186D01*
X73995392Y-54997535D01*
X73947361Y-54948987D01*
X73861808Y-54843348D01*
X73794821Y-54727653D01*
X73746553Y-54602304D01*
X73717158Y-54467705D01*
X73706791Y-54324261D01*
X73706774Y-54318070D01*
X73716410Y-54176852D01*
X73744658Y-54043379D01*
X73790524Y-53918985D01*
X73853015Y-53805004D01*
X73931137Y-53702770D01*
X74023897Y-53613616D01*
X74130302Y-53538877D01*
X74249359Y-53479886D01*
X74357920Y-53443613D01*
X74436289Y-53428614D01*
X74526820Y-53420868D01*
X74621777Y-53420378D01*
X74713426Y-53427150D01*
X74794030Y-53441186D01*
X74802605Y-53443362D01*
X74924716Y-53484910D01*
X75032452Y-53541589D01*
X75126770Y-53614185D01*
X75208629Y-53703485D01*
X75278987Y-53810274D01*
X75301476Y-53852733D01*
X75349420Y-53948547D01*
X75533933Y-53905817D01*
X75598821Y-53890124D01*
X75652092Y-53875900D01*
X75691259Y-53863888D01*
X75713837Y-53854829D01*
X75718445Y-53850755D01*
X75713722Y-53831336D01*
X75700970Y-53798021D01*
X75682317Y-53755497D01*
X75659888Y-53708448D01*
X75635812Y-53661561D01*
X75617862Y-53629162D01*
X75581038Y-53574771D01*
X75530633Y-53513555D01*
X75471039Y-53449885D01*
X75406649Y-53388131D01*
X75341854Y-53332664D01*
X75281046Y-53287856D01*
X75263968Y-53276980D01*
X75121290Y-53202200D01*
X74971402Y-53146317D01*
X74816406Y-53109280D01*
X74658405Y-53091041D01*
X74499499Y-53091550D01*
X74341792Y-53110757D01*
X74187385Y-53148613D01*
X74038381Y-53205068D01*
X73896881Y-53280073D01*
X73850102Y-53310301D01*
X73797405Y-53350169D01*
X73737767Y-53401912D01*
X73676649Y-53460242D01*
X73619513Y-53519873D01*
X73571820Y-53575517D01*
X73559245Y-53591886D01*
X73475897Y-53722048D01*
X73409443Y-53864529D01*
X73360299Y-54018349D01*
X73341005Y-54106315D01*
X73330188Y-54191900D01*
X73326168Y-54290045D01*
X73067958Y-54290045D01*
X73069015Y-54231519D01*
X73074670Y-54141288D01*
X73084236Y-54063308D01*
X73086934Y-54048082D01*
X73130347Y-53874110D01*
X73192528Y-53709253D01*
X73272999Y-53554442D01*
X73371282Y-53410613D01*
X73473473Y-53292468D01*
X73602438Y-53173422D01*
X73743024Y-53071398D01*
X73893725Y-52986800D01*
X74053038Y-52920035D01*
X74219456Y-52871505D01*
X74391475Y-52841617D01*
X74567590Y-52830776D01*
X74746298Y-52839385D01*
X74746298Y-52839385D01*
G37*
X74746298Y-52839385D02*
X74926092Y-52867849D01*
X74993185Y-52883647D01*
X75157552Y-52936015D01*
X75311561Y-53005521D01*
X75454015Y-53091092D01*
X75583717Y-53191656D01*
X75699470Y-53306139D01*
X75800077Y-53433469D01*
X75884341Y-53572572D01*
X75951065Y-53722377D01*
X75961545Y-53751625D01*
X75970400Y-53780376D01*
X75981333Y-53820388D01*
X75993319Y-53867308D01*
X76005332Y-53916780D01*
X76016349Y-53964451D01*
X76025343Y-54005966D01*
X76031291Y-54036971D01*
X76033168Y-54053110D01*
X76032806Y-54054387D01*
X76021927Y-54057391D01*
X75993048Y-54064490D01*
X75948815Y-54075073D01*
X75891874Y-54088528D01*
X75824869Y-54104242D01*
X75750448Y-54121603D01*
X75671255Y-54140001D01*
X75589937Y-54158823D01*
X75509138Y-54177456D01*
X75431506Y-54195290D01*
X75359685Y-54211713D01*
X75296321Y-54226112D01*
X75244060Y-54237875D01*
X75205548Y-54246391D01*
X75183430Y-54251049D01*
X75179561Y-54251719D01*
X75166702Y-54251576D01*
X75157526Y-54245042D01*
X75149881Y-54228109D01*
X75141611Y-54196770D01*
X75135554Y-54169841D01*
X75101194Y-54047623D01*
X75055652Y-53943307D01*
X74998632Y-53856635D01*
X74929837Y-53787345D01*
X74848970Y-53735178D01*
X74755736Y-53699873D01*
X74649838Y-53681171D01*
X74574969Y-53677793D01*
X74461587Y-53687445D01*
X74356714Y-53716487D01*
X74260325Y-53764927D01*
X74173252Y-53831985D01*
X74096341Y-53914937D01*
X74037693Y-54005948D01*
X73995923Y-54105485D01*
X73983124Y-54147287D01*
X73974820Y-54184353D01*
X73970093Y-54223590D01*
X73968025Y-54271906D01*
X73967667Y-54318070D01*
X73968347Y-54377680D01*
X73971000Y-54423050D01*
X73976544Y-54461086D01*
X73985898Y-54498696D01*
X73995923Y-54530655D01*
X74041651Y-54637952D01*
X74103137Y-54732638D01*
X74178937Y-54813234D01*
X74267609Y-54878261D01*
X74367709Y-54926241D01*
X74389683Y-54933894D01*
X74438679Y-54948282D01*
X74482972Y-54956742D01*
X74531760Y-54960595D01*
X74580263Y-54961247D01*
X74677868Y-54955095D01*
X74762996Y-54936273D01*
X74841209Y-54903208D01*
X74891108Y-54873242D01*
X74961325Y-54816760D01*
X75020120Y-54747908D01*
X75068761Y-54664620D01*
X75108514Y-54564832D01*
X75132948Y-54479183D01*
X75160276Y-54368743D01*
X75233782Y-54382749D01*
X75316389Y-54398628D01*
X75404070Y-54415732D01*
X75494405Y-54433564D01*
X75584974Y-54451632D01*
X75673356Y-54469439D01*
X75757132Y-54486493D01*
X75833879Y-54502297D01*
X75901179Y-54516358D01*
X75956610Y-54528181D01*
X75997752Y-54537271D01*
X76022185Y-54543135D01*
X76028024Y-54545030D01*
X76029807Y-54558335D01*
X76027058Y-54587957D01*
X76020596Y-54629728D01*
X76011240Y-54679476D01*
X75999808Y-54733032D01*
X75987119Y-54786224D01*
X75973990Y-54834882D01*
X75966089Y-54860637D01*
X75903668Y-55019133D01*
X75824132Y-55165528D01*
X75728260Y-55299044D01*
X75616829Y-55418902D01*
X75490618Y-55524327D01*
X75350405Y-55614539D01*
X75196969Y-55688762D01*
X75101552Y-55724403D01*
X74970544Y-55761087D01*
X74830856Y-55785598D01*
X74678376Y-55798588D01*
X74622614Y-55800503D01*
X74557934Y-55801265D01*
X74494266Y-55800767D01*
X74437498Y-55799140D01*
X74393520Y-55796514D01*
X74380247Y-55795141D01*
X74212569Y-55764682D01*
X74050528Y-55715865D01*
X73890364Y-55647504D01*
X73853962Y-55629185D01*
X73704210Y-55540090D01*
X73567793Y-55435057D01*
X73445571Y-55315260D01*
X73338410Y-55181877D01*
X73247170Y-55036081D01*
X73172716Y-54879049D01*
X73115910Y-54711956D01*
X73085789Y-54582763D01*
X73075658Y-54509624D01*
X73069495Y-54422297D01*
X73067285Y-54327392D01*
X73067958Y-54290045D01*
X73326168Y-54290045D01*
X73328668Y-54393350D01*
X73337411Y-54494417D01*
X73352120Y-54585847D01*
X73360274Y-54620601D01*
X73405221Y-54762524D01*
X73462323Y-54889963D01*
X73533980Y-55007233D01*
X73622595Y-55118647D01*
X73660269Y-55159362D01*
X73772765Y-55264521D01*
X73892236Y-55352114D01*
X74020633Y-55423059D01*
X74159907Y-55478276D01*
X74312011Y-55518683D01*
X74478896Y-55545201D01*
X74479679Y-55545290D01*
X74518292Y-55547247D01*
X74571978Y-55546757D01*
X74634818Y-55544164D01*
X74700897Y-55539811D01*
X74764295Y-55534044D01*
X74819095Y-55527206D01*
X74835324Y-55524593D01*
X74989232Y-55487891D01*
X75132820Y-55433664D01*
X75264987Y-55362798D01*
X75384631Y-55276182D01*
X75490651Y-55174703D01*
X75581946Y-55059246D01*
X75657413Y-54930699D01*
X75703195Y-54825623D01*
X75715576Y-54790189D01*
X75723257Y-54763092D01*
X75724725Y-54749742D01*
X75724493Y-54749391D01*
X75712912Y-54745614D01*
X75684875Y-54738829D01*
X75644434Y-54729854D01*
X75595639Y-54719507D01*
X75542544Y-54708607D01*
X75489200Y-54697970D01*
X75439659Y-54688416D01*
X75397974Y-54680761D01*
X75368196Y-54675823D01*
X75354377Y-54674421D01*
X75353908Y-54674591D01*
X75348438Y-54685007D01*
X75335937Y-54710124D01*
X75318567Y-54745571D01*
X75307644Y-54768049D01*
X75244545Y-54880256D01*
X75172049Y-54974584D01*
X75088327Y-55052932D01*
X74991550Y-55117199D01*
X74950834Y-55138391D01*
X74883460Y-55169005D01*
X74822983Y-55190831D01*
X74763132Y-55205204D01*
X74697633Y-55213459D01*
X74620217Y-55216931D01*
X74580263Y-55217288D01*
X74483958Y-55214618D01*
X74401700Y-55205387D01*
X74326993Y-55188175D01*
X74253344Y-55161561D01*
X74189436Y-55131853D01*
X74117175Y-55092106D01*
X74054946Y-55049186D01*
X73995392Y-54997535D01*
X73947361Y-54948987D01*
X73861808Y-54843348D01*
X73794821Y-54727653D01*
X73746553Y-54602304D01*
X73717158Y-54467705D01*
X73706791Y-54324261D01*
X73706774Y-54318070D01*
X73716410Y-54176852D01*
X73744658Y-54043379D01*
X73790524Y-53918985D01*
X73853015Y-53805004D01*
X73931137Y-53702770D01*
X74023897Y-53613616D01*
X74130302Y-53538877D01*
X74249359Y-53479886D01*
X74357920Y-53443613D01*
X74436289Y-53428614D01*
X74526820Y-53420868D01*
X74621777Y-53420378D01*
X74713426Y-53427150D01*
X74794030Y-53441186D01*
X74802605Y-53443362D01*
X74924716Y-53484910D01*
X75032452Y-53541589D01*
X75126770Y-53614185D01*
X75208629Y-53703485D01*
X75278987Y-53810274D01*
X75301476Y-53852733D01*
X75349420Y-53948547D01*
X75533933Y-53905817D01*
X75598821Y-53890124D01*
X75652092Y-53875900D01*
X75691259Y-53863888D01*
X75713837Y-53854829D01*
X75718445Y-53850755D01*
X75713722Y-53831336D01*
X75700970Y-53798021D01*
X75682317Y-53755497D01*
X75659888Y-53708448D01*
X75635812Y-53661561D01*
X75617862Y-53629162D01*
X75581038Y-53574771D01*
X75530633Y-53513555D01*
X75471039Y-53449885D01*
X75406649Y-53388131D01*
X75341854Y-53332664D01*
X75281046Y-53287856D01*
X75263968Y-53276980D01*
X75121290Y-53202200D01*
X74971402Y-53146317D01*
X74816406Y-53109280D01*
X74658405Y-53091041D01*
X74499499Y-53091550D01*
X74341792Y-53110757D01*
X74187385Y-53148613D01*
X74038381Y-53205068D01*
X73896881Y-53280073D01*
X73850102Y-53310301D01*
X73797405Y-53350169D01*
X73737767Y-53401912D01*
X73676649Y-53460242D01*
X73619513Y-53519873D01*
X73571820Y-53575517D01*
X73559245Y-53591886D01*
X73475897Y-53722048D01*
X73409443Y-53864529D01*
X73360299Y-54018349D01*
X73341005Y-54106315D01*
X73330188Y-54191900D01*
X73326168Y-54290045D01*
X73067958Y-54290045D01*
X73069015Y-54231519D01*
X73074670Y-54141288D01*
X73084236Y-54063308D01*
X73086934Y-54048082D01*
X73130347Y-53874110D01*
X73192528Y-53709253D01*
X73272999Y-53554442D01*
X73371282Y-53410613D01*
X73473473Y-53292468D01*
X73602438Y-53173422D01*
X73743024Y-53071398D01*
X73893725Y-52986800D01*
X74053038Y-52920035D01*
X74219456Y-52871505D01*
X74391475Y-52841617D01*
X74567590Y-52830776D01*
X74746298Y-52839385D01*
G36*
X83299549Y-53619621D02*
G01*
X83382519Y-53625661D01*
X83454271Y-53636469D01*
X83484556Y-53643820D01*
X83619087Y-53692978D01*
X83741663Y-53759290D01*
X83851526Y-53841937D01*
X83947919Y-53940098D01*
X84030081Y-54052955D01*
X84097255Y-54179688D01*
X84148683Y-54319477D01*
X84164638Y-54378710D01*
X84174038Y-54433105D01*
X84180456Y-54502920D01*
X84183901Y-54582608D01*
X84184382Y-54666627D01*
X84181908Y-54749430D01*
X84176489Y-54825475D01*
X84168133Y-54889217D01*
X84163751Y-54910983D01*
X84122568Y-55046997D01*
X84064835Y-55173790D01*
X83992054Y-55289734D01*
X83905726Y-55393201D01*
X83807350Y-55482563D01*
X83698429Y-55556190D01*
X83580463Y-55612454D01*
X83490608Y-55641341D01*
X83355672Y-55666614D01*
X83219800Y-55673557D01*
X83085816Y-55662663D01*
X82956540Y-55634425D01*
X82834796Y-55589333D01*
X82723404Y-55527880D01*
X82685181Y-55500946D01*
X82637537Y-55465116D01*
X82634764Y-55868312D01*
X82631991Y-56271509D01*
X82018154Y-56271509D01*
X82018154Y-54604961D01*
X82636416Y-54604961D01*
X82638427Y-54701855D01*
X82659098Y-54800524D01*
X82664725Y-54817783D01*
X82695887Y-54892645D01*
X82735281Y-54955080D01*
X82788404Y-55013660D01*
X82793302Y-55018333D01*
X82840528Y-55059535D01*
X82885478Y-55089634D01*
X82936743Y-55113725D01*
X82981638Y-55129957D01*
X83040330Y-55142466D01*
X83110276Y-55146485D01*
X83183463Y-55142307D01*
X83251876Y-55130223D01*
X83288683Y-55118772D01*
X83368935Y-55077058D01*
X83440611Y-55018272D01*
X83500522Y-54945820D01*
X83545484Y-54863109D01*
X83557364Y-54831575D01*
X83572419Y-54768774D01*
X83581033Y-54694751D01*
X83582893Y-54617874D01*
X83577685Y-54546509D01*
X83569615Y-54504111D01*
X83534189Y-54404692D01*
X83484281Y-54319630D01*
X83421072Y-54249893D01*
X83345746Y-54196445D01*
X83259484Y-54160254D01*
X83163468Y-54142284D01*
X83124573Y-54140434D01*
X83027556Y-54149112D01*
X82938033Y-54176013D01*
X82857398Y-54219080D01*
X82787049Y-54276259D01*
X82728380Y-54345492D01*
X82682788Y-54424724D01*
X82651668Y-54511899D01*
X82636416Y-54604961D01*
X82018154Y-54604961D01*
X82018154Y-53666923D01*
X82632243Y-53666923D01*
X82632243Y-53741038D01*
X82633096Y-53777569D01*
X82635341Y-53804040D01*
X82638506Y-53815094D01*
X82638765Y-53815152D01*
X82650205Y-53809389D01*
X82672995Y-53794496D01*
X82694351Y-53779370D01*
X82762075Y-53736252D01*
X82841704Y-53695451D01*
X82924064Y-53661334D01*
X82980202Y-53643278D01*
X83045689Y-53630178D01*
X83124899Y-53621873D01*
X83211597Y-53618356D01*
X83299549Y-53619621D01*
X83299549Y-53619621D01*
G37*
X83299549Y-53619621D02*
X83382519Y-53625661D01*
X83454271Y-53636469D01*
X83484556Y-53643820D01*
X83619087Y-53692978D01*
X83741663Y-53759290D01*
X83851526Y-53841937D01*
X83947919Y-53940098D01*
X84030081Y-54052955D01*
X84097255Y-54179688D01*
X84148683Y-54319477D01*
X84164638Y-54378710D01*
X84174038Y-54433105D01*
X84180456Y-54502920D01*
X84183901Y-54582608D01*
X84184382Y-54666627D01*
X84181908Y-54749430D01*
X84176489Y-54825475D01*
X84168133Y-54889217D01*
X84163751Y-54910983D01*
X84122568Y-55046997D01*
X84064835Y-55173790D01*
X83992054Y-55289734D01*
X83905726Y-55393201D01*
X83807350Y-55482563D01*
X83698429Y-55556190D01*
X83580463Y-55612454D01*
X83490608Y-55641341D01*
X83355672Y-55666614D01*
X83219800Y-55673557D01*
X83085816Y-55662663D01*
X82956540Y-55634425D01*
X82834796Y-55589333D01*
X82723404Y-55527880D01*
X82685181Y-55500946D01*
X82637537Y-55465116D01*
X82634764Y-55868312D01*
X82631991Y-56271509D01*
X82018154Y-56271509D01*
X82018154Y-54604961D01*
X82636416Y-54604961D01*
X82638427Y-54701855D01*
X82659098Y-54800524D01*
X82664725Y-54817783D01*
X82695887Y-54892645D01*
X82735281Y-54955080D01*
X82788404Y-55013660D01*
X82793302Y-55018333D01*
X82840528Y-55059535D01*
X82885478Y-55089634D01*
X82936743Y-55113725D01*
X82981638Y-55129957D01*
X83040330Y-55142466D01*
X83110276Y-55146485D01*
X83183463Y-55142307D01*
X83251876Y-55130223D01*
X83288683Y-55118772D01*
X83368935Y-55077058D01*
X83440611Y-55018272D01*
X83500522Y-54945820D01*
X83545484Y-54863109D01*
X83557364Y-54831575D01*
X83572419Y-54768774D01*
X83581033Y-54694751D01*
X83582893Y-54617874D01*
X83577685Y-54546509D01*
X83569615Y-54504111D01*
X83534189Y-54404692D01*
X83484281Y-54319630D01*
X83421072Y-54249893D01*
X83345746Y-54196445D01*
X83259484Y-54160254D01*
X83163468Y-54142284D01*
X83124573Y-54140434D01*
X83027556Y-54149112D01*
X82938033Y-54176013D01*
X82857398Y-54219080D01*
X82787049Y-54276259D01*
X82728380Y-54345492D01*
X82682788Y-54424724D01*
X82651668Y-54511899D01*
X82636416Y-54604961D01*
X82018154Y-54604961D01*
X82018154Y-53666923D01*
X82632243Y-53666923D01*
X82632243Y-53741038D01*
X82633096Y-53777569D01*
X82635341Y-53804040D01*
X82638506Y-53815094D01*
X82638765Y-53815152D01*
X82650205Y-53809389D01*
X82672995Y-53794496D01*
X82694351Y-53779370D01*
X82762075Y-53736252D01*
X82841704Y-53695451D01*
X82924064Y-53661334D01*
X82980202Y-53643278D01*
X83045689Y-53630178D01*
X83124899Y-53621873D01*
X83211597Y-53618356D01*
X83299549Y-53619621D01*
G36*
X80399694Y-108371428D02*
G01*
X80533725Y-108377063D01*
X80657358Y-108387283D01*
X80775858Y-108402762D01*
X80894488Y-108424178D01*
X81018515Y-108452205D01*
X81140815Y-108484111D01*
X81361181Y-108555265D01*
X81577469Y-108646271D01*
X81788250Y-108755972D01*
X81992097Y-108883213D01*
X82187582Y-109026836D01*
X82373277Y-109185685D01*
X82547755Y-109358603D01*
X82709587Y-109544435D01*
X82857346Y-109742022D01*
X82989604Y-109950209D01*
X83022792Y-110008667D01*
X83129484Y-110223000D01*
X83218380Y-110447595D01*
X83289263Y-110680909D01*
X83341919Y-110921402D01*
X83376130Y-111167530D01*
X83391681Y-111417751D01*
X83388356Y-111670525D01*
X83365940Y-111924307D01*
X83325563Y-112170911D01*
X83267094Y-112407627D01*
X83188586Y-112638964D01*
X83090736Y-112863849D01*
X82974237Y-113081207D01*
X82839784Y-113289962D01*
X82688074Y-113489042D01*
X82519801Y-113677370D01*
X82335660Y-113853873D01*
X82136346Y-114017477D01*
X82125972Y-114025316D01*
X81920658Y-114167635D01*
X81707924Y-114290890D01*
X81486776Y-114395481D01*
X81256221Y-114481812D01*
X81015265Y-114550286D01*
X80762914Y-114601303D01*
X80668216Y-114615594D01*
X80591842Y-114623879D01*
X80499726Y-114630281D01*
X80397092Y-114634733D01*
X80289160Y-114637171D01*
X80181152Y-114637529D01*
X80078291Y-114635742D01*
X79985798Y-114631744D01*
X79908894Y-114625470D01*
X79905898Y-114625135D01*
X79646739Y-114585541D01*
X79396077Y-114526623D01*
X79154242Y-114448543D01*
X78921567Y-114351465D01*
X78698383Y-114235548D01*
X78485021Y-114100957D01*
X78281814Y-113947852D01*
X78089091Y-113776397D01*
X78010258Y-113697823D01*
X77841636Y-113512745D01*
X77692922Y-113325079D01*
X77562854Y-113132798D01*
X77450173Y-112933872D01*
X77353618Y-112726271D01*
X77272978Y-112511118D01*
X77219938Y-112336655D01*
X77179033Y-112165355D01*
X77149294Y-111991554D01*
X77129753Y-111809588D01*
X77119440Y-111613791D01*
X77119436Y-111613651D01*
X77119828Y-111547576D01*
X77502439Y-111547576D01*
X77504105Y-111648774D01*
X77507621Y-111743255D01*
X77512989Y-111826465D01*
X77520211Y-111893853D01*
X77521522Y-111902752D01*
X77568342Y-112142855D01*
X77633129Y-112372048D01*
X77716209Y-112590970D01*
X77817907Y-112800258D01*
X77938547Y-113000553D01*
X78078453Y-113192492D01*
X78237951Y-113376714D01*
X78307465Y-113448541D01*
X78487921Y-113615258D01*
X78677541Y-113763006D01*
X78876041Y-113891649D01*
X79083136Y-114001048D01*
X79298545Y-114091068D01*
X79521983Y-114161570D01*
X79753167Y-114212417D01*
X79939564Y-114238439D01*
X80002126Y-114243234D01*
X80080608Y-114246474D01*
X80169813Y-114248191D01*
X80264547Y-114248417D01*
X80359613Y-114247183D01*
X80449815Y-114244522D01*
X80529958Y-114240465D01*
X80594844Y-114235044D01*
X80600687Y-114234382D01*
X80823639Y-114199486D01*
X81036168Y-114147744D01*
X81241996Y-114078070D01*
X81444843Y-113989378D01*
X81451709Y-113986026D01*
X81658138Y-113873475D01*
X81855131Y-113743165D01*
X82041125Y-113596619D01*
X82214555Y-113435358D01*
X82373858Y-113260907D01*
X82517470Y-113074786D01*
X82643826Y-112878520D01*
X82706788Y-112764123D01*
X82802089Y-112561874D01*
X82878405Y-112358971D01*
X82936385Y-112152686D01*
X82976678Y-111940286D01*
X82999934Y-111719044D01*
X83006840Y-111502480D01*
X83003076Y-111328124D01*
X82991195Y-111167559D01*
X82970222Y-111014641D01*
X82939182Y-110863228D01*
X82897102Y-110707175D01*
X82864089Y-110602522D01*
X82782284Y-110388954D01*
X82680582Y-110182168D01*
X82559330Y-109982728D01*
X82418870Y-109791194D01*
X82259550Y-109608130D01*
X82243879Y-109591651D01*
X82066237Y-109420130D01*
X81880616Y-109268193D01*
X81686703Y-109135680D01*
X81484186Y-109022438D01*
X81272752Y-108928308D01*
X81052089Y-108853134D01*
X80821883Y-108796760D01*
X80581824Y-108759029D01*
X80581208Y-108758958D01*
X80496654Y-108751613D01*
X80398085Y-108747108D01*
X80290486Y-108745345D01*
X80178841Y-108746223D01*
X80068134Y-108749645D01*
X79963348Y-108755513D01*
X79869469Y-108763727D01*
X79791480Y-108774188D01*
X79788855Y-108774636D01*
X79552639Y-108825182D01*
X79327167Y-108893770D01*
X79111788Y-108980732D01*
X78905850Y-109086402D01*
X78708703Y-109211114D01*
X78519696Y-109355201D01*
X78340205Y-109517019D01*
X78204356Y-109655959D01*
X78085640Y-109792034D01*
X77981140Y-109929186D01*
X77887936Y-110071356D01*
X77803110Y-110222484D01*
X77771577Y-110284889D01*
X77688383Y-110470929D01*
X77620988Y-110659346D01*
X77567872Y-110855103D01*
X77527516Y-111063160D01*
X77521810Y-111100146D01*
X77514248Y-111166649D01*
X77508528Y-111249196D01*
X77504652Y-111343234D01*
X77502622Y-111444211D01*
X77502439Y-111547576D01*
X77119828Y-111547576D01*
X77121029Y-111345513D01*
X77141878Y-111086155D01*
X77182045Y-110835415D01*
X77241593Y-110593131D01*
X77320584Y-110359140D01*
X77419079Y-110133279D01*
X77537142Y-109915385D01*
X77674834Y-109705297D01*
X77832217Y-109502851D01*
X77994810Y-109322842D01*
X78182642Y-109142835D01*
X78380771Y-108980464D01*
X78588381Y-108836190D01*
X78804659Y-108710472D01*
X79028789Y-108603772D01*
X79259958Y-108516550D01*
X79497350Y-108449265D01*
X79569266Y-108433120D01*
X79668496Y-108413309D01*
X79759745Y-108397855D01*
X79847986Y-108386294D01*
X79938196Y-108378164D01*
X80035347Y-108373000D01*
X80144415Y-108370339D01*
X80250000Y-108369699D01*
X80399694Y-108371428D01*
X80399694Y-108371428D01*
G37*
X80399694Y-108371428D02*
X80533725Y-108377063D01*
X80657358Y-108387283D01*
X80775858Y-108402762D01*
X80894488Y-108424178D01*
X81018515Y-108452205D01*
X81140815Y-108484111D01*
X81361181Y-108555265D01*
X81577469Y-108646271D01*
X81788250Y-108755972D01*
X81992097Y-108883213D01*
X82187582Y-109026836D01*
X82373277Y-109185685D01*
X82547755Y-109358603D01*
X82709587Y-109544435D01*
X82857346Y-109742022D01*
X82989604Y-109950209D01*
X83022792Y-110008667D01*
X83129484Y-110223000D01*
X83218380Y-110447595D01*
X83289263Y-110680909D01*
X83341919Y-110921402D01*
X83376130Y-111167530D01*
X83391681Y-111417751D01*
X83388356Y-111670525D01*
X83365940Y-111924307D01*
X83325563Y-112170911D01*
X83267094Y-112407627D01*
X83188586Y-112638964D01*
X83090736Y-112863849D01*
X82974237Y-113081207D01*
X82839784Y-113289962D01*
X82688074Y-113489042D01*
X82519801Y-113677370D01*
X82335660Y-113853873D01*
X82136346Y-114017477D01*
X82125972Y-114025316D01*
X81920658Y-114167635D01*
X81707924Y-114290890D01*
X81486776Y-114395481D01*
X81256221Y-114481812D01*
X81015265Y-114550286D01*
X80762914Y-114601303D01*
X80668216Y-114615594D01*
X80591842Y-114623879D01*
X80499726Y-114630281D01*
X80397092Y-114634733D01*
X80289160Y-114637171D01*
X80181152Y-114637529D01*
X80078291Y-114635742D01*
X79985798Y-114631744D01*
X79908894Y-114625470D01*
X79905898Y-114625135D01*
X79646739Y-114585541D01*
X79396077Y-114526623D01*
X79154242Y-114448543D01*
X78921567Y-114351465D01*
X78698383Y-114235548D01*
X78485021Y-114100957D01*
X78281814Y-113947852D01*
X78089091Y-113776397D01*
X78010258Y-113697823D01*
X77841636Y-113512745D01*
X77692922Y-113325079D01*
X77562854Y-113132798D01*
X77450173Y-112933872D01*
X77353618Y-112726271D01*
X77272978Y-112511118D01*
X77219938Y-112336655D01*
X77179033Y-112165355D01*
X77149294Y-111991554D01*
X77129753Y-111809588D01*
X77119440Y-111613791D01*
X77119436Y-111613651D01*
X77119828Y-111547576D01*
X77502439Y-111547576D01*
X77504105Y-111648774D01*
X77507621Y-111743255D01*
X77512989Y-111826465D01*
X77520211Y-111893853D01*
X77521522Y-111902752D01*
X77568342Y-112142855D01*
X77633129Y-112372048D01*
X77716209Y-112590970D01*
X77817907Y-112800258D01*
X77938547Y-113000553D01*
X78078453Y-113192492D01*
X78237951Y-113376714D01*
X78307465Y-113448541D01*
X78487921Y-113615258D01*
X78677541Y-113763006D01*
X78876041Y-113891649D01*
X79083136Y-114001048D01*
X79298545Y-114091068D01*
X79521983Y-114161570D01*
X79753167Y-114212417D01*
X79939564Y-114238439D01*
X80002126Y-114243234D01*
X80080608Y-114246474D01*
X80169813Y-114248191D01*
X80264547Y-114248417D01*
X80359613Y-114247183D01*
X80449815Y-114244522D01*
X80529958Y-114240465D01*
X80594844Y-114235044D01*
X80600687Y-114234382D01*
X80823639Y-114199486D01*
X81036168Y-114147744D01*
X81241996Y-114078070D01*
X81444843Y-113989378D01*
X81451709Y-113986026D01*
X81658138Y-113873475D01*
X81855131Y-113743165D01*
X82041125Y-113596619D01*
X82214555Y-113435358D01*
X82373858Y-113260907D01*
X82517470Y-113074786D01*
X82643826Y-112878520D01*
X82706788Y-112764123D01*
X82802089Y-112561874D01*
X82878405Y-112358971D01*
X82936385Y-112152686D01*
X82976678Y-111940286D01*
X82999934Y-111719044D01*
X83006840Y-111502480D01*
X83003076Y-111328124D01*
X82991195Y-111167559D01*
X82970222Y-111014641D01*
X82939182Y-110863228D01*
X82897102Y-110707175D01*
X82864089Y-110602522D01*
X82782284Y-110388954D01*
X82680582Y-110182168D01*
X82559330Y-109982728D01*
X82418870Y-109791194D01*
X82259550Y-109608130D01*
X82243879Y-109591651D01*
X82066237Y-109420130D01*
X81880616Y-109268193D01*
X81686703Y-109135680D01*
X81484186Y-109022438D01*
X81272752Y-108928308D01*
X81052089Y-108853134D01*
X80821883Y-108796760D01*
X80581824Y-108759029D01*
X80581208Y-108758958D01*
X80496654Y-108751613D01*
X80398085Y-108747108D01*
X80290486Y-108745345D01*
X80178841Y-108746223D01*
X80068134Y-108749645D01*
X79963348Y-108755513D01*
X79869469Y-108763727D01*
X79791480Y-108774188D01*
X79788855Y-108774636D01*
X79552639Y-108825182D01*
X79327167Y-108893770D01*
X79111788Y-108980732D01*
X78905850Y-109086402D01*
X78708703Y-109211114D01*
X78519696Y-109355201D01*
X78340205Y-109517019D01*
X78204356Y-109655959D01*
X78085640Y-109792034D01*
X77981140Y-109929186D01*
X77887936Y-110071356D01*
X77803110Y-110222484D01*
X77771577Y-110284889D01*
X77688383Y-110470929D01*
X77620988Y-110659346D01*
X77567872Y-110855103D01*
X77527516Y-111063160D01*
X77521810Y-111100146D01*
X77514248Y-111166649D01*
X77508528Y-111249196D01*
X77504652Y-111343234D01*
X77502622Y-111444211D01*
X77502439Y-111547576D01*
X77119828Y-111547576D01*
X77121029Y-111345513D01*
X77141878Y-111086155D01*
X77182045Y-110835415D01*
X77241593Y-110593131D01*
X77320584Y-110359140D01*
X77419079Y-110133279D01*
X77537142Y-109915385D01*
X77674834Y-109705297D01*
X77832217Y-109502851D01*
X77994810Y-109322842D01*
X78182642Y-109142835D01*
X78380771Y-108980464D01*
X78588381Y-108836190D01*
X78804659Y-108710472D01*
X79028789Y-108603772D01*
X79259958Y-108516550D01*
X79497350Y-108449265D01*
X79569266Y-108433120D01*
X79668496Y-108413309D01*
X79759745Y-108397855D01*
X79847986Y-108386294D01*
X79938196Y-108378164D01*
X80035347Y-108373000D01*
X80144415Y-108370339D01*
X80250000Y-108369699D01*
X80399694Y-108371428D01*
D11*
G36*
X105020687Y-172887358D02*
G01*
X105520402Y-173038945D01*
X105980943Y-173285109D01*
X106384610Y-173616390D01*
X106715891Y-174020057D01*
X106962055Y-174480598D01*
X107113642Y-174980313D01*
X107164827Y-175500000D01*
X107113642Y-176019687D01*
X106962055Y-176519402D01*
X106715891Y-176979943D01*
X106384610Y-177383610D01*
X105980943Y-177714891D01*
X105520402Y-177961055D01*
X105020687Y-178112642D01*
X104631234Y-178151000D01*
X101570766Y-178151000D01*
X101181313Y-178112642D01*
X100681598Y-177961055D01*
X100221057Y-177714891D01*
X99817390Y-177383610D01*
X99486109Y-176979943D01*
X99239945Y-176519402D01*
X99088358Y-176019687D01*
X99037173Y-175500000D01*
X99088358Y-174980313D01*
X99239945Y-174480598D01*
X99486109Y-174020057D01*
X99817390Y-173616390D01*
X100221057Y-173285109D01*
X100681598Y-173038945D01*
X101181313Y-172887358D01*
X101570766Y-172849000D01*
X104631234Y-172849000D01*
X105020687Y-172887358D01*
X105020687Y-172887358D01*
G37*
G36*
X59320687Y-172887358D02*
G01*
X59820402Y-173038945D01*
X60280943Y-173285109D01*
X60684610Y-173616390D01*
X61015891Y-174020057D01*
X61262055Y-174480598D01*
X61413642Y-174980313D01*
X61464827Y-175500000D01*
X61413642Y-176019687D01*
X61262055Y-176519402D01*
X61015891Y-176979943D01*
X60684610Y-177383610D01*
X60280943Y-177714891D01*
X59820402Y-177961055D01*
X59320687Y-178112642D01*
X58931234Y-178151000D01*
X55870766Y-178151000D01*
X55481313Y-178112642D01*
X54981598Y-177961055D01*
X54521057Y-177714891D01*
X54117390Y-177383610D01*
X53786109Y-176979943D01*
X53539945Y-176519402D01*
X53388358Y-176019687D01*
X53337173Y-175500000D01*
X53388358Y-174980313D01*
X53539945Y-174480598D01*
X53786109Y-174020057D01*
X54117390Y-173616390D01*
X54521057Y-173285109D01*
X54981598Y-173038945D01*
X55481313Y-172887358D01*
X55870766Y-172849000D01*
X58931234Y-172849000D01*
X59320687Y-172887358D01*
X59320687Y-172887358D01*
G37*
G36*
X53698903Y-150993213D02*
G01*
X53921177Y-151037426D01*
X54339932Y-151210880D01*
X54716802Y-151462696D01*
X55037304Y-151783198D01*
X55289120Y-152160068D01*
X55462574Y-152578823D01*
X55551000Y-153023371D01*
X55551000Y-153476629D01*
X55462574Y-153921177D01*
X55289120Y-154339932D01*
X55037304Y-154716802D01*
X54716802Y-155037304D01*
X54339932Y-155289120D01*
X53921177Y-155462574D01*
X53698903Y-155506787D01*
X53476630Y-155551000D01*
X53023370Y-155551000D01*
X52801097Y-155506787D01*
X52578823Y-155462574D01*
X52160068Y-155289120D01*
X51783198Y-155037304D01*
X51462696Y-154716802D01*
X51210880Y-154339932D01*
X51037426Y-153921177D01*
X50949000Y-153476629D01*
X50949000Y-153023371D01*
X51037426Y-152578823D01*
X51210880Y-152160068D01*
X51462696Y-151783198D01*
X51783198Y-151462696D01*
X52160068Y-151210880D01*
X52578823Y-151037426D01*
X52801097Y-150993213D01*
X53023370Y-150949000D01*
X53476630Y-150949000D01*
X53698903Y-150993213D01*
X53698903Y-150993213D01*
G37*
G36*
X107698903Y-150993213D02*
G01*
X107921177Y-151037426D01*
X108339932Y-151210880D01*
X108716802Y-151462696D01*
X109037304Y-151783198D01*
X109289120Y-152160068D01*
X109462574Y-152578823D01*
X109551000Y-153023371D01*
X109551000Y-153476629D01*
X109462574Y-153921177D01*
X109289120Y-154339932D01*
X109037304Y-154716802D01*
X108716802Y-155037304D01*
X108339932Y-155289120D01*
X107921177Y-155462574D01*
X107698903Y-155506787D01*
X107476630Y-155551000D01*
X107023370Y-155551000D01*
X106801097Y-155506787D01*
X106578823Y-155462574D01*
X106160068Y-155289120D01*
X105783198Y-155037304D01*
X105462696Y-154716802D01*
X105210880Y-154339932D01*
X105037426Y-153921177D01*
X104949000Y-153476629D01*
X104949000Y-153023371D01*
X105037426Y-152578823D01*
X105210880Y-152160068D01*
X105462696Y-151783198D01*
X105783198Y-151462696D01*
X106160068Y-151210880D01*
X106578823Y-151037426D01*
X106801097Y-150993213D01*
X107023370Y-150949000D01*
X107476630Y-150949000D01*
X107698903Y-150993213D01*
X107698903Y-150993213D01*
G37*
G36*
X56554048Y-113221442D02*
G01*
X56846413Y-113310130D01*
X56846415Y-113310131D01*
X57115856Y-113454150D01*
X57115858Y-113454151D01*
X57115857Y-113454151D01*
X57352029Y-113647971D01*
X57439395Y-113754426D01*
X57545850Y-113884142D01*
X57689869Y-114153584D01*
X57689870Y-114153586D01*
X57778558Y-114445951D01*
X57801000Y-114673810D01*
X57801000Y-139826190D01*
X57778558Y-140054049D01*
X57759808Y-140115858D01*
X57689869Y-140346416D01*
X57545850Y-140615858D01*
X57352029Y-140852029D01*
X57115858Y-141045850D01*
X56846416Y-141189869D01*
X56846414Y-141189870D01*
X56554049Y-141278558D01*
X56250000Y-141308504D01*
X55945952Y-141278558D01*
X55653587Y-141189870D01*
X55653585Y-141189869D01*
X55384143Y-141045850D01*
X55147972Y-140852029D01*
X54954151Y-140615858D01*
X54810132Y-140346416D01*
X54740193Y-140115858D01*
X54721443Y-140054049D01*
X54699001Y-139826190D01*
X54699000Y-114673811D01*
X54721442Y-114445952D01*
X54810130Y-114153587D01*
X54954151Y-113884143D01*
X55147971Y-113647971D01*
X55254426Y-113560605D01*
X55384142Y-113454150D01*
X55653584Y-113310131D01*
X55653586Y-113310130D01*
X55945951Y-113221442D01*
X56250000Y-113191496D01*
X56554048Y-113221442D01*
X56554048Y-113221442D01*
G37*
G36*
X104554049Y-113221442D02*
G01*
X104846414Y-113310130D01*
X104846416Y-113310131D01*
X105115858Y-113454150D01*
X105352029Y-113647971D01*
X105545850Y-113884142D01*
X105689869Y-114153584D01*
X105689870Y-114153586D01*
X105778558Y-114445951D01*
X105801000Y-114673810D01*
X105801000Y-139826190D01*
X105778558Y-140054049D01*
X105759808Y-140115858D01*
X105689869Y-140346416D01*
X105545850Y-140615858D01*
X105439395Y-140745574D01*
X105352029Y-140852029D01*
X105151768Y-141016378D01*
X105115856Y-141045850D01*
X104846415Y-141189869D01*
X104846413Y-141189870D01*
X104554048Y-141278558D01*
X104250000Y-141308504D01*
X103945951Y-141278558D01*
X103653586Y-141189870D01*
X103653584Y-141189869D01*
X103384142Y-141045850D01*
X103254426Y-140939395D01*
X103147971Y-140852029D01*
X102954151Y-140615857D01*
X102810130Y-140346413D01*
X102721442Y-140054048D01*
X102699000Y-139826189D01*
X102699001Y-114673810D01*
X102721443Y-114445951D01*
X102810131Y-114153586D01*
X102810132Y-114153584D01*
X102954151Y-113884142D01*
X103147972Y-113647971D01*
X103384143Y-113454150D01*
X103653585Y-113310131D01*
X103653587Y-113310130D01*
X103945952Y-113221442D01*
X104250000Y-113191496D01*
X104554049Y-113221442D01*
X104554049Y-113221442D01*
G37*
G36*
X92902143Y-137706481D02*
G01*
X93054049Y-137721442D01*
X93346414Y-137810130D01*
X93346416Y-137810131D01*
X93615858Y-137954150D01*
X93852029Y-138147971D01*
X94045850Y-138384142D01*
X94189869Y-138653584D01*
X94189870Y-138653586D01*
X94278558Y-138945951D01*
X94308504Y-139250000D01*
X94278558Y-139554049D01*
X94189870Y-139846414D01*
X94189869Y-139846416D01*
X94045850Y-140115858D01*
X93852029Y-140352029D01*
X93615858Y-140545850D01*
X93346416Y-140689869D01*
X93346414Y-140689870D01*
X93054049Y-140778558D01*
X92902143Y-140793519D01*
X92826191Y-140801000D01*
X67673809Y-140801000D01*
X67597857Y-140793519D01*
X67445951Y-140778558D01*
X67153586Y-140689870D01*
X67153584Y-140689869D01*
X66884142Y-140545850D01*
X66647971Y-140352029D01*
X66454150Y-140115858D01*
X66310131Y-139846416D01*
X66310130Y-139846414D01*
X66221442Y-139554049D01*
X66191496Y-139250000D01*
X66221442Y-138945951D01*
X66310130Y-138653586D01*
X66310131Y-138653584D01*
X66454150Y-138384142D01*
X66647971Y-138147971D01*
X66884142Y-137954150D01*
X67153584Y-137810131D01*
X67153586Y-137810130D01*
X67445951Y-137721442D01*
X67597857Y-137706481D01*
X67673809Y-137699000D01*
X92826191Y-137699000D01*
X92902143Y-137706481D01*
X92902143Y-137706481D01*
G37*
G36*
X92902143Y-127706481D02*
G01*
X93054049Y-127721442D01*
X93346414Y-127810130D01*
X93346416Y-127810131D01*
X93615858Y-127954150D01*
X93852029Y-128147971D01*
X94045850Y-128384142D01*
X94189869Y-128653584D01*
X94189870Y-128653586D01*
X94278558Y-128945951D01*
X94308504Y-129250000D01*
X94278558Y-129554049D01*
X94189870Y-129846414D01*
X94189869Y-129846416D01*
X94045850Y-130115858D01*
X93852029Y-130352029D01*
X93615858Y-130545850D01*
X93346416Y-130689869D01*
X93346414Y-130689870D01*
X93054049Y-130778558D01*
X92902143Y-130793519D01*
X92826191Y-130801000D01*
X67673809Y-130801000D01*
X67597857Y-130793519D01*
X67445951Y-130778558D01*
X67153586Y-130689870D01*
X67153584Y-130689869D01*
X66884142Y-130545850D01*
X66647971Y-130352029D01*
X66454150Y-130115858D01*
X66310131Y-129846416D01*
X66310130Y-129846414D01*
X66221442Y-129554049D01*
X66191496Y-129250000D01*
X66221442Y-128945951D01*
X66310130Y-128653586D01*
X66310131Y-128653584D01*
X66454150Y-128384142D01*
X66647971Y-128147971D01*
X66884142Y-127954150D01*
X67153584Y-127810131D01*
X67153586Y-127810130D01*
X67445951Y-127721442D01*
X67597857Y-127706481D01*
X67673809Y-127699000D01*
X92826191Y-127699000D01*
X92902143Y-127706481D01*
X92902143Y-127706481D01*
G37*
G36*
X92902143Y-117706481D02*
G01*
X93054049Y-117721442D01*
X93346414Y-117810130D01*
X93346416Y-117810131D01*
X93615858Y-117954150D01*
X93852029Y-118147971D01*
X94045850Y-118384142D01*
X94189869Y-118653584D01*
X94189870Y-118653586D01*
X94278558Y-118945951D01*
X94308504Y-119250000D01*
X94278558Y-119554049D01*
X94189870Y-119846414D01*
X94189869Y-119846416D01*
X94045850Y-120115858D01*
X93852029Y-120352029D01*
X93615858Y-120545850D01*
X93346416Y-120689869D01*
X93346414Y-120689870D01*
X93054049Y-120778558D01*
X92902143Y-120793519D01*
X92826191Y-120801000D01*
X67673809Y-120801000D01*
X67597857Y-120793519D01*
X67445951Y-120778558D01*
X67153586Y-120689870D01*
X67153584Y-120689869D01*
X66884142Y-120545850D01*
X66647971Y-120352029D01*
X66454150Y-120115858D01*
X66310131Y-119846416D01*
X66310130Y-119846414D01*
X66221442Y-119554049D01*
X66191496Y-119250000D01*
X66221442Y-118945951D01*
X66310130Y-118653586D01*
X66310131Y-118653584D01*
X66454150Y-118384142D01*
X66647971Y-118147971D01*
X66884142Y-117954150D01*
X67153584Y-117810131D01*
X67153586Y-117810130D01*
X67445951Y-117721442D01*
X67597857Y-117706481D01*
X67673809Y-117699000D01*
X92826191Y-117699000D01*
X92902143Y-117706481D01*
X92902143Y-117706481D01*
G37*
G36*
X104554049Y-78221442D02*
G01*
X104846414Y-78310130D01*
X104846416Y-78310131D01*
X105115858Y-78454150D01*
X105352029Y-78647971D01*
X105545850Y-78884142D01*
X105689869Y-79153584D01*
X105689870Y-79153586D01*
X105778558Y-79445951D01*
X105801000Y-79673810D01*
X105801000Y-104826190D01*
X105778558Y-105054049D01*
X105689870Y-105346413D01*
X105689869Y-105346416D01*
X105545850Y-105615858D01*
X105439395Y-105745574D01*
X105352029Y-105852029D01*
X105151768Y-106016378D01*
X105115856Y-106045850D01*
X104846415Y-106189869D01*
X104846413Y-106189870D01*
X104554048Y-106278558D01*
X104250000Y-106308504D01*
X103945951Y-106278558D01*
X103653586Y-106189870D01*
X103653584Y-106189869D01*
X103384142Y-106045850D01*
X103254426Y-105939395D01*
X103147971Y-105852029D01*
X102954151Y-105615857D01*
X102810130Y-105346413D01*
X102721442Y-105054048D01*
X102699000Y-104826189D01*
X102699001Y-79673810D01*
X102721443Y-79445951D01*
X102810131Y-79153586D01*
X102810132Y-79153584D01*
X102954151Y-78884142D01*
X103147972Y-78647971D01*
X103384143Y-78454150D01*
X103653585Y-78310131D01*
X103653587Y-78310130D01*
X103945952Y-78221442D01*
X104250000Y-78191496D01*
X104554049Y-78221442D01*
X104554049Y-78221442D01*
G37*
G36*
X56554048Y-78221442D02*
G01*
X56846413Y-78310130D01*
X56846415Y-78310131D01*
X57115856Y-78454150D01*
X57115858Y-78454151D01*
X57115857Y-78454151D01*
X57352029Y-78647971D01*
X57372566Y-78672996D01*
X57545850Y-78884142D01*
X57689869Y-79153584D01*
X57689870Y-79153586D01*
X57778558Y-79445951D01*
X57801000Y-79673810D01*
X57801000Y-104826190D01*
X57778558Y-105054049D01*
X57689870Y-105346413D01*
X57689869Y-105346416D01*
X57545850Y-105615858D01*
X57352029Y-105852029D01*
X57115858Y-106045850D01*
X56846416Y-106189869D01*
X56846414Y-106189870D01*
X56554049Y-106278558D01*
X56250000Y-106308504D01*
X55945952Y-106278558D01*
X55653587Y-106189870D01*
X55653585Y-106189869D01*
X55384143Y-106045850D01*
X55147972Y-105852029D01*
X54954151Y-105615858D01*
X54810132Y-105346416D01*
X54810131Y-105346413D01*
X54721443Y-105054049D01*
X54699001Y-104826190D01*
X54699000Y-79673811D01*
X54721442Y-79445952D01*
X54810130Y-79153587D01*
X54954151Y-78884143D01*
X55147971Y-78647971D01*
X55254426Y-78560605D01*
X55384142Y-78454150D01*
X55653584Y-78310131D01*
X55653586Y-78310130D01*
X55945951Y-78221442D01*
X56250000Y-78191496D01*
X56554048Y-78221442D01*
X56554048Y-78221442D01*
G37*
G36*
X81358710Y-72595070D02*
G01*
X82050447Y-72881597D01*
X82050448Y-72881598D01*
X82672996Y-73297571D01*
X83202429Y-73827004D01*
X83480374Y-74242978D01*
X83618403Y-74449553D01*
X83904930Y-75141290D01*
X84051000Y-75875633D01*
X84051000Y-76624367D01*
X83904930Y-77358710D01*
X83618403Y-78050447D01*
X83618402Y-78050448D01*
X83202429Y-78672996D01*
X82672996Y-79202429D01*
X82308539Y-79445951D01*
X82050447Y-79618403D01*
X81358710Y-79904930D01*
X80624367Y-80051000D01*
X79875633Y-80051000D01*
X79141290Y-79904930D01*
X78449553Y-79618403D01*
X78191461Y-79445951D01*
X77827004Y-79202429D01*
X77297571Y-78672996D01*
X76881598Y-78050448D01*
X76881597Y-78050447D01*
X76595070Y-77358710D01*
X76449000Y-76624367D01*
X76449000Y-75875633D01*
X76595070Y-75141290D01*
X76881597Y-74449553D01*
X77019626Y-74242978D01*
X77297571Y-73827004D01*
X77827004Y-73297571D01*
X78449552Y-72881598D01*
X78449553Y-72881597D01*
X79141290Y-72595070D01*
X79875633Y-72449000D01*
X80624367Y-72449000D01*
X81358710Y-72595070D01*
X81358710Y-72595070D01*
G37*
G36*
X69358710Y-72595070D02*
G01*
X70050447Y-72881597D01*
X70050448Y-72881598D01*
X70672996Y-73297571D01*
X71202429Y-73827004D01*
X71480374Y-74242978D01*
X71618403Y-74449553D01*
X71904930Y-75141290D01*
X72051000Y-75875633D01*
X72051000Y-76624367D01*
X71904930Y-77358710D01*
X71618403Y-78050447D01*
X71618402Y-78050448D01*
X71202429Y-78672996D01*
X70672996Y-79202429D01*
X70308539Y-79445951D01*
X70050447Y-79618403D01*
X69358710Y-79904930D01*
X68624367Y-80051000D01*
X67875633Y-80051000D01*
X67141290Y-79904930D01*
X66449553Y-79618403D01*
X66191461Y-79445951D01*
X65827004Y-79202429D01*
X65297571Y-78672996D01*
X64881598Y-78050448D01*
X64881597Y-78050447D01*
X64595070Y-77358710D01*
X64449000Y-76624367D01*
X64449000Y-75875633D01*
X64595070Y-75141290D01*
X64881597Y-74449553D01*
X65019626Y-74242978D01*
X65297571Y-73827004D01*
X65827004Y-73297571D01*
X66449552Y-72881598D01*
X66449553Y-72881597D01*
X67141290Y-72595070D01*
X67875633Y-72449000D01*
X68624367Y-72449000D01*
X69358710Y-72595070D01*
X69358710Y-72595070D01*
G37*
G36*
X93358710Y-72595070D02*
G01*
X94050447Y-72881597D01*
X94050448Y-72881598D01*
X94672996Y-73297571D01*
X95202429Y-73827004D01*
X95480374Y-74242978D01*
X95618403Y-74449553D01*
X95904930Y-75141290D01*
X96051000Y-75875633D01*
X96051000Y-76624367D01*
X95904930Y-77358710D01*
X95618403Y-78050447D01*
X95618402Y-78050448D01*
X95202429Y-78672996D01*
X94672996Y-79202429D01*
X94308539Y-79445951D01*
X94050447Y-79618403D01*
X93358710Y-79904930D01*
X92624367Y-80051000D01*
X91875633Y-80051000D01*
X91141290Y-79904930D01*
X90449553Y-79618403D01*
X90191461Y-79445951D01*
X89827004Y-79202429D01*
X89297571Y-78672996D01*
X88881598Y-78050448D01*
X88881597Y-78050447D01*
X88595070Y-77358710D01*
X88449000Y-76624367D01*
X88449000Y-75875633D01*
X88595070Y-75141290D01*
X88881597Y-74449553D01*
X89019626Y-74242978D01*
X89297571Y-73827004D01*
X89827004Y-73297571D01*
X90449552Y-72881598D01*
X90449553Y-72881597D01*
X91141290Y-72595070D01*
X91875633Y-72449000D01*
X92624367Y-72449000D01*
X93358710Y-72595070D01*
X93358710Y-72595070D01*
G37*
G36*
X69358710Y-61095070D02*
G01*
X70050447Y-61381597D01*
X70050448Y-61381598D01*
X70672996Y-61797571D01*
X71202429Y-62327004D01*
X71480374Y-62742978D01*
X71618403Y-62949553D01*
X71904930Y-63641290D01*
X72051000Y-64375633D01*
X72051000Y-65124367D01*
X71904930Y-65858710D01*
X71618403Y-66550447D01*
X71618402Y-66550448D01*
X71202429Y-67172996D01*
X70672996Y-67702429D01*
X70257022Y-67980374D01*
X70050447Y-68118403D01*
X69358710Y-68404930D01*
X68624367Y-68551000D01*
X67875633Y-68551000D01*
X67141290Y-68404930D01*
X66449553Y-68118403D01*
X66242978Y-67980374D01*
X65827004Y-67702429D01*
X65297571Y-67172996D01*
X64881598Y-66550448D01*
X64881597Y-66550447D01*
X64595070Y-65858710D01*
X64449000Y-65124367D01*
X64449000Y-64375633D01*
X64595070Y-63641290D01*
X64881597Y-62949553D01*
X65019626Y-62742978D01*
X65297571Y-62327004D01*
X65827004Y-61797571D01*
X66449552Y-61381598D01*
X66449553Y-61381597D01*
X67141290Y-61095070D01*
X67875633Y-60949000D01*
X68624367Y-60949000D01*
X69358710Y-61095070D01*
X69358710Y-61095070D01*
G37*
G36*
X105358710Y-61095070D02*
G01*
X106050447Y-61381597D01*
X106050448Y-61381598D01*
X106672996Y-61797571D01*
X107202429Y-62327004D01*
X107480374Y-62742978D01*
X107618403Y-62949553D01*
X107904930Y-63641290D01*
X108051000Y-64375633D01*
X108051000Y-65124367D01*
X107904930Y-65858710D01*
X107618403Y-66550447D01*
X107618402Y-66550448D01*
X107202429Y-67172996D01*
X106672996Y-67702429D01*
X106257022Y-67980374D01*
X106050447Y-68118403D01*
X105358710Y-68404930D01*
X104624367Y-68551000D01*
X103875633Y-68551000D01*
X103141290Y-68404930D01*
X102449553Y-68118403D01*
X102242978Y-67980374D01*
X101827004Y-67702429D01*
X101297571Y-67172996D01*
X100881598Y-66550448D01*
X100881597Y-66550447D01*
X100595070Y-65858710D01*
X100449000Y-65124367D01*
X100449000Y-64375633D01*
X100595070Y-63641290D01*
X100881597Y-62949553D01*
X101019626Y-62742978D01*
X101297571Y-62327004D01*
X101827004Y-61797571D01*
X102449552Y-61381598D01*
X102449553Y-61381597D01*
X103141290Y-61095070D01*
X103875633Y-60949000D01*
X104624367Y-60949000D01*
X105358710Y-61095070D01*
X105358710Y-61095070D01*
G37*
G36*
X93358710Y-61095070D02*
G01*
X94050447Y-61381597D01*
X94050448Y-61381598D01*
X94672996Y-61797571D01*
X95202429Y-62327004D01*
X95480374Y-62742978D01*
X95618403Y-62949553D01*
X95904930Y-63641290D01*
X96051000Y-64375633D01*
X96051000Y-65124367D01*
X95904930Y-65858710D01*
X95618403Y-66550447D01*
X95618402Y-66550448D01*
X95202429Y-67172996D01*
X94672996Y-67702429D01*
X94257022Y-67980374D01*
X94050447Y-68118403D01*
X93358710Y-68404930D01*
X92624367Y-68551000D01*
X91875633Y-68551000D01*
X91141290Y-68404930D01*
X90449553Y-68118403D01*
X90242978Y-67980374D01*
X89827004Y-67702429D01*
X89297571Y-67172996D01*
X88881598Y-66550448D01*
X88881597Y-66550447D01*
X88595070Y-65858710D01*
X88449000Y-65124367D01*
X88449000Y-64375633D01*
X88595070Y-63641290D01*
X88881597Y-62949553D01*
X89019626Y-62742978D01*
X89297571Y-62327004D01*
X89827004Y-61797571D01*
X90449552Y-61381598D01*
X90449553Y-61381597D01*
X91141290Y-61095070D01*
X91875633Y-60949000D01*
X92624367Y-60949000D01*
X93358710Y-61095070D01*
X93358710Y-61095070D01*
G37*
G36*
X81358710Y-61095070D02*
G01*
X82050447Y-61381597D01*
X82050448Y-61381598D01*
X82672996Y-61797571D01*
X83202429Y-62327004D01*
X83480374Y-62742978D01*
X83618403Y-62949553D01*
X83904930Y-63641290D01*
X84051000Y-64375633D01*
X84051000Y-65124367D01*
X83904930Y-65858710D01*
X83618403Y-66550447D01*
X83618402Y-66550448D01*
X83202429Y-67172996D01*
X82672996Y-67702429D01*
X82257022Y-67980374D01*
X82050447Y-68118403D01*
X81358710Y-68404930D01*
X80624367Y-68551000D01*
X79875633Y-68551000D01*
X79141290Y-68404930D01*
X78449553Y-68118403D01*
X78242978Y-67980374D01*
X77827004Y-67702429D01*
X77297571Y-67172996D01*
X76881598Y-66550448D01*
X76881597Y-66550447D01*
X76595070Y-65858710D01*
X76449000Y-65124367D01*
X76449000Y-64375633D01*
X76595070Y-63641290D01*
X76881597Y-62949553D01*
X77019626Y-62742978D01*
X77297571Y-62327004D01*
X77827004Y-61797571D01*
X78449552Y-61381598D01*
X78449553Y-61381597D01*
X79141290Y-61095070D01*
X79875633Y-60949000D01*
X80624367Y-60949000D01*
X81358710Y-61095070D01*
X81358710Y-61095070D01*
G37*
G36*
X57358710Y-61095070D02*
G01*
X58050447Y-61381597D01*
X58050448Y-61381598D01*
X58672996Y-61797571D01*
X59202429Y-62327004D01*
X59480374Y-62742978D01*
X59618403Y-62949553D01*
X59904930Y-63641290D01*
X60051000Y-64375633D01*
X60051000Y-65124367D01*
X59904930Y-65858710D01*
X59618403Y-66550447D01*
X59618402Y-66550448D01*
X59202429Y-67172996D01*
X58672996Y-67702429D01*
X58257022Y-67980374D01*
X58050447Y-68118403D01*
X57358710Y-68404930D01*
X56624367Y-68551000D01*
X55875633Y-68551000D01*
X55141290Y-68404930D01*
X54449553Y-68118403D01*
X54242978Y-67980374D01*
X53827004Y-67702429D01*
X53297571Y-67172996D01*
X52881598Y-66550448D01*
X52881597Y-66550447D01*
X52595070Y-65858710D01*
X52449000Y-65124367D01*
X52449000Y-64375633D01*
X52595070Y-63641290D01*
X52881597Y-62949553D01*
X53019626Y-62742978D01*
X53297571Y-62327004D01*
X53827004Y-61797571D01*
X54449552Y-61381598D01*
X54449553Y-61381597D01*
X55141290Y-61095070D01*
X55875633Y-60949000D01*
X56624367Y-60949000D01*
X57358710Y-61095070D01*
X57358710Y-61095070D01*
G37*
G36*
X105020687Y-50387358D02*
G01*
X105520402Y-50538945D01*
X105980943Y-50785109D01*
X106384610Y-51116390D01*
X106715891Y-51520057D01*
X106962055Y-51980598D01*
X107113642Y-52480313D01*
X107164827Y-53000000D01*
X107113642Y-53519687D01*
X106962055Y-54019402D01*
X106715891Y-54479943D01*
X106384610Y-54883610D01*
X105980943Y-55214891D01*
X105520402Y-55461055D01*
X105020687Y-55612642D01*
X104631234Y-55651000D01*
X101570766Y-55651000D01*
X101181313Y-55612642D01*
X100681598Y-55461055D01*
X100221057Y-55214891D01*
X99817390Y-54883610D01*
X99486109Y-54479943D01*
X99239945Y-54019402D01*
X99088358Y-53519687D01*
X99037173Y-53000000D01*
X99088358Y-52480313D01*
X99239945Y-51980598D01*
X99486109Y-51520057D01*
X99817390Y-51116390D01*
X100221057Y-50785109D01*
X100681598Y-50538945D01*
X101181313Y-50387358D01*
X101570766Y-50349000D01*
X104631234Y-50349000D01*
X105020687Y-50387358D01*
X105020687Y-50387358D01*
G37*
G36*
X59320687Y-50387358D02*
G01*
X59820402Y-50538945D01*
X60280943Y-50785109D01*
X60684610Y-51116390D01*
X61015891Y-51520057D01*
X61262055Y-51980598D01*
X61413642Y-52480313D01*
X61464827Y-53000000D01*
X61413642Y-53519687D01*
X61262055Y-54019402D01*
X61015891Y-54479943D01*
X60684610Y-54883610D01*
X60280943Y-55214891D01*
X59820402Y-55461055D01*
X59320687Y-55612642D01*
X58931234Y-55651000D01*
X55870766Y-55651000D01*
X55481313Y-55612642D01*
X54981598Y-55461055D01*
X54521057Y-55214891D01*
X54117390Y-54883610D01*
X53786109Y-54479943D01*
X53539945Y-54019402D01*
X53388358Y-53519687D01*
X53337173Y-53000000D01*
X53388358Y-52480313D01*
X53539945Y-51980598D01*
X53786109Y-51520057D01*
X54117390Y-51116390D01*
X54521057Y-50785109D01*
X54981598Y-50538945D01*
X55481313Y-50387358D01*
X55870766Y-50349000D01*
X58931234Y-50349000D01*
X59320687Y-50387358D01*
X59320687Y-50387358D01*
G37*
M02*
