G04 #@! TF.GenerationSoftware,KiCad,Pcbnew,(5.1.4)-1*
G04 #@! TF.CreationDate,2020-06-21T13:41:15+09:00*
G04 #@! TF.ProjectId,dooper-panel,646f6f70-6572-42d7-9061-6e656c2e6b69,rev?*
G04 #@! TF.SameCoordinates,Original*
G04 #@! TF.FileFunction,Soldermask,Bot*
G04 #@! TF.FilePolarity,Negative*
%FSLAX46Y46*%
G04 Gerber Fmt 4.6, Leading zero omitted, Abs format (unit mm)*
G04 Created by KiCad (PCBNEW (5.1.4)-1) date 2020-06-21 13:41:15*
%MOMM*%
%LPD*%
G04 APERTURE LIST*
%ADD10C,0.010000*%
%ADD11C,0.100000*%
G04 APERTURE END LIST*
D10*
G36*
X50000000Y-168500000D02*
G01*
X110500000Y-168500000D01*
X110500000Y-178500000D01*
X50000000Y-178500000D01*
X50000000Y-168500000D01*
G37*
X50000000Y-168500000D02*
X110500000Y-168500000D01*
X110500000Y-178500000D01*
X50000000Y-178500000D01*
X50000000Y-168500000D01*
G36*
X50000000Y-50000000D02*
G01*
X110500000Y-50000000D01*
X110500000Y-60000000D01*
X50000000Y-60000000D01*
X50000000Y-50000000D01*
G37*
X50000000Y-50000000D02*
X110500000Y-50000000D01*
X110500000Y-60000000D01*
X50000000Y-60000000D01*
X50000000Y-50000000D01*
D11*
G36*
X105020687Y-172887358D02*
G01*
X105520402Y-173038945D01*
X105980943Y-173285109D01*
X106384610Y-173616390D01*
X106715891Y-174020057D01*
X106962055Y-174480598D01*
X107113642Y-174980313D01*
X107164827Y-175500000D01*
X107113642Y-176019687D01*
X106962055Y-176519402D01*
X106715891Y-176979943D01*
X106384610Y-177383610D01*
X105980943Y-177714891D01*
X105520402Y-177961055D01*
X105020687Y-178112642D01*
X104631234Y-178151000D01*
X101570766Y-178151000D01*
X101181313Y-178112642D01*
X100681598Y-177961055D01*
X100221057Y-177714891D01*
X99817390Y-177383610D01*
X99486109Y-176979943D01*
X99239945Y-176519402D01*
X99088358Y-176019687D01*
X99037173Y-175500000D01*
X99088358Y-174980313D01*
X99239945Y-174480598D01*
X99486109Y-174020057D01*
X99817390Y-173616390D01*
X100221057Y-173285109D01*
X100681598Y-173038945D01*
X101181313Y-172887358D01*
X101570766Y-172849000D01*
X104631234Y-172849000D01*
X105020687Y-172887358D01*
X105020687Y-172887358D01*
G37*
G36*
X59320687Y-172887358D02*
G01*
X59820402Y-173038945D01*
X60280943Y-173285109D01*
X60684610Y-173616390D01*
X61015891Y-174020057D01*
X61262055Y-174480598D01*
X61413642Y-174980313D01*
X61464827Y-175500000D01*
X61413642Y-176019687D01*
X61262055Y-176519402D01*
X61015891Y-176979943D01*
X60684610Y-177383610D01*
X60280943Y-177714891D01*
X59820402Y-177961055D01*
X59320687Y-178112642D01*
X58931234Y-178151000D01*
X55870766Y-178151000D01*
X55481313Y-178112642D01*
X54981598Y-177961055D01*
X54521057Y-177714891D01*
X54117390Y-177383610D01*
X53786109Y-176979943D01*
X53539945Y-176519402D01*
X53388358Y-176019687D01*
X53337173Y-175500000D01*
X53388358Y-174980313D01*
X53539945Y-174480598D01*
X53786109Y-174020057D01*
X54117390Y-173616390D01*
X54521057Y-173285109D01*
X54981598Y-173038945D01*
X55481313Y-172887358D01*
X55870766Y-172849000D01*
X58931234Y-172849000D01*
X59320687Y-172887358D01*
X59320687Y-172887358D01*
G37*
G36*
X53698903Y-150993213D02*
G01*
X53921177Y-151037426D01*
X54339932Y-151210880D01*
X54716802Y-151462696D01*
X55037304Y-151783198D01*
X55289120Y-152160068D01*
X55462574Y-152578823D01*
X55551000Y-153023371D01*
X55551000Y-153476629D01*
X55462574Y-153921177D01*
X55289120Y-154339932D01*
X55037304Y-154716802D01*
X54716802Y-155037304D01*
X54339932Y-155289120D01*
X53921177Y-155462574D01*
X53698903Y-155506787D01*
X53476630Y-155551000D01*
X53023370Y-155551000D01*
X52801097Y-155506787D01*
X52578823Y-155462574D01*
X52160068Y-155289120D01*
X51783198Y-155037304D01*
X51462696Y-154716802D01*
X51210880Y-154339932D01*
X51037426Y-153921177D01*
X50949000Y-153476629D01*
X50949000Y-153023371D01*
X51037426Y-152578823D01*
X51210880Y-152160068D01*
X51462696Y-151783198D01*
X51783198Y-151462696D01*
X52160068Y-151210880D01*
X52578823Y-151037426D01*
X52801097Y-150993213D01*
X53023370Y-150949000D01*
X53476630Y-150949000D01*
X53698903Y-150993213D01*
X53698903Y-150993213D01*
G37*
G36*
X107698903Y-150993213D02*
G01*
X107921177Y-151037426D01*
X108339932Y-151210880D01*
X108716802Y-151462696D01*
X109037304Y-151783198D01*
X109289120Y-152160068D01*
X109462574Y-152578823D01*
X109551000Y-153023371D01*
X109551000Y-153476629D01*
X109462574Y-153921177D01*
X109289120Y-154339932D01*
X109037304Y-154716802D01*
X108716802Y-155037304D01*
X108339932Y-155289120D01*
X107921177Y-155462574D01*
X107698903Y-155506787D01*
X107476630Y-155551000D01*
X107023370Y-155551000D01*
X106801097Y-155506787D01*
X106578823Y-155462574D01*
X106160068Y-155289120D01*
X105783198Y-155037304D01*
X105462696Y-154716802D01*
X105210880Y-154339932D01*
X105037426Y-153921177D01*
X104949000Y-153476629D01*
X104949000Y-153023371D01*
X105037426Y-152578823D01*
X105210880Y-152160068D01*
X105462696Y-151783198D01*
X105783198Y-151462696D01*
X106160068Y-151210880D01*
X106578823Y-151037426D01*
X106801097Y-150993213D01*
X107023370Y-150949000D01*
X107476630Y-150949000D01*
X107698903Y-150993213D01*
X107698903Y-150993213D01*
G37*
G36*
X56554048Y-113221442D02*
G01*
X56846413Y-113310130D01*
X56846415Y-113310131D01*
X57115856Y-113454150D01*
X57115858Y-113454151D01*
X57115857Y-113454151D01*
X57352029Y-113647971D01*
X57439395Y-113754426D01*
X57545850Y-113884142D01*
X57689869Y-114153584D01*
X57689870Y-114153586D01*
X57778558Y-114445951D01*
X57801000Y-114673810D01*
X57801000Y-139826190D01*
X57778558Y-140054049D01*
X57759808Y-140115858D01*
X57689869Y-140346416D01*
X57545850Y-140615858D01*
X57352029Y-140852029D01*
X57115858Y-141045850D01*
X56846416Y-141189869D01*
X56846414Y-141189870D01*
X56554049Y-141278558D01*
X56250000Y-141308504D01*
X55945952Y-141278558D01*
X55653587Y-141189870D01*
X55653585Y-141189869D01*
X55384143Y-141045850D01*
X55147972Y-140852029D01*
X54954151Y-140615858D01*
X54810132Y-140346416D01*
X54740193Y-140115858D01*
X54721443Y-140054049D01*
X54699001Y-139826190D01*
X54699000Y-114673811D01*
X54721442Y-114445952D01*
X54810130Y-114153587D01*
X54954151Y-113884143D01*
X55147971Y-113647971D01*
X55254426Y-113560605D01*
X55384142Y-113454150D01*
X55653584Y-113310131D01*
X55653586Y-113310130D01*
X55945951Y-113221442D01*
X56250000Y-113191496D01*
X56554048Y-113221442D01*
X56554048Y-113221442D01*
G37*
G36*
X104554049Y-113221442D02*
G01*
X104846414Y-113310130D01*
X104846416Y-113310131D01*
X105115858Y-113454150D01*
X105352029Y-113647971D01*
X105545850Y-113884142D01*
X105689869Y-114153584D01*
X105689870Y-114153586D01*
X105778558Y-114445951D01*
X105801000Y-114673810D01*
X105801000Y-139826190D01*
X105778558Y-140054049D01*
X105759808Y-140115858D01*
X105689869Y-140346416D01*
X105545850Y-140615858D01*
X105439395Y-140745574D01*
X105352029Y-140852029D01*
X105151768Y-141016378D01*
X105115856Y-141045850D01*
X104846415Y-141189869D01*
X104846413Y-141189870D01*
X104554048Y-141278558D01*
X104250000Y-141308504D01*
X103945951Y-141278558D01*
X103653586Y-141189870D01*
X103653584Y-141189869D01*
X103384142Y-141045850D01*
X103254426Y-140939395D01*
X103147971Y-140852029D01*
X102954151Y-140615857D01*
X102810130Y-140346413D01*
X102721442Y-140054048D01*
X102699000Y-139826189D01*
X102699001Y-114673810D01*
X102721443Y-114445951D01*
X102810131Y-114153586D01*
X102810132Y-114153584D01*
X102954151Y-113884142D01*
X103147972Y-113647971D01*
X103384143Y-113454150D01*
X103653585Y-113310131D01*
X103653587Y-113310130D01*
X103945952Y-113221442D01*
X104250000Y-113191496D01*
X104554049Y-113221442D01*
X104554049Y-113221442D01*
G37*
G36*
X92902143Y-137706481D02*
G01*
X93054049Y-137721442D01*
X93346414Y-137810130D01*
X93346416Y-137810131D01*
X93615858Y-137954150D01*
X93852029Y-138147971D01*
X94045850Y-138384142D01*
X94189869Y-138653584D01*
X94189870Y-138653586D01*
X94278558Y-138945951D01*
X94308504Y-139250000D01*
X94278558Y-139554049D01*
X94189870Y-139846414D01*
X94189869Y-139846416D01*
X94045850Y-140115858D01*
X93852029Y-140352029D01*
X93615858Y-140545850D01*
X93346416Y-140689869D01*
X93346414Y-140689870D01*
X93054049Y-140778558D01*
X92902143Y-140793519D01*
X92826191Y-140801000D01*
X67673809Y-140801000D01*
X67597857Y-140793519D01*
X67445951Y-140778558D01*
X67153586Y-140689870D01*
X67153584Y-140689869D01*
X66884142Y-140545850D01*
X66647971Y-140352029D01*
X66454150Y-140115858D01*
X66310131Y-139846416D01*
X66310130Y-139846414D01*
X66221442Y-139554049D01*
X66191496Y-139250000D01*
X66221442Y-138945951D01*
X66310130Y-138653586D01*
X66310131Y-138653584D01*
X66454150Y-138384142D01*
X66647971Y-138147971D01*
X66884142Y-137954150D01*
X67153584Y-137810131D01*
X67153586Y-137810130D01*
X67445951Y-137721442D01*
X67597857Y-137706481D01*
X67673809Y-137699000D01*
X92826191Y-137699000D01*
X92902143Y-137706481D01*
X92902143Y-137706481D01*
G37*
G36*
X92902143Y-127706481D02*
G01*
X93054049Y-127721442D01*
X93346414Y-127810130D01*
X93346416Y-127810131D01*
X93615858Y-127954150D01*
X93852029Y-128147971D01*
X94045850Y-128384142D01*
X94189869Y-128653584D01*
X94189870Y-128653586D01*
X94278558Y-128945951D01*
X94308504Y-129250000D01*
X94278558Y-129554049D01*
X94189870Y-129846414D01*
X94189869Y-129846416D01*
X94045850Y-130115858D01*
X93852029Y-130352029D01*
X93615858Y-130545850D01*
X93346416Y-130689869D01*
X93346414Y-130689870D01*
X93054049Y-130778558D01*
X92902143Y-130793519D01*
X92826191Y-130801000D01*
X67673809Y-130801000D01*
X67597857Y-130793519D01*
X67445951Y-130778558D01*
X67153586Y-130689870D01*
X67153584Y-130689869D01*
X66884142Y-130545850D01*
X66647971Y-130352029D01*
X66454150Y-130115858D01*
X66310131Y-129846416D01*
X66310130Y-129846414D01*
X66221442Y-129554049D01*
X66191496Y-129250000D01*
X66221442Y-128945951D01*
X66310130Y-128653586D01*
X66310131Y-128653584D01*
X66454150Y-128384142D01*
X66647971Y-128147971D01*
X66884142Y-127954150D01*
X67153584Y-127810131D01*
X67153586Y-127810130D01*
X67445951Y-127721442D01*
X67597857Y-127706481D01*
X67673809Y-127699000D01*
X92826191Y-127699000D01*
X92902143Y-127706481D01*
X92902143Y-127706481D01*
G37*
G36*
X92902143Y-117706481D02*
G01*
X93054049Y-117721442D01*
X93346414Y-117810130D01*
X93346416Y-117810131D01*
X93615858Y-117954150D01*
X93852029Y-118147971D01*
X94045850Y-118384142D01*
X94189869Y-118653584D01*
X94189870Y-118653586D01*
X94278558Y-118945951D01*
X94308504Y-119250000D01*
X94278558Y-119554049D01*
X94189870Y-119846414D01*
X94189869Y-119846416D01*
X94045850Y-120115858D01*
X93852029Y-120352029D01*
X93615858Y-120545850D01*
X93346416Y-120689869D01*
X93346414Y-120689870D01*
X93054049Y-120778558D01*
X92902143Y-120793519D01*
X92826191Y-120801000D01*
X67673809Y-120801000D01*
X67597857Y-120793519D01*
X67445951Y-120778558D01*
X67153586Y-120689870D01*
X67153584Y-120689869D01*
X66884142Y-120545850D01*
X66647971Y-120352029D01*
X66454150Y-120115858D01*
X66310131Y-119846416D01*
X66310130Y-119846414D01*
X66221442Y-119554049D01*
X66191496Y-119250000D01*
X66221442Y-118945951D01*
X66310130Y-118653586D01*
X66310131Y-118653584D01*
X66454150Y-118384142D01*
X66647971Y-118147971D01*
X66884142Y-117954150D01*
X67153584Y-117810131D01*
X67153586Y-117810130D01*
X67445951Y-117721442D01*
X67597857Y-117706481D01*
X67673809Y-117699000D01*
X92826191Y-117699000D01*
X92902143Y-117706481D01*
X92902143Y-117706481D01*
G37*
G36*
X104554049Y-78221442D02*
G01*
X104846414Y-78310130D01*
X104846416Y-78310131D01*
X105115858Y-78454150D01*
X105352029Y-78647971D01*
X105545850Y-78884142D01*
X105689869Y-79153584D01*
X105689870Y-79153586D01*
X105778558Y-79445951D01*
X105801000Y-79673810D01*
X105801000Y-104826190D01*
X105778558Y-105054049D01*
X105689870Y-105346413D01*
X105689869Y-105346416D01*
X105545850Y-105615858D01*
X105439395Y-105745574D01*
X105352029Y-105852029D01*
X105151768Y-106016378D01*
X105115856Y-106045850D01*
X104846415Y-106189869D01*
X104846413Y-106189870D01*
X104554048Y-106278558D01*
X104250000Y-106308504D01*
X103945951Y-106278558D01*
X103653586Y-106189870D01*
X103653584Y-106189869D01*
X103384142Y-106045850D01*
X103254426Y-105939395D01*
X103147971Y-105852029D01*
X102954151Y-105615857D01*
X102810130Y-105346413D01*
X102721442Y-105054048D01*
X102699000Y-104826189D01*
X102699001Y-79673810D01*
X102721443Y-79445951D01*
X102810131Y-79153586D01*
X102810132Y-79153584D01*
X102954151Y-78884142D01*
X103147972Y-78647971D01*
X103384143Y-78454150D01*
X103653585Y-78310131D01*
X103653587Y-78310130D01*
X103945952Y-78221442D01*
X104250000Y-78191496D01*
X104554049Y-78221442D01*
X104554049Y-78221442D01*
G37*
G36*
X56554048Y-78221442D02*
G01*
X56846413Y-78310130D01*
X56846415Y-78310131D01*
X57115856Y-78454150D01*
X57115858Y-78454151D01*
X57115857Y-78454151D01*
X57352029Y-78647971D01*
X57372566Y-78672996D01*
X57545850Y-78884142D01*
X57689869Y-79153584D01*
X57689870Y-79153586D01*
X57778558Y-79445951D01*
X57801000Y-79673810D01*
X57801000Y-104826190D01*
X57778558Y-105054049D01*
X57689870Y-105346413D01*
X57689869Y-105346416D01*
X57545850Y-105615858D01*
X57352029Y-105852029D01*
X57115858Y-106045850D01*
X56846416Y-106189869D01*
X56846414Y-106189870D01*
X56554049Y-106278558D01*
X56250000Y-106308504D01*
X55945952Y-106278558D01*
X55653587Y-106189870D01*
X55653585Y-106189869D01*
X55384143Y-106045850D01*
X55147972Y-105852029D01*
X54954151Y-105615858D01*
X54810132Y-105346416D01*
X54810131Y-105346413D01*
X54721443Y-105054049D01*
X54699001Y-104826190D01*
X54699000Y-79673811D01*
X54721442Y-79445952D01*
X54810130Y-79153587D01*
X54954151Y-78884143D01*
X55147971Y-78647971D01*
X55254426Y-78560605D01*
X55384142Y-78454150D01*
X55653584Y-78310131D01*
X55653586Y-78310130D01*
X55945951Y-78221442D01*
X56250000Y-78191496D01*
X56554048Y-78221442D01*
X56554048Y-78221442D01*
G37*
G36*
X81358710Y-72595070D02*
G01*
X82050447Y-72881597D01*
X82050448Y-72881598D01*
X82672996Y-73297571D01*
X83202429Y-73827004D01*
X83480374Y-74242978D01*
X83618403Y-74449553D01*
X83904930Y-75141290D01*
X84051000Y-75875633D01*
X84051000Y-76624367D01*
X83904930Y-77358710D01*
X83618403Y-78050447D01*
X83618402Y-78050448D01*
X83202429Y-78672996D01*
X82672996Y-79202429D01*
X82308539Y-79445951D01*
X82050447Y-79618403D01*
X81358710Y-79904930D01*
X80624367Y-80051000D01*
X79875633Y-80051000D01*
X79141290Y-79904930D01*
X78449553Y-79618403D01*
X78191461Y-79445951D01*
X77827004Y-79202429D01*
X77297571Y-78672996D01*
X76881598Y-78050448D01*
X76881597Y-78050447D01*
X76595070Y-77358710D01*
X76449000Y-76624367D01*
X76449000Y-75875633D01*
X76595070Y-75141290D01*
X76881597Y-74449553D01*
X77019626Y-74242978D01*
X77297571Y-73827004D01*
X77827004Y-73297571D01*
X78449552Y-72881598D01*
X78449553Y-72881597D01*
X79141290Y-72595070D01*
X79875633Y-72449000D01*
X80624367Y-72449000D01*
X81358710Y-72595070D01*
X81358710Y-72595070D01*
G37*
G36*
X69358710Y-72595070D02*
G01*
X70050447Y-72881597D01*
X70050448Y-72881598D01*
X70672996Y-73297571D01*
X71202429Y-73827004D01*
X71480374Y-74242978D01*
X71618403Y-74449553D01*
X71904930Y-75141290D01*
X72051000Y-75875633D01*
X72051000Y-76624367D01*
X71904930Y-77358710D01*
X71618403Y-78050447D01*
X71618402Y-78050448D01*
X71202429Y-78672996D01*
X70672996Y-79202429D01*
X70308539Y-79445951D01*
X70050447Y-79618403D01*
X69358710Y-79904930D01*
X68624367Y-80051000D01*
X67875633Y-80051000D01*
X67141290Y-79904930D01*
X66449553Y-79618403D01*
X66191461Y-79445951D01*
X65827004Y-79202429D01*
X65297571Y-78672996D01*
X64881598Y-78050448D01*
X64881597Y-78050447D01*
X64595070Y-77358710D01*
X64449000Y-76624367D01*
X64449000Y-75875633D01*
X64595070Y-75141290D01*
X64881597Y-74449553D01*
X65019626Y-74242978D01*
X65297571Y-73827004D01*
X65827004Y-73297571D01*
X66449552Y-72881598D01*
X66449553Y-72881597D01*
X67141290Y-72595070D01*
X67875633Y-72449000D01*
X68624367Y-72449000D01*
X69358710Y-72595070D01*
X69358710Y-72595070D01*
G37*
G36*
X93358710Y-72595070D02*
G01*
X94050447Y-72881597D01*
X94050448Y-72881598D01*
X94672996Y-73297571D01*
X95202429Y-73827004D01*
X95480374Y-74242978D01*
X95618403Y-74449553D01*
X95904930Y-75141290D01*
X96051000Y-75875633D01*
X96051000Y-76624367D01*
X95904930Y-77358710D01*
X95618403Y-78050447D01*
X95618402Y-78050448D01*
X95202429Y-78672996D01*
X94672996Y-79202429D01*
X94308539Y-79445951D01*
X94050447Y-79618403D01*
X93358710Y-79904930D01*
X92624367Y-80051000D01*
X91875633Y-80051000D01*
X91141290Y-79904930D01*
X90449553Y-79618403D01*
X90191461Y-79445951D01*
X89827004Y-79202429D01*
X89297571Y-78672996D01*
X88881598Y-78050448D01*
X88881597Y-78050447D01*
X88595070Y-77358710D01*
X88449000Y-76624367D01*
X88449000Y-75875633D01*
X88595070Y-75141290D01*
X88881597Y-74449553D01*
X89019626Y-74242978D01*
X89297571Y-73827004D01*
X89827004Y-73297571D01*
X90449552Y-72881598D01*
X90449553Y-72881597D01*
X91141290Y-72595070D01*
X91875633Y-72449000D01*
X92624367Y-72449000D01*
X93358710Y-72595070D01*
X93358710Y-72595070D01*
G37*
G36*
X69358710Y-61095070D02*
G01*
X70050447Y-61381597D01*
X70050448Y-61381598D01*
X70672996Y-61797571D01*
X71202429Y-62327004D01*
X71480374Y-62742978D01*
X71618403Y-62949553D01*
X71904930Y-63641290D01*
X72051000Y-64375633D01*
X72051000Y-65124367D01*
X71904930Y-65858710D01*
X71618403Y-66550447D01*
X71618402Y-66550448D01*
X71202429Y-67172996D01*
X70672996Y-67702429D01*
X70257022Y-67980374D01*
X70050447Y-68118403D01*
X69358710Y-68404930D01*
X68624367Y-68551000D01*
X67875633Y-68551000D01*
X67141290Y-68404930D01*
X66449553Y-68118403D01*
X66242978Y-67980374D01*
X65827004Y-67702429D01*
X65297571Y-67172996D01*
X64881598Y-66550448D01*
X64881597Y-66550447D01*
X64595070Y-65858710D01*
X64449000Y-65124367D01*
X64449000Y-64375633D01*
X64595070Y-63641290D01*
X64881597Y-62949553D01*
X65019626Y-62742978D01*
X65297571Y-62327004D01*
X65827004Y-61797571D01*
X66449552Y-61381598D01*
X66449553Y-61381597D01*
X67141290Y-61095070D01*
X67875633Y-60949000D01*
X68624367Y-60949000D01*
X69358710Y-61095070D01*
X69358710Y-61095070D01*
G37*
G36*
X105358710Y-61095070D02*
G01*
X106050447Y-61381597D01*
X106050448Y-61381598D01*
X106672996Y-61797571D01*
X107202429Y-62327004D01*
X107480374Y-62742978D01*
X107618403Y-62949553D01*
X107904930Y-63641290D01*
X108051000Y-64375633D01*
X108051000Y-65124367D01*
X107904930Y-65858710D01*
X107618403Y-66550447D01*
X107618402Y-66550448D01*
X107202429Y-67172996D01*
X106672996Y-67702429D01*
X106257022Y-67980374D01*
X106050447Y-68118403D01*
X105358710Y-68404930D01*
X104624367Y-68551000D01*
X103875633Y-68551000D01*
X103141290Y-68404930D01*
X102449553Y-68118403D01*
X102242978Y-67980374D01*
X101827004Y-67702429D01*
X101297571Y-67172996D01*
X100881598Y-66550448D01*
X100881597Y-66550447D01*
X100595070Y-65858710D01*
X100449000Y-65124367D01*
X100449000Y-64375633D01*
X100595070Y-63641290D01*
X100881597Y-62949553D01*
X101019626Y-62742978D01*
X101297571Y-62327004D01*
X101827004Y-61797571D01*
X102449552Y-61381598D01*
X102449553Y-61381597D01*
X103141290Y-61095070D01*
X103875633Y-60949000D01*
X104624367Y-60949000D01*
X105358710Y-61095070D01*
X105358710Y-61095070D01*
G37*
G36*
X93358710Y-61095070D02*
G01*
X94050447Y-61381597D01*
X94050448Y-61381598D01*
X94672996Y-61797571D01*
X95202429Y-62327004D01*
X95480374Y-62742978D01*
X95618403Y-62949553D01*
X95904930Y-63641290D01*
X96051000Y-64375633D01*
X96051000Y-65124367D01*
X95904930Y-65858710D01*
X95618403Y-66550447D01*
X95618402Y-66550448D01*
X95202429Y-67172996D01*
X94672996Y-67702429D01*
X94257022Y-67980374D01*
X94050447Y-68118403D01*
X93358710Y-68404930D01*
X92624367Y-68551000D01*
X91875633Y-68551000D01*
X91141290Y-68404930D01*
X90449553Y-68118403D01*
X90242978Y-67980374D01*
X89827004Y-67702429D01*
X89297571Y-67172996D01*
X88881598Y-66550448D01*
X88881597Y-66550447D01*
X88595070Y-65858710D01*
X88449000Y-65124367D01*
X88449000Y-64375633D01*
X88595070Y-63641290D01*
X88881597Y-62949553D01*
X89019626Y-62742978D01*
X89297571Y-62327004D01*
X89827004Y-61797571D01*
X90449552Y-61381598D01*
X90449553Y-61381597D01*
X91141290Y-61095070D01*
X91875633Y-60949000D01*
X92624367Y-60949000D01*
X93358710Y-61095070D01*
X93358710Y-61095070D01*
G37*
G36*
X81358710Y-61095070D02*
G01*
X82050447Y-61381597D01*
X82050448Y-61381598D01*
X82672996Y-61797571D01*
X83202429Y-62327004D01*
X83480374Y-62742978D01*
X83618403Y-62949553D01*
X83904930Y-63641290D01*
X84051000Y-64375633D01*
X84051000Y-65124367D01*
X83904930Y-65858710D01*
X83618403Y-66550447D01*
X83618402Y-66550448D01*
X83202429Y-67172996D01*
X82672996Y-67702429D01*
X82257022Y-67980374D01*
X82050447Y-68118403D01*
X81358710Y-68404930D01*
X80624367Y-68551000D01*
X79875633Y-68551000D01*
X79141290Y-68404930D01*
X78449553Y-68118403D01*
X78242978Y-67980374D01*
X77827004Y-67702429D01*
X77297571Y-67172996D01*
X76881598Y-66550448D01*
X76881597Y-66550447D01*
X76595070Y-65858710D01*
X76449000Y-65124367D01*
X76449000Y-64375633D01*
X76595070Y-63641290D01*
X76881597Y-62949553D01*
X77019626Y-62742978D01*
X77297571Y-62327004D01*
X77827004Y-61797571D01*
X78449552Y-61381598D01*
X78449553Y-61381597D01*
X79141290Y-61095070D01*
X79875633Y-60949000D01*
X80624367Y-60949000D01*
X81358710Y-61095070D01*
X81358710Y-61095070D01*
G37*
G36*
X57358710Y-61095070D02*
G01*
X58050447Y-61381597D01*
X58050448Y-61381598D01*
X58672996Y-61797571D01*
X59202429Y-62327004D01*
X59480374Y-62742978D01*
X59618403Y-62949553D01*
X59904930Y-63641290D01*
X60051000Y-64375633D01*
X60051000Y-65124367D01*
X59904930Y-65858710D01*
X59618403Y-66550447D01*
X59618402Y-66550448D01*
X59202429Y-67172996D01*
X58672996Y-67702429D01*
X58257022Y-67980374D01*
X58050447Y-68118403D01*
X57358710Y-68404930D01*
X56624367Y-68551000D01*
X55875633Y-68551000D01*
X55141290Y-68404930D01*
X54449553Y-68118403D01*
X54242978Y-67980374D01*
X53827004Y-67702429D01*
X53297571Y-67172996D01*
X52881598Y-66550448D01*
X52881597Y-66550447D01*
X52595070Y-65858710D01*
X52449000Y-65124367D01*
X52449000Y-64375633D01*
X52595070Y-63641290D01*
X52881597Y-62949553D01*
X53019626Y-62742978D01*
X53297571Y-62327004D01*
X53827004Y-61797571D01*
X54449552Y-61381598D01*
X54449553Y-61381597D01*
X55141290Y-61095070D01*
X55875633Y-60949000D01*
X56624367Y-60949000D01*
X57358710Y-61095070D01*
X57358710Y-61095070D01*
G37*
G36*
X105020687Y-50387358D02*
G01*
X105520402Y-50538945D01*
X105980943Y-50785109D01*
X106384610Y-51116390D01*
X106715891Y-51520057D01*
X106962055Y-51980598D01*
X107113642Y-52480313D01*
X107164827Y-53000000D01*
X107113642Y-53519687D01*
X106962055Y-54019402D01*
X106715891Y-54479943D01*
X106384610Y-54883610D01*
X105980943Y-55214891D01*
X105520402Y-55461055D01*
X105020687Y-55612642D01*
X104631234Y-55651000D01*
X101570766Y-55651000D01*
X101181313Y-55612642D01*
X100681598Y-55461055D01*
X100221057Y-55214891D01*
X99817390Y-54883610D01*
X99486109Y-54479943D01*
X99239945Y-54019402D01*
X99088358Y-53519687D01*
X99037173Y-53000000D01*
X99088358Y-52480313D01*
X99239945Y-51980598D01*
X99486109Y-51520057D01*
X99817390Y-51116390D01*
X100221057Y-50785109D01*
X100681598Y-50538945D01*
X101181313Y-50387358D01*
X101570766Y-50349000D01*
X104631234Y-50349000D01*
X105020687Y-50387358D01*
X105020687Y-50387358D01*
G37*
G36*
X59320687Y-50387358D02*
G01*
X59820402Y-50538945D01*
X60280943Y-50785109D01*
X60684610Y-51116390D01*
X61015891Y-51520057D01*
X61262055Y-51980598D01*
X61413642Y-52480313D01*
X61464827Y-53000000D01*
X61413642Y-53519687D01*
X61262055Y-54019402D01*
X61015891Y-54479943D01*
X60684610Y-54883610D01*
X60280943Y-55214891D01*
X59820402Y-55461055D01*
X59320687Y-55612642D01*
X58931234Y-55651000D01*
X55870766Y-55651000D01*
X55481313Y-55612642D01*
X54981598Y-55461055D01*
X54521057Y-55214891D01*
X54117390Y-54883610D01*
X53786109Y-54479943D01*
X53539945Y-54019402D01*
X53388358Y-53519687D01*
X53337173Y-53000000D01*
X53388358Y-52480313D01*
X53539945Y-51980598D01*
X53786109Y-51520057D01*
X54117390Y-51116390D01*
X54521057Y-50785109D01*
X54981598Y-50538945D01*
X55481313Y-50387358D01*
X55870766Y-50349000D01*
X58931234Y-50349000D01*
X59320687Y-50387358D01*
X59320687Y-50387358D01*
G37*
M02*
