G04 #@! TF.GenerationSoftware,KiCad,Pcbnew,(5.1.4)-1*
G04 #@! TF.CreationDate,2020-06-21T13:41:14+09:00*
G04 #@! TF.ProjectId,dooper-panel,646f6f70-6572-42d7-9061-6e656c2e6b69,rev?*
G04 #@! TF.SameCoordinates,Original*
G04 #@! TF.FileFunction,Copper,L2,Bot*
G04 #@! TF.FilePolarity,Positive*
%FSLAX46Y46*%
G04 Gerber Fmt 4.6, Leading zero omitted, Abs format (unit mm)*
G04 Created by KiCad (PCBNEW (5.1.4)-1) date 2020-06-21 13:41:14*
%MOMM*%
%LPD*%
G04 APERTURE LIST*
%ADD10O,8.000000X5.200000*%
%ADD11C,7.500000*%
%ADD12C,4.500000*%
%ADD13C,0.025400*%
G04 APERTURE END LIST*
D10*
X57401000Y-53000000D03*
X103101000Y-53000000D03*
D11*
X56250000Y-64750000D03*
X68250000Y-64750000D03*
X80250000Y-64750000D03*
X92250000Y-64750000D03*
X104250000Y-64750000D03*
X68250000Y-76250000D03*
X80250000Y-76250000D03*
X92250000Y-76250000D03*
D12*
X107250000Y-153250000D03*
X53250000Y-153250000D03*
D10*
X57401000Y-175500000D03*
X103101000Y-175500000D03*
D13*
G36*
X110462301Y-178462300D02*
G01*
X50037700Y-178462300D01*
X50037700Y-161811015D01*
X51512596Y-161811015D01*
X51512596Y-162688985D01*
X51673922Y-163552006D01*
X51991082Y-164370689D01*
X52453273Y-165117155D01*
X53044758Y-165765983D01*
X53745394Y-166295078D01*
X54531321Y-166686423D01*
X55375775Y-166926691D01*
X56250000Y-167007700D01*
X57124225Y-166926691D01*
X57968679Y-166686423D01*
X58754606Y-166295078D01*
X59455242Y-165765983D01*
X60046727Y-165117155D01*
X60508918Y-164370689D01*
X60826078Y-163552006D01*
X60987404Y-162688985D01*
X60987404Y-161811015D01*
X63512596Y-161811015D01*
X63512596Y-162688985D01*
X63673922Y-163552006D01*
X63991082Y-164370689D01*
X64453273Y-165117155D01*
X65044758Y-165765983D01*
X65745394Y-166295078D01*
X66531321Y-166686423D01*
X67375775Y-166926691D01*
X68250000Y-167007700D01*
X69124225Y-166926691D01*
X69968679Y-166686423D01*
X70754606Y-166295078D01*
X71455242Y-165765983D01*
X72046727Y-165117155D01*
X72508918Y-164370689D01*
X72826078Y-163552006D01*
X72987404Y-162688985D01*
X72987404Y-161811015D01*
X75512596Y-161811015D01*
X75512596Y-162688985D01*
X75673922Y-163552006D01*
X75991082Y-164370689D01*
X76453273Y-165117155D01*
X77044758Y-165765983D01*
X77745394Y-166295078D01*
X78531321Y-166686423D01*
X79375775Y-166926691D01*
X80250000Y-167007700D01*
X81124225Y-166926691D01*
X81968679Y-166686423D01*
X82754606Y-166295078D01*
X83455242Y-165765983D01*
X84046727Y-165117155D01*
X84508918Y-164370689D01*
X84826078Y-163552006D01*
X84987404Y-162688985D01*
X84987404Y-161811015D01*
X87512596Y-161811015D01*
X87512596Y-162688985D01*
X87673922Y-163552006D01*
X87991082Y-164370689D01*
X88453273Y-165117155D01*
X89044758Y-165765983D01*
X89745394Y-166295078D01*
X90531321Y-166686423D01*
X91375775Y-166926691D01*
X92250000Y-167007700D01*
X93124225Y-166926691D01*
X93968679Y-166686423D01*
X94754606Y-166295078D01*
X95455242Y-165765983D01*
X96046727Y-165117155D01*
X96508918Y-164370689D01*
X96826078Y-163552006D01*
X96987404Y-162688985D01*
X96987404Y-161811015D01*
X99512596Y-161811015D01*
X99512596Y-162688985D01*
X99673922Y-163552006D01*
X99991082Y-164370689D01*
X100453273Y-165117155D01*
X101044758Y-165765983D01*
X101745394Y-166295078D01*
X102531321Y-166686423D01*
X103375775Y-166926691D01*
X104250000Y-167007700D01*
X105124225Y-166926691D01*
X105968679Y-166686423D01*
X106754606Y-166295078D01*
X107455242Y-165765983D01*
X108046727Y-165117155D01*
X108508918Y-164370689D01*
X108826078Y-163552006D01*
X108987404Y-162688985D01*
X108987404Y-161811015D01*
X108826078Y-160947994D01*
X108508918Y-160129311D01*
X108046727Y-159382845D01*
X107455242Y-158734017D01*
X106754606Y-158204922D01*
X105968679Y-157813577D01*
X105124225Y-157573309D01*
X104250000Y-157492300D01*
X103375775Y-157573309D01*
X102531321Y-157813577D01*
X101745394Y-158204922D01*
X101044758Y-158734017D01*
X100453273Y-159382845D01*
X99991082Y-160129311D01*
X99673922Y-160947994D01*
X99512596Y-161811015D01*
X96987404Y-161811015D01*
X96826078Y-160947994D01*
X96508918Y-160129311D01*
X96046727Y-159382845D01*
X95455242Y-158734017D01*
X94754606Y-158204922D01*
X93968679Y-157813577D01*
X93124225Y-157573309D01*
X92250000Y-157492300D01*
X91375775Y-157573309D01*
X90531321Y-157813577D01*
X89745394Y-158204922D01*
X89044758Y-158734017D01*
X88453273Y-159382845D01*
X87991082Y-160129311D01*
X87673922Y-160947994D01*
X87512596Y-161811015D01*
X84987404Y-161811015D01*
X84826078Y-160947994D01*
X84508918Y-160129311D01*
X84046727Y-159382845D01*
X83455242Y-158734017D01*
X82754606Y-158204922D01*
X81968679Y-157813577D01*
X81124225Y-157573309D01*
X80250000Y-157492300D01*
X79375775Y-157573309D01*
X78531321Y-157813577D01*
X77745394Y-158204922D01*
X77044758Y-158734017D01*
X76453273Y-159382845D01*
X75991082Y-160129311D01*
X75673922Y-160947994D01*
X75512596Y-161811015D01*
X72987404Y-161811015D01*
X72826078Y-160947994D01*
X72508918Y-160129311D01*
X72046727Y-159382845D01*
X71455242Y-158734017D01*
X70754606Y-158204922D01*
X69968679Y-157813577D01*
X69124225Y-157573309D01*
X68250000Y-157492300D01*
X67375775Y-157573309D01*
X66531321Y-157813577D01*
X65745394Y-158204922D01*
X65044758Y-158734017D01*
X64453273Y-159382845D01*
X63991082Y-160129311D01*
X63673922Y-160947994D01*
X63512596Y-161811015D01*
X60987404Y-161811015D01*
X60826078Y-160947994D01*
X60508918Y-160129311D01*
X60046727Y-159382845D01*
X59455242Y-158734017D01*
X58754606Y-158204922D01*
X57968679Y-157813577D01*
X57124225Y-157573309D01*
X56250000Y-157492300D01*
X55375775Y-157573309D01*
X54531321Y-157813577D01*
X53745394Y-158204922D01*
X53044758Y-158734017D01*
X52453273Y-159382845D01*
X51991082Y-160129311D01*
X51673922Y-160947994D01*
X51512596Y-161811015D01*
X50037700Y-161811015D01*
X50037700Y-150811015D01*
X57512596Y-150811015D01*
X57512596Y-151688985D01*
X57673922Y-152552006D01*
X57991082Y-153370689D01*
X58453273Y-154117155D01*
X59044758Y-154765983D01*
X59745394Y-155295078D01*
X60531321Y-155686423D01*
X61375775Y-155926691D01*
X62250000Y-156007700D01*
X63124225Y-155926691D01*
X63968679Y-155686423D01*
X64754606Y-155295078D01*
X65455242Y-154765983D01*
X66046727Y-154117155D01*
X66508918Y-153370689D01*
X66826078Y-152552006D01*
X66987404Y-151688985D01*
X66987404Y-150811015D01*
X69512596Y-150811015D01*
X69512596Y-151688985D01*
X69673922Y-152552006D01*
X69991082Y-153370689D01*
X70453273Y-154117155D01*
X71044758Y-154765983D01*
X71745394Y-155295078D01*
X72531321Y-155686423D01*
X73375775Y-155926691D01*
X74250000Y-156007700D01*
X75124225Y-155926691D01*
X75968679Y-155686423D01*
X76754606Y-155295078D01*
X77455242Y-154765983D01*
X78046727Y-154117155D01*
X78508918Y-153370689D01*
X78826078Y-152552006D01*
X78987404Y-151688985D01*
X78987404Y-150811015D01*
X81512596Y-150811015D01*
X81512596Y-151688985D01*
X81673922Y-152552006D01*
X81991082Y-153370689D01*
X82453273Y-154117155D01*
X83044758Y-154765983D01*
X83745394Y-155295078D01*
X84531321Y-155686423D01*
X85375775Y-155926691D01*
X86250000Y-156007700D01*
X87124225Y-155926691D01*
X87968679Y-155686423D01*
X88754606Y-155295078D01*
X89455242Y-154765983D01*
X90046727Y-154117155D01*
X90508918Y-153370689D01*
X90826078Y-152552006D01*
X90987404Y-151688985D01*
X90987404Y-150811015D01*
X93512596Y-150811015D01*
X93512596Y-151688985D01*
X93673922Y-152552006D01*
X93991082Y-153370689D01*
X94453273Y-154117155D01*
X95044758Y-154765983D01*
X95745394Y-155295078D01*
X96531321Y-155686423D01*
X97375775Y-155926691D01*
X98250000Y-156007700D01*
X99124225Y-155926691D01*
X99968679Y-155686423D01*
X100754606Y-155295078D01*
X101455242Y-154765983D01*
X102046727Y-154117155D01*
X102508918Y-153370689D01*
X102826078Y-152552006D01*
X102987404Y-151688985D01*
X102987404Y-150811015D01*
X102826078Y-149947994D01*
X102508918Y-149129311D01*
X102046727Y-148382845D01*
X101455242Y-147734017D01*
X100754606Y-147204922D01*
X99968679Y-146813577D01*
X99124225Y-146573309D01*
X98250000Y-146492300D01*
X97375775Y-146573309D01*
X96531321Y-146813577D01*
X95745394Y-147204922D01*
X95044758Y-147734017D01*
X94453273Y-148382845D01*
X93991082Y-149129311D01*
X93673922Y-149947994D01*
X93512596Y-150811015D01*
X90987404Y-150811015D01*
X90826078Y-149947994D01*
X90508918Y-149129311D01*
X90046727Y-148382845D01*
X89455242Y-147734017D01*
X88754606Y-147204922D01*
X87968679Y-146813577D01*
X87124225Y-146573309D01*
X86250000Y-146492300D01*
X85375775Y-146573309D01*
X84531321Y-146813577D01*
X83745394Y-147204922D01*
X83044758Y-147734017D01*
X82453273Y-148382845D01*
X81991082Y-149129311D01*
X81673922Y-149947994D01*
X81512596Y-150811015D01*
X78987404Y-150811015D01*
X78826078Y-149947994D01*
X78508918Y-149129311D01*
X78046727Y-148382845D01*
X77455242Y-147734017D01*
X76754606Y-147204922D01*
X75968679Y-146813577D01*
X75124225Y-146573309D01*
X74250000Y-146492300D01*
X73375775Y-146573309D01*
X72531321Y-146813577D01*
X71745394Y-147204922D01*
X71044758Y-147734017D01*
X70453273Y-148382845D01*
X69991082Y-149129311D01*
X69673922Y-149947994D01*
X69512596Y-150811015D01*
X66987404Y-150811015D01*
X66826078Y-149947994D01*
X66508918Y-149129311D01*
X66046727Y-148382845D01*
X65455242Y-147734017D01*
X64754606Y-147204922D01*
X63968679Y-146813577D01*
X63124225Y-146573309D01*
X62250000Y-146492300D01*
X61375775Y-146573309D01*
X60531321Y-146813577D01*
X59745394Y-147204922D01*
X59044758Y-147734017D01*
X58453273Y-148382845D01*
X57991082Y-149129311D01*
X57673922Y-149947994D01*
X57512596Y-150811015D01*
X50037700Y-150811015D01*
X50037700Y-114665861D01*
X54537300Y-114665861D01*
X54537301Y-139834140D01*
X54562082Y-140085748D01*
X54660016Y-140408593D01*
X54819053Y-140706129D01*
X55033079Y-140966922D01*
X55293872Y-141180948D01*
X55591408Y-141339985D01*
X55914253Y-141437919D01*
X56250000Y-141470987D01*
X56585748Y-141437919D01*
X56908593Y-141339985D01*
X57206129Y-141180948D01*
X57466922Y-140966922D01*
X57680948Y-140706129D01*
X57839985Y-140408593D01*
X57937919Y-140085748D01*
X57962700Y-139834140D01*
X57962700Y-139250000D01*
X66029013Y-139250000D01*
X66062081Y-139585748D01*
X66160015Y-139908593D01*
X66319052Y-140206129D01*
X66533078Y-140466922D01*
X66793871Y-140680948D01*
X67091407Y-140839985D01*
X67414252Y-140937919D01*
X67665860Y-140962700D01*
X92834140Y-140962700D01*
X93085748Y-140937919D01*
X93408593Y-140839985D01*
X93706129Y-140680948D01*
X93966922Y-140466922D01*
X94180948Y-140206129D01*
X94339985Y-139908593D01*
X94362570Y-139834139D01*
X102537300Y-139834139D01*
X102562081Y-140085747D01*
X102660015Y-140408592D01*
X102819052Y-140706128D01*
X103033078Y-140966922D01*
X103293871Y-141180948D01*
X103591407Y-141339985D01*
X103914252Y-141437919D01*
X104250000Y-141470987D01*
X104585747Y-141437919D01*
X104908592Y-141339985D01*
X105206128Y-141180948D01*
X105466922Y-140966922D01*
X105680948Y-140706129D01*
X105839985Y-140408593D01*
X105937919Y-140085748D01*
X105962700Y-139834140D01*
X105962700Y-114665860D01*
X105937919Y-114414252D01*
X105839985Y-114091407D01*
X105680948Y-113793871D01*
X105466922Y-113533078D01*
X105206129Y-113319052D01*
X104908593Y-113160015D01*
X104585748Y-113062081D01*
X104250000Y-113029013D01*
X103914253Y-113062081D01*
X103591408Y-113160015D01*
X103293872Y-113319052D01*
X103033079Y-113533078D01*
X102819053Y-113793871D01*
X102660016Y-114091407D01*
X102562082Y-114414252D01*
X102537301Y-114665860D01*
X102537300Y-139834139D01*
X94362570Y-139834139D01*
X94437919Y-139585748D01*
X94470987Y-139250000D01*
X94437919Y-138914252D01*
X94339985Y-138591407D01*
X94180948Y-138293871D01*
X93966922Y-138033078D01*
X93706129Y-137819052D01*
X93408593Y-137660015D01*
X93085748Y-137562081D01*
X92834140Y-137537300D01*
X67665860Y-137537300D01*
X67414252Y-137562081D01*
X67091407Y-137660015D01*
X66793871Y-137819052D01*
X66533078Y-138033078D01*
X66319052Y-138293871D01*
X66160015Y-138591407D01*
X66062081Y-138914252D01*
X66029013Y-139250000D01*
X57962700Y-139250000D01*
X57962700Y-129250000D01*
X66029013Y-129250000D01*
X66062081Y-129585748D01*
X66160015Y-129908593D01*
X66319052Y-130206129D01*
X66533078Y-130466922D01*
X66793871Y-130680948D01*
X67091407Y-130839985D01*
X67414252Y-130937919D01*
X67665860Y-130962700D01*
X92834140Y-130962700D01*
X93085748Y-130937919D01*
X93408593Y-130839985D01*
X93706129Y-130680948D01*
X93966922Y-130466922D01*
X94180948Y-130206129D01*
X94339985Y-129908593D01*
X94437919Y-129585748D01*
X94470987Y-129250000D01*
X94437919Y-128914252D01*
X94339985Y-128591407D01*
X94180948Y-128293871D01*
X93966922Y-128033078D01*
X93706129Y-127819052D01*
X93408593Y-127660015D01*
X93085748Y-127562081D01*
X92834140Y-127537300D01*
X67665860Y-127537300D01*
X67414252Y-127562081D01*
X67091407Y-127660015D01*
X66793871Y-127819052D01*
X66533078Y-128033078D01*
X66319052Y-128293871D01*
X66160015Y-128591407D01*
X66062081Y-128914252D01*
X66029013Y-129250000D01*
X57962700Y-129250000D01*
X57962700Y-119250000D01*
X66029013Y-119250000D01*
X66062081Y-119585748D01*
X66160015Y-119908593D01*
X66319052Y-120206129D01*
X66533078Y-120466922D01*
X66793871Y-120680948D01*
X67091407Y-120839985D01*
X67414252Y-120937919D01*
X67665860Y-120962700D01*
X92834140Y-120962700D01*
X93085748Y-120937919D01*
X93408593Y-120839985D01*
X93706129Y-120680948D01*
X93966922Y-120466922D01*
X94180948Y-120206129D01*
X94339985Y-119908593D01*
X94437919Y-119585748D01*
X94470987Y-119250000D01*
X94437919Y-118914252D01*
X94339985Y-118591407D01*
X94180948Y-118293871D01*
X93966922Y-118033078D01*
X93706129Y-117819052D01*
X93408593Y-117660015D01*
X93085748Y-117562081D01*
X92834140Y-117537300D01*
X67665860Y-117537300D01*
X67414252Y-117562081D01*
X67091407Y-117660015D01*
X66793871Y-117819052D01*
X66533078Y-118033078D01*
X66319052Y-118293871D01*
X66160015Y-118591407D01*
X66062081Y-118914252D01*
X66029013Y-119250000D01*
X57962700Y-119250000D01*
X57962700Y-114665860D01*
X57937919Y-114414252D01*
X57839985Y-114091407D01*
X57680948Y-113793871D01*
X57466922Y-113533078D01*
X57206128Y-113319052D01*
X56908592Y-113160015D01*
X56585747Y-113062081D01*
X56250000Y-113029013D01*
X55914252Y-113062081D01*
X55591407Y-113160015D01*
X55293871Y-113319052D01*
X55033078Y-113533078D01*
X54819052Y-113793872D01*
X54660015Y-114091408D01*
X54562081Y-114414253D01*
X54537300Y-114665861D01*
X50037700Y-114665861D01*
X50037700Y-79665861D01*
X54537300Y-79665861D01*
X54537301Y-104834140D01*
X54562082Y-105085748D01*
X54660016Y-105408593D01*
X54819053Y-105706129D01*
X55033079Y-105966922D01*
X55293872Y-106180948D01*
X55591408Y-106339985D01*
X55914253Y-106437919D01*
X56250000Y-106470987D01*
X56585748Y-106437919D01*
X56908593Y-106339985D01*
X57206129Y-106180948D01*
X57466922Y-105966922D01*
X57680948Y-105706129D01*
X57839985Y-105408593D01*
X57937919Y-105085748D01*
X57962700Y-104834140D01*
X57962700Y-88748153D01*
X64712300Y-88748153D01*
X64712301Y-103749867D01*
X64712300Y-103750133D01*
X64712301Y-103750416D01*
X64712301Y-103751848D01*
X64712306Y-103751901D01*
X64712337Y-103760605D01*
X64712504Y-103762252D01*
X64712493Y-103763889D01*
X64712544Y-103764413D01*
X64743144Y-104055558D01*
X64743827Y-104058889D01*
X64744471Y-104062262D01*
X64744623Y-104062765D01*
X64831191Y-104342421D01*
X64832529Y-104345603D01*
X64833796Y-104348739D01*
X64834042Y-104349204D01*
X64973281Y-104606720D01*
X64975193Y-104609554D01*
X64977063Y-104612412D01*
X64977396Y-104612820D01*
X65164001Y-104838387D01*
X65166422Y-104840791D01*
X65168816Y-104843236D01*
X65169221Y-104843571D01*
X65396086Y-105028597D01*
X65398902Y-105030468D01*
X65401751Y-105032419D01*
X65402214Y-105032669D01*
X65660695Y-105170106D01*
X65663854Y-105171408D01*
X65666995Y-105172754D01*
X65667497Y-105172910D01*
X65947752Y-105257524D01*
X65951110Y-105258189D01*
X65954446Y-105258898D01*
X65954969Y-105258953D01*
X66246321Y-105287520D01*
X66246325Y-105287520D01*
X66248152Y-105287700D01*
X94251848Y-105287700D01*
X94251912Y-105287694D01*
X94260605Y-105287663D01*
X94262252Y-105287496D01*
X94263889Y-105287507D01*
X94264413Y-105287456D01*
X94555558Y-105256856D01*
X94558889Y-105256173D01*
X94562262Y-105255529D01*
X94562763Y-105255378D01*
X94562769Y-105255376D01*
X94842421Y-105168809D01*
X94845603Y-105167471D01*
X94848739Y-105166204D01*
X94849204Y-105165958D01*
X95106720Y-105026719D01*
X95109554Y-105024807D01*
X95112412Y-105022937D01*
X95112820Y-105022604D01*
X95338387Y-104835999D01*
X95340233Y-104834139D01*
X102537300Y-104834139D01*
X102562081Y-105085747D01*
X102660015Y-105408592D01*
X102819052Y-105706128D01*
X103033078Y-105966922D01*
X103293871Y-106180948D01*
X103591407Y-106339985D01*
X103914252Y-106437919D01*
X104250000Y-106470987D01*
X104585747Y-106437919D01*
X104908592Y-106339985D01*
X105206128Y-106180948D01*
X105466922Y-105966922D01*
X105680948Y-105706129D01*
X105839985Y-105408593D01*
X105937919Y-105085748D01*
X105962700Y-104834140D01*
X105962700Y-79665860D01*
X105937919Y-79414252D01*
X105839985Y-79091407D01*
X105680948Y-78793871D01*
X105466922Y-78533078D01*
X105206129Y-78319052D01*
X104908593Y-78160015D01*
X104585748Y-78062081D01*
X104250000Y-78029013D01*
X103914253Y-78062081D01*
X103591408Y-78160015D01*
X103293872Y-78319052D01*
X103033079Y-78533078D01*
X102819053Y-78793871D01*
X102660016Y-79091407D01*
X102562082Y-79414252D01*
X102537301Y-79665860D01*
X102537300Y-104834139D01*
X95340233Y-104834139D01*
X95340791Y-104833578D01*
X95343236Y-104831184D01*
X95343571Y-104830779D01*
X95528597Y-104603914D01*
X95530468Y-104601098D01*
X95532419Y-104598249D01*
X95532669Y-104597786D01*
X95670106Y-104339305D01*
X95671408Y-104336146D01*
X95672754Y-104333005D01*
X95672910Y-104332503D01*
X95757524Y-104052248D01*
X95758189Y-104048890D01*
X95758898Y-104045554D01*
X95758953Y-104045031D01*
X95787520Y-103753679D01*
X95787520Y-103753675D01*
X95787700Y-103751848D01*
X95787700Y-88748152D01*
X95787694Y-88748088D01*
X95787663Y-88739395D01*
X95787496Y-88737755D01*
X95787508Y-88736111D01*
X95787457Y-88735588D01*
X95756856Y-88444442D01*
X95756174Y-88441118D01*
X95755529Y-88437738D01*
X95755377Y-88437235D01*
X95668809Y-88157579D01*
X95667477Y-88154410D01*
X95666204Y-88151260D01*
X95665958Y-88150796D01*
X95526719Y-87893280D01*
X95524807Y-87890446D01*
X95522937Y-87887588D01*
X95522604Y-87887180D01*
X95335999Y-87661613D01*
X95333578Y-87659209D01*
X95331184Y-87656764D01*
X95330779Y-87656429D01*
X95103915Y-87471403D01*
X95101080Y-87469520D01*
X95098249Y-87467581D01*
X95097786Y-87467331D01*
X94839305Y-87329894D01*
X94836146Y-87328592D01*
X94833005Y-87327246D01*
X94832503Y-87327090D01*
X94552249Y-87242476D01*
X94548876Y-87241808D01*
X94545554Y-87241102D01*
X94545031Y-87241047D01*
X94253679Y-87212480D01*
X94253674Y-87212480D01*
X94251847Y-87212300D01*
X66248153Y-87212300D01*
X66248089Y-87212306D01*
X66239395Y-87212337D01*
X66237755Y-87212504D01*
X66236111Y-87212492D01*
X66235588Y-87212543D01*
X65944442Y-87243144D01*
X65941118Y-87243826D01*
X65937738Y-87244471D01*
X65937235Y-87244623D01*
X65657579Y-87331191D01*
X65654410Y-87332523D01*
X65651260Y-87333796D01*
X65650796Y-87334042D01*
X65393280Y-87473281D01*
X65390446Y-87475193D01*
X65387588Y-87477063D01*
X65387180Y-87477396D01*
X65161613Y-87664001D01*
X65159209Y-87666422D01*
X65156764Y-87668816D01*
X65156429Y-87669221D01*
X64971403Y-87896085D01*
X64969520Y-87898920D01*
X64967581Y-87901751D01*
X64967331Y-87902214D01*
X64829894Y-88160695D01*
X64828592Y-88163854D01*
X64827246Y-88166995D01*
X64827090Y-88167497D01*
X64742476Y-88447751D01*
X64741808Y-88451124D01*
X64741102Y-88454446D01*
X64741047Y-88454969D01*
X64712480Y-88746321D01*
X64712300Y-88748153D01*
X57962700Y-88748153D01*
X57962700Y-79665860D01*
X57937919Y-79414252D01*
X57839985Y-79091407D01*
X57680948Y-78793871D01*
X57466922Y-78533078D01*
X57206128Y-78319052D01*
X56908592Y-78160015D01*
X56585747Y-78062081D01*
X56250000Y-78029013D01*
X55914252Y-78062081D01*
X55591407Y-78160015D01*
X55293871Y-78319052D01*
X55033078Y-78533078D01*
X54819052Y-78793872D01*
X54660015Y-79091408D01*
X54562081Y-79414253D01*
X54537300Y-79665861D01*
X50037700Y-79665861D01*
X50037700Y-50037700D01*
X110462300Y-50037700D01*
X110462301Y-178462300D01*
X110462301Y-178462300D01*
G37*
X110462301Y-178462300D02*
X50037700Y-178462300D01*
X50037700Y-161811015D01*
X51512596Y-161811015D01*
X51512596Y-162688985D01*
X51673922Y-163552006D01*
X51991082Y-164370689D01*
X52453273Y-165117155D01*
X53044758Y-165765983D01*
X53745394Y-166295078D01*
X54531321Y-166686423D01*
X55375775Y-166926691D01*
X56250000Y-167007700D01*
X57124225Y-166926691D01*
X57968679Y-166686423D01*
X58754606Y-166295078D01*
X59455242Y-165765983D01*
X60046727Y-165117155D01*
X60508918Y-164370689D01*
X60826078Y-163552006D01*
X60987404Y-162688985D01*
X60987404Y-161811015D01*
X63512596Y-161811015D01*
X63512596Y-162688985D01*
X63673922Y-163552006D01*
X63991082Y-164370689D01*
X64453273Y-165117155D01*
X65044758Y-165765983D01*
X65745394Y-166295078D01*
X66531321Y-166686423D01*
X67375775Y-166926691D01*
X68250000Y-167007700D01*
X69124225Y-166926691D01*
X69968679Y-166686423D01*
X70754606Y-166295078D01*
X71455242Y-165765983D01*
X72046727Y-165117155D01*
X72508918Y-164370689D01*
X72826078Y-163552006D01*
X72987404Y-162688985D01*
X72987404Y-161811015D01*
X75512596Y-161811015D01*
X75512596Y-162688985D01*
X75673922Y-163552006D01*
X75991082Y-164370689D01*
X76453273Y-165117155D01*
X77044758Y-165765983D01*
X77745394Y-166295078D01*
X78531321Y-166686423D01*
X79375775Y-166926691D01*
X80250000Y-167007700D01*
X81124225Y-166926691D01*
X81968679Y-166686423D01*
X82754606Y-166295078D01*
X83455242Y-165765983D01*
X84046727Y-165117155D01*
X84508918Y-164370689D01*
X84826078Y-163552006D01*
X84987404Y-162688985D01*
X84987404Y-161811015D01*
X87512596Y-161811015D01*
X87512596Y-162688985D01*
X87673922Y-163552006D01*
X87991082Y-164370689D01*
X88453273Y-165117155D01*
X89044758Y-165765983D01*
X89745394Y-166295078D01*
X90531321Y-166686423D01*
X91375775Y-166926691D01*
X92250000Y-167007700D01*
X93124225Y-166926691D01*
X93968679Y-166686423D01*
X94754606Y-166295078D01*
X95455242Y-165765983D01*
X96046727Y-165117155D01*
X96508918Y-164370689D01*
X96826078Y-163552006D01*
X96987404Y-162688985D01*
X96987404Y-161811015D01*
X99512596Y-161811015D01*
X99512596Y-162688985D01*
X99673922Y-163552006D01*
X99991082Y-164370689D01*
X100453273Y-165117155D01*
X101044758Y-165765983D01*
X101745394Y-166295078D01*
X102531321Y-166686423D01*
X103375775Y-166926691D01*
X104250000Y-167007700D01*
X105124225Y-166926691D01*
X105968679Y-166686423D01*
X106754606Y-166295078D01*
X107455242Y-165765983D01*
X108046727Y-165117155D01*
X108508918Y-164370689D01*
X108826078Y-163552006D01*
X108987404Y-162688985D01*
X108987404Y-161811015D01*
X108826078Y-160947994D01*
X108508918Y-160129311D01*
X108046727Y-159382845D01*
X107455242Y-158734017D01*
X106754606Y-158204922D01*
X105968679Y-157813577D01*
X105124225Y-157573309D01*
X104250000Y-157492300D01*
X103375775Y-157573309D01*
X102531321Y-157813577D01*
X101745394Y-158204922D01*
X101044758Y-158734017D01*
X100453273Y-159382845D01*
X99991082Y-160129311D01*
X99673922Y-160947994D01*
X99512596Y-161811015D01*
X96987404Y-161811015D01*
X96826078Y-160947994D01*
X96508918Y-160129311D01*
X96046727Y-159382845D01*
X95455242Y-158734017D01*
X94754606Y-158204922D01*
X93968679Y-157813577D01*
X93124225Y-157573309D01*
X92250000Y-157492300D01*
X91375775Y-157573309D01*
X90531321Y-157813577D01*
X89745394Y-158204922D01*
X89044758Y-158734017D01*
X88453273Y-159382845D01*
X87991082Y-160129311D01*
X87673922Y-160947994D01*
X87512596Y-161811015D01*
X84987404Y-161811015D01*
X84826078Y-160947994D01*
X84508918Y-160129311D01*
X84046727Y-159382845D01*
X83455242Y-158734017D01*
X82754606Y-158204922D01*
X81968679Y-157813577D01*
X81124225Y-157573309D01*
X80250000Y-157492300D01*
X79375775Y-157573309D01*
X78531321Y-157813577D01*
X77745394Y-158204922D01*
X77044758Y-158734017D01*
X76453273Y-159382845D01*
X75991082Y-160129311D01*
X75673922Y-160947994D01*
X75512596Y-161811015D01*
X72987404Y-161811015D01*
X72826078Y-160947994D01*
X72508918Y-160129311D01*
X72046727Y-159382845D01*
X71455242Y-158734017D01*
X70754606Y-158204922D01*
X69968679Y-157813577D01*
X69124225Y-157573309D01*
X68250000Y-157492300D01*
X67375775Y-157573309D01*
X66531321Y-157813577D01*
X65745394Y-158204922D01*
X65044758Y-158734017D01*
X64453273Y-159382845D01*
X63991082Y-160129311D01*
X63673922Y-160947994D01*
X63512596Y-161811015D01*
X60987404Y-161811015D01*
X60826078Y-160947994D01*
X60508918Y-160129311D01*
X60046727Y-159382845D01*
X59455242Y-158734017D01*
X58754606Y-158204922D01*
X57968679Y-157813577D01*
X57124225Y-157573309D01*
X56250000Y-157492300D01*
X55375775Y-157573309D01*
X54531321Y-157813577D01*
X53745394Y-158204922D01*
X53044758Y-158734017D01*
X52453273Y-159382845D01*
X51991082Y-160129311D01*
X51673922Y-160947994D01*
X51512596Y-161811015D01*
X50037700Y-161811015D01*
X50037700Y-150811015D01*
X57512596Y-150811015D01*
X57512596Y-151688985D01*
X57673922Y-152552006D01*
X57991082Y-153370689D01*
X58453273Y-154117155D01*
X59044758Y-154765983D01*
X59745394Y-155295078D01*
X60531321Y-155686423D01*
X61375775Y-155926691D01*
X62250000Y-156007700D01*
X63124225Y-155926691D01*
X63968679Y-155686423D01*
X64754606Y-155295078D01*
X65455242Y-154765983D01*
X66046727Y-154117155D01*
X66508918Y-153370689D01*
X66826078Y-152552006D01*
X66987404Y-151688985D01*
X66987404Y-150811015D01*
X69512596Y-150811015D01*
X69512596Y-151688985D01*
X69673922Y-152552006D01*
X69991082Y-153370689D01*
X70453273Y-154117155D01*
X71044758Y-154765983D01*
X71745394Y-155295078D01*
X72531321Y-155686423D01*
X73375775Y-155926691D01*
X74250000Y-156007700D01*
X75124225Y-155926691D01*
X75968679Y-155686423D01*
X76754606Y-155295078D01*
X77455242Y-154765983D01*
X78046727Y-154117155D01*
X78508918Y-153370689D01*
X78826078Y-152552006D01*
X78987404Y-151688985D01*
X78987404Y-150811015D01*
X81512596Y-150811015D01*
X81512596Y-151688985D01*
X81673922Y-152552006D01*
X81991082Y-153370689D01*
X82453273Y-154117155D01*
X83044758Y-154765983D01*
X83745394Y-155295078D01*
X84531321Y-155686423D01*
X85375775Y-155926691D01*
X86250000Y-156007700D01*
X87124225Y-155926691D01*
X87968679Y-155686423D01*
X88754606Y-155295078D01*
X89455242Y-154765983D01*
X90046727Y-154117155D01*
X90508918Y-153370689D01*
X90826078Y-152552006D01*
X90987404Y-151688985D01*
X90987404Y-150811015D01*
X93512596Y-150811015D01*
X93512596Y-151688985D01*
X93673922Y-152552006D01*
X93991082Y-153370689D01*
X94453273Y-154117155D01*
X95044758Y-154765983D01*
X95745394Y-155295078D01*
X96531321Y-155686423D01*
X97375775Y-155926691D01*
X98250000Y-156007700D01*
X99124225Y-155926691D01*
X99968679Y-155686423D01*
X100754606Y-155295078D01*
X101455242Y-154765983D01*
X102046727Y-154117155D01*
X102508918Y-153370689D01*
X102826078Y-152552006D01*
X102987404Y-151688985D01*
X102987404Y-150811015D01*
X102826078Y-149947994D01*
X102508918Y-149129311D01*
X102046727Y-148382845D01*
X101455242Y-147734017D01*
X100754606Y-147204922D01*
X99968679Y-146813577D01*
X99124225Y-146573309D01*
X98250000Y-146492300D01*
X97375775Y-146573309D01*
X96531321Y-146813577D01*
X95745394Y-147204922D01*
X95044758Y-147734017D01*
X94453273Y-148382845D01*
X93991082Y-149129311D01*
X93673922Y-149947994D01*
X93512596Y-150811015D01*
X90987404Y-150811015D01*
X90826078Y-149947994D01*
X90508918Y-149129311D01*
X90046727Y-148382845D01*
X89455242Y-147734017D01*
X88754606Y-147204922D01*
X87968679Y-146813577D01*
X87124225Y-146573309D01*
X86250000Y-146492300D01*
X85375775Y-146573309D01*
X84531321Y-146813577D01*
X83745394Y-147204922D01*
X83044758Y-147734017D01*
X82453273Y-148382845D01*
X81991082Y-149129311D01*
X81673922Y-149947994D01*
X81512596Y-150811015D01*
X78987404Y-150811015D01*
X78826078Y-149947994D01*
X78508918Y-149129311D01*
X78046727Y-148382845D01*
X77455242Y-147734017D01*
X76754606Y-147204922D01*
X75968679Y-146813577D01*
X75124225Y-146573309D01*
X74250000Y-146492300D01*
X73375775Y-146573309D01*
X72531321Y-146813577D01*
X71745394Y-147204922D01*
X71044758Y-147734017D01*
X70453273Y-148382845D01*
X69991082Y-149129311D01*
X69673922Y-149947994D01*
X69512596Y-150811015D01*
X66987404Y-150811015D01*
X66826078Y-149947994D01*
X66508918Y-149129311D01*
X66046727Y-148382845D01*
X65455242Y-147734017D01*
X64754606Y-147204922D01*
X63968679Y-146813577D01*
X63124225Y-146573309D01*
X62250000Y-146492300D01*
X61375775Y-146573309D01*
X60531321Y-146813577D01*
X59745394Y-147204922D01*
X59044758Y-147734017D01*
X58453273Y-148382845D01*
X57991082Y-149129311D01*
X57673922Y-149947994D01*
X57512596Y-150811015D01*
X50037700Y-150811015D01*
X50037700Y-114665861D01*
X54537300Y-114665861D01*
X54537301Y-139834140D01*
X54562082Y-140085748D01*
X54660016Y-140408593D01*
X54819053Y-140706129D01*
X55033079Y-140966922D01*
X55293872Y-141180948D01*
X55591408Y-141339985D01*
X55914253Y-141437919D01*
X56250000Y-141470987D01*
X56585748Y-141437919D01*
X56908593Y-141339985D01*
X57206129Y-141180948D01*
X57466922Y-140966922D01*
X57680948Y-140706129D01*
X57839985Y-140408593D01*
X57937919Y-140085748D01*
X57962700Y-139834140D01*
X57962700Y-139250000D01*
X66029013Y-139250000D01*
X66062081Y-139585748D01*
X66160015Y-139908593D01*
X66319052Y-140206129D01*
X66533078Y-140466922D01*
X66793871Y-140680948D01*
X67091407Y-140839985D01*
X67414252Y-140937919D01*
X67665860Y-140962700D01*
X92834140Y-140962700D01*
X93085748Y-140937919D01*
X93408593Y-140839985D01*
X93706129Y-140680948D01*
X93966922Y-140466922D01*
X94180948Y-140206129D01*
X94339985Y-139908593D01*
X94362570Y-139834139D01*
X102537300Y-139834139D01*
X102562081Y-140085747D01*
X102660015Y-140408592D01*
X102819052Y-140706128D01*
X103033078Y-140966922D01*
X103293871Y-141180948D01*
X103591407Y-141339985D01*
X103914252Y-141437919D01*
X104250000Y-141470987D01*
X104585747Y-141437919D01*
X104908592Y-141339985D01*
X105206128Y-141180948D01*
X105466922Y-140966922D01*
X105680948Y-140706129D01*
X105839985Y-140408593D01*
X105937919Y-140085748D01*
X105962700Y-139834140D01*
X105962700Y-114665860D01*
X105937919Y-114414252D01*
X105839985Y-114091407D01*
X105680948Y-113793871D01*
X105466922Y-113533078D01*
X105206129Y-113319052D01*
X104908593Y-113160015D01*
X104585748Y-113062081D01*
X104250000Y-113029013D01*
X103914253Y-113062081D01*
X103591408Y-113160015D01*
X103293872Y-113319052D01*
X103033079Y-113533078D01*
X102819053Y-113793871D01*
X102660016Y-114091407D01*
X102562082Y-114414252D01*
X102537301Y-114665860D01*
X102537300Y-139834139D01*
X94362570Y-139834139D01*
X94437919Y-139585748D01*
X94470987Y-139250000D01*
X94437919Y-138914252D01*
X94339985Y-138591407D01*
X94180948Y-138293871D01*
X93966922Y-138033078D01*
X93706129Y-137819052D01*
X93408593Y-137660015D01*
X93085748Y-137562081D01*
X92834140Y-137537300D01*
X67665860Y-137537300D01*
X67414252Y-137562081D01*
X67091407Y-137660015D01*
X66793871Y-137819052D01*
X66533078Y-138033078D01*
X66319052Y-138293871D01*
X66160015Y-138591407D01*
X66062081Y-138914252D01*
X66029013Y-139250000D01*
X57962700Y-139250000D01*
X57962700Y-129250000D01*
X66029013Y-129250000D01*
X66062081Y-129585748D01*
X66160015Y-129908593D01*
X66319052Y-130206129D01*
X66533078Y-130466922D01*
X66793871Y-130680948D01*
X67091407Y-130839985D01*
X67414252Y-130937919D01*
X67665860Y-130962700D01*
X92834140Y-130962700D01*
X93085748Y-130937919D01*
X93408593Y-130839985D01*
X93706129Y-130680948D01*
X93966922Y-130466922D01*
X94180948Y-130206129D01*
X94339985Y-129908593D01*
X94437919Y-129585748D01*
X94470987Y-129250000D01*
X94437919Y-128914252D01*
X94339985Y-128591407D01*
X94180948Y-128293871D01*
X93966922Y-128033078D01*
X93706129Y-127819052D01*
X93408593Y-127660015D01*
X93085748Y-127562081D01*
X92834140Y-127537300D01*
X67665860Y-127537300D01*
X67414252Y-127562081D01*
X67091407Y-127660015D01*
X66793871Y-127819052D01*
X66533078Y-128033078D01*
X66319052Y-128293871D01*
X66160015Y-128591407D01*
X66062081Y-128914252D01*
X66029013Y-129250000D01*
X57962700Y-129250000D01*
X57962700Y-119250000D01*
X66029013Y-119250000D01*
X66062081Y-119585748D01*
X66160015Y-119908593D01*
X66319052Y-120206129D01*
X66533078Y-120466922D01*
X66793871Y-120680948D01*
X67091407Y-120839985D01*
X67414252Y-120937919D01*
X67665860Y-120962700D01*
X92834140Y-120962700D01*
X93085748Y-120937919D01*
X93408593Y-120839985D01*
X93706129Y-120680948D01*
X93966922Y-120466922D01*
X94180948Y-120206129D01*
X94339985Y-119908593D01*
X94437919Y-119585748D01*
X94470987Y-119250000D01*
X94437919Y-118914252D01*
X94339985Y-118591407D01*
X94180948Y-118293871D01*
X93966922Y-118033078D01*
X93706129Y-117819052D01*
X93408593Y-117660015D01*
X93085748Y-117562081D01*
X92834140Y-117537300D01*
X67665860Y-117537300D01*
X67414252Y-117562081D01*
X67091407Y-117660015D01*
X66793871Y-117819052D01*
X66533078Y-118033078D01*
X66319052Y-118293871D01*
X66160015Y-118591407D01*
X66062081Y-118914252D01*
X66029013Y-119250000D01*
X57962700Y-119250000D01*
X57962700Y-114665860D01*
X57937919Y-114414252D01*
X57839985Y-114091407D01*
X57680948Y-113793871D01*
X57466922Y-113533078D01*
X57206128Y-113319052D01*
X56908592Y-113160015D01*
X56585747Y-113062081D01*
X56250000Y-113029013D01*
X55914252Y-113062081D01*
X55591407Y-113160015D01*
X55293871Y-113319052D01*
X55033078Y-113533078D01*
X54819052Y-113793872D01*
X54660015Y-114091408D01*
X54562081Y-114414253D01*
X54537300Y-114665861D01*
X50037700Y-114665861D01*
X50037700Y-79665861D01*
X54537300Y-79665861D01*
X54537301Y-104834140D01*
X54562082Y-105085748D01*
X54660016Y-105408593D01*
X54819053Y-105706129D01*
X55033079Y-105966922D01*
X55293872Y-106180948D01*
X55591408Y-106339985D01*
X55914253Y-106437919D01*
X56250000Y-106470987D01*
X56585748Y-106437919D01*
X56908593Y-106339985D01*
X57206129Y-106180948D01*
X57466922Y-105966922D01*
X57680948Y-105706129D01*
X57839985Y-105408593D01*
X57937919Y-105085748D01*
X57962700Y-104834140D01*
X57962700Y-88748153D01*
X64712300Y-88748153D01*
X64712301Y-103749867D01*
X64712300Y-103750133D01*
X64712301Y-103750416D01*
X64712301Y-103751848D01*
X64712306Y-103751901D01*
X64712337Y-103760605D01*
X64712504Y-103762252D01*
X64712493Y-103763889D01*
X64712544Y-103764413D01*
X64743144Y-104055558D01*
X64743827Y-104058889D01*
X64744471Y-104062262D01*
X64744623Y-104062765D01*
X64831191Y-104342421D01*
X64832529Y-104345603D01*
X64833796Y-104348739D01*
X64834042Y-104349204D01*
X64973281Y-104606720D01*
X64975193Y-104609554D01*
X64977063Y-104612412D01*
X64977396Y-104612820D01*
X65164001Y-104838387D01*
X65166422Y-104840791D01*
X65168816Y-104843236D01*
X65169221Y-104843571D01*
X65396086Y-105028597D01*
X65398902Y-105030468D01*
X65401751Y-105032419D01*
X65402214Y-105032669D01*
X65660695Y-105170106D01*
X65663854Y-105171408D01*
X65666995Y-105172754D01*
X65667497Y-105172910D01*
X65947752Y-105257524D01*
X65951110Y-105258189D01*
X65954446Y-105258898D01*
X65954969Y-105258953D01*
X66246321Y-105287520D01*
X66246325Y-105287520D01*
X66248152Y-105287700D01*
X94251848Y-105287700D01*
X94251912Y-105287694D01*
X94260605Y-105287663D01*
X94262252Y-105287496D01*
X94263889Y-105287507D01*
X94264413Y-105287456D01*
X94555558Y-105256856D01*
X94558889Y-105256173D01*
X94562262Y-105255529D01*
X94562763Y-105255378D01*
X94562769Y-105255376D01*
X94842421Y-105168809D01*
X94845603Y-105167471D01*
X94848739Y-105166204D01*
X94849204Y-105165958D01*
X95106720Y-105026719D01*
X95109554Y-105024807D01*
X95112412Y-105022937D01*
X95112820Y-105022604D01*
X95338387Y-104835999D01*
X95340233Y-104834139D01*
X102537300Y-104834139D01*
X102562081Y-105085747D01*
X102660015Y-105408592D01*
X102819052Y-105706128D01*
X103033078Y-105966922D01*
X103293871Y-106180948D01*
X103591407Y-106339985D01*
X103914252Y-106437919D01*
X104250000Y-106470987D01*
X104585747Y-106437919D01*
X104908592Y-106339985D01*
X105206128Y-106180948D01*
X105466922Y-105966922D01*
X105680948Y-105706129D01*
X105839985Y-105408593D01*
X105937919Y-105085748D01*
X105962700Y-104834140D01*
X105962700Y-79665860D01*
X105937919Y-79414252D01*
X105839985Y-79091407D01*
X105680948Y-78793871D01*
X105466922Y-78533078D01*
X105206129Y-78319052D01*
X104908593Y-78160015D01*
X104585748Y-78062081D01*
X104250000Y-78029013D01*
X103914253Y-78062081D01*
X103591408Y-78160015D01*
X103293872Y-78319052D01*
X103033079Y-78533078D01*
X102819053Y-78793871D01*
X102660016Y-79091407D01*
X102562082Y-79414252D01*
X102537301Y-79665860D01*
X102537300Y-104834139D01*
X95340233Y-104834139D01*
X95340791Y-104833578D01*
X95343236Y-104831184D01*
X95343571Y-104830779D01*
X95528597Y-104603914D01*
X95530468Y-104601098D01*
X95532419Y-104598249D01*
X95532669Y-104597786D01*
X95670106Y-104339305D01*
X95671408Y-104336146D01*
X95672754Y-104333005D01*
X95672910Y-104332503D01*
X95757524Y-104052248D01*
X95758189Y-104048890D01*
X95758898Y-104045554D01*
X95758953Y-104045031D01*
X95787520Y-103753679D01*
X95787520Y-103753675D01*
X95787700Y-103751848D01*
X95787700Y-88748152D01*
X95787694Y-88748088D01*
X95787663Y-88739395D01*
X95787496Y-88737755D01*
X95787508Y-88736111D01*
X95787457Y-88735588D01*
X95756856Y-88444442D01*
X95756174Y-88441118D01*
X95755529Y-88437738D01*
X95755377Y-88437235D01*
X95668809Y-88157579D01*
X95667477Y-88154410D01*
X95666204Y-88151260D01*
X95665958Y-88150796D01*
X95526719Y-87893280D01*
X95524807Y-87890446D01*
X95522937Y-87887588D01*
X95522604Y-87887180D01*
X95335999Y-87661613D01*
X95333578Y-87659209D01*
X95331184Y-87656764D01*
X95330779Y-87656429D01*
X95103915Y-87471403D01*
X95101080Y-87469520D01*
X95098249Y-87467581D01*
X95097786Y-87467331D01*
X94839305Y-87329894D01*
X94836146Y-87328592D01*
X94833005Y-87327246D01*
X94832503Y-87327090D01*
X94552249Y-87242476D01*
X94548876Y-87241808D01*
X94545554Y-87241102D01*
X94545031Y-87241047D01*
X94253679Y-87212480D01*
X94253674Y-87212480D01*
X94251847Y-87212300D01*
X66248153Y-87212300D01*
X66248089Y-87212306D01*
X66239395Y-87212337D01*
X66237755Y-87212504D01*
X66236111Y-87212492D01*
X66235588Y-87212543D01*
X65944442Y-87243144D01*
X65941118Y-87243826D01*
X65937738Y-87244471D01*
X65937235Y-87244623D01*
X65657579Y-87331191D01*
X65654410Y-87332523D01*
X65651260Y-87333796D01*
X65650796Y-87334042D01*
X65393280Y-87473281D01*
X65390446Y-87475193D01*
X65387588Y-87477063D01*
X65387180Y-87477396D01*
X65161613Y-87664001D01*
X65159209Y-87666422D01*
X65156764Y-87668816D01*
X65156429Y-87669221D01*
X64971403Y-87896085D01*
X64969520Y-87898920D01*
X64967581Y-87901751D01*
X64967331Y-87902214D01*
X64829894Y-88160695D01*
X64828592Y-88163854D01*
X64827246Y-88166995D01*
X64827090Y-88167497D01*
X64742476Y-88447751D01*
X64741808Y-88451124D01*
X64741102Y-88454446D01*
X64741047Y-88454969D01*
X64712480Y-88746321D01*
X64712300Y-88748153D01*
X57962700Y-88748153D01*
X57962700Y-79665860D01*
X57937919Y-79414252D01*
X57839985Y-79091407D01*
X57680948Y-78793871D01*
X57466922Y-78533078D01*
X57206128Y-78319052D01*
X56908592Y-78160015D01*
X56585747Y-78062081D01*
X56250000Y-78029013D01*
X55914252Y-78062081D01*
X55591407Y-78160015D01*
X55293871Y-78319052D01*
X55033078Y-78533078D01*
X54819052Y-78793872D01*
X54660015Y-79091408D01*
X54562081Y-79414253D01*
X54537300Y-79665861D01*
X50037700Y-79665861D01*
X50037700Y-50037700D01*
X110462300Y-50037700D01*
X110462301Y-178462300D01*
M02*
