G04 #@! TF.GenerationSoftware,KiCad,Pcbnew,(5.1.4)-1*
G04 #@! TF.CreationDate,2020-06-21T13:41:15+09:00*
G04 #@! TF.ProjectId,dooper-panel,646f6f70-6572-42d7-9061-6e656c2e6b69,rev?*
G04 #@! TF.SameCoordinates,Original*
G04 #@! TF.FileFunction,Profile,NP*
%FSLAX46Y46*%
G04 Gerber Fmt 4.6, Leading zero omitted, Abs format (unit mm)*
G04 Created by KiCad (PCBNEW (5.1.4)-1) date 2020-06-21 13:41:15*
%MOMM*%
%LPD*%
G04 APERTURE LIST*
%ADD10C,0.050000*%
G04 APERTURE END LIST*
D10*
X64750000Y-88750000D02*
X64750000Y-103750000D01*
X64750000Y-88750000D02*
G75*
G02X66250000Y-87250000I1500000J0D01*
G01*
X66250000Y-105250000D02*
G75*
G02X64750000Y-103750000I0J1500000D01*
G01*
X95750000Y-103750000D02*
X95750000Y-88750000D01*
X95750000Y-103750000D02*
G75*
G02X94250000Y-105250000I-1500000J0D01*
G01*
X94250000Y-87250000D02*
G75*
G02X95750000Y-88750000I0J-1500000D01*
G01*
X66250000Y-105250000D02*
X94250000Y-105250000D01*
X66250000Y-87250000D02*
X94250000Y-87250000D01*
X60950000Y-162250000D02*
G75*
G03X60950000Y-162250000I-4700000J0D01*
G01*
X108950000Y-162250000D02*
G75*
G03X108950000Y-162250000I-4700000J0D01*
G01*
X102950000Y-151250000D02*
G75*
G03X102950000Y-151250000I-4700000J0D01*
G01*
X96950000Y-162250000D02*
G75*
G03X96950000Y-162250000I-4700000J0D01*
G01*
X90950000Y-151250000D02*
G75*
G03X90950000Y-151250000I-4700000J0D01*
G01*
X84950000Y-162250000D02*
G75*
G03X84950000Y-162250000I-4700000J0D01*
G01*
X78950000Y-151250000D02*
G75*
G03X78950000Y-151250000I-4700000J0D01*
G01*
X72950000Y-162250000D02*
G75*
G03X72950000Y-162250000I-4700000J0D01*
G01*
X66950000Y-151250000D02*
G75*
G03X66950000Y-151250000I-4700000J0D01*
G01*
X50000000Y-178500000D02*
X50000000Y-50000000D01*
X110500000Y-178500000D02*
X50000000Y-178500000D01*
X110500000Y-50000000D02*
X110500000Y-178500000D01*
X50000000Y-50000000D02*
X110500000Y-50000000D01*
M02*
