G04 #@! TF.GenerationSoftware,KiCad,Pcbnew,(5.1.4)-1*
G04 #@! TF.CreationDate,2020-06-21T13:40:25+09:00*
G04 #@! TF.ProjectId,dooper-main,646f6f70-6572-42d6-9d61-696e2e6b6963,rev?*
G04 #@! TF.SameCoordinates,Original*
G04 #@! TF.FileFunction,Legend,Bot*
G04 #@! TF.FilePolarity,Positive*
%FSLAX46Y46*%
G04 Gerber Fmt 4.6, Leading zero omitted, Abs format (unit mm)*
G04 Created by KiCad (PCBNEW (5.1.4)-1) date 2020-06-21 13:40:25*
%MOMM*%
%LPD*%
G04 APERTURE LIST*
%ADD10C,0.150000*%
%ADD11C,0.120000*%
%ADD12C,0.200000*%
%ADD13C,0.010000*%
%ADD14C,0.406400*%
%ADD15C,0.100000*%
%ADD16C,0.135128*%
%ADD17C,0.142240*%
G04 APERTURE END LIST*
D10*
X87480952Y-158452380D02*
X87957142Y-158452380D01*
X87957142Y-157452380D01*
X87147619Y-158452380D02*
X87147619Y-157785714D01*
X87147619Y-157452380D02*
X87195238Y-157500000D01*
X87147619Y-157547619D01*
X87100000Y-157500000D01*
X87147619Y-157452380D01*
X87147619Y-157547619D01*
X86528571Y-158452380D02*
X86623809Y-158404761D01*
X86671428Y-158309523D01*
X86671428Y-157452380D01*
X85719047Y-158452380D02*
X85719047Y-157928571D01*
X85766666Y-157833333D01*
X85861904Y-157785714D01*
X86052380Y-157785714D01*
X86147619Y-157833333D01*
X85719047Y-158404761D02*
X85814285Y-158452380D01*
X86052380Y-158452380D01*
X86147619Y-158404761D01*
X86195238Y-158309523D01*
X86195238Y-158214285D01*
X86147619Y-158119047D01*
X86052380Y-158071428D01*
X85814285Y-158071428D01*
X85719047Y-158023809D01*
X84671428Y-158357142D02*
X84719047Y-158404761D01*
X84861904Y-158452380D01*
X84957142Y-158452380D01*
X85100000Y-158404761D01*
X85195238Y-158309523D01*
X85242857Y-158214285D01*
X85290476Y-158023809D01*
X85290476Y-157880952D01*
X85242857Y-157690476D01*
X85195238Y-157595238D01*
X85100000Y-157500000D01*
X84957142Y-157452380D01*
X84861904Y-157452380D01*
X84719047Y-157500000D01*
X84671428Y-157547619D01*
X82909523Y-158452380D02*
X83242857Y-157976190D01*
X83480952Y-158452380D02*
X83480952Y-157452380D01*
X83100000Y-157452380D01*
X83004761Y-157500000D01*
X82957142Y-157547619D01*
X82909523Y-157642857D01*
X82909523Y-157785714D01*
X82957142Y-157880952D01*
X83004761Y-157928571D01*
X83100000Y-157976190D01*
X83480952Y-157976190D01*
X82100000Y-158404761D02*
X82195238Y-158452380D01*
X82385714Y-158452380D01*
X82480952Y-158404761D01*
X82528571Y-158309523D01*
X82528571Y-157928571D01*
X82480952Y-157833333D01*
X82385714Y-157785714D01*
X82195238Y-157785714D01*
X82100000Y-157833333D01*
X82052380Y-157928571D01*
X82052380Y-158023809D01*
X82528571Y-158119047D01*
X81623809Y-157785714D02*
X81623809Y-158785714D01*
X81623809Y-157833333D02*
X81528571Y-157785714D01*
X81338095Y-157785714D01*
X81242857Y-157833333D01*
X81195238Y-157880952D01*
X81147619Y-157976190D01*
X81147619Y-158261904D01*
X81195238Y-158357142D01*
X81242857Y-158404761D01*
X81338095Y-158452380D01*
X81528571Y-158452380D01*
X81623809Y-158404761D01*
X80338095Y-158404761D02*
X80433333Y-158452380D01*
X80623809Y-158452380D01*
X80719047Y-158404761D01*
X80766666Y-158309523D01*
X80766666Y-157928571D01*
X80719047Y-157833333D01*
X80623809Y-157785714D01*
X80433333Y-157785714D01*
X80338095Y-157833333D01*
X80290476Y-157928571D01*
X80290476Y-158023809D01*
X80766666Y-158119047D01*
X79433333Y-158452380D02*
X79433333Y-157928571D01*
X79480952Y-157833333D01*
X79576190Y-157785714D01*
X79766666Y-157785714D01*
X79861904Y-157833333D01*
X79433333Y-158404761D02*
X79528571Y-158452380D01*
X79766666Y-158452380D01*
X79861904Y-158404761D01*
X79909523Y-158309523D01*
X79909523Y-158214285D01*
X79861904Y-158119047D01*
X79766666Y-158071428D01*
X79528571Y-158071428D01*
X79433333Y-158023809D01*
X79100000Y-157785714D02*
X78719047Y-157785714D01*
X78957142Y-157452380D02*
X78957142Y-158309523D01*
X78909523Y-158404761D01*
X78814285Y-158452380D01*
X78719047Y-158452380D01*
X78004761Y-158404761D02*
X78100000Y-158452380D01*
X78290476Y-158452380D01*
X78385714Y-158404761D01*
X78433333Y-158309523D01*
X78433333Y-157928571D01*
X78385714Y-157833333D01*
X78290476Y-157785714D01*
X78100000Y-157785714D01*
X78004761Y-157833333D01*
X77957142Y-157928571D01*
X77957142Y-158023809D01*
X78433333Y-158119047D01*
X77528571Y-158452380D02*
X77528571Y-157785714D01*
X77528571Y-157976190D02*
X77480952Y-157880952D01*
X77433333Y-157833333D01*
X77338095Y-157785714D01*
X77242857Y-157785714D01*
X76242857Y-157785714D02*
X76004761Y-158452380D01*
X75766666Y-157785714D01*
X75004761Y-158404761D02*
X75100000Y-158452380D01*
X75290476Y-158452380D01*
X75385714Y-158404761D01*
X75433333Y-158309523D01*
X75433333Y-157928571D01*
X75385714Y-157833333D01*
X75290476Y-157785714D01*
X75100000Y-157785714D01*
X75004761Y-157833333D01*
X74957142Y-157928571D01*
X74957142Y-158023809D01*
X75433333Y-158119047D01*
X74528571Y-158452380D02*
X74528571Y-157785714D01*
X74528571Y-157976190D02*
X74480952Y-157880952D01*
X74433333Y-157833333D01*
X74338095Y-157785714D01*
X74242857Y-157785714D01*
X72957142Y-157452380D02*
X72861904Y-157452380D01*
X72766666Y-157500000D01*
X72719047Y-157547619D01*
X72671428Y-157642857D01*
X72623809Y-157833333D01*
X72623809Y-158071428D01*
X72671428Y-158261904D01*
X72719047Y-158357142D01*
X72766666Y-158404761D01*
X72861904Y-158452380D01*
X72957142Y-158452380D01*
X73052380Y-158404761D01*
X73100000Y-158357142D01*
X73147619Y-158261904D01*
X73195238Y-158071428D01*
X73195238Y-157833333D01*
X73147619Y-157642857D01*
X73100000Y-157547619D01*
X73052380Y-157500000D01*
X72957142Y-157452380D01*
X72195238Y-158357142D02*
X72147619Y-158404761D01*
X72195238Y-158452380D01*
X72242857Y-158404761D01*
X72195238Y-158357142D01*
X72195238Y-158452380D01*
X71195238Y-158452380D02*
X71766666Y-158452380D01*
X71480952Y-158452380D02*
X71480952Y-157452380D01*
X71576190Y-157595238D01*
X71671428Y-157690476D01*
X71766666Y-157738095D01*
D11*
X51700000Y-85600000D02*
X52800000Y-86300000D01*
X51100000Y-91300000D02*
X51100000Y-86300000D01*
X54400000Y-91300000D02*
X51100000Y-91300000D01*
X54400000Y-86300000D02*
X54400000Y-91300000D01*
X51100000Y-86300000D02*
X54400000Y-86300000D01*
X50200000Y-81000000D02*
X50300000Y-81000000D01*
X50200000Y-85600000D02*
X50200000Y-81000000D01*
X53300000Y-85600000D02*
X50200000Y-85600000D01*
X53300000Y-81000000D02*
X53300000Y-85600000D01*
X50300000Y-81000000D02*
X53300000Y-81000000D01*
D12*
X106800000Y-123500000D02*
X101700000Y-123500000D01*
D10*
X108552380Y-111428571D02*
X107552380Y-111428571D01*
X108266666Y-111761904D01*
X107552380Y-112095238D01*
X108552380Y-112095238D01*
X108552380Y-112571428D02*
X107552380Y-112571428D01*
X108552380Y-113047619D02*
X107552380Y-113047619D01*
X107552380Y-113285714D01*
X107600000Y-113428571D01*
X107695238Y-113523809D01*
X107790476Y-113571428D01*
X107980952Y-113619047D01*
X108123809Y-113619047D01*
X108314285Y-113571428D01*
X108409523Y-113523809D01*
X108504761Y-113428571D01*
X108552380Y-113285714D01*
X108552380Y-113047619D01*
X108552380Y-114047619D02*
X107552380Y-114047619D01*
X108647619Y-114285714D02*
X108647619Y-115047619D01*
X108028571Y-115285714D02*
X108028571Y-115619047D01*
X108552380Y-115761904D02*
X108552380Y-115285714D01*
X107552380Y-115285714D01*
X107552380Y-115761904D01*
X107552380Y-116095238D02*
X108552380Y-116761904D01*
X107552380Y-116761904D02*
X108552380Y-116095238D01*
X108552380Y-117142857D02*
X107552380Y-117142857D01*
X107552380Y-117523809D01*
X107600000Y-117619047D01*
X107647619Y-117666666D01*
X107742857Y-117714285D01*
X107885714Y-117714285D01*
X107980952Y-117666666D01*
X108028571Y-117619047D01*
X108076190Y-117523809D01*
X108076190Y-117142857D01*
X108266666Y-118095238D02*
X108266666Y-118571428D01*
X108552380Y-118000000D02*
X107552380Y-118333333D01*
X108552380Y-118666666D01*
X108552380Y-119000000D02*
X107552380Y-119000000D01*
X108552380Y-119571428D01*
X107552380Y-119571428D01*
X108552380Y-120047619D02*
X107552380Y-120047619D01*
X107552380Y-120285714D01*
X107600000Y-120428571D01*
X107695238Y-120523809D01*
X107790476Y-120571428D01*
X107980952Y-120619047D01*
X108123809Y-120619047D01*
X108314285Y-120571428D01*
X108409523Y-120523809D01*
X108504761Y-120428571D01*
X108552380Y-120285714D01*
X108552380Y-120047619D01*
D11*
X88500000Y-81100000D02*
X88600000Y-79600000D01*
X104500000Y-69400000D02*
X103700000Y-69800000D01*
X105200000Y-75300000D02*
X106800000Y-75300000D01*
X105200000Y-69900000D02*
X105200000Y-75300000D01*
X108400000Y-69900000D02*
X105200000Y-69900000D01*
X108400000Y-75300000D02*
X108400000Y-69900000D01*
X106800000Y-75300000D02*
X108400000Y-75300000D01*
X106800000Y-76200000D02*
X106800000Y-75300000D01*
X105200000Y-76200000D02*
X105300000Y-76200000D01*
X105200000Y-80200000D02*
X105200000Y-76200000D01*
X108300000Y-80200000D02*
X105200000Y-80200000D01*
X108300000Y-76200000D02*
X108300000Y-80200000D01*
X105300000Y-76200000D02*
X108300000Y-76200000D01*
X103500000Y-79900000D02*
X103500000Y-79100000D01*
X94300000Y-72000000D02*
X95800000Y-72000000D01*
X94300000Y-77500000D02*
X94300000Y-72000000D01*
X97400000Y-77500000D02*
X94300000Y-77500000D01*
X97400000Y-72000000D02*
X97400000Y-77500000D01*
X95800000Y-72000000D02*
X97400000Y-72000000D01*
X94300000Y-69000000D02*
X95800000Y-72000000D01*
X91100000Y-64800000D02*
X91200000Y-64800000D01*
X91100000Y-69000000D02*
X91100000Y-64800000D01*
X94300000Y-69000000D02*
X91100000Y-69000000D01*
X94300000Y-64800000D02*
X94300000Y-69000000D01*
X91200000Y-64800000D02*
X94300000Y-64800000D01*
D13*
G36*
X79967984Y-90725253D02*
G01*
X79946840Y-90726199D01*
X79929767Y-90728336D01*
X79913724Y-90732071D01*
X79895672Y-90737811D01*
X79892149Y-90739028D01*
X79840468Y-90761151D01*
X79795479Y-90788915D01*
X79757760Y-90821637D01*
X79727885Y-90858633D01*
X79706433Y-90899221D01*
X79693978Y-90942717D01*
X79690883Y-90977664D01*
X79694714Y-91019067D01*
X79707102Y-91055786D01*
X79728698Y-91089518D01*
X79737873Y-91100192D01*
X79755169Y-91117019D01*
X79774827Y-91133063D01*
X79790333Y-91143464D01*
X79830747Y-91161457D01*
X79876594Y-91173116D01*
X79925073Y-91178062D01*
X79973389Y-91175919D01*
X79998780Y-91171602D01*
X80050250Y-91156231D01*
X80098293Y-91133041D01*
X80119202Y-91120007D01*
X80158651Y-91089010D01*
X80190314Y-91054219D01*
X80213984Y-91016634D01*
X80229453Y-90977253D01*
X80236515Y-90937075D01*
X80234963Y-90897099D01*
X80224589Y-90858322D01*
X80205187Y-90821745D01*
X80186005Y-90797858D01*
X80160912Y-90774287D01*
X80133656Y-90755910D01*
X80100736Y-90740491D01*
X80089815Y-90736320D01*
X80074375Y-90731341D01*
X80058557Y-90728054D01*
X80039646Y-90726133D01*
X80014927Y-90725254D01*
X79996240Y-90725091D01*
X79967984Y-90725253D01*
X79967984Y-90725253D01*
G37*
X79967984Y-90725253D02*
X79946840Y-90726199D01*
X79929767Y-90728336D01*
X79913724Y-90732071D01*
X79895672Y-90737811D01*
X79892149Y-90739028D01*
X79840468Y-90761151D01*
X79795479Y-90788915D01*
X79757760Y-90821637D01*
X79727885Y-90858633D01*
X79706433Y-90899221D01*
X79693978Y-90942717D01*
X79690883Y-90977664D01*
X79694714Y-91019067D01*
X79707102Y-91055786D01*
X79728698Y-91089518D01*
X79737873Y-91100192D01*
X79755169Y-91117019D01*
X79774827Y-91133063D01*
X79790333Y-91143464D01*
X79830747Y-91161457D01*
X79876594Y-91173116D01*
X79925073Y-91178062D01*
X79973389Y-91175919D01*
X79998780Y-91171602D01*
X80050250Y-91156231D01*
X80098293Y-91133041D01*
X80119202Y-91120007D01*
X80158651Y-91089010D01*
X80190314Y-91054219D01*
X80213984Y-91016634D01*
X80229453Y-90977253D01*
X80236515Y-90937075D01*
X80234963Y-90897099D01*
X80224589Y-90858322D01*
X80205187Y-90821745D01*
X80186005Y-90797858D01*
X80160912Y-90774287D01*
X80133656Y-90755910D01*
X80100736Y-90740491D01*
X80089815Y-90736320D01*
X80074375Y-90731341D01*
X80058557Y-90728054D01*
X80039646Y-90726133D01*
X80014927Y-90725254D01*
X79996240Y-90725091D01*
X79967984Y-90725253D01*
G36*
X79479933Y-87818089D02*
G01*
X79314792Y-87828052D01*
X79150574Y-87847977D01*
X78987721Y-87877877D01*
X78967540Y-87882303D01*
X78807479Y-87923235D01*
X78649995Y-87973874D01*
X78495571Y-88033985D01*
X78344688Y-88103333D01*
X78197828Y-88181683D01*
X78055474Y-88268800D01*
X77918106Y-88364450D01*
X77816920Y-88443045D01*
X77732789Y-88515383D01*
X77647661Y-88595962D01*
X77562916Y-88683163D01*
X77479931Y-88775365D01*
X77400085Y-88870947D01*
X77324757Y-88968290D01*
X77255324Y-89065771D01*
X77193166Y-89161772D01*
X77164335Y-89210291D01*
X77130836Y-89271237D01*
X77097141Y-89337546D01*
X77064029Y-89407375D01*
X77032276Y-89478881D01*
X77002662Y-89550223D01*
X76975965Y-89619558D01*
X76952962Y-89685044D01*
X76934432Y-89744839D01*
X76927104Y-89771960D01*
X76916668Y-89822276D01*
X76910288Y-89873776D01*
X76908187Y-89923366D01*
X76910590Y-89967954D01*
X76912102Y-89979131D01*
X76917570Y-90007087D01*
X76925221Y-90036943D01*
X76934259Y-90066307D01*
X76943886Y-90092790D01*
X76953305Y-90114003D01*
X76961564Y-90127374D01*
X76976238Y-90140131D01*
X76996489Y-90149448D01*
X77023427Y-90155592D01*
X77058160Y-90158828D01*
X77095560Y-90159486D01*
X77153014Y-90157479D01*
X77213483Y-90152112D01*
X77277990Y-90143200D01*
X77347562Y-90130556D01*
X77423222Y-90113995D01*
X77505997Y-90093333D01*
X77593400Y-90069381D01*
X77635595Y-90057558D01*
X77685118Y-90043959D01*
X77739439Y-90029262D01*
X77796028Y-90014145D01*
X77852354Y-89999285D01*
X77905887Y-89985361D01*
X77933760Y-89978209D01*
X77983984Y-89965341D01*
X78037884Y-89951427D01*
X78093046Y-89937097D01*
X78147059Y-89922982D01*
X78197508Y-89909711D01*
X78241981Y-89897914D01*
X78265004Y-89891749D01*
X78350659Y-89869377D01*
X78427269Y-89850827D01*
X78495186Y-89836048D01*
X78554760Y-89824995D01*
X78606341Y-89817619D01*
X78650280Y-89813872D01*
X78686927Y-89813706D01*
X78716633Y-89817074D01*
X78739748Y-89823928D01*
X78744826Y-89826328D01*
X78764504Y-89842220D01*
X78779214Y-89866717D01*
X78788776Y-89899463D01*
X78791497Y-89918137D01*
X78793570Y-89953451D01*
X78791837Y-89988653D01*
X78785951Y-90026029D01*
X78775567Y-90067869D01*
X78762477Y-90110067D01*
X78723174Y-90217478D01*
X78675522Y-90328540D01*
X78620168Y-90442186D01*
X78557759Y-90557347D01*
X78488944Y-90672955D01*
X78414369Y-90787943D01*
X78334682Y-90901241D01*
X78250531Y-91011782D01*
X78162563Y-91118498D01*
X78125151Y-91161340D01*
X78097110Y-91192521D01*
X78063205Y-91229599D01*
X78024702Y-91271234D01*
X77982868Y-91316086D01*
X77938968Y-91362814D01*
X77894268Y-91410077D01*
X77850036Y-91456536D01*
X77807536Y-91500848D01*
X77768035Y-91541675D01*
X77732800Y-91577675D01*
X77714131Y-91596502D01*
X77669047Y-91641238D01*
X77629176Y-91679729D01*
X77592977Y-91713317D01*
X77558908Y-91743347D01*
X77525428Y-91771161D01*
X77490995Y-91798103D01*
X77454069Y-91825517D01*
X77438460Y-91836769D01*
X77393561Y-91869968D01*
X77356992Y-91899574D01*
X77327980Y-91926509D01*
X77305755Y-91951695D01*
X77289544Y-91976055D01*
X77278576Y-92000511D01*
X77272080Y-92025986D01*
X77270452Y-92037640D01*
X77270734Y-92073515D01*
X77278419Y-92114144D01*
X77292942Y-92157981D01*
X77313736Y-92203477D01*
X77340234Y-92249088D01*
X77356764Y-92273288D01*
X77379021Y-92302800D01*
X77406423Y-92337053D01*
X77437199Y-92374003D01*
X77469582Y-92411606D01*
X77501803Y-92447820D01*
X77532093Y-92480602D01*
X77558684Y-92507907D01*
X77566128Y-92515160D01*
X77625352Y-92568008D01*
X77683014Y-92611651D01*
X77738916Y-92646005D01*
X77792859Y-92670986D01*
X77844646Y-92686512D01*
X77894079Y-92692499D01*
X77940959Y-92688863D01*
X77964975Y-92682922D01*
X77999052Y-92669385D01*
X78032773Y-92649805D01*
X78066768Y-92623580D01*
X78101671Y-92590112D01*
X78138112Y-92548800D01*
X78176725Y-92499044D01*
X78213867Y-92446528D01*
X78320996Y-92285983D01*
X78424108Y-92124374D01*
X78522977Y-91962205D01*
X78617373Y-91799984D01*
X78707071Y-91638215D01*
X78791842Y-91477406D01*
X78871459Y-91318061D01*
X78945694Y-91160686D01*
X79014321Y-91005788D01*
X79077110Y-90853873D01*
X79133836Y-90705445D01*
X79184270Y-90561012D01*
X79228184Y-90421079D01*
X79265353Y-90286151D01*
X79295547Y-90156736D01*
X79318539Y-90033338D01*
X79327877Y-89969407D01*
X79335855Y-89894724D01*
X79339299Y-89827507D01*
X79338249Y-89768008D01*
X79332747Y-89716483D01*
X79322833Y-89673183D01*
X79308547Y-89638362D01*
X79289930Y-89612275D01*
X79268268Y-89595811D01*
X79253059Y-89588806D01*
X79236271Y-89583242D01*
X79216470Y-89578927D01*
X79192225Y-89575667D01*
X79162100Y-89573269D01*
X79124663Y-89571540D01*
X79079300Y-89570302D01*
X79033467Y-89569631D01*
X78991276Y-89569781D01*
X78951286Y-89570911D01*
X78912057Y-89573181D01*
X78872146Y-89576750D01*
X78830114Y-89581779D01*
X78784520Y-89588427D01*
X78733923Y-89596853D01*
X78676881Y-89607217D01*
X78611954Y-89619679D01*
X78584000Y-89625179D01*
X78479138Y-89646618D01*
X78374991Y-89669372D01*
X78269272Y-89693980D01*
X78159694Y-89720982D01*
X78043969Y-89750918D01*
X77989640Y-89765392D01*
X77898241Y-89789761D01*
X77815972Y-89811287D01*
X77742247Y-89830088D01*
X77676477Y-89846281D01*
X77618074Y-89859983D01*
X77566450Y-89871313D01*
X77521016Y-89880386D01*
X77481186Y-89887321D01*
X77446370Y-89892235D01*
X77415981Y-89895244D01*
X77389431Y-89896467D01*
X77366131Y-89896021D01*
X77345493Y-89894023D01*
X77345145Y-89893974D01*
X77313010Y-89888173D01*
X77289324Y-89880452D01*
X77272402Y-89869625D01*
X77260559Y-89854506D01*
X77252113Y-89833908D01*
X77250149Y-89827080D01*
X77238544Y-89765369D01*
X77235547Y-89699063D01*
X77241036Y-89628768D01*
X77254889Y-89555084D01*
X77276983Y-89478617D01*
X77307196Y-89399968D01*
X77345407Y-89319740D01*
X77357627Y-89296885D01*
X77402787Y-89219886D01*
X77455525Y-89139494D01*
X77514558Y-89057285D01*
X77578601Y-88974833D01*
X77646370Y-88893715D01*
X77716581Y-88815505D01*
X77787950Y-88741780D01*
X77859194Y-88674115D01*
X77881095Y-88654579D01*
X77995326Y-88561021D01*
X78115202Y-88475841D01*
X78240474Y-88399139D01*
X78370896Y-88331016D01*
X78506217Y-88271575D01*
X78646189Y-88220917D01*
X78790563Y-88179144D01*
X78939091Y-88146355D01*
X79091525Y-88122655D01*
X79214423Y-88110432D01*
X79268136Y-88107585D01*
X79330108Y-88106365D01*
X79398583Y-88106680D01*
X79471806Y-88108436D01*
X79548022Y-88111541D01*
X79625476Y-88115902D01*
X79702413Y-88121425D01*
X79777079Y-88128016D01*
X79847717Y-88135584D01*
X79912574Y-88144035D01*
X79946775Y-88149292D01*
X80102510Y-88179401D01*
X80252373Y-88217733D01*
X80396608Y-88264394D01*
X80535455Y-88319494D01*
X80669158Y-88383138D01*
X80797958Y-88455435D01*
X80922098Y-88536492D01*
X81041819Y-88626417D01*
X81066411Y-88646429D01*
X81100174Y-88675589D01*
X81138409Y-88710825D01*
X81179264Y-88750258D01*
X81220890Y-88792009D01*
X81261435Y-88834201D01*
X81299048Y-88874955D01*
X81331879Y-88912393D01*
X81349538Y-88933760D01*
X81434916Y-89048327D01*
X81511495Y-89167964D01*
X81579277Y-89292675D01*
X81638263Y-89422462D01*
X81688454Y-89557332D01*
X81729853Y-89697286D01*
X81762461Y-89842329D01*
X81786279Y-89992466D01*
X81799471Y-90122225D01*
X81802622Y-90176684D01*
X81804404Y-90238465D01*
X81804890Y-90305799D01*
X81804148Y-90376915D01*
X81802250Y-90450045D01*
X81799266Y-90523417D01*
X81795265Y-90595263D01*
X81790319Y-90663812D01*
X81784496Y-90727295D01*
X81777869Y-90783942D01*
X81771536Y-90826091D01*
X81743241Y-90961501D01*
X81705197Y-91094402D01*
X81657608Y-91224321D01*
X81600680Y-91350787D01*
X81534616Y-91473326D01*
X81459621Y-91591466D01*
X81410439Y-91660021D01*
X81370003Y-91708817D01*
X81321238Y-91759117D01*
X81265645Y-91809854D01*
X81204725Y-91859964D01*
X81139981Y-91908384D01*
X81072912Y-91954047D01*
X81005021Y-91995890D01*
X80937808Y-92032847D01*
X80872775Y-92063855D01*
X80811423Y-92087849D01*
X80803326Y-92090551D01*
X80739582Y-92109939D01*
X80675965Y-92126640D01*
X80614254Y-92140300D01*
X80556226Y-92150566D01*
X80503661Y-92157085D01*
X80458336Y-92159504D01*
X80455980Y-92159511D01*
X80418606Y-92158530D01*
X80389494Y-92154913D01*
X80366875Y-92147627D01*
X80348979Y-92135641D01*
X80334037Y-92117923D01*
X80320279Y-92093439D01*
X80312083Y-92075593D01*
X80298684Y-92045484D01*
X80282514Y-92010020D01*
X80264320Y-91970765D01*
X80244848Y-91929279D01*
X80224846Y-91887126D01*
X80205059Y-91845866D01*
X80186234Y-91807063D01*
X80169117Y-91772279D01*
X80154456Y-91743075D01*
X80142996Y-91721013D01*
X80139899Y-91715304D01*
X80110011Y-91663792D01*
X80081284Y-91620071D01*
X80052296Y-91582107D01*
X80025577Y-91551990D01*
X79990051Y-91519432D01*
X79954722Y-91496805D01*
X79919545Y-91484132D01*
X79884478Y-91481435D01*
X79849478Y-91488736D01*
X79814500Y-91506058D01*
X79779503Y-91533422D01*
X79744443Y-91570852D01*
X79709277Y-91618369D01*
X79673961Y-91675995D01*
X79638453Y-91743753D01*
X79633436Y-91754108D01*
X79585413Y-91860792D01*
X79539408Y-91976268D01*
X79495779Y-92099306D01*
X79454888Y-92228674D01*
X79417095Y-92363141D01*
X79382760Y-92501474D01*
X79352244Y-92642444D01*
X79325907Y-92784817D01*
X79318396Y-92830627D01*
X79306901Y-92909748D01*
X79299036Y-92980024D01*
X79294827Y-93042110D01*
X79294301Y-93096661D01*
X79297487Y-93144333D01*
X79304412Y-93185781D01*
X79315102Y-93221660D01*
X79329585Y-93252624D01*
X79336486Y-93263841D01*
X79354411Y-93285795D01*
X79377117Y-93304123D01*
X79405385Y-93319055D01*
X79439992Y-93330821D01*
X79481719Y-93339650D01*
X79531345Y-93345773D01*
X79589648Y-93349419D01*
X79630480Y-93350536D01*
X79663574Y-93350952D01*
X79695360Y-93351119D01*
X79723601Y-93351041D01*
X79746056Y-93350723D01*
X79760020Y-93350204D01*
X79865172Y-93342348D01*
X79960637Y-93332939D01*
X80046778Y-93321931D01*
X80123957Y-93309281D01*
X80174040Y-93299162D01*
X80274438Y-93274925D01*
X80373597Y-93246598D01*
X80472998Y-93213631D01*
X80574121Y-93175477D01*
X80678448Y-93131588D01*
X80787457Y-93081417D01*
X80864717Y-93043582D01*
X80944565Y-93002109D01*
X81019378Y-92959941D01*
X81090414Y-92916131D01*
X81158931Y-92869731D01*
X81226185Y-92819793D01*
X81293435Y-92765371D01*
X81361938Y-92705516D01*
X81432951Y-92639281D01*
X81507732Y-92565720D01*
X81533154Y-92539978D01*
X81651998Y-92412793D01*
X81761044Y-92283369D01*
X81860464Y-92151435D01*
X81950428Y-92016719D01*
X82031107Y-91878950D01*
X82102671Y-91737854D01*
X82165291Y-91593162D01*
X82217057Y-91450900D01*
X82252350Y-91334754D01*
X82282083Y-91215534D01*
X82306577Y-91091646D01*
X82326154Y-90961496D01*
X82339013Y-90846380D01*
X82341502Y-90812238D01*
X82343350Y-90769951D01*
X82344570Y-90721511D01*
X82345172Y-90668911D01*
X82345167Y-90614144D01*
X82344568Y-90559203D01*
X82343385Y-90506081D01*
X82341629Y-90456771D01*
X82339313Y-90413266D01*
X82336447Y-90377560D01*
X82336337Y-90376480D01*
X82313513Y-90199853D01*
X82281707Y-90027501D01*
X82240986Y-89859585D01*
X82191416Y-89696263D01*
X82133063Y-89537696D01*
X82065993Y-89384043D01*
X81990273Y-89235463D01*
X81905969Y-89092117D01*
X81813147Y-88954164D01*
X81711874Y-88821764D01*
X81669701Y-88771200D01*
X81651303Y-88750347D01*
X81627446Y-88724331D01*
X81599949Y-88695077D01*
X81570630Y-88664511D01*
X81541309Y-88634558D01*
X81528104Y-88621300D01*
X81406936Y-88507482D01*
X81279889Y-88401940D01*
X81147041Y-88304719D01*
X81008465Y-88215861D01*
X80864237Y-88135409D01*
X80714433Y-88063407D01*
X80559127Y-87999898D01*
X80398396Y-87944926D01*
X80303953Y-87917310D01*
X80140852Y-87877633D01*
X79976457Y-87847861D01*
X79811209Y-87828006D01*
X79645554Y-87818078D01*
X79479933Y-87818089D01*
X79479933Y-87818089D01*
G37*
X79479933Y-87818089D02*
X79314792Y-87828052D01*
X79150574Y-87847977D01*
X78987721Y-87877877D01*
X78967540Y-87882303D01*
X78807479Y-87923235D01*
X78649995Y-87973874D01*
X78495571Y-88033985D01*
X78344688Y-88103333D01*
X78197828Y-88181683D01*
X78055474Y-88268800D01*
X77918106Y-88364450D01*
X77816920Y-88443045D01*
X77732789Y-88515383D01*
X77647661Y-88595962D01*
X77562916Y-88683163D01*
X77479931Y-88775365D01*
X77400085Y-88870947D01*
X77324757Y-88968290D01*
X77255324Y-89065771D01*
X77193166Y-89161772D01*
X77164335Y-89210291D01*
X77130836Y-89271237D01*
X77097141Y-89337546D01*
X77064029Y-89407375D01*
X77032276Y-89478881D01*
X77002662Y-89550223D01*
X76975965Y-89619558D01*
X76952962Y-89685044D01*
X76934432Y-89744839D01*
X76927104Y-89771960D01*
X76916668Y-89822276D01*
X76910288Y-89873776D01*
X76908187Y-89923366D01*
X76910590Y-89967954D01*
X76912102Y-89979131D01*
X76917570Y-90007087D01*
X76925221Y-90036943D01*
X76934259Y-90066307D01*
X76943886Y-90092790D01*
X76953305Y-90114003D01*
X76961564Y-90127374D01*
X76976238Y-90140131D01*
X76996489Y-90149448D01*
X77023427Y-90155592D01*
X77058160Y-90158828D01*
X77095560Y-90159486D01*
X77153014Y-90157479D01*
X77213483Y-90152112D01*
X77277990Y-90143200D01*
X77347562Y-90130556D01*
X77423222Y-90113995D01*
X77505997Y-90093333D01*
X77593400Y-90069381D01*
X77635595Y-90057558D01*
X77685118Y-90043959D01*
X77739439Y-90029262D01*
X77796028Y-90014145D01*
X77852354Y-89999285D01*
X77905887Y-89985361D01*
X77933760Y-89978209D01*
X77983984Y-89965341D01*
X78037884Y-89951427D01*
X78093046Y-89937097D01*
X78147059Y-89922982D01*
X78197508Y-89909711D01*
X78241981Y-89897914D01*
X78265004Y-89891749D01*
X78350659Y-89869377D01*
X78427269Y-89850827D01*
X78495186Y-89836048D01*
X78554760Y-89824995D01*
X78606341Y-89817619D01*
X78650280Y-89813872D01*
X78686927Y-89813706D01*
X78716633Y-89817074D01*
X78739748Y-89823928D01*
X78744826Y-89826328D01*
X78764504Y-89842220D01*
X78779214Y-89866717D01*
X78788776Y-89899463D01*
X78791497Y-89918137D01*
X78793570Y-89953451D01*
X78791837Y-89988653D01*
X78785951Y-90026029D01*
X78775567Y-90067869D01*
X78762477Y-90110067D01*
X78723174Y-90217478D01*
X78675522Y-90328540D01*
X78620168Y-90442186D01*
X78557759Y-90557347D01*
X78488944Y-90672955D01*
X78414369Y-90787943D01*
X78334682Y-90901241D01*
X78250531Y-91011782D01*
X78162563Y-91118498D01*
X78125151Y-91161340D01*
X78097110Y-91192521D01*
X78063205Y-91229599D01*
X78024702Y-91271234D01*
X77982868Y-91316086D01*
X77938968Y-91362814D01*
X77894268Y-91410077D01*
X77850036Y-91456536D01*
X77807536Y-91500848D01*
X77768035Y-91541675D01*
X77732800Y-91577675D01*
X77714131Y-91596502D01*
X77669047Y-91641238D01*
X77629176Y-91679729D01*
X77592977Y-91713317D01*
X77558908Y-91743347D01*
X77525428Y-91771161D01*
X77490995Y-91798103D01*
X77454069Y-91825517D01*
X77438460Y-91836769D01*
X77393561Y-91869968D01*
X77356992Y-91899574D01*
X77327980Y-91926509D01*
X77305755Y-91951695D01*
X77289544Y-91976055D01*
X77278576Y-92000511D01*
X77272080Y-92025986D01*
X77270452Y-92037640D01*
X77270734Y-92073515D01*
X77278419Y-92114144D01*
X77292942Y-92157981D01*
X77313736Y-92203477D01*
X77340234Y-92249088D01*
X77356764Y-92273288D01*
X77379021Y-92302800D01*
X77406423Y-92337053D01*
X77437199Y-92374003D01*
X77469582Y-92411606D01*
X77501803Y-92447820D01*
X77532093Y-92480602D01*
X77558684Y-92507907D01*
X77566128Y-92515160D01*
X77625352Y-92568008D01*
X77683014Y-92611651D01*
X77738916Y-92646005D01*
X77792859Y-92670986D01*
X77844646Y-92686512D01*
X77894079Y-92692499D01*
X77940959Y-92688863D01*
X77964975Y-92682922D01*
X77999052Y-92669385D01*
X78032773Y-92649805D01*
X78066768Y-92623580D01*
X78101671Y-92590112D01*
X78138112Y-92548800D01*
X78176725Y-92499044D01*
X78213867Y-92446528D01*
X78320996Y-92285983D01*
X78424108Y-92124374D01*
X78522977Y-91962205D01*
X78617373Y-91799984D01*
X78707071Y-91638215D01*
X78791842Y-91477406D01*
X78871459Y-91318061D01*
X78945694Y-91160686D01*
X79014321Y-91005788D01*
X79077110Y-90853873D01*
X79133836Y-90705445D01*
X79184270Y-90561012D01*
X79228184Y-90421079D01*
X79265353Y-90286151D01*
X79295547Y-90156736D01*
X79318539Y-90033338D01*
X79327877Y-89969407D01*
X79335855Y-89894724D01*
X79339299Y-89827507D01*
X79338249Y-89768008D01*
X79332747Y-89716483D01*
X79322833Y-89673183D01*
X79308547Y-89638362D01*
X79289930Y-89612275D01*
X79268268Y-89595811D01*
X79253059Y-89588806D01*
X79236271Y-89583242D01*
X79216470Y-89578927D01*
X79192225Y-89575667D01*
X79162100Y-89573269D01*
X79124663Y-89571540D01*
X79079300Y-89570302D01*
X79033467Y-89569631D01*
X78991276Y-89569781D01*
X78951286Y-89570911D01*
X78912057Y-89573181D01*
X78872146Y-89576750D01*
X78830114Y-89581779D01*
X78784520Y-89588427D01*
X78733923Y-89596853D01*
X78676881Y-89607217D01*
X78611954Y-89619679D01*
X78584000Y-89625179D01*
X78479138Y-89646618D01*
X78374991Y-89669372D01*
X78269272Y-89693980D01*
X78159694Y-89720982D01*
X78043969Y-89750918D01*
X77989640Y-89765392D01*
X77898241Y-89789761D01*
X77815972Y-89811287D01*
X77742247Y-89830088D01*
X77676477Y-89846281D01*
X77618074Y-89859983D01*
X77566450Y-89871313D01*
X77521016Y-89880386D01*
X77481186Y-89887321D01*
X77446370Y-89892235D01*
X77415981Y-89895244D01*
X77389431Y-89896467D01*
X77366131Y-89896021D01*
X77345493Y-89894023D01*
X77345145Y-89893974D01*
X77313010Y-89888173D01*
X77289324Y-89880452D01*
X77272402Y-89869625D01*
X77260559Y-89854506D01*
X77252113Y-89833908D01*
X77250149Y-89827080D01*
X77238544Y-89765369D01*
X77235547Y-89699063D01*
X77241036Y-89628768D01*
X77254889Y-89555084D01*
X77276983Y-89478617D01*
X77307196Y-89399968D01*
X77345407Y-89319740D01*
X77357627Y-89296885D01*
X77402787Y-89219886D01*
X77455525Y-89139494D01*
X77514558Y-89057285D01*
X77578601Y-88974833D01*
X77646370Y-88893715D01*
X77716581Y-88815505D01*
X77787950Y-88741780D01*
X77859194Y-88674115D01*
X77881095Y-88654579D01*
X77995326Y-88561021D01*
X78115202Y-88475841D01*
X78240474Y-88399139D01*
X78370896Y-88331016D01*
X78506217Y-88271575D01*
X78646189Y-88220917D01*
X78790563Y-88179144D01*
X78939091Y-88146355D01*
X79091525Y-88122655D01*
X79214423Y-88110432D01*
X79268136Y-88107585D01*
X79330108Y-88106365D01*
X79398583Y-88106680D01*
X79471806Y-88108436D01*
X79548022Y-88111541D01*
X79625476Y-88115902D01*
X79702413Y-88121425D01*
X79777079Y-88128016D01*
X79847717Y-88135584D01*
X79912574Y-88144035D01*
X79946775Y-88149292D01*
X80102510Y-88179401D01*
X80252373Y-88217733D01*
X80396608Y-88264394D01*
X80535455Y-88319494D01*
X80669158Y-88383138D01*
X80797958Y-88455435D01*
X80922098Y-88536492D01*
X81041819Y-88626417D01*
X81066411Y-88646429D01*
X81100174Y-88675589D01*
X81138409Y-88710825D01*
X81179264Y-88750258D01*
X81220890Y-88792009D01*
X81261435Y-88834201D01*
X81299048Y-88874955D01*
X81331879Y-88912393D01*
X81349538Y-88933760D01*
X81434916Y-89048327D01*
X81511495Y-89167964D01*
X81579277Y-89292675D01*
X81638263Y-89422462D01*
X81688454Y-89557332D01*
X81729853Y-89697286D01*
X81762461Y-89842329D01*
X81786279Y-89992466D01*
X81799471Y-90122225D01*
X81802622Y-90176684D01*
X81804404Y-90238465D01*
X81804890Y-90305799D01*
X81804148Y-90376915D01*
X81802250Y-90450045D01*
X81799266Y-90523417D01*
X81795265Y-90595263D01*
X81790319Y-90663812D01*
X81784496Y-90727295D01*
X81777869Y-90783942D01*
X81771536Y-90826091D01*
X81743241Y-90961501D01*
X81705197Y-91094402D01*
X81657608Y-91224321D01*
X81600680Y-91350787D01*
X81534616Y-91473326D01*
X81459621Y-91591466D01*
X81410439Y-91660021D01*
X81370003Y-91708817D01*
X81321238Y-91759117D01*
X81265645Y-91809854D01*
X81204725Y-91859964D01*
X81139981Y-91908384D01*
X81072912Y-91954047D01*
X81005021Y-91995890D01*
X80937808Y-92032847D01*
X80872775Y-92063855D01*
X80811423Y-92087849D01*
X80803326Y-92090551D01*
X80739582Y-92109939D01*
X80675965Y-92126640D01*
X80614254Y-92140300D01*
X80556226Y-92150566D01*
X80503661Y-92157085D01*
X80458336Y-92159504D01*
X80455980Y-92159511D01*
X80418606Y-92158530D01*
X80389494Y-92154913D01*
X80366875Y-92147627D01*
X80348979Y-92135641D01*
X80334037Y-92117923D01*
X80320279Y-92093439D01*
X80312083Y-92075593D01*
X80298684Y-92045484D01*
X80282514Y-92010020D01*
X80264320Y-91970765D01*
X80244848Y-91929279D01*
X80224846Y-91887126D01*
X80205059Y-91845866D01*
X80186234Y-91807063D01*
X80169117Y-91772279D01*
X80154456Y-91743075D01*
X80142996Y-91721013D01*
X80139899Y-91715304D01*
X80110011Y-91663792D01*
X80081284Y-91620071D01*
X80052296Y-91582107D01*
X80025577Y-91551990D01*
X79990051Y-91519432D01*
X79954722Y-91496805D01*
X79919545Y-91484132D01*
X79884478Y-91481435D01*
X79849478Y-91488736D01*
X79814500Y-91506058D01*
X79779503Y-91533422D01*
X79744443Y-91570852D01*
X79709277Y-91618369D01*
X79673961Y-91675995D01*
X79638453Y-91743753D01*
X79633436Y-91754108D01*
X79585413Y-91860792D01*
X79539408Y-91976268D01*
X79495779Y-92099306D01*
X79454888Y-92228674D01*
X79417095Y-92363141D01*
X79382760Y-92501474D01*
X79352244Y-92642444D01*
X79325907Y-92784817D01*
X79318396Y-92830627D01*
X79306901Y-92909748D01*
X79299036Y-92980024D01*
X79294827Y-93042110D01*
X79294301Y-93096661D01*
X79297487Y-93144333D01*
X79304412Y-93185781D01*
X79315102Y-93221660D01*
X79329585Y-93252624D01*
X79336486Y-93263841D01*
X79354411Y-93285795D01*
X79377117Y-93304123D01*
X79405385Y-93319055D01*
X79439992Y-93330821D01*
X79481719Y-93339650D01*
X79531345Y-93345773D01*
X79589648Y-93349419D01*
X79630480Y-93350536D01*
X79663574Y-93350952D01*
X79695360Y-93351119D01*
X79723601Y-93351041D01*
X79746056Y-93350723D01*
X79760020Y-93350204D01*
X79865172Y-93342348D01*
X79960637Y-93332939D01*
X80046778Y-93321931D01*
X80123957Y-93309281D01*
X80174040Y-93299162D01*
X80274438Y-93274925D01*
X80373597Y-93246598D01*
X80472998Y-93213631D01*
X80574121Y-93175477D01*
X80678448Y-93131588D01*
X80787457Y-93081417D01*
X80864717Y-93043582D01*
X80944565Y-93002109D01*
X81019378Y-92959941D01*
X81090414Y-92916131D01*
X81158931Y-92869731D01*
X81226185Y-92819793D01*
X81293435Y-92765371D01*
X81361938Y-92705516D01*
X81432951Y-92639281D01*
X81507732Y-92565720D01*
X81533154Y-92539978D01*
X81651998Y-92412793D01*
X81761044Y-92283369D01*
X81860464Y-92151435D01*
X81950428Y-92016719D01*
X82031107Y-91878950D01*
X82102671Y-91737854D01*
X82165291Y-91593162D01*
X82217057Y-91450900D01*
X82252350Y-91334754D01*
X82282083Y-91215534D01*
X82306577Y-91091646D01*
X82326154Y-90961496D01*
X82339013Y-90846380D01*
X82341502Y-90812238D01*
X82343350Y-90769951D01*
X82344570Y-90721511D01*
X82345172Y-90668911D01*
X82345167Y-90614144D01*
X82344568Y-90559203D01*
X82343385Y-90506081D01*
X82341629Y-90456771D01*
X82339313Y-90413266D01*
X82336447Y-90377560D01*
X82336337Y-90376480D01*
X82313513Y-90199853D01*
X82281707Y-90027501D01*
X82240986Y-89859585D01*
X82191416Y-89696263D01*
X82133063Y-89537696D01*
X82065993Y-89384043D01*
X81990273Y-89235463D01*
X81905969Y-89092117D01*
X81813147Y-88954164D01*
X81711874Y-88821764D01*
X81669701Y-88771200D01*
X81651303Y-88750347D01*
X81627446Y-88724331D01*
X81599949Y-88695077D01*
X81570630Y-88664511D01*
X81541309Y-88634558D01*
X81528104Y-88621300D01*
X81406936Y-88507482D01*
X81279889Y-88401940D01*
X81147041Y-88304719D01*
X81008465Y-88215861D01*
X80864237Y-88135409D01*
X80714433Y-88063407D01*
X80559127Y-87999898D01*
X80398396Y-87944926D01*
X80303953Y-87917310D01*
X80140852Y-87877633D01*
X79976457Y-87847861D01*
X79811209Y-87828006D01*
X79645554Y-87818078D01*
X79479933Y-87818089D01*
G36*
X79473965Y-86834245D02*
G01*
X79280022Y-86845832D01*
X79086260Y-86867434D01*
X78892947Y-86899058D01*
X78700352Y-86940709D01*
X78540765Y-86983034D01*
X78362200Y-87039622D01*
X78185638Y-87105972D01*
X78011680Y-87181782D01*
X77840925Y-87266751D01*
X77673976Y-87360578D01*
X77511432Y-87462963D01*
X77353894Y-87573602D01*
X77335315Y-87587450D01*
X77183168Y-87707841D01*
X77037964Y-87835455D01*
X76899912Y-87969945D01*
X76769223Y-88110966D01*
X76646108Y-88258173D01*
X76530777Y-88411220D01*
X76423441Y-88569761D01*
X76324311Y-88733451D01*
X76233598Y-88901944D01*
X76151511Y-89074896D01*
X76078262Y-89251959D01*
X76014061Y-89432789D01*
X75959118Y-89617041D01*
X75913645Y-89804368D01*
X75881439Y-89972620D01*
X75870329Y-90041063D01*
X75860993Y-90103845D01*
X75853292Y-90162781D01*
X75847084Y-90219685D01*
X75842231Y-90276373D01*
X75838591Y-90334660D01*
X75836024Y-90396361D01*
X75834390Y-90463291D01*
X75833549Y-90537265D01*
X75833356Y-90594920D01*
X75833541Y-90671873D01*
X75834299Y-90740408D01*
X75835752Y-90802258D01*
X75838018Y-90859153D01*
X75841219Y-90912827D01*
X75845473Y-90965010D01*
X75850902Y-91017436D01*
X75857624Y-91071835D01*
X75865761Y-91129940D01*
X75874378Y-91186740D01*
X75909133Y-91377120D01*
X75953411Y-91564373D01*
X76006975Y-91748204D01*
X76069592Y-91928320D01*
X76141026Y-92104429D01*
X76221042Y-92276237D01*
X76309407Y-92443451D01*
X76405884Y-92605777D01*
X76510239Y-92762923D01*
X76622238Y-92914595D01*
X76741646Y-93060500D01*
X76868227Y-93200344D01*
X77001747Y-93333835D01*
X77141972Y-93460680D01*
X77288666Y-93580584D01*
X77441594Y-93693255D01*
X77600523Y-93798400D01*
X77765217Y-93895726D01*
X77935441Y-93984939D01*
X78110961Y-94065745D01*
X78213548Y-94108035D01*
X78370360Y-94166198D01*
X78527322Y-94216679D01*
X78685953Y-94259839D01*
X78847775Y-94296040D01*
X79014308Y-94325643D01*
X79187074Y-94349008D01*
X79262180Y-94357081D01*
X79288436Y-94359135D01*
X79323263Y-94361008D01*
X79365139Y-94362680D01*
X79412542Y-94364135D01*
X79463953Y-94365354D01*
X79517848Y-94366319D01*
X79572708Y-94367012D01*
X79627010Y-94367415D01*
X79679233Y-94367510D01*
X79727856Y-94367279D01*
X79771358Y-94366704D01*
X79808217Y-94365767D01*
X79836911Y-94364450D01*
X79843840Y-94363967D01*
X80006114Y-94348757D01*
X80161035Y-94328757D01*
X80310393Y-94303609D01*
X80455978Y-94272954D01*
X80599578Y-94236436D01*
X80742984Y-94193695D01*
X80816660Y-94169374D01*
X80998471Y-94102107D01*
X81176129Y-94025660D01*
X81349323Y-93940261D01*
X81517742Y-93846137D01*
X81681072Y-93743515D01*
X81839003Y-93632621D01*
X81991221Y-93513684D01*
X82137415Y-93386930D01*
X82277272Y-93252586D01*
X82410480Y-93110879D01*
X82536728Y-92962036D01*
X82615855Y-92860311D01*
X82728127Y-92702505D01*
X82831533Y-92540005D01*
X82926014Y-92373178D01*
X83011513Y-92202393D01*
X83087971Y-92028017D01*
X83155332Y-91850418D01*
X83213537Y-91669965D01*
X83262529Y-91487024D01*
X83302249Y-91301964D01*
X83332641Y-91115153D01*
X83353646Y-90926958D01*
X83365207Y-90737747D01*
X83366599Y-90609328D01*
X82900043Y-90609328D01*
X82894898Y-90789240D01*
X82880050Y-90968672D01*
X82855467Y-91147097D01*
X82821117Y-91323987D01*
X82792124Y-91443280D01*
X82740975Y-91617742D01*
X82680454Y-91788551D01*
X82610796Y-91955357D01*
X82532238Y-92117810D01*
X82445014Y-92275561D01*
X82349359Y-92428260D01*
X82245511Y-92575557D01*
X82133704Y-92717104D01*
X82014173Y-92852551D01*
X81887155Y-92981547D01*
X81752885Y-93103745D01*
X81611599Y-93218793D01*
X81578660Y-93243812D01*
X81428901Y-93349833D01*
X81274344Y-93446986D01*
X81115283Y-93535145D01*
X80952017Y-93614182D01*
X80784842Y-93683971D01*
X80614052Y-93744384D01*
X80439945Y-93795295D01*
X80262818Y-93836575D01*
X80146100Y-93858201D01*
X80105253Y-93864835D01*
X80067082Y-93870611D01*
X80029747Y-93875739D01*
X79991412Y-93880432D01*
X79950238Y-93884902D01*
X79904389Y-93889362D01*
X79852025Y-93894023D01*
X79793040Y-93898957D01*
X79783001Y-93899331D01*
X79764035Y-93899609D01*
X79737374Y-93899788D01*
X79704253Y-93899865D01*
X79665902Y-93899839D01*
X79623556Y-93899707D01*
X79578447Y-93899466D01*
X79564440Y-93899372D01*
X79506551Y-93898862D01*
X79457340Y-93898182D01*
X79415327Y-93897272D01*
X79379030Y-93896074D01*
X79346969Y-93894532D01*
X79317663Y-93892586D01*
X79289631Y-93890178D01*
X79264720Y-93887618D01*
X79089353Y-93864370D01*
X78919994Y-93833620D01*
X78755509Y-93795090D01*
X78594764Y-93748504D01*
X78436626Y-93693586D01*
X78379850Y-93671617D01*
X78213803Y-93600251D01*
X78052792Y-93520305D01*
X77897084Y-93432103D01*
X77746944Y-93335967D01*
X77602638Y-93232220D01*
X77464432Y-93121185D01*
X77332591Y-93003185D01*
X77207382Y-92878544D01*
X77089069Y-92747584D01*
X76977920Y-92610627D01*
X76874198Y-92467998D01*
X76778171Y-92320019D01*
X76690104Y-92167013D01*
X76610262Y-92009303D01*
X76538911Y-91847212D01*
X76476318Y-91681063D01*
X76422747Y-91511179D01*
X76378465Y-91337883D01*
X76351612Y-91206433D01*
X76339745Y-91139467D01*
X76329793Y-91078384D01*
X76321602Y-91021360D01*
X76315020Y-90966574D01*
X76309895Y-90912203D01*
X76306072Y-90856424D01*
X76303400Y-90797415D01*
X76301726Y-90733353D01*
X76300896Y-90662417D01*
X76300737Y-90600000D01*
X76300814Y-90543552D01*
X76301016Y-90495867D01*
X76301393Y-90455546D01*
X76301993Y-90421193D01*
X76302866Y-90391409D01*
X76304062Y-90364797D01*
X76305630Y-90339959D01*
X76307618Y-90315498D01*
X76310078Y-90290017D01*
X76312493Y-90267260D01*
X76335673Y-90091743D01*
X76366383Y-89922271D01*
X76404950Y-89757725D01*
X76451700Y-89596983D01*
X76506961Y-89438928D01*
X76571059Y-89282437D01*
X76644320Y-89126393D01*
X76646656Y-89121720D01*
X76732787Y-88961000D01*
X76827317Y-88805839D01*
X76929964Y-88656522D01*
X77040442Y-88513335D01*
X77158468Y-88376561D01*
X77283758Y-88246487D01*
X77416028Y-88123397D01*
X77554993Y-88007577D01*
X77700370Y-87899311D01*
X77851874Y-87798885D01*
X78009222Y-87706583D01*
X78109481Y-87653615D01*
X78273570Y-87576056D01*
X78440927Y-87508037D01*
X78611673Y-87449523D01*
X78785931Y-87400482D01*
X78963820Y-87360879D01*
X79145463Y-87330682D01*
X79330981Y-87309856D01*
X79361240Y-87307375D01*
X79424329Y-87303612D01*
X79495113Y-87301394D01*
X79571251Y-87300678D01*
X79650403Y-87301420D01*
X79730231Y-87303574D01*
X79808392Y-87307098D01*
X79882549Y-87311945D01*
X79950359Y-87318073D01*
X79955600Y-87318634D01*
X80135697Y-87343210D01*
X80312926Y-87377384D01*
X80486978Y-87420921D01*
X80657546Y-87473587D01*
X80824321Y-87535148D01*
X80986996Y-87605370D01*
X81145262Y-87684019D01*
X81298811Y-87770859D01*
X81447336Y-87865657D01*
X81590527Y-87968179D01*
X81728078Y-88078190D01*
X81859680Y-88195456D01*
X81985025Y-88319742D01*
X82103805Y-88450815D01*
X82215712Y-88588440D01*
X82320438Y-88732382D01*
X82417674Y-88882408D01*
X82507113Y-89038283D01*
X82588447Y-89199773D01*
X82661367Y-89366644D01*
X82667060Y-89380800D01*
X82728941Y-89549307D01*
X82781343Y-89721025D01*
X82824233Y-89895427D01*
X82857580Y-90071985D01*
X82881352Y-90250173D01*
X82895517Y-90429463D01*
X82900043Y-90609328D01*
X83366599Y-90609328D01*
X83367265Y-90547889D01*
X83359763Y-90357751D01*
X83342644Y-90167702D01*
X83315849Y-89978108D01*
X83279321Y-89789337D01*
X83233002Y-89601759D01*
X83176834Y-89415740D01*
X83163104Y-89374928D01*
X83095940Y-89194485D01*
X83019765Y-89018410D01*
X82934871Y-88846995D01*
X82841552Y-88680531D01*
X82740099Y-88519309D01*
X82630804Y-88363621D01*
X82513960Y-88213758D01*
X82389859Y-88070011D01*
X82258793Y-87932672D01*
X82121054Y-87802032D01*
X81976935Y-87678383D01*
X81826728Y-87562015D01*
X81670726Y-87453221D01*
X81509219Y-87352291D01*
X81342501Y-87259517D01*
X81170864Y-87175191D01*
X80994600Y-87099602D01*
X80814120Y-87033085D01*
X80626415Y-86974726D01*
X80437015Y-86926342D01*
X80246187Y-86887939D01*
X80054200Y-86859521D01*
X79861322Y-86841096D01*
X79667821Y-86832669D01*
X79473965Y-86834245D01*
X79473965Y-86834245D01*
G37*
X79473965Y-86834245D02*
X79280022Y-86845832D01*
X79086260Y-86867434D01*
X78892947Y-86899058D01*
X78700352Y-86940709D01*
X78540765Y-86983034D01*
X78362200Y-87039622D01*
X78185638Y-87105972D01*
X78011680Y-87181782D01*
X77840925Y-87266751D01*
X77673976Y-87360578D01*
X77511432Y-87462963D01*
X77353894Y-87573602D01*
X77335315Y-87587450D01*
X77183168Y-87707841D01*
X77037964Y-87835455D01*
X76899912Y-87969945D01*
X76769223Y-88110966D01*
X76646108Y-88258173D01*
X76530777Y-88411220D01*
X76423441Y-88569761D01*
X76324311Y-88733451D01*
X76233598Y-88901944D01*
X76151511Y-89074896D01*
X76078262Y-89251959D01*
X76014061Y-89432789D01*
X75959118Y-89617041D01*
X75913645Y-89804368D01*
X75881439Y-89972620D01*
X75870329Y-90041063D01*
X75860993Y-90103845D01*
X75853292Y-90162781D01*
X75847084Y-90219685D01*
X75842231Y-90276373D01*
X75838591Y-90334660D01*
X75836024Y-90396361D01*
X75834390Y-90463291D01*
X75833549Y-90537265D01*
X75833356Y-90594920D01*
X75833541Y-90671873D01*
X75834299Y-90740408D01*
X75835752Y-90802258D01*
X75838018Y-90859153D01*
X75841219Y-90912827D01*
X75845473Y-90965010D01*
X75850902Y-91017436D01*
X75857624Y-91071835D01*
X75865761Y-91129940D01*
X75874378Y-91186740D01*
X75909133Y-91377120D01*
X75953411Y-91564373D01*
X76006975Y-91748204D01*
X76069592Y-91928320D01*
X76141026Y-92104429D01*
X76221042Y-92276237D01*
X76309407Y-92443451D01*
X76405884Y-92605777D01*
X76510239Y-92762923D01*
X76622238Y-92914595D01*
X76741646Y-93060500D01*
X76868227Y-93200344D01*
X77001747Y-93333835D01*
X77141972Y-93460680D01*
X77288666Y-93580584D01*
X77441594Y-93693255D01*
X77600523Y-93798400D01*
X77765217Y-93895726D01*
X77935441Y-93984939D01*
X78110961Y-94065745D01*
X78213548Y-94108035D01*
X78370360Y-94166198D01*
X78527322Y-94216679D01*
X78685953Y-94259839D01*
X78847775Y-94296040D01*
X79014308Y-94325643D01*
X79187074Y-94349008D01*
X79262180Y-94357081D01*
X79288436Y-94359135D01*
X79323263Y-94361008D01*
X79365139Y-94362680D01*
X79412542Y-94364135D01*
X79463953Y-94365354D01*
X79517848Y-94366319D01*
X79572708Y-94367012D01*
X79627010Y-94367415D01*
X79679233Y-94367510D01*
X79727856Y-94367279D01*
X79771358Y-94366704D01*
X79808217Y-94365767D01*
X79836911Y-94364450D01*
X79843840Y-94363967D01*
X80006114Y-94348757D01*
X80161035Y-94328757D01*
X80310393Y-94303609D01*
X80455978Y-94272954D01*
X80599578Y-94236436D01*
X80742984Y-94193695D01*
X80816660Y-94169374D01*
X80998471Y-94102107D01*
X81176129Y-94025660D01*
X81349323Y-93940261D01*
X81517742Y-93846137D01*
X81681072Y-93743515D01*
X81839003Y-93632621D01*
X81991221Y-93513684D01*
X82137415Y-93386930D01*
X82277272Y-93252586D01*
X82410480Y-93110879D01*
X82536728Y-92962036D01*
X82615855Y-92860311D01*
X82728127Y-92702505D01*
X82831533Y-92540005D01*
X82926014Y-92373178D01*
X83011513Y-92202393D01*
X83087971Y-92028017D01*
X83155332Y-91850418D01*
X83213537Y-91669965D01*
X83262529Y-91487024D01*
X83302249Y-91301964D01*
X83332641Y-91115153D01*
X83353646Y-90926958D01*
X83365207Y-90737747D01*
X83366599Y-90609328D01*
X82900043Y-90609328D01*
X82894898Y-90789240D01*
X82880050Y-90968672D01*
X82855467Y-91147097D01*
X82821117Y-91323987D01*
X82792124Y-91443280D01*
X82740975Y-91617742D01*
X82680454Y-91788551D01*
X82610796Y-91955357D01*
X82532238Y-92117810D01*
X82445014Y-92275561D01*
X82349359Y-92428260D01*
X82245511Y-92575557D01*
X82133704Y-92717104D01*
X82014173Y-92852551D01*
X81887155Y-92981547D01*
X81752885Y-93103745D01*
X81611599Y-93218793D01*
X81578660Y-93243812D01*
X81428901Y-93349833D01*
X81274344Y-93446986D01*
X81115283Y-93535145D01*
X80952017Y-93614182D01*
X80784842Y-93683971D01*
X80614052Y-93744384D01*
X80439945Y-93795295D01*
X80262818Y-93836575D01*
X80146100Y-93858201D01*
X80105253Y-93864835D01*
X80067082Y-93870611D01*
X80029747Y-93875739D01*
X79991412Y-93880432D01*
X79950238Y-93884902D01*
X79904389Y-93889362D01*
X79852025Y-93894023D01*
X79793040Y-93898957D01*
X79783001Y-93899331D01*
X79764035Y-93899609D01*
X79737374Y-93899788D01*
X79704253Y-93899865D01*
X79665902Y-93899839D01*
X79623556Y-93899707D01*
X79578447Y-93899466D01*
X79564440Y-93899372D01*
X79506551Y-93898862D01*
X79457340Y-93898182D01*
X79415327Y-93897272D01*
X79379030Y-93896074D01*
X79346969Y-93894532D01*
X79317663Y-93892586D01*
X79289631Y-93890178D01*
X79264720Y-93887618D01*
X79089353Y-93864370D01*
X78919994Y-93833620D01*
X78755509Y-93795090D01*
X78594764Y-93748504D01*
X78436626Y-93693586D01*
X78379850Y-93671617D01*
X78213803Y-93600251D01*
X78052792Y-93520305D01*
X77897084Y-93432103D01*
X77746944Y-93335967D01*
X77602638Y-93232220D01*
X77464432Y-93121185D01*
X77332591Y-93003185D01*
X77207382Y-92878544D01*
X77089069Y-92747584D01*
X76977920Y-92610627D01*
X76874198Y-92467998D01*
X76778171Y-92320019D01*
X76690104Y-92167013D01*
X76610262Y-92009303D01*
X76538911Y-91847212D01*
X76476318Y-91681063D01*
X76422747Y-91511179D01*
X76378465Y-91337883D01*
X76351612Y-91206433D01*
X76339745Y-91139467D01*
X76329793Y-91078384D01*
X76321602Y-91021360D01*
X76315020Y-90966574D01*
X76309895Y-90912203D01*
X76306072Y-90856424D01*
X76303400Y-90797415D01*
X76301726Y-90733353D01*
X76300896Y-90662417D01*
X76300737Y-90600000D01*
X76300814Y-90543552D01*
X76301016Y-90495867D01*
X76301393Y-90455546D01*
X76301993Y-90421193D01*
X76302866Y-90391409D01*
X76304062Y-90364797D01*
X76305630Y-90339959D01*
X76307618Y-90315498D01*
X76310078Y-90290017D01*
X76312493Y-90267260D01*
X76335673Y-90091743D01*
X76366383Y-89922271D01*
X76404950Y-89757725D01*
X76451700Y-89596983D01*
X76506961Y-89438928D01*
X76571059Y-89282437D01*
X76644320Y-89126393D01*
X76646656Y-89121720D01*
X76732787Y-88961000D01*
X76827317Y-88805839D01*
X76929964Y-88656522D01*
X77040442Y-88513335D01*
X77158468Y-88376561D01*
X77283758Y-88246487D01*
X77416028Y-88123397D01*
X77554993Y-88007577D01*
X77700370Y-87899311D01*
X77851874Y-87798885D01*
X78009222Y-87706583D01*
X78109481Y-87653615D01*
X78273570Y-87576056D01*
X78440927Y-87508037D01*
X78611673Y-87449523D01*
X78785931Y-87400482D01*
X78963820Y-87360879D01*
X79145463Y-87330682D01*
X79330981Y-87309856D01*
X79361240Y-87307375D01*
X79424329Y-87303612D01*
X79495113Y-87301394D01*
X79571251Y-87300678D01*
X79650403Y-87301420D01*
X79730231Y-87303574D01*
X79808392Y-87307098D01*
X79882549Y-87311945D01*
X79950359Y-87318073D01*
X79955600Y-87318634D01*
X80135697Y-87343210D01*
X80312926Y-87377384D01*
X80486978Y-87420921D01*
X80657546Y-87473587D01*
X80824321Y-87535148D01*
X80986996Y-87605370D01*
X81145262Y-87684019D01*
X81298811Y-87770859D01*
X81447336Y-87865657D01*
X81590527Y-87968179D01*
X81728078Y-88078190D01*
X81859680Y-88195456D01*
X81985025Y-88319742D01*
X82103805Y-88450815D01*
X82215712Y-88588440D01*
X82320438Y-88732382D01*
X82417674Y-88882408D01*
X82507113Y-89038283D01*
X82588447Y-89199773D01*
X82661367Y-89366644D01*
X82667060Y-89380800D01*
X82728941Y-89549307D01*
X82781343Y-89721025D01*
X82824233Y-89895427D01*
X82857580Y-90071985D01*
X82881352Y-90250173D01*
X82895517Y-90429463D01*
X82900043Y-90609328D01*
X83366599Y-90609328D01*
X83367265Y-90547889D01*
X83359763Y-90357751D01*
X83342644Y-90167702D01*
X83315849Y-89978108D01*
X83279321Y-89789337D01*
X83233002Y-89601759D01*
X83176834Y-89415740D01*
X83163104Y-89374928D01*
X83095940Y-89194485D01*
X83019765Y-89018410D01*
X82934871Y-88846995D01*
X82841552Y-88680531D01*
X82740099Y-88519309D01*
X82630804Y-88363621D01*
X82513960Y-88213758D01*
X82389859Y-88070011D01*
X82258793Y-87932672D01*
X82121054Y-87802032D01*
X81976935Y-87678383D01*
X81826728Y-87562015D01*
X81670726Y-87453221D01*
X81509219Y-87352291D01*
X81342501Y-87259517D01*
X81170864Y-87175191D01*
X80994600Y-87099602D01*
X80814120Y-87033085D01*
X80626415Y-86974726D01*
X80437015Y-86926342D01*
X80246187Y-86887939D01*
X80054200Y-86859521D01*
X79861322Y-86841096D01*
X79667821Y-86832669D01*
X79473965Y-86834245D01*
D14*
X70610000Y-133860000D02*
X70610000Y-136400000D01*
X70610000Y-136400000D02*
X73150000Y-136400000D01*
X73150000Y-136400000D02*
X73150000Y-133860000D01*
X73150000Y-133860000D02*
X70610000Y-133860000D01*
D11*
X100858578Y-88810000D02*
X100341422Y-88810000D01*
X100858578Y-87390000D02*
X100341422Y-87390000D01*
X100896078Y-95910000D02*
X100378922Y-95910000D01*
X100896078Y-94490000D02*
X100378922Y-94490000D01*
X99290000Y-107158578D02*
X99290000Y-106641422D01*
X100710000Y-107158578D02*
X100710000Y-106641422D01*
D10*
X59215000Y-122700000D02*
X52215000Y-122700000D01*
X59215000Y-111700000D02*
X59215000Y-122700000D01*
X52215000Y-111700000D02*
X59215000Y-111700000D01*
X52215000Y-122700000D02*
X52215000Y-111700000D01*
D11*
X63762779Y-90090000D02*
X63437221Y-90090000D01*
X63762779Y-91110000D02*
X63437221Y-91110000D01*
X56162779Y-87810000D02*
X55837221Y-87810000D01*
X56162779Y-86790000D02*
X55837221Y-86790000D01*
X60237221Y-95610000D02*
X60562779Y-95610000D01*
X60237221Y-94590000D02*
X60562779Y-94590000D01*
X52962779Y-91110000D02*
X52637221Y-91110000D01*
X52962779Y-90090000D02*
X52637221Y-90090000D01*
X69710000Y-78902064D02*
X69710000Y-77697936D01*
X67890000Y-78902064D02*
X67890000Y-77697936D01*
X76510000Y-77697936D02*
X76510000Y-78902064D01*
X74690000Y-77697936D02*
X74690000Y-78902064D01*
X106962779Y-72090000D02*
X106637221Y-72090000D01*
X106962779Y-73110000D02*
X106637221Y-73110000D01*
X99262779Y-71410000D02*
X98937221Y-71410000D01*
X99262779Y-70390000D02*
X98937221Y-70390000D01*
X96062779Y-75310000D02*
X95737221Y-75310000D01*
X96062779Y-74290000D02*
X95737221Y-74290000D01*
X103349721Y-78710000D02*
X103675279Y-78710000D01*
X103349721Y-77690000D02*
X103675279Y-77690000D01*
X103210000Y-108102064D02*
X103210000Y-106897936D01*
X101390000Y-108102064D02*
X101390000Y-106897936D01*
X101802064Y-91310000D02*
X100597936Y-91310000D01*
X101802064Y-89490000D02*
X100597936Y-89490000D01*
X100597936Y-84210000D02*
X101802064Y-84210000D01*
X100597936Y-82390000D02*
X101802064Y-82390000D01*
D15*
X101050000Y-92900000D02*
X100550000Y-92900000D01*
X101650000Y-92350000D02*
X101650000Y-93450000D01*
X101650000Y-92900000D02*
X101050000Y-92500000D01*
X101050000Y-92500000D02*
X101050000Y-93300000D01*
X101050000Y-93300000D02*
X101650000Y-92900000D01*
X101650000Y-92900000D02*
X102050000Y-92900000D01*
D11*
X103550000Y-91900000D02*
X103550000Y-93900000D01*
X103550000Y-93900000D02*
X99650000Y-93900000D01*
X103550000Y-91900000D02*
X99650000Y-91900000D01*
X99050000Y-86800000D02*
X102950000Y-86800000D01*
X99050000Y-84800000D02*
X102950000Y-84800000D01*
X99050000Y-86800000D02*
X99050000Y-84800000D01*
D15*
X100950000Y-85800000D02*
X100550000Y-85800000D01*
X101550000Y-85400000D02*
X100950000Y-85800000D01*
X101550000Y-86200000D02*
X101550000Y-85400000D01*
X100950000Y-85800000D02*
X101550000Y-86200000D01*
X100950000Y-86350000D02*
X100950000Y-85250000D01*
X101550000Y-85800000D02*
X102050000Y-85800000D01*
D11*
X101670000Y-113590000D02*
X106870000Y-113590000D01*
X101670000Y-118730000D02*
X101670000Y-113590000D01*
X106870000Y-121330000D02*
X106870000Y-113590000D01*
X101670000Y-118730000D02*
X104270000Y-118730000D01*
X104270000Y-118730000D02*
X104270000Y-121330000D01*
X104270000Y-121330000D02*
X106870000Y-121330000D01*
X101670000Y-120000000D02*
X101670000Y-121330000D01*
X101670000Y-121330000D02*
X103000000Y-121330000D01*
X89055000Y-79650000D02*
X89055000Y-108130000D01*
X89055000Y-108130000D02*
X98405000Y-108130000D01*
X98405000Y-108130000D02*
X98405000Y-79650000D01*
X98405000Y-79650000D02*
X89055000Y-79650000D01*
X98655000Y-79400000D02*
X98655000Y-81940000D01*
X98655000Y-79400000D02*
X96115000Y-79400000D01*
X59680000Y-81060000D02*
X59680000Y-79600000D01*
X56520000Y-81060000D02*
X56520000Y-78900000D01*
X56520000Y-81060000D02*
X57450000Y-81060000D01*
X59680000Y-81060000D02*
X58750000Y-81060000D01*
X83560000Y-104720000D02*
X83560000Y-105650000D01*
X83560000Y-107880000D02*
X83560000Y-106950000D01*
X83560000Y-107880000D02*
X81400000Y-107880000D01*
X83560000Y-104720000D02*
X82100000Y-104720000D01*
X59680000Y-74260000D02*
X59680000Y-72800000D01*
X56520000Y-74260000D02*
X56520000Y-72100000D01*
X56520000Y-74260000D02*
X57450000Y-74260000D01*
X59680000Y-74260000D02*
X58750000Y-74260000D01*
X90160000Y-76120000D02*
X90160000Y-77050000D01*
X90160000Y-79280000D02*
X90160000Y-78350000D01*
X90160000Y-79280000D02*
X88000000Y-79280000D01*
X90160000Y-76120000D02*
X88700000Y-76120000D01*
X98862779Y-117960000D02*
X98537221Y-117960000D01*
X98862779Y-116940000D02*
X98537221Y-116940000D01*
X58790000Y-106750279D02*
X58790000Y-106424721D01*
X59810000Y-106750279D02*
X59810000Y-106424721D01*
X106637221Y-101110000D02*
X106962779Y-101110000D01*
X106637221Y-100090000D02*
X106962779Y-100090000D01*
X106237221Y-64590000D02*
X106562779Y-64590000D01*
X106237221Y-65610000D02*
X106562779Y-65610000D01*
X98862779Y-113290000D02*
X98537221Y-113290000D01*
X98862779Y-114310000D02*
X98537221Y-114310000D01*
X98862779Y-124310000D02*
X98537221Y-124310000D01*
X98862779Y-123290000D02*
X98537221Y-123290000D01*
X58237221Y-64790000D02*
X58562779Y-64790000D01*
X58237221Y-65810000D02*
X58562779Y-65810000D01*
X98862779Y-125190000D02*
X98537221Y-125190000D01*
X98862779Y-126210000D02*
X98537221Y-126210000D01*
X78990000Y-77662779D02*
X78990000Y-77337221D01*
X80010000Y-77662779D02*
X80010000Y-77337221D01*
X85110000Y-77662779D02*
X85110000Y-77337221D01*
X84090000Y-77662779D02*
X84090000Y-77337221D01*
X81490000Y-77662779D02*
X81490000Y-77337221D01*
X82510000Y-77662779D02*
X82510000Y-77337221D01*
X83162779Y-119340000D02*
X82837221Y-119340000D01*
X83162779Y-120360000D02*
X82837221Y-120360000D01*
X83162779Y-117860000D02*
X82837221Y-117860000D01*
X83162779Y-116840000D02*
X82837221Y-116840000D01*
X75837221Y-135710000D02*
X76162779Y-135710000D01*
X75837221Y-134690000D02*
X76162779Y-134690000D01*
X83162779Y-114290000D02*
X82837221Y-114290000D01*
X83162779Y-115310000D02*
X82837221Y-115310000D01*
X83162779Y-122910000D02*
X82837221Y-122910000D01*
X83162779Y-121890000D02*
X82837221Y-121890000D01*
X83162779Y-124440000D02*
X82837221Y-124440000D01*
X83162779Y-125460000D02*
X82837221Y-125460000D01*
X83162779Y-111740000D02*
X82837221Y-111740000D01*
X83162779Y-112760000D02*
X82837221Y-112760000D01*
X83162779Y-128010000D02*
X82837221Y-128010000D01*
X83162779Y-126990000D02*
X82837221Y-126990000D01*
X63762779Y-88390000D02*
X63437221Y-88390000D01*
X63762779Y-89410000D02*
X63437221Y-89410000D01*
X58190000Y-126762779D02*
X58190000Y-126437221D01*
X59210000Y-126762779D02*
X59210000Y-126437221D01*
X55810000Y-126762779D02*
X55810000Y-126437221D01*
X54790000Y-126762779D02*
X54790000Y-126437221D01*
X57510000Y-126775279D02*
X57510000Y-126449721D01*
X56490000Y-126775279D02*
X56490000Y-126449721D01*
X53190000Y-126762779D02*
X53190000Y-126437221D01*
X54210000Y-126762779D02*
X54210000Y-126437221D01*
X51590000Y-126762779D02*
X51590000Y-126437221D01*
X52610000Y-126762779D02*
X52610000Y-126437221D01*
X60562779Y-87810000D02*
X60237221Y-87810000D01*
X60562779Y-86790000D02*
X60237221Y-86790000D01*
X63437221Y-93710000D02*
X63762779Y-93710000D01*
X63437221Y-92690000D02*
X63762779Y-92690000D01*
X52962779Y-88390000D02*
X52637221Y-88390000D01*
X52962779Y-89410000D02*
X52637221Y-89410000D01*
X52637221Y-86690000D02*
X52962779Y-86690000D01*
X52637221Y-87710000D02*
X52962779Y-87710000D01*
X52962779Y-92690000D02*
X52637221Y-92690000D01*
X52962779Y-93710000D02*
X52637221Y-93710000D01*
X100710000Y-111058578D02*
X100710000Y-110541422D01*
X99290000Y-111058578D02*
X99290000Y-110541422D01*
X103662779Y-71310000D02*
X103337221Y-71310000D01*
X103662779Y-70290000D02*
X103337221Y-70290000D01*
X106637221Y-73890000D02*
X106962779Y-73890000D01*
X106637221Y-74910000D02*
X106962779Y-74910000D01*
X106950279Y-70290000D02*
X106624721Y-70290000D01*
X106950279Y-71310000D02*
X106624721Y-71310000D01*
X60290000Y-80262779D02*
X60290000Y-79937221D01*
X61310000Y-80262779D02*
X61310000Y-79937221D01*
X83162779Y-104010000D02*
X82837221Y-104010000D01*
X83162779Y-102990000D02*
X82837221Y-102990000D01*
X63462779Y-80390000D02*
X63137221Y-80390000D01*
X63462779Y-81410000D02*
X63137221Y-81410000D01*
X82837221Y-109610000D02*
X83162779Y-109610000D01*
X82837221Y-108590000D02*
X83162779Y-108590000D01*
X57837221Y-77090000D02*
X58162779Y-77090000D01*
X57837221Y-78110000D02*
X58162779Y-78110000D01*
X79590000Y-106762779D02*
X79590000Y-106437221D01*
X80610000Y-106762779D02*
X80610000Y-106437221D01*
X100262779Y-78710000D02*
X99937221Y-78710000D01*
X100262779Y-77690000D02*
X99937221Y-77690000D01*
X55910000Y-80262779D02*
X55910000Y-79937221D01*
X54890000Y-80262779D02*
X54890000Y-79937221D01*
X80610000Y-110062779D02*
X80610000Y-109737221D01*
X79590000Y-110062779D02*
X79590000Y-109737221D01*
X96062779Y-76090000D02*
X95737221Y-76090000D01*
X96062779Y-77110000D02*
X95737221Y-77110000D01*
X95737221Y-72490000D02*
X96062779Y-72490000D01*
X95737221Y-73510000D02*
X96062779Y-73510000D01*
X61310000Y-73462779D02*
X61310000Y-73137221D01*
X60290000Y-73462779D02*
X60290000Y-73137221D01*
X91590000Y-74362779D02*
X91590000Y-74037221D01*
X92610000Y-74362779D02*
X92610000Y-74037221D01*
X63462779Y-74610000D02*
X63137221Y-74610000D01*
X63462779Y-73590000D02*
X63137221Y-73590000D01*
X91590000Y-77662779D02*
X91590000Y-77337221D01*
X92610000Y-77662779D02*
X92610000Y-77337221D01*
X53190000Y-73124721D02*
X53190000Y-73450279D01*
X54210000Y-73124721D02*
X54210000Y-73450279D01*
X57837221Y-71310000D02*
X58162779Y-71310000D01*
X57837221Y-70290000D02*
X58162779Y-70290000D01*
X90910000Y-74362779D02*
X90910000Y-74037221D01*
X89890000Y-74362779D02*
X89890000Y-74037221D01*
X54890000Y-73462779D02*
X54890000Y-73137221D01*
X55910000Y-73462779D02*
X55910000Y-73137221D01*
X86190000Y-77337221D02*
X86190000Y-77662779D01*
X87210000Y-77337221D02*
X87210000Y-77662779D01*
X58200000Y-93760000D02*
X56250000Y-93760000D01*
X58200000Y-93760000D02*
X60150000Y-93760000D01*
X58200000Y-88640000D02*
X56250000Y-88640000D01*
X58200000Y-88640000D02*
X61650000Y-88640000D01*
X71300000Y-76190000D02*
X73100000Y-76190000D01*
X73100000Y-79410000D02*
X70650000Y-79410000D01*
X101325000Y-71975000D02*
X104775000Y-71975000D01*
X101325000Y-71975000D02*
X99375000Y-71975000D01*
X101325000Y-77095000D02*
X103275000Y-77095000D01*
X101325000Y-77095000D02*
X99375000Y-77095000D01*
D16*
X76263866Y-131030466D02*
X76263866Y-132397833D01*
X76183433Y-132558700D01*
X76102999Y-132639133D01*
X75942133Y-132719566D01*
X75620399Y-132719566D01*
X75459533Y-132639133D01*
X75379099Y-132558700D01*
X75298666Y-132397833D01*
X75298666Y-131030466D01*
X73609566Y-132719566D02*
X74574766Y-132719566D01*
X74092166Y-132719566D02*
X74092166Y-131030466D01*
X74253033Y-131271766D01*
X74413899Y-131432633D01*
X74574766Y-131513066D01*
X86684071Y-84933571D02*
X86350738Y-84933571D01*
X86207881Y-85457380D02*
X86684071Y-85457380D01*
X86684071Y-84457380D01*
X86207881Y-84457380D01*
X85826928Y-85409761D02*
X85684071Y-85457380D01*
X85445976Y-85457380D01*
X85350738Y-85409761D01*
X85303119Y-85362142D01*
X85255500Y-85266904D01*
X85255500Y-85171666D01*
X85303119Y-85076428D01*
X85350738Y-85028809D01*
X85445976Y-84981190D01*
X85636452Y-84933571D01*
X85731690Y-84885952D01*
X85779309Y-84838333D01*
X85826928Y-84743095D01*
X85826928Y-84647857D01*
X85779309Y-84552619D01*
X85731690Y-84505000D01*
X85636452Y-84457380D01*
X85398357Y-84457380D01*
X85255500Y-84505000D01*
X85065023Y-85552619D02*
X84303119Y-85552619D01*
X84065023Y-85457380D02*
X84065023Y-84457380D01*
X83826928Y-84457380D01*
X83684071Y-84505000D01*
X83588833Y-84600238D01*
X83541214Y-84695476D01*
X83493595Y-84885952D01*
X83493595Y-85028809D01*
X83541214Y-85219285D01*
X83588833Y-85314523D01*
X83684071Y-85409761D01*
X83826928Y-85457380D01*
X84065023Y-85457380D01*
X83112642Y-85171666D02*
X82636452Y-85171666D01*
X83207881Y-85457380D02*
X82874547Y-84457380D01*
X82541214Y-85457380D01*
X82207881Y-85457380D02*
X82207881Y-84457380D01*
X81779309Y-85409761D02*
X81636452Y-85457380D01*
X81398357Y-85457380D01*
X81303119Y-85409761D01*
X81255500Y-85362142D01*
X81207881Y-85266904D01*
X81207881Y-85171666D01*
X81255500Y-85076428D01*
X81303119Y-85028809D01*
X81398357Y-84981190D01*
X81588833Y-84933571D01*
X81684071Y-84885952D01*
X81731690Y-84838333D01*
X81779309Y-84743095D01*
X81779309Y-84647857D01*
X81731690Y-84552619D01*
X81684071Y-84505000D01*
X81588833Y-84457380D01*
X81350738Y-84457380D01*
X81207881Y-84505000D01*
X80588833Y-84981190D02*
X80588833Y-85457380D01*
X80922166Y-84457380D02*
X80588833Y-84981190D01*
X80255500Y-84457380D01*
X80160262Y-85552619D02*
X79398357Y-85552619D01*
X79207881Y-85409761D02*
X79065023Y-85457380D01*
X78826928Y-85457380D01*
X78731690Y-85409761D01*
X78684071Y-85362142D01*
X78636452Y-85266904D01*
X78636452Y-85171666D01*
X78684071Y-85076428D01*
X78731690Y-85028809D01*
X78826928Y-84981190D01*
X79017404Y-84933571D01*
X79112642Y-84885952D01*
X79160262Y-84838333D01*
X79207881Y-84743095D01*
X79207881Y-84647857D01*
X79160262Y-84552619D01*
X79112642Y-84505000D01*
X79017404Y-84457380D01*
X78779309Y-84457380D01*
X78636452Y-84505000D01*
X78207881Y-84933571D02*
X77874547Y-84933571D01*
X77731690Y-85457380D02*
X78207881Y-85457380D01*
X78207881Y-84457380D01*
X77731690Y-84457380D01*
X77303119Y-84933571D02*
X76969785Y-84933571D01*
X76826928Y-85457380D02*
X77303119Y-85457380D01*
X77303119Y-84457380D01*
X76826928Y-84457380D01*
X76398357Y-85457380D02*
X76398357Y-84457380D01*
X76160262Y-84457380D01*
X76017404Y-84505000D01*
X75922166Y-84600238D01*
X75874547Y-84695476D01*
X75826928Y-84885952D01*
X75826928Y-85028809D01*
X75874547Y-85219285D01*
X75922166Y-85314523D01*
X76017404Y-85409761D01*
X76160262Y-85457380D01*
X76398357Y-85457380D01*
X75636452Y-85552619D02*
X74874547Y-85552619D01*
X74065023Y-85457380D02*
X74398357Y-84981190D01*
X74636452Y-85457380D02*
X74636452Y-84457380D01*
X74255500Y-84457380D01*
X74160262Y-84505000D01*
X74112642Y-84552619D01*
X74065023Y-84647857D01*
X74065023Y-84790714D01*
X74112642Y-84885952D01*
X74160262Y-84933571D01*
X74255500Y-84981190D01*
X74636452Y-84981190D01*
X73636452Y-84933571D02*
X73303119Y-84933571D01*
X73160262Y-85457380D02*
X73636452Y-85457380D01*
X73636452Y-84457380D01*
X73160262Y-84457380D01*
X72874547Y-84457380D02*
X72541214Y-85457380D01*
X72207881Y-84457380D01*
X71445976Y-84790714D02*
X71445976Y-85457380D01*
X71684071Y-84409761D02*
X71922166Y-85124047D01*
X71303119Y-85124047D01*
D17*
X68714189Y-136019566D02*
X69679389Y-136019566D01*
X69196789Y-136019566D02*
X69196789Y-134330466D01*
X69357656Y-134571766D01*
X69518522Y-134732633D01*
X69679389Y-134813066D01*
D10*
X106033333Y-88128571D02*
X106366666Y-88128571D01*
X106366666Y-88652380D02*
X106366666Y-87652380D01*
X105890476Y-87652380D01*
X105176190Y-88128571D02*
X105033333Y-88176190D01*
X104985714Y-88223809D01*
X104938095Y-88319047D01*
X104938095Y-88461904D01*
X104985714Y-88557142D01*
X105033333Y-88604761D01*
X105128571Y-88652380D01*
X105509523Y-88652380D01*
X105509523Y-87652380D01*
X105176190Y-87652380D01*
X105080952Y-87700000D01*
X105033333Y-87747619D01*
X104985714Y-87842857D01*
X104985714Y-87938095D01*
X105033333Y-88033333D01*
X105080952Y-88080952D01*
X105176190Y-88128571D01*
X105509523Y-88128571D01*
X104604761Y-87652380D02*
X103985714Y-87652380D01*
X104319047Y-88033333D01*
X104176190Y-88033333D01*
X104080952Y-88080952D01*
X104033333Y-88128571D01*
X103985714Y-88223809D01*
X103985714Y-88461904D01*
X104033333Y-88557142D01*
X104080952Y-88604761D01*
X104176190Y-88652380D01*
X104461904Y-88652380D01*
X104557142Y-88604761D01*
X104604761Y-88557142D01*
X105933333Y-95428571D02*
X106266666Y-95428571D01*
X106266666Y-95952380D02*
X106266666Y-94952380D01*
X105790476Y-94952380D01*
X105076190Y-95428571D02*
X104933333Y-95476190D01*
X104885714Y-95523809D01*
X104838095Y-95619047D01*
X104838095Y-95761904D01*
X104885714Y-95857142D01*
X104933333Y-95904761D01*
X105028571Y-95952380D01*
X105409523Y-95952380D01*
X105409523Y-94952380D01*
X105076190Y-94952380D01*
X104980952Y-95000000D01*
X104933333Y-95047619D01*
X104885714Y-95142857D01*
X104885714Y-95238095D01*
X104933333Y-95333333D01*
X104980952Y-95380952D01*
X105076190Y-95428571D01*
X105409523Y-95428571D01*
X104457142Y-95047619D02*
X104409523Y-95000000D01*
X104314285Y-94952380D01*
X104076190Y-94952380D01*
X103980952Y-95000000D01*
X103933333Y-95047619D01*
X103885714Y-95142857D01*
X103885714Y-95238095D01*
X103933333Y-95380952D01*
X104504761Y-95952380D01*
X103885714Y-95952380D01*
X99928571Y-102966666D02*
X99928571Y-102633333D01*
X100452380Y-102633333D02*
X99452380Y-102633333D01*
X99452380Y-103109523D01*
X99928571Y-103823809D02*
X99976190Y-103966666D01*
X100023809Y-104014285D01*
X100119047Y-104061904D01*
X100261904Y-104061904D01*
X100357142Y-104014285D01*
X100404761Y-103966666D01*
X100452380Y-103871428D01*
X100452380Y-103490476D01*
X99452380Y-103490476D01*
X99452380Y-103823809D01*
X99500000Y-103919047D01*
X99547619Y-103966666D01*
X99642857Y-104014285D01*
X99738095Y-104014285D01*
X99833333Y-103966666D01*
X99880952Y-103919047D01*
X99928571Y-103823809D01*
X99928571Y-103490476D01*
X100452380Y-105014285D02*
X100452380Y-104442857D01*
X100452380Y-104728571D02*
X99452380Y-104728571D01*
X99595238Y-104633333D01*
X99690476Y-104538095D01*
X99738095Y-104442857D01*
X50167380Y-116366666D02*
X50881666Y-116366666D01*
X51024523Y-116319047D01*
X51119761Y-116223809D01*
X51167380Y-116080952D01*
X51167380Y-115985714D01*
X50500714Y-117271428D02*
X51167380Y-117271428D01*
X50119761Y-117033333D02*
X50834047Y-116795238D01*
X50834047Y-117414285D01*
X67166666Y-90957142D02*
X67214285Y-91004761D01*
X67357142Y-91052380D01*
X67452380Y-91052380D01*
X67595238Y-91004761D01*
X67690476Y-90909523D01*
X67738095Y-90814285D01*
X67785714Y-90623809D01*
X67785714Y-90480952D01*
X67738095Y-90290476D01*
X67690476Y-90195238D01*
X67595238Y-90100000D01*
X67452380Y-90052380D01*
X67357142Y-90052380D01*
X67214285Y-90100000D01*
X67166666Y-90147619D01*
X66214285Y-91052380D02*
X66785714Y-91052380D01*
X66500000Y-91052380D02*
X66500000Y-90052380D01*
X66595238Y-90195238D01*
X66690476Y-90290476D01*
X66785714Y-90338095D01*
X56166666Y-86227142D02*
X56214285Y-86274761D01*
X56357142Y-86322380D01*
X56452380Y-86322380D01*
X56595238Y-86274761D01*
X56690476Y-86179523D01*
X56738095Y-86084285D01*
X56785714Y-85893809D01*
X56785714Y-85750952D01*
X56738095Y-85560476D01*
X56690476Y-85465238D01*
X56595238Y-85370000D01*
X56452380Y-85322380D01*
X56357142Y-85322380D01*
X56214285Y-85370000D01*
X56166666Y-85417619D01*
X55785714Y-85417619D02*
X55738095Y-85370000D01*
X55642857Y-85322380D01*
X55404761Y-85322380D01*
X55309523Y-85370000D01*
X55261904Y-85417619D01*
X55214285Y-85512857D01*
X55214285Y-85608095D01*
X55261904Y-85750952D01*
X55833333Y-86322380D01*
X55214285Y-86322380D01*
X63166666Y-95757142D02*
X63214285Y-95804761D01*
X63357142Y-95852380D01*
X63452380Y-95852380D01*
X63595238Y-95804761D01*
X63690476Y-95709523D01*
X63738095Y-95614285D01*
X63785714Y-95423809D01*
X63785714Y-95280952D01*
X63738095Y-95090476D01*
X63690476Y-94995238D01*
X63595238Y-94900000D01*
X63452380Y-94852380D01*
X63357142Y-94852380D01*
X63214285Y-94900000D01*
X63166666Y-94947619D01*
X62833333Y-94852380D02*
X62214285Y-94852380D01*
X62547619Y-95233333D01*
X62404761Y-95233333D01*
X62309523Y-95280952D01*
X62261904Y-95328571D01*
X62214285Y-95423809D01*
X62214285Y-95661904D01*
X62261904Y-95757142D01*
X62309523Y-95804761D01*
X62404761Y-95852380D01*
X62690476Y-95852380D01*
X62785714Y-95804761D01*
X62833333Y-95757142D01*
X52466666Y-85257142D02*
X52514285Y-85304761D01*
X52657142Y-85352380D01*
X52752380Y-85352380D01*
X52895238Y-85304761D01*
X52990476Y-85209523D01*
X53038095Y-85114285D01*
X53085714Y-84923809D01*
X53085714Y-84780952D01*
X53038095Y-84590476D01*
X52990476Y-84495238D01*
X52895238Y-84400000D01*
X52752380Y-84352380D01*
X52657142Y-84352380D01*
X52514285Y-84400000D01*
X52466666Y-84447619D01*
X51609523Y-84685714D02*
X51609523Y-85352380D01*
X51847619Y-84304761D02*
X52085714Y-85019047D01*
X51466666Y-85019047D01*
X70977142Y-78133333D02*
X71024761Y-78085714D01*
X71072380Y-77942857D01*
X71072380Y-77847619D01*
X71024761Y-77704761D01*
X70929523Y-77609523D01*
X70834285Y-77561904D01*
X70643809Y-77514285D01*
X70500952Y-77514285D01*
X70310476Y-77561904D01*
X70215238Y-77609523D01*
X70120000Y-77704761D01*
X70072380Y-77847619D01*
X70072380Y-77942857D01*
X70120000Y-78085714D01*
X70167619Y-78133333D01*
X70072380Y-79038095D02*
X70072380Y-78561904D01*
X70548571Y-78514285D01*
X70500952Y-78561904D01*
X70453333Y-78657142D01*
X70453333Y-78895238D01*
X70500952Y-78990476D01*
X70548571Y-79038095D01*
X70643809Y-79085714D01*
X70881904Y-79085714D01*
X70977142Y-79038095D01*
X71024761Y-78990476D01*
X71072380Y-78895238D01*
X71072380Y-78657142D01*
X71024761Y-78561904D01*
X70977142Y-78514285D01*
X77957142Y-78133333D02*
X78004761Y-78085714D01*
X78052380Y-77942857D01*
X78052380Y-77847619D01*
X78004761Y-77704761D01*
X77909523Y-77609523D01*
X77814285Y-77561904D01*
X77623809Y-77514285D01*
X77480952Y-77514285D01*
X77290476Y-77561904D01*
X77195238Y-77609523D01*
X77100000Y-77704761D01*
X77052380Y-77847619D01*
X77052380Y-77942857D01*
X77100000Y-78085714D01*
X77147619Y-78133333D01*
X77052380Y-78990476D02*
X77052380Y-78800000D01*
X77100000Y-78704761D01*
X77147619Y-78657142D01*
X77290476Y-78561904D01*
X77480952Y-78514285D01*
X77861904Y-78514285D01*
X77957142Y-78561904D01*
X78004761Y-78609523D01*
X78052380Y-78704761D01*
X78052380Y-78895238D01*
X78004761Y-78990476D01*
X77957142Y-79038095D01*
X77861904Y-79085714D01*
X77623809Y-79085714D01*
X77528571Y-79038095D01*
X77480952Y-78990476D01*
X77433333Y-78895238D01*
X77433333Y-78704761D01*
X77480952Y-78609523D01*
X77528571Y-78561904D01*
X77623809Y-78514285D01*
X107466666Y-78657142D02*
X107514285Y-78704761D01*
X107657142Y-78752380D01*
X107752380Y-78752380D01*
X107895238Y-78704761D01*
X107990476Y-78609523D01*
X108038095Y-78514285D01*
X108085714Y-78323809D01*
X108085714Y-78180952D01*
X108038095Y-77990476D01*
X107990476Y-77895238D01*
X107895238Y-77800000D01*
X107752380Y-77752380D01*
X107657142Y-77752380D01*
X107514285Y-77800000D01*
X107466666Y-77847619D01*
X107133333Y-77752380D02*
X106466666Y-77752380D01*
X106895238Y-78752380D01*
X97866666Y-69957142D02*
X97914285Y-70004761D01*
X98057142Y-70052380D01*
X98152380Y-70052380D01*
X98295238Y-70004761D01*
X98390476Y-69909523D01*
X98438095Y-69814285D01*
X98485714Y-69623809D01*
X98485714Y-69480952D01*
X98438095Y-69290476D01*
X98390476Y-69195238D01*
X98295238Y-69100000D01*
X98152380Y-69052380D01*
X98057142Y-69052380D01*
X97914285Y-69100000D01*
X97866666Y-69147619D01*
X97295238Y-69480952D02*
X97390476Y-69433333D01*
X97438095Y-69385714D01*
X97485714Y-69290476D01*
X97485714Y-69242857D01*
X97438095Y-69147619D01*
X97390476Y-69100000D01*
X97295238Y-69052380D01*
X97104761Y-69052380D01*
X97009523Y-69100000D01*
X96961904Y-69147619D01*
X96914285Y-69242857D01*
X96914285Y-69290476D01*
X96961904Y-69385714D01*
X97009523Y-69433333D01*
X97104761Y-69480952D01*
X97295238Y-69480952D01*
X97390476Y-69528571D01*
X97438095Y-69576190D01*
X97485714Y-69671428D01*
X97485714Y-69861904D01*
X97438095Y-69957142D01*
X97390476Y-70004761D01*
X97295238Y-70052380D01*
X97104761Y-70052380D01*
X97009523Y-70004761D01*
X96961904Y-69957142D01*
X96914285Y-69861904D01*
X96914285Y-69671428D01*
X96961904Y-69576190D01*
X97009523Y-69528571D01*
X97104761Y-69480952D01*
X93366666Y-67357142D02*
X93414285Y-67404761D01*
X93557142Y-67452380D01*
X93652380Y-67452380D01*
X93795238Y-67404761D01*
X93890476Y-67309523D01*
X93938095Y-67214285D01*
X93985714Y-67023809D01*
X93985714Y-66880952D01*
X93938095Y-66690476D01*
X93890476Y-66595238D01*
X93795238Y-66500000D01*
X93652380Y-66452380D01*
X93557142Y-66452380D01*
X93414285Y-66500000D01*
X93366666Y-66547619D01*
X92890476Y-67452380D02*
X92700000Y-67452380D01*
X92604761Y-67404761D01*
X92557142Y-67357142D01*
X92461904Y-67214285D01*
X92414285Y-67023809D01*
X92414285Y-66642857D01*
X92461904Y-66547619D01*
X92509523Y-66500000D01*
X92604761Y-66452380D01*
X92795238Y-66452380D01*
X92890476Y-66500000D01*
X92938095Y-66547619D01*
X92985714Y-66642857D01*
X92985714Y-66880952D01*
X92938095Y-66976190D01*
X92890476Y-67023809D01*
X92795238Y-67071428D01*
X92604761Y-67071428D01*
X92509523Y-67023809D01*
X92461904Y-66976190D01*
X92414285Y-66880952D01*
X103942857Y-81257142D02*
X103990476Y-81304761D01*
X104133333Y-81352380D01*
X104228571Y-81352380D01*
X104371428Y-81304761D01*
X104466666Y-81209523D01*
X104514285Y-81114285D01*
X104561904Y-80923809D01*
X104561904Y-80780952D01*
X104514285Y-80590476D01*
X104466666Y-80495238D01*
X104371428Y-80400000D01*
X104228571Y-80352380D01*
X104133333Y-80352380D01*
X103990476Y-80400000D01*
X103942857Y-80447619D01*
X102990476Y-81352380D02*
X103561904Y-81352380D01*
X103276190Y-81352380D02*
X103276190Y-80352380D01*
X103371428Y-80495238D01*
X103466666Y-80590476D01*
X103561904Y-80638095D01*
X102371428Y-80352380D02*
X102276190Y-80352380D01*
X102180952Y-80400000D01*
X102133333Y-80447619D01*
X102085714Y-80542857D01*
X102038095Y-80733333D01*
X102038095Y-80971428D01*
X102085714Y-81161904D01*
X102133333Y-81257142D01*
X102180952Y-81304761D01*
X102276190Y-81352380D01*
X102371428Y-81352380D01*
X102466666Y-81304761D01*
X102514285Y-81257142D01*
X102561904Y-81161904D01*
X102609523Y-80971428D01*
X102609523Y-80733333D01*
X102561904Y-80542857D01*
X102514285Y-80447619D01*
X102466666Y-80400000D01*
X102371428Y-80352380D01*
X104657142Y-104757142D02*
X104704761Y-104709523D01*
X104752380Y-104566666D01*
X104752380Y-104471428D01*
X104704761Y-104328571D01*
X104609523Y-104233333D01*
X104514285Y-104185714D01*
X104323809Y-104138095D01*
X104180952Y-104138095D01*
X103990476Y-104185714D01*
X103895238Y-104233333D01*
X103800000Y-104328571D01*
X103752380Y-104471428D01*
X103752380Y-104566666D01*
X103800000Y-104709523D01*
X103847619Y-104757142D01*
X104752380Y-105709523D02*
X104752380Y-105138095D01*
X104752380Y-105423809D02*
X103752380Y-105423809D01*
X103895238Y-105328571D01*
X103990476Y-105233333D01*
X104038095Y-105138095D01*
X104752380Y-106661904D02*
X104752380Y-106090476D01*
X104752380Y-106376190D02*
X103752380Y-106376190D01*
X103895238Y-106280952D01*
X103990476Y-106185714D01*
X104038095Y-106090476D01*
X105742857Y-90857142D02*
X105790476Y-90904761D01*
X105933333Y-90952380D01*
X106028571Y-90952380D01*
X106171428Y-90904761D01*
X106266666Y-90809523D01*
X106314285Y-90714285D01*
X106361904Y-90523809D01*
X106361904Y-90380952D01*
X106314285Y-90190476D01*
X106266666Y-90095238D01*
X106171428Y-90000000D01*
X106028571Y-89952380D01*
X105933333Y-89952380D01*
X105790476Y-90000000D01*
X105742857Y-90047619D01*
X104790476Y-90952380D02*
X105361904Y-90952380D01*
X105076190Y-90952380D02*
X105076190Y-89952380D01*
X105171428Y-90095238D01*
X105266666Y-90190476D01*
X105361904Y-90238095D01*
X104409523Y-90047619D02*
X104361904Y-90000000D01*
X104266666Y-89952380D01*
X104028571Y-89952380D01*
X103933333Y-90000000D01*
X103885714Y-90047619D01*
X103838095Y-90142857D01*
X103838095Y-90238095D01*
X103885714Y-90380952D01*
X104457142Y-90952380D01*
X103838095Y-90952380D01*
X105742857Y-83057142D02*
X105790476Y-83104761D01*
X105933333Y-83152380D01*
X106028571Y-83152380D01*
X106171428Y-83104761D01*
X106266666Y-83009523D01*
X106314285Y-82914285D01*
X106361904Y-82723809D01*
X106361904Y-82580952D01*
X106314285Y-82390476D01*
X106266666Y-82295238D01*
X106171428Y-82200000D01*
X106028571Y-82152380D01*
X105933333Y-82152380D01*
X105790476Y-82200000D01*
X105742857Y-82247619D01*
X104790476Y-83152380D02*
X105361904Y-83152380D01*
X105076190Y-83152380D02*
X105076190Y-82152380D01*
X105171428Y-82295238D01*
X105266666Y-82390476D01*
X105361904Y-82438095D01*
X104457142Y-82152380D02*
X103838095Y-82152380D01*
X104171428Y-82533333D01*
X104028571Y-82533333D01*
X103933333Y-82580952D01*
X103885714Y-82628571D01*
X103838095Y-82723809D01*
X103838095Y-82961904D01*
X103885714Y-83057142D01*
X103933333Y-83104761D01*
X104028571Y-83152380D01*
X104314285Y-83152380D01*
X104409523Y-83104761D01*
X104457142Y-83057142D01*
X105538095Y-93552380D02*
X105538095Y-92552380D01*
X105300000Y-92552380D01*
X105157142Y-92600000D01*
X105061904Y-92695238D01*
X105014285Y-92790476D01*
X104966666Y-92980952D01*
X104966666Y-93123809D01*
X105014285Y-93314285D01*
X105061904Y-93409523D01*
X105157142Y-93504761D01*
X105300000Y-93552380D01*
X105538095Y-93552380D01*
X104014285Y-93552380D02*
X104585714Y-93552380D01*
X104300000Y-93552380D02*
X104300000Y-92552380D01*
X104395238Y-92695238D01*
X104490476Y-92790476D01*
X104585714Y-92838095D01*
X105538095Y-86352380D02*
X105538095Y-85352380D01*
X105300000Y-85352380D01*
X105157142Y-85400000D01*
X105061904Y-85495238D01*
X105014285Y-85590476D01*
X104966666Y-85780952D01*
X104966666Y-85923809D01*
X105014285Y-86114285D01*
X105061904Y-86209523D01*
X105157142Y-86304761D01*
X105300000Y-86352380D01*
X105538095Y-86352380D01*
X104585714Y-85447619D02*
X104538095Y-85400000D01*
X104442857Y-85352380D01*
X104204761Y-85352380D01*
X104109523Y-85400000D01*
X104061904Y-85447619D01*
X104014285Y-85542857D01*
X104014285Y-85638095D01*
X104061904Y-85780952D01*
X104633333Y-86352380D01*
X104014285Y-86352380D01*
X92109523Y-108352380D02*
X92109523Y-109066666D01*
X92157142Y-109209523D01*
X92252380Y-109304761D01*
X92395238Y-109352380D01*
X92490476Y-109352380D01*
X91109523Y-109352380D02*
X91680952Y-109352380D01*
X91395238Y-109352380D02*
X91395238Y-108352380D01*
X91490476Y-108495238D01*
X91585714Y-108590476D01*
X91680952Y-108638095D01*
X90490476Y-108352380D02*
X90395238Y-108352380D01*
X90300000Y-108400000D01*
X90252380Y-108447619D01*
X90204761Y-108542857D01*
X90157142Y-108733333D01*
X90157142Y-108971428D01*
X90204761Y-109161904D01*
X90252380Y-109257142D01*
X90300000Y-109304761D01*
X90395238Y-109352380D01*
X90490476Y-109352380D01*
X90585714Y-109304761D01*
X90633333Y-109257142D01*
X90680952Y-109161904D01*
X90728571Y-108971428D01*
X90728571Y-108733333D01*
X90680952Y-108542857D01*
X90633333Y-108447619D01*
X90585714Y-108400000D01*
X90490476Y-108352380D01*
X57095238Y-83247619D02*
X57190476Y-83200000D01*
X57285714Y-83104761D01*
X57428571Y-82961904D01*
X57523809Y-82914285D01*
X57619047Y-82914285D01*
X57571428Y-83152380D02*
X57666666Y-83104761D01*
X57761904Y-83009523D01*
X57809523Y-82819047D01*
X57809523Y-82485714D01*
X57761904Y-82295238D01*
X57666666Y-82200000D01*
X57571428Y-82152380D01*
X57380952Y-82152380D01*
X57285714Y-82200000D01*
X57190476Y-82295238D01*
X57142857Y-82485714D01*
X57142857Y-82819047D01*
X57190476Y-83009523D01*
X57285714Y-83104761D01*
X57380952Y-83152380D01*
X57571428Y-83152380D01*
X56190476Y-83152380D02*
X56761904Y-83152380D01*
X56476190Y-83152380D02*
X56476190Y-82152380D01*
X56571428Y-82295238D01*
X56666666Y-82390476D01*
X56761904Y-82438095D01*
X85947619Y-105404761D02*
X85900000Y-105309523D01*
X85804761Y-105214285D01*
X85661904Y-105071428D01*
X85614285Y-104976190D01*
X85614285Y-104880952D01*
X85852380Y-104928571D02*
X85804761Y-104833333D01*
X85709523Y-104738095D01*
X85519047Y-104690476D01*
X85185714Y-104690476D01*
X84995238Y-104738095D01*
X84900000Y-104833333D01*
X84852380Y-104928571D01*
X84852380Y-105119047D01*
X84900000Y-105214285D01*
X84995238Y-105309523D01*
X85185714Y-105357142D01*
X85519047Y-105357142D01*
X85709523Y-105309523D01*
X85804761Y-105214285D01*
X85852380Y-105119047D01*
X85852380Y-104928571D01*
X84947619Y-105738095D02*
X84900000Y-105785714D01*
X84852380Y-105880952D01*
X84852380Y-106119047D01*
X84900000Y-106214285D01*
X84947619Y-106261904D01*
X85042857Y-106309523D01*
X85138095Y-106309523D01*
X85280952Y-106261904D01*
X85852380Y-105690476D01*
X85852380Y-106309523D01*
X56995238Y-76347619D02*
X57090476Y-76300000D01*
X57185714Y-76204761D01*
X57328571Y-76061904D01*
X57423809Y-76014285D01*
X57519047Y-76014285D01*
X57471428Y-76252380D02*
X57566666Y-76204761D01*
X57661904Y-76109523D01*
X57709523Y-75919047D01*
X57709523Y-75585714D01*
X57661904Y-75395238D01*
X57566666Y-75300000D01*
X57471428Y-75252380D01*
X57280952Y-75252380D01*
X57185714Y-75300000D01*
X57090476Y-75395238D01*
X57042857Y-75585714D01*
X57042857Y-75919047D01*
X57090476Y-76109523D01*
X57185714Y-76204761D01*
X57280952Y-76252380D01*
X57471428Y-76252380D01*
X56709523Y-75252380D02*
X56090476Y-75252380D01*
X56423809Y-75633333D01*
X56280952Y-75633333D01*
X56185714Y-75680952D01*
X56138095Y-75728571D01*
X56090476Y-75823809D01*
X56090476Y-76061904D01*
X56138095Y-76157142D01*
X56185714Y-76204761D01*
X56280952Y-76252380D01*
X56566666Y-76252380D01*
X56661904Y-76204761D01*
X56709523Y-76157142D01*
X88647619Y-82204761D02*
X88600000Y-82109523D01*
X88504761Y-82014285D01*
X88361904Y-81871428D01*
X88314285Y-81776190D01*
X88314285Y-81680952D01*
X88552380Y-81728571D02*
X88504761Y-81633333D01*
X88409523Y-81538095D01*
X88219047Y-81490476D01*
X87885714Y-81490476D01*
X87695238Y-81538095D01*
X87600000Y-81633333D01*
X87552380Y-81728571D01*
X87552380Y-81919047D01*
X87600000Y-82014285D01*
X87695238Y-82109523D01*
X87885714Y-82157142D01*
X88219047Y-82157142D01*
X88409523Y-82109523D01*
X88504761Y-82014285D01*
X88552380Y-81919047D01*
X88552380Y-81728571D01*
X87885714Y-83014285D02*
X88552380Y-83014285D01*
X87504761Y-82776190D02*
X88219047Y-82538095D01*
X88219047Y-83157142D01*
X98866666Y-116472380D02*
X99200000Y-115996190D01*
X99438095Y-116472380D02*
X99438095Y-115472380D01*
X99057142Y-115472380D01*
X98961904Y-115520000D01*
X98914285Y-115567619D01*
X98866666Y-115662857D01*
X98866666Y-115805714D01*
X98914285Y-115900952D01*
X98961904Y-115948571D01*
X99057142Y-115996190D01*
X99438095Y-115996190D01*
X97914285Y-116472380D02*
X98485714Y-116472380D01*
X98200000Y-116472380D02*
X98200000Y-115472380D01*
X98295238Y-115615238D01*
X98390476Y-115710476D01*
X98485714Y-115758095D01*
X61182380Y-106420833D02*
X60706190Y-106087500D01*
X61182380Y-105849404D02*
X60182380Y-105849404D01*
X60182380Y-106230357D01*
X60230000Y-106325595D01*
X60277619Y-106373214D01*
X60372857Y-106420833D01*
X60515714Y-106420833D01*
X60610952Y-106373214D01*
X60658571Y-106325595D01*
X60706190Y-106230357D01*
X60706190Y-105849404D01*
X60277619Y-106801785D02*
X60230000Y-106849404D01*
X60182380Y-106944642D01*
X60182380Y-107182738D01*
X60230000Y-107277976D01*
X60277619Y-107325595D01*
X60372857Y-107373214D01*
X60468095Y-107373214D01*
X60610952Y-107325595D01*
X61182380Y-106754166D01*
X61182380Y-107373214D01*
X103766666Y-101052380D02*
X104100000Y-100576190D01*
X104338095Y-101052380D02*
X104338095Y-100052380D01*
X103957142Y-100052380D01*
X103861904Y-100100000D01*
X103814285Y-100147619D01*
X103766666Y-100242857D01*
X103766666Y-100385714D01*
X103814285Y-100480952D01*
X103861904Y-100528571D01*
X103957142Y-100576190D01*
X104338095Y-100576190D01*
X103433333Y-100052380D02*
X102814285Y-100052380D01*
X103147619Y-100433333D01*
X103004761Y-100433333D01*
X102909523Y-100480952D01*
X102861904Y-100528571D01*
X102814285Y-100623809D01*
X102814285Y-100861904D01*
X102861904Y-100957142D01*
X102909523Y-101004761D01*
X103004761Y-101052380D01*
X103290476Y-101052380D01*
X103385714Y-101004761D01*
X103433333Y-100957142D01*
X107166666Y-64152380D02*
X107500000Y-63676190D01*
X107738095Y-64152380D02*
X107738095Y-63152380D01*
X107357142Y-63152380D01*
X107261904Y-63200000D01*
X107214285Y-63247619D01*
X107166666Y-63342857D01*
X107166666Y-63485714D01*
X107214285Y-63580952D01*
X107261904Y-63628571D01*
X107357142Y-63676190D01*
X107738095Y-63676190D01*
X106309523Y-63485714D02*
X106309523Y-64152380D01*
X106547619Y-63104761D02*
X106785714Y-63819047D01*
X106166666Y-63819047D01*
X97566666Y-112852380D02*
X97900000Y-112376190D01*
X98138095Y-112852380D02*
X98138095Y-111852380D01*
X97757142Y-111852380D01*
X97661904Y-111900000D01*
X97614285Y-111947619D01*
X97566666Y-112042857D01*
X97566666Y-112185714D01*
X97614285Y-112280952D01*
X97661904Y-112328571D01*
X97757142Y-112376190D01*
X98138095Y-112376190D01*
X96661904Y-111852380D02*
X97138095Y-111852380D01*
X97185714Y-112328571D01*
X97138095Y-112280952D01*
X97042857Y-112233333D01*
X96804761Y-112233333D01*
X96709523Y-112280952D01*
X96661904Y-112328571D01*
X96614285Y-112423809D01*
X96614285Y-112661904D01*
X96661904Y-112757142D01*
X96709523Y-112804761D01*
X96804761Y-112852380D01*
X97042857Y-112852380D01*
X97138095Y-112804761D01*
X97185714Y-112757142D01*
X98366666Y-122752380D02*
X98700000Y-122276190D01*
X98938095Y-122752380D02*
X98938095Y-121752380D01*
X98557142Y-121752380D01*
X98461904Y-121800000D01*
X98414285Y-121847619D01*
X98366666Y-121942857D01*
X98366666Y-122085714D01*
X98414285Y-122180952D01*
X98461904Y-122228571D01*
X98557142Y-122276190D01*
X98938095Y-122276190D01*
X97509523Y-121752380D02*
X97700000Y-121752380D01*
X97795238Y-121800000D01*
X97842857Y-121847619D01*
X97938095Y-121990476D01*
X97985714Y-122180952D01*
X97985714Y-122561904D01*
X97938095Y-122657142D01*
X97890476Y-122704761D01*
X97795238Y-122752380D01*
X97604761Y-122752380D01*
X97509523Y-122704761D01*
X97461904Y-122657142D01*
X97414285Y-122561904D01*
X97414285Y-122323809D01*
X97461904Y-122228571D01*
X97509523Y-122180952D01*
X97604761Y-122133333D01*
X97795238Y-122133333D01*
X97890476Y-122180952D01*
X97938095Y-122228571D01*
X97985714Y-122323809D01*
X58466666Y-64252380D02*
X58800000Y-63776190D01*
X59038095Y-64252380D02*
X59038095Y-63252380D01*
X58657142Y-63252380D01*
X58561904Y-63300000D01*
X58514285Y-63347619D01*
X58466666Y-63442857D01*
X58466666Y-63585714D01*
X58514285Y-63680952D01*
X58561904Y-63728571D01*
X58657142Y-63776190D01*
X59038095Y-63776190D01*
X58133333Y-63252380D02*
X57466666Y-63252380D01*
X57895238Y-64252380D01*
X98266666Y-127752380D02*
X98600000Y-127276190D01*
X98838095Y-127752380D02*
X98838095Y-126752380D01*
X98457142Y-126752380D01*
X98361904Y-126800000D01*
X98314285Y-126847619D01*
X98266666Y-126942857D01*
X98266666Y-127085714D01*
X98314285Y-127180952D01*
X98361904Y-127228571D01*
X98457142Y-127276190D01*
X98838095Y-127276190D01*
X97695238Y-127180952D02*
X97790476Y-127133333D01*
X97838095Y-127085714D01*
X97885714Y-126990476D01*
X97885714Y-126942857D01*
X97838095Y-126847619D01*
X97790476Y-126800000D01*
X97695238Y-126752380D01*
X97504761Y-126752380D01*
X97409523Y-126800000D01*
X97361904Y-126847619D01*
X97314285Y-126942857D01*
X97314285Y-126990476D01*
X97361904Y-127085714D01*
X97409523Y-127133333D01*
X97504761Y-127180952D01*
X97695238Y-127180952D01*
X97790476Y-127228571D01*
X97838095Y-127276190D01*
X97885714Y-127371428D01*
X97885714Y-127561904D01*
X97838095Y-127657142D01*
X97790476Y-127704761D01*
X97695238Y-127752380D01*
X97504761Y-127752380D01*
X97409523Y-127704761D01*
X97361904Y-127657142D01*
X97314285Y-127561904D01*
X97314285Y-127371428D01*
X97361904Y-127276190D01*
X97409523Y-127228571D01*
X97504761Y-127180952D01*
X79952380Y-80333333D02*
X79476190Y-80000000D01*
X79952380Y-79761904D02*
X78952380Y-79761904D01*
X78952380Y-80142857D01*
X79000000Y-80238095D01*
X79047619Y-80285714D01*
X79142857Y-80333333D01*
X79285714Y-80333333D01*
X79380952Y-80285714D01*
X79428571Y-80238095D01*
X79476190Y-80142857D01*
X79476190Y-79761904D01*
X79952380Y-80809523D02*
X79952380Y-81000000D01*
X79904761Y-81095238D01*
X79857142Y-81142857D01*
X79714285Y-81238095D01*
X79523809Y-81285714D01*
X79142857Y-81285714D01*
X79047619Y-81238095D01*
X79000000Y-81190476D01*
X78952380Y-81095238D01*
X78952380Y-80904761D01*
X79000000Y-80809523D01*
X79047619Y-80761904D01*
X79142857Y-80714285D01*
X79380952Y-80714285D01*
X79476190Y-80761904D01*
X79523809Y-80809523D01*
X79571428Y-80904761D01*
X79571428Y-81095238D01*
X79523809Y-81190476D01*
X79476190Y-81238095D01*
X79380952Y-81285714D01*
X85052380Y-80357142D02*
X84576190Y-80023809D01*
X85052380Y-79785714D02*
X84052380Y-79785714D01*
X84052380Y-80166666D01*
X84100000Y-80261904D01*
X84147619Y-80309523D01*
X84242857Y-80357142D01*
X84385714Y-80357142D01*
X84480952Y-80309523D01*
X84528571Y-80261904D01*
X84576190Y-80166666D01*
X84576190Y-79785714D01*
X85052380Y-81309523D02*
X85052380Y-80738095D01*
X85052380Y-81023809D02*
X84052380Y-81023809D01*
X84195238Y-80928571D01*
X84290476Y-80833333D01*
X84338095Y-80738095D01*
X84052380Y-81928571D02*
X84052380Y-82023809D01*
X84100000Y-82119047D01*
X84147619Y-82166666D01*
X84242857Y-82214285D01*
X84433333Y-82261904D01*
X84671428Y-82261904D01*
X84861904Y-82214285D01*
X84957142Y-82166666D01*
X85004761Y-82119047D01*
X85052380Y-82023809D01*
X85052380Y-81928571D01*
X85004761Y-81833333D01*
X84957142Y-81785714D01*
X84861904Y-81738095D01*
X84671428Y-81690476D01*
X84433333Y-81690476D01*
X84242857Y-81738095D01*
X84147619Y-81785714D01*
X84100000Y-81833333D01*
X84052380Y-81928571D01*
X82552380Y-80357142D02*
X82076190Y-80023809D01*
X82552380Y-79785714D02*
X81552380Y-79785714D01*
X81552380Y-80166666D01*
X81600000Y-80261904D01*
X81647619Y-80309523D01*
X81742857Y-80357142D01*
X81885714Y-80357142D01*
X81980952Y-80309523D01*
X82028571Y-80261904D01*
X82076190Y-80166666D01*
X82076190Y-79785714D01*
X82552380Y-81309523D02*
X82552380Y-80738095D01*
X82552380Y-81023809D02*
X81552380Y-81023809D01*
X81695238Y-80928571D01*
X81790476Y-80833333D01*
X81838095Y-80738095D01*
X82552380Y-82261904D02*
X82552380Y-81690476D01*
X82552380Y-81976190D02*
X81552380Y-81976190D01*
X81695238Y-81880952D01*
X81790476Y-81785714D01*
X81838095Y-81690476D01*
X80642857Y-120352380D02*
X80976190Y-119876190D01*
X81214285Y-120352380D02*
X81214285Y-119352380D01*
X80833333Y-119352380D01*
X80738095Y-119400000D01*
X80690476Y-119447619D01*
X80642857Y-119542857D01*
X80642857Y-119685714D01*
X80690476Y-119780952D01*
X80738095Y-119828571D01*
X80833333Y-119876190D01*
X81214285Y-119876190D01*
X79690476Y-120352380D02*
X80261904Y-120352380D01*
X79976190Y-120352380D02*
X79976190Y-119352380D01*
X80071428Y-119495238D01*
X80166666Y-119590476D01*
X80261904Y-119638095D01*
X79309523Y-119447619D02*
X79261904Y-119400000D01*
X79166666Y-119352380D01*
X78928571Y-119352380D01*
X78833333Y-119400000D01*
X78785714Y-119447619D01*
X78738095Y-119542857D01*
X78738095Y-119638095D01*
X78785714Y-119780952D01*
X79357142Y-120352380D01*
X78738095Y-120352380D01*
X80642857Y-117852380D02*
X80976190Y-117376190D01*
X81214285Y-117852380D02*
X81214285Y-116852380D01*
X80833333Y-116852380D01*
X80738095Y-116900000D01*
X80690476Y-116947619D01*
X80642857Y-117042857D01*
X80642857Y-117185714D01*
X80690476Y-117280952D01*
X80738095Y-117328571D01*
X80833333Y-117376190D01*
X81214285Y-117376190D01*
X79690476Y-117852380D02*
X80261904Y-117852380D01*
X79976190Y-117852380D02*
X79976190Y-116852380D01*
X80071428Y-116995238D01*
X80166666Y-117090476D01*
X80261904Y-117138095D01*
X79357142Y-116852380D02*
X78738095Y-116852380D01*
X79071428Y-117233333D01*
X78928571Y-117233333D01*
X78833333Y-117280952D01*
X78785714Y-117328571D01*
X78738095Y-117423809D01*
X78738095Y-117661904D01*
X78785714Y-117757142D01*
X78833333Y-117804761D01*
X78928571Y-117852380D01*
X79214285Y-117852380D01*
X79309523Y-117804761D01*
X79357142Y-117757142D01*
X76642857Y-137082380D02*
X76976190Y-136606190D01*
X77214285Y-137082380D02*
X77214285Y-136082380D01*
X76833333Y-136082380D01*
X76738095Y-136130000D01*
X76690476Y-136177619D01*
X76642857Y-136272857D01*
X76642857Y-136415714D01*
X76690476Y-136510952D01*
X76738095Y-136558571D01*
X76833333Y-136606190D01*
X77214285Y-136606190D01*
X75690476Y-137082380D02*
X76261904Y-137082380D01*
X75976190Y-137082380D02*
X75976190Y-136082380D01*
X76071428Y-136225238D01*
X76166666Y-136320476D01*
X76261904Y-136368095D01*
X74833333Y-136415714D02*
X74833333Y-137082380D01*
X75071428Y-136034761D02*
X75309523Y-136749047D01*
X74690476Y-136749047D01*
X80642857Y-115252380D02*
X80976190Y-114776190D01*
X81214285Y-115252380D02*
X81214285Y-114252380D01*
X80833333Y-114252380D01*
X80738095Y-114300000D01*
X80690476Y-114347619D01*
X80642857Y-114442857D01*
X80642857Y-114585714D01*
X80690476Y-114680952D01*
X80738095Y-114728571D01*
X80833333Y-114776190D01*
X81214285Y-114776190D01*
X79690476Y-115252380D02*
X80261904Y-115252380D01*
X79976190Y-115252380D02*
X79976190Y-114252380D01*
X80071428Y-114395238D01*
X80166666Y-114490476D01*
X80261904Y-114538095D01*
X78785714Y-114252380D02*
X79261904Y-114252380D01*
X79309523Y-114728571D01*
X79261904Y-114680952D01*
X79166666Y-114633333D01*
X78928571Y-114633333D01*
X78833333Y-114680952D01*
X78785714Y-114728571D01*
X78738095Y-114823809D01*
X78738095Y-115061904D01*
X78785714Y-115157142D01*
X78833333Y-115204761D01*
X78928571Y-115252380D01*
X79166666Y-115252380D01*
X79261904Y-115204761D01*
X79309523Y-115157142D01*
X80642857Y-122852380D02*
X80976190Y-122376190D01*
X81214285Y-122852380D02*
X81214285Y-121852380D01*
X80833333Y-121852380D01*
X80738095Y-121900000D01*
X80690476Y-121947619D01*
X80642857Y-122042857D01*
X80642857Y-122185714D01*
X80690476Y-122280952D01*
X80738095Y-122328571D01*
X80833333Y-122376190D01*
X81214285Y-122376190D01*
X79690476Y-122852380D02*
X80261904Y-122852380D01*
X79976190Y-122852380D02*
X79976190Y-121852380D01*
X80071428Y-121995238D01*
X80166666Y-122090476D01*
X80261904Y-122138095D01*
X78833333Y-121852380D02*
X79023809Y-121852380D01*
X79119047Y-121900000D01*
X79166666Y-121947619D01*
X79261904Y-122090476D01*
X79309523Y-122280952D01*
X79309523Y-122661904D01*
X79261904Y-122757142D01*
X79214285Y-122804761D01*
X79119047Y-122852380D01*
X78928571Y-122852380D01*
X78833333Y-122804761D01*
X78785714Y-122757142D01*
X78738095Y-122661904D01*
X78738095Y-122423809D01*
X78785714Y-122328571D01*
X78833333Y-122280952D01*
X78928571Y-122233333D01*
X79119047Y-122233333D01*
X79214285Y-122280952D01*
X79261904Y-122328571D01*
X79309523Y-122423809D01*
X80642857Y-125452380D02*
X80976190Y-124976190D01*
X81214285Y-125452380D02*
X81214285Y-124452380D01*
X80833333Y-124452380D01*
X80738095Y-124500000D01*
X80690476Y-124547619D01*
X80642857Y-124642857D01*
X80642857Y-124785714D01*
X80690476Y-124880952D01*
X80738095Y-124928571D01*
X80833333Y-124976190D01*
X81214285Y-124976190D01*
X79690476Y-125452380D02*
X80261904Y-125452380D01*
X79976190Y-125452380D02*
X79976190Y-124452380D01*
X80071428Y-124595238D01*
X80166666Y-124690476D01*
X80261904Y-124738095D01*
X79357142Y-124452380D02*
X78690476Y-124452380D01*
X79119047Y-125452380D01*
X80642857Y-113052380D02*
X80976190Y-112576190D01*
X81214285Y-113052380D02*
X81214285Y-112052380D01*
X80833333Y-112052380D01*
X80738095Y-112100000D01*
X80690476Y-112147619D01*
X80642857Y-112242857D01*
X80642857Y-112385714D01*
X80690476Y-112480952D01*
X80738095Y-112528571D01*
X80833333Y-112576190D01*
X81214285Y-112576190D01*
X79690476Y-113052380D02*
X80261904Y-113052380D01*
X79976190Y-113052380D02*
X79976190Y-112052380D01*
X80071428Y-112195238D01*
X80166666Y-112290476D01*
X80261904Y-112338095D01*
X79119047Y-112480952D02*
X79214285Y-112433333D01*
X79261904Y-112385714D01*
X79309523Y-112290476D01*
X79309523Y-112242857D01*
X79261904Y-112147619D01*
X79214285Y-112100000D01*
X79119047Y-112052380D01*
X78928571Y-112052380D01*
X78833333Y-112100000D01*
X78785714Y-112147619D01*
X78738095Y-112242857D01*
X78738095Y-112290476D01*
X78785714Y-112385714D01*
X78833333Y-112433333D01*
X78928571Y-112480952D01*
X79119047Y-112480952D01*
X79214285Y-112528571D01*
X79261904Y-112576190D01*
X79309523Y-112671428D01*
X79309523Y-112861904D01*
X79261904Y-112957142D01*
X79214285Y-113004761D01*
X79119047Y-113052380D01*
X78928571Y-113052380D01*
X78833333Y-113004761D01*
X78785714Y-112957142D01*
X78738095Y-112861904D01*
X78738095Y-112671428D01*
X78785714Y-112576190D01*
X78833333Y-112528571D01*
X78928571Y-112480952D01*
X80642857Y-128052380D02*
X80976190Y-127576190D01*
X81214285Y-128052380D02*
X81214285Y-127052380D01*
X80833333Y-127052380D01*
X80738095Y-127100000D01*
X80690476Y-127147619D01*
X80642857Y-127242857D01*
X80642857Y-127385714D01*
X80690476Y-127480952D01*
X80738095Y-127528571D01*
X80833333Y-127576190D01*
X81214285Y-127576190D01*
X79690476Y-128052380D02*
X80261904Y-128052380D01*
X79976190Y-128052380D02*
X79976190Y-127052380D01*
X80071428Y-127195238D01*
X80166666Y-127290476D01*
X80261904Y-127338095D01*
X79214285Y-128052380D02*
X79023809Y-128052380D01*
X78928571Y-128004761D01*
X78880952Y-127957142D01*
X78785714Y-127814285D01*
X78738095Y-127623809D01*
X78738095Y-127242857D01*
X78785714Y-127147619D01*
X78833333Y-127100000D01*
X78928571Y-127052380D01*
X79119047Y-127052380D01*
X79214285Y-127100000D01*
X79261904Y-127147619D01*
X79309523Y-127242857D01*
X79309523Y-127480952D01*
X79261904Y-127576190D01*
X79214285Y-127623809D01*
X79119047Y-127671428D01*
X78928571Y-127671428D01*
X78833333Y-127623809D01*
X78785714Y-127576190D01*
X78738095Y-127480952D01*
X67742857Y-89352380D02*
X68076190Y-88876190D01*
X68314285Y-89352380D02*
X68314285Y-88352380D01*
X67933333Y-88352380D01*
X67838095Y-88400000D01*
X67790476Y-88447619D01*
X67742857Y-88542857D01*
X67742857Y-88685714D01*
X67790476Y-88780952D01*
X67838095Y-88828571D01*
X67933333Y-88876190D01*
X68314285Y-88876190D01*
X67361904Y-88447619D02*
X67314285Y-88400000D01*
X67219047Y-88352380D01*
X66980952Y-88352380D01*
X66885714Y-88400000D01*
X66838095Y-88447619D01*
X66790476Y-88542857D01*
X66790476Y-88638095D01*
X66838095Y-88780952D01*
X67409523Y-89352380D01*
X66790476Y-89352380D01*
X66171428Y-88352380D02*
X66076190Y-88352380D01*
X65980952Y-88400000D01*
X65933333Y-88447619D01*
X65885714Y-88542857D01*
X65838095Y-88733333D01*
X65838095Y-88971428D01*
X65885714Y-89161904D01*
X65933333Y-89257142D01*
X65980952Y-89304761D01*
X66076190Y-89352380D01*
X66171428Y-89352380D01*
X66266666Y-89304761D01*
X66314285Y-89257142D01*
X66361904Y-89161904D01*
X66409523Y-88971428D01*
X66409523Y-88733333D01*
X66361904Y-88542857D01*
X66314285Y-88447619D01*
X66266666Y-88400000D01*
X66171428Y-88352380D01*
X58852380Y-128857142D02*
X58376190Y-128523809D01*
X58852380Y-128285714D02*
X57852380Y-128285714D01*
X57852380Y-128666666D01*
X57900000Y-128761904D01*
X57947619Y-128809523D01*
X58042857Y-128857142D01*
X58185714Y-128857142D01*
X58280952Y-128809523D01*
X58328571Y-128761904D01*
X58376190Y-128666666D01*
X58376190Y-128285714D01*
X57947619Y-129238095D02*
X57900000Y-129285714D01*
X57852380Y-129380952D01*
X57852380Y-129619047D01*
X57900000Y-129714285D01*
X57947619Y-129761904D01*
X58042857Y-129809523D01*
X58138095Y-129809523D01*
X58280952Y-129761904D01*
X58852380Y-129190476D01*
X58852380Y-129809523D01*
X58852380Y-130761904D02*
X58852380Y-130190476D01*
X58852380Y-130476190D02*
X57852380Y-130476190D01*
X57995238Y-130380952D01*
X58090476Y-130285714D01*
X58138095Y-130190476D01*
X55852380Y-128857142D02*
X55376190Y-128523809D01*
X55852380Y-128285714D02*
X54852380Y-128285714D01*
X54852380Y-128666666D01*
X54900000Y-128761904D01*
X54947619Y-128809523D01*
X55042857Y-128857142D01*
X55185714Y-128857142D01*
X55280952Y-128809523D01*
X55328571Y-128761904D01*
X55376190Y-128666666D01*
X55376190Y-128285714D01*
X54947619Y-129238095D02*
X54900000Y-129285714D01*
X54852380Y-129380952D01*
X54852380Y-129619047D01*
X54900000Y-129714285D01*
X54947619Y-129761904D01*
X55042857Y-129809523D01*
X55138095Y-129809523D01*
X55280952Y-129761904D01*
X55852380Y-129190476D01*
X55852380Y-129809523D01*
X54947619Y-130190476D02*
X54900000Y-130238095D01*
X54852380Y-130333333D01*
X54852380Y-130571428D01*
X54900000Y-130666666D01*
X54947619Y-130714285D01*
X55042857Y-130761904D01*
X55138095Y-130761904D01*
X55280952Y-130714285D01*
X55852380Y-130142857D01*
X55852380Y-130761904D01*
X57452380Y-128857142D02*
X56976190Y-128523809D01*
X57452380Y-128285714D02*
X56452380Y-128285714D01*
X56452380Y-128666666D01*
X56500000Y-128761904D01*
X56547619Y-128809523D01*
X56642857Y-128857142D01*
X56785714Y-128857142D01*
X56880952Y-128809523D01*
X56928571Y-128761904D01*
X56976190Y-128666666D01*
X56976190Y-128285714D01*
X56547619Y-129238095D02*
X56500000Y-129285714D01*
X56452380Y-129380952D01*
X56452380Y-129619047D01*
X56500000Y-129714285D01*
X56547619Y-129761904D01*
X56642857Y-129809523D01*
X56738095Y-129809523D01*
X56880952Y-129761904D01*
X57452380Y-129190476D01*
X57452380Y-129809523D01*
X56452380Y-130142857D02*
X56452380Y-130761904D01*
X56833333Y-130428571D01*
X56833333Y-130571428D01*
X56880952Y-130666666D01*
X56928571Y-130714285D01*
X57023809Y-130761904D01*
X57261904Y-130761904D01*
X57357142Y-130714285D01*
X57404761Y-130666666D01*
X57452380Y-130571428D01*
X57452380Y-130285714D01*
X57404761Y-130190476D01*
X57357142Y-130142857D01*
X53852380Y-128857142D02*
X53376190Y-128523809D01*
X53852380Y-128285714D02*
X52852380Y-128285714D01*
X52852380Y-128666666D01*
X52900000Y-128761904D01*
X52947619Y-128809523D01*
X53042857Y-128857142D01*
X53185714Y-128857142D01*
X53280952Y-128809523D01*
X53328571Y-128761904D01*
X53376190Y-128666666D01*
X53376190Y-128285714D01*
X52947619Y-129238095D02*
X52900000Y-129285714D01*
X52852380Y-129380952D01*
X52852380Y-129619047D01*
X52900000Y-129714285D01*
X52947619Y-129761904D01*
X53042857Y-129809523D01*
X53138095Y-129809523D01*
X53280952Y-129761904D01*
X53852380Y-129190476D01*
X53852380Y-129809523D01*
X53185714Y-130666666D02*
X53852380Y-130666666D01*
X52804761Y-130428571D02*
X53519047Y-130190476D01*
X53519047Y-130809523D01*
X52452380Y-128857142D02*
X51976190Y-128523809D01*
X52452380Y-128285714D02*
X51452380Y-128285714D01*
X51452380Y-128666666D01*
X51500000Y-128761904D01*
X51547619Y-128809523D01*
X51642857Y-128857142D01*
X51785714Y-128857142D01*
X51880952Y-128809523D01*
X51928571Y-128761904D01*
X51976190Y-128666666D01*
X51976190Y-128285714D01*
X51547619Y-129238095D02*
X51500000Y-129285714D01*
X51452380Y-129380952D01*
X51452380Y-129619047D01*
X51500000Y-129714285D01*
X51547619Y-129761904D01*
X51642857Y-129809523D01*
X51738095Y-129809523D01*
X51880952Y-129761904D01*
X52452380Y-129190476D01*
X52452380Y-129809523D01*
X51452380Y-130714285D02*
X51452380Y-130238095D01*
X51928571Y-130190476D01*
X51880952Y-130238095D01*
X51833333Y-130333333D01*
X51833333Y-130571428D01*
X51880952Y-130666666D01*
X51928571Y-130714285D01*
X52023809Y-130761904D01*
X52261904Y-130761904D01*
X52357142Y-130714285D01*
X52404761Y-130666666D01*
X52452380Y-130571428D01*
X52452380Y-130333333D01*
X52404761Y-130238095D01*
X52357142Y-130190476D01*
X62242857Y-86322380D02*
X62576190Y-85846190D01*
X62814285Y-86322380D02*
X62814285Y-85322380D01*
X62433333Y-85322380D01*
X62338095Y-85370000D01*
X62290476Y-85417619D01*
X62242857Y-85512857D01*
X62242857Y-85655714D01*
X62290476Y-85750952D01*
X62338095Y-85798571D01*
X62433333Y-85846190D01*
X62814285Y-85846190D01*
X61861904Y-85417619D02*
X61814285Y-85370000D01*
X61719047Y-85322380D01*
X61480952Y-85322380D01*
X61385714Y-85370000D01*
X61338095Y-85417619D01*
X61290476Y-85512857D01*
X61290476Y-85608095D01*
X61338095Y-85750952D01*
X61909523Y-86322380D01*
X61290476Y-86322380D01*
X60433333Y-85322380D02*
X60623809Y-85322380D01*
X60719047Y-85370000D01*
X60766666Y-85417619D01*
X60861904Y-85560476D01*
X60909523Y-85750952D01*
X60909523Y-86131904D01*
X60861904Y-86227142D01*
X60814285Y-86274761D01*
X60719047Y-86322380D01*
X60528571Y-86322380D01*
X60433333Y-86274761D01*
X60385714Y-86227142D01*
X60338095Y-86131904D01*
X60338095Y-85893809D01*
X60385714Y-85798571D01*
X60433333Y-85750952D01*
X60528571Y-85703333D01*
X60719047Y-85703333D01*
X60814285Y-85750952D01*
X60861904Y-85798571D01*
X60909523Y-85893809D01*
X68342857Y-93752380D02*
X68676190Y-93276190D01*
X68914285Y-93752380D02*
X68914285Y-92752380D01*
X68533333Y-92752380D01*
X68438095Y-92800000D01*
X68390476Y-92847619D01*
X68342857Y-92942857D01*
X68342857Y-93085714D01*
X68390476Y-93180952D01*
X68438095Y-93228571D01*
X68533333Y-93276190D01*
X68914285Y-93276190D01*
X67961904Y-92847619D02*
X67914285Y-92800000D01*
X67819047Y-92752380D01*
X67580952Y-92752380D01*
X67485714Y-92800000D01*
X67438095Y-92847619D01*
X67390476Y-92942857D01*
X67390476Y-93038095D01*
X67438095Y-93180952D01*
X68009523Y-93752380D01*
X67390476Y-93752380D01*
X67057142Y-92752380D02*
X66390476Y-92752380D01*
X66819047Y-93752380D01*
X52442857Y-83552380D02*
X52776190Y-83076190D01*
X53014285Y-83552380D02*
X53014285Y-82552380D01*
X52633333Y-82552380D01*
X52538095Y-82600000D01*
X52490476Y-82647619D01*
X52442857Y-82742857D01*
X52442857Y-82885714D01*
X52490476Y-82980952D01*
X52538095Y-83028571D01*
X52633333Y-83076190D01*
X53014285Y-83076190D01*
X52061904Y-82647619D02*
X52014285Y-82600000D01*
X51919047Y-82552380D01*
X51680952Y-82552380D01*
X51585714Y-82600000D01*
X51538095Y-82647619D01*
X51490476Y-82742857D01*
X51490476Y-82838095D01*
X51538095Y-82980952D01*
X52109523Y-83552380D01*
X51490476Y-83552380D01*
X50919047Y-82980952D02*
X51014285Y-82933333D01*
X51061904Y-82885714D01*
X51109523Y-82790476D01*
X51109523Y-82742857D01*
X51061904Y-82647619D01*
X51014285Y-82600000D01*
X50919047Y-82552380D01*
X50728571Y-82552380D01*
X50633333Y-82600000D01*
X50585714Y-82647619D01*
X50538095Y-82742857D01*
X50538095Y-82790476D01*
X50585714Y-82885714D01*
X50633333Y-82933333D01*
X50728571Y-82980952D01*
X50919047Y-82980952D01*
X51014285Y-83028571D01*
X51061904Y-83076190D01*
X51109523Y-83171428D01*
X51109523Y-83361904D01*
X51061904Y-83457142D01*
X51014285Y-83504761D01*
X50919047Y-83552380D01*
X50728571Y-83552380D01*
X50633333Y-83504761D01*
X50585714Y-83457142D01*
X50538095Y-83361904D01*
X50538095Y-83171428D01*
X50585714Y-83076190D01*
X50633333Y-83028571D01*
X50728571Y-82980952D01*
X52442857Y-82252380D02*
X52776190Y-81776190D01*
X53014285Y-82252380D02*
X53014285Y-81252380D01*
X52633333Y-81252380D01*
X52538095Y-81300000D01*
X52490476Y-81347619D01*
X52442857Y-81442857D01*
X52442857Y-81585714D01*
X52490476Y-81680952D01*
X52538095Y-81728571D01*
X52633333Y-81776190D01*
X53014285Y-81776190D01*
X52061904Y-81347619D02*
X52014285Y-81300000D01*
X51919047Y-81252380D01*
X51680952Y-81252380D01*
X51585714Y-81300000D01*
X51538095Y-81347619D01*
X51490476Y-81442857D01*
X51490476Y-81538095D01*
X51538095Y-81680952D01*
X52109523Y-82252380D01*
X51490476Y-82252380D01*
X51014285Y-82252380D02*
X50823809Y-82252380D01*
X50728571Y-82204761D01*
X50680952Y-82157142D01*
X50585714Y-82014285D01*
X50538095Y-81823809D01*
X50538095Y-81442857D01*
X50585714Y-81347619D01*
X50633333Y-81300000D01*
X50728571Y-81252380D01*
X50919047Y-81252380D01*
X51014285Y-81300000D01*
X51061904Y-81347619D01*
X51109523Y-81442857D01*
X51109523Y-81680952D01*
X51061904Y-81776190D01*
X51014285Y-81823809D01*
X50919047Y-81871428D01*
X50728571Y-81871428D01*
X50633333Y-81823809D01*
X50585714Y-81776190D01*
X50538095Y-81680952D01*
X52542857Y-95152380D02*
X52876190Y-94676190D01*
X53114285Y-95152380D02*
X53114285Y-94152380D01*
X52733333Y-94152380D01*
X52638095Y-94200000D01*
X52590476Y-94247619D01*
X52542857Y-94342857D01*
X52542857Y-94485714D01*
X52590476Y-94580952D01*
X52638095Y-94628571D01*
X52733333Y-94676190D01*
X53114285Y-94676190D01*
X52209523Y-94152380D02*
X51590476Y-94152380D01*
X51923809Y-94533333D01*
X51780952Y-94533333D01*
X51685714Y-94580952D01*
X51638095Y-94628571D01*
X51590476Y-94723809D01*
X51590476Y-94961904D01*
X51638095Y-95057142D01*
X51685714Y-95104761D01*
X51780952Y-95152380D01*
X52066666Y-95152380D01*
X52161904Y-95104761D01*
X52209523Y-95057142D01*
X50971428Y-94152380D02*
X50876190Y-94152380D01*
X50780952Y-94200000D01*
X50733333Y-94247619D01*
X50685714Y-94342857D01*
X50638095Y-94533333D01*
X50638095Y-94771428D01*
X50685714Y-94961904D01*
X50733333Y-95057142D01*
X50780952Y-95104761D01*
X50876190Y-95152380D01*
X50971428Y-95152380D01*
X51066666Y-95104761D01*
X51114285Y-95057142D01*
X51161904Y-94961904D01*
X51209523Y-94771428D01*
X51209523Y-94533333D01*
X51161904Y-94342857D01*
X51114285Y-94247619D01*
X51066666Y-94200000D01*
X50971428Y-94152380D01*
X102252380Y-111057142D02*
X101776190Y-110723809D01*
X102252380Y-110485714D02*
X101252380Y-110485714D01*
X101252380Y-110866666D01*
X101300000Y-110961904D01*
X101347619Y-111009523D01*
X101442857Y-111057142D01*
X101585714Y-111057142D01*
X101680952Y-111009523D01*
X101728571Y-110961904D01*
X101776190Y-110866666D01*
X101776190Y-110485714D01*
X101252380Y-111390476D02*
X101252380Y-112009523D01*
X101633333Y-111676190D01*
X101633333Y-111819047D01*
X101680952Y-111914285D01*
X101728571Y-111961904D01*
X101823809Y-112009523D01*
X102061904Y-112009523D01*
X102157142Y-111961904D01*
X102204761Y-111914285D01*
X102252380Y-111819047D01*
X102252380Y-111533333D01*
X102204761Y-111438095D01*
X102157142Y-111390476D01*
X102252380Y-112961904D02*
X102252380Y-112390476D01*
X102252380Y-112676190D02*
X101252380Y-112676190D01*
X101395238Y-112580952D01*
X101490476Y-112485714D01*
X101538095Y-112390476D01*
X105342857Y-69152380D02*
X105676190Y-68676190D01*
X105914285Y-69152380D02*
X105914285Y-68152380D01*
X105533333Y-68152380D01*
X105438095Y-68200000D01*
X105390476Y-68247619D01*
X105342857Y-68342857D01*
X105342857Y-68485714D01*
X105390476Y-68580952D01*
X105438095Y-68628571D01*
X105533333Y-68676190D01*
X105914285Y-68676190D01*
X105009523Y-68152380D02*
X104390476Y-68152380D01*
X104723809Y-68533333D01*
X104580952Y-68533333D01*
X104485714Y-68580952D01*
X104438095Y-68628571D01*
X104390476Y-68723809D01*
X104390476Y-68961904D01*
X104438095Y-69057142D01*
X104485714Y-69104761D01*
X104580952Y-69152380D01*
X104866666Y-69152380D01*
X104961904Y-69104761D01*
X105009523Y-69057142D01*
X104009523Y-68247619D02*
X103961904Y-68200000D01*
X103866666Y-68152380D01*
X103628571Y-68152380D01*
X103533333Y-68200000D01*
X103485714Y-68247619D01*
X103438095Y-68342857D01*
X103438095Y-68438095D01*
X103485714Y-68580952D01*
X104057142Y-69152380D01*
X103438095Y-69152380D01*
X107442857Y-80052380D02*
X107776190Y-79576190D01*
X108014285Y-80052380D02*
X108014285Y-79052380D01*
X107633333Y-79052380D01*
X107538095Y-79100000D01*
X107490476Y-79147619D01*
X107442857Y-79242857D01*
X107442857Y-79385714D01*
X107490476Y-79480952D01*
X107538095Y-79528571D01*
X107633333Y-79576190D01*
X108014285Y-79576190D01*
X107109523Y-79052380D02*
X106490476Y-79052380D01*
X106823809Y-79433333D01*
X106680952Y-79433333D01*
X106585714Y-79480952D01*
X106538095Y-79528571D01*
X106490476Y-79623809D01*
X106490476Y-79861904D01*
X106538095Y-79957142D01*
X106585714Y-80004761D01*
X106680952Y-80052380D01*
X106966666Y-80052380D01*
X107061904Y-80004761D01*
X107109523Y-79957142D01*
X106157142Y-79052380D02*
X105538095Y-79052380D01*
X105871428Y-79433333D01*
X105728571Y-79433333D01*
X105633333Y-79480952D01*
X105585714Y-79528571D01*
X105538095Y-79623809D01*
X105538095Y-79861904D01*
X105585714Y-79957142D01*
X105633333Y-80004761D01*
X105728571Y-80052380D01*
X106014285Y-80052380D01*
X106109523Y-80004761D01*
X106157142Y-79957142D01*
X107442857Y-77452380D02*
X107776190Y-76976190D01*
X108014285Y-77452380D02*
X108014285Y-76452380D01*
X107633333Y-76452380D01*
X107538095Y-76500000D01*
X107490476Y-76547619D01*
X107442857Y-76642857D01*
X107442857Y-76785714D01*
X107490476Y-76880952D01*
X107538095Y-76928571D01*
X107633333Y-76976190D01*
X108014285Y-76976190D01*
X107109523Y-76452380D02*
X106490476Y-76452380D01*
X106823809Y-76833333D01*
X106680952Y-76833333D01*
X106585714Y-76880952D01*
X106538095Y-76928571D01*
X106490476Y-77023809D01*
X106490476Y-77261904D01*
X106538095Y-77357142D01*
X106585714Y-77404761D01*
X106680952Y-77452380D01*
X106966666Y-77452380D01*
X107061904Y-77404761D01*
X107109523Y-77357142D01*
X105633333Y-76785714D02*
X105633333Y-77452380D01*
X105871428Y-76404761D02*
X106109523Y-77119047D01*
X105490476Y-77119047D01*
X61352380Y-76457142D02*
X60876190Y-76123809D01*
X61352380Y-75885714D02*
X60352380Y-75885714D01*
X60352380Y-76266666D01*
X60400000Y-76361904D01*
X60447619Y-76409523D01*
X60542857Y-76457142D01*
X60685714Y-76457142D01*
X60780952Y-76409523D01*
X60828571Y-76361904D01*
X60876190Y-76266666D01*
X60876190Y-75885714D01*
X60352380Y-76790476D02*
X60352380Y-77409523D01*
X60733333Y-77076190D01*
X60733333Y-77219047D01*
X60780952Y-77314285D01*
X60828571Y-77361904D01*
X60923809Y-77409523D01*
X61161904Y-77409523D01*
X61257142Y-77361904D01*
X61304761Y-77314285D01*
X61352380Y-77219047D01*
X61352380Y-76933333D01*
X61304761Y-76838095D01*
X61257142Y-76790476D01*
X60352380Y-78314285D02*
X60352380Y-77838095D01*
X60828571Y-77790476D01*
X60780952Y-77838095D01*
X60733333Y-77933333D01*
X60733333Y-78171428D01*
X60780952Y-78266666D01*
X60828571Y-78314285D01*
X60923809Y-78361904D01*
X61161904Y-78361904D01*
X61257142Y-78314285D01*
X61304761Y-78266666D01*
X61352380Y-78171428D01*
X61352380Y-77933333D01*
X61304761Y-77838095D01*
X61257142Y-77790476D01*
X83642857Y-102522380D02*
X83976190Y-102046190D01*
X84214285Y-102522380D02*
X84214285Y-101522380D01*
X83833333Y-101522380D01*
X83738095Y-101570000D01*
X83690476Y-101617619D01*
X83642857Y-101712857D01*
X83642857Y-101855714D01*
X83690476Y-101950952D01*
X83738095Y-101998571D01*
X83833333Y-102046190D01*
X84214285Y-102046190D01*
X83309523Y-101522380D02*
X82690476Y-101522380D01*
X83023809Y-101903333D01*
X82880952Y-101903333D01*
X82785714Y-101950952D01*
X82738095Y-101998571D01*
X82690476Y-102093809D01*
X82690476Y-102331904D01*
X82738095Y-102427142D01*
X82785714Y-102474761D01*
X82880952Y-102522380D01*
X83166666Y-102522380D01*
X83261904Y-102474761D01*
X83309523Y-102427142D01*
X81833333Y-101522380D02*
X82023809Y-101522380D01*
X82119047Y-101570000D01*
X82166666Y-101617619D01*
X82261904Y-101760476D01*
X82309523Y-101950952D01*
X82309523Y-102331904D01*
X82261904Y-102427142D01*
X82214285Y-102474761D01*
X82119047Y-102522380D01*
X81928571Y-102522380D01*
X81833333Y-102474761D01*
X81785714Y-102427142D01*
X81738095Y-102331904D01*
X81738095Y-102093809D01*
X81785714Y-101998571D01*
X81833333Y-101950952D01*
X81928571Y-101903333D01*
X82119047Y-101903333D01*
X82214285Y-101950952D01*
X82261904Y-101998571D01*
X82309523Y-102093809D01*
X64342857Y-79452380D02*
X64676190Y-78976190D01*
X64914285Y-79452380D02*
X64914285Y-78452380D01*
X64533333Y-78452380D01*
X64438095Y-78500000D01*
X64390476Y-78547619D01*
X64342857Y-78642857D01*
X64342857Y-78785714D01*
X64390476Y-78880952D01*
X64438095Y-78928571D01*
X64533333Y-78976190D01*
X64914285Y-78976190D01*
X64009523Y-78452380D02*
X63390476Y-78452380D01*
X63723809Y-78833333D01*
X63580952Y-78833333D01*
X63485714Y-78880952D01*
X63438095Y-78928571D01*
X63390476Y-79023809D01*
X63390476Y-79261904D01*
X63438095Y-79357142D01*
X63485714Y-79404761D01*
X63580952Y-79452380D01*
X63866666Y-79452380D01*
X63961904Y-79404761D01*
X64009523Y-79357142D01*
X63057142Y-78452380D02*
X62390476Y-78452380D01*
X62819047Y-79452380D01*
X85952380Y-108657142D02*
X85476190Y-108323809D01*
X85952380Y-108085714D02*
X84952380Y-108085714D01*
X84952380Y-108466666D01*
X85000000Y-108561904D01*
X85047619Y-108609523D01*
X85142857Y-108657142D01*
X85285714Y-108657142D01*
X85380952Y-108609523D01*
X85428571Y-108561904D01*
X85476190Y-108466666D01*
X85476190Y-108085714D01*
X84952380Y-108990476D02*
X84952380Y-109609523D01*
X85333333Y-109276190D01*
X85333333Y-109419047D01*
X85380952Y-109514285D01*
X85428571Y-109561904D01*
X85523809Y-109609523D01*
X85761904Y-109609523D01*
X85857142Y-109561904D01*
X85904761Y-109514285D01*
X85952380Y-109419047D01*
X85952380Y-109133333D01*
X85904761Y-109038095D01*
X85857142Y-108990476D01*
X85380952Y-110180952D02*
X85333333Y-110085714D01*
X85285714Y-110038095D01*
X85190476Y-109990476D01*
X85142857Y-109990476D01*
X85047619Y-110038095D01*
X85000000Y-110085714D01*
X84952380Y-110180952D01*
X84952380Y-110371428D01*
X85000000Y-110466666D01*
X85047619Y-110514285D01*
X85142857Y-110561904D01*
X85190476Y-110561904D01*
X85285714Y-110514285D01*
X85333333Y-110466666D01*
X85380952Y-110371428D01*
X85380952Y-110180952D01*
X85428571Y-110085714D01*
X85476190Y-110038095D01*
X85571428Y-109990476D01*
X85761904Y-109990476D01*
X85857142Y-110038095D01*
X85904761Y-110085714D01*
X85952380Y-110180952D01*
X85952380Y-110371428D01*
X85904761Y-110466666D01*
X85857142Y-110514285D01*
X85761904Y-110561904D01*
X85571428Y-110561904D01*
X85476190Y-110514285D01*
X85428571Y-110466666D01*
X85380952Y-110371428D01*
X55742857Y-77752380D02*
X56076190Y-77276190D01*
X56314285Y-77752380D02*
X56314285Y-76752380D01*
X55933333Y-76752380D01*
X55838095Y-76800000D01*
X55790476Y-76847619D01*
X55742857Y-76942857D01*
X55742857Y-77085714D01*
X55790476Y-77180952D01*
X55838095Y-77228571D01*
X55933333Y-77276190D01*
X56314285Y-77276190D01*
X55409523Y-76752380D02*
X54790476Y-76752380D01*
X55123809Y-77133333D01*
X54980952Y-77133333D01*
X54885714Y-77180952D01*
X54838095Y-77228571D01*
X54790476Y-77323809D01*
X54790476Y-77561904D01*
X54838095Y-77657142D01*
X54885714Y-77704761D01*
X54980952Y-77752380D01*
X55266666Y-77752380D01*
X55361904Y-77704761D01*
X55409523Y-77657142D01*
X54314285Y-77752380D02*
X54123809Y-77752380D01*
X54028571Y-77704761D01*
X53980952Y-77657142D01*
X53885714Y-77514285D01*
X53838095Y-77323809D01*
X53838095Y-76942857D01*
X53885714Y-76847619D01*
X53933333Y-76800000D01*
X54028571Y-76752380D01*
X54219047Y-76752380D01*
X54314285Y-76800000D01*
X54361904Y-76847619D01*
X54409523Y-76942857D01*
X54409523Y-77180952D01*
X54361904Y-77276190D01*
X54314285Y-77323809D01*
X54219047Y-77371428D01*
X54028571Y-77371428D01*
X53933333Y-77323809D01*
X53885714Y-77276190D01*
X53838095Y-77180952D01*
X79152380Y-105957142D02*
X78676190Y-105623809D01*
X79152380Y-105385714D02*
X78152380Y-105385714D01*
X78152380Y-105766666D01*
X78200000Y-105861904D01*
X78247619Y-105909523D01*
X78342857Y-105957142D01*
X78485714Y-105957142D01*
X78580952Y-105909523D01*
X78628571Y-105861904D01*
X78676190Y-105766666D01*
X78676190Y-105385714D01*
X78485714Y-106814285D02*
X79152380Y-106814285D01*
X78104761Y-106576190D02*
X78819047Y-106338095D01*
X78819047Y-106957142D01*
X78152380Y-107528571D02*
X78152380Y-107623809D01*
X78200000Y-107719047D01*
X78247619Y-107766666D01*
X78342857Y-107814285D01*
X78533333Y-107861904D01*
X78771428Y-107861904D01*
X78961904Y-107814285D01*
X79057142Y-107766666D01*
X79104761Y-107719047D01*
X79152380Y-107623809D01*
X79152380Y-107528571D01*
X79104761Y-107433333D01*
X79057142Y-107385714D01*
X78961904Y-107338095D01*
X78771428Y-107290476D01*
X78533333Y-107290476D01*
X78342857Y-107338095D01*
X78247619Y-107385714D01*
X78200000Y-107433333D01*
X78152380Y-107528571D01*
X100942857Y-80152380D02*
X101276190Y-79676190D01*
X101514285Y-80152380D02*
X101514285Y-79152380D01*
X101133333Y-79152380D01*
X101038095Y-79200000D01*
X100990476Y-79247619D01*
X100942857Y-79342857D01*
X100942857Y-79485714D01*
X100990476Y-79580952D01*
X101038095Y-79628571D01*
X101133333Y-79676190D01*
X101514285Y-79676190D01*
X100085714Y-79485714D02*
X100085714Y-80152380D01*
X100323809Y-79104761D02*
X100561904Y-79819047D01*
X99942857Y-79819047D01*
X99038095Y-80152380D02*
X99609523Y-80152380D01*
X99323809Y-80152380D02*
X99323809Y-79152380D01*
X99419047Y-79295238D01*
X99514285Y-79390476D01*
X99609523Y-79438095D01*
X54552380Y-78757142D02*
X54076190Y-78423809D01*
X54552380Y-78185714D02*
X53552380Y-78185714D01*
X53552380Y-78566666D01*
X53600000Y-78661904D01*
X53647619Y-78709523D01*
X53742857Y-78757142D01*
X53885714Y-78757142D01*
X53980952Y-78709523D01*
X54028571Y-78661904D01*
X54076190Y-78566666D01*
X54076190Y-78185714D01*
X53885714Y-79614285D02*
X54552380Y-79614285D01*
X53504761Y-79376190D02*
X54219047Y-79138095D01*
X54219047Y-79757142D01*
X53647619Y-80090476D02*
X53600000Y-80138095D01*
X53552380Y-80233333D01*
X53552380Y-80471428D01*
X53600000Y-80566666D01*
X53647619Y-80614285D01*
X53742857Y-80661904D01*
X53838095Y-80661904D01*
X53980952Y-80614285D01*
X54552380Y-80042857D01*
X54552380Y-80661904D01*
X79052380Y-109357142D02*
X78576190Y-109023809D01*
X79052380Y-108785714D02*
X78052380Y-108785714D01*
X78052380Y-109166666D01*
X78100000Y-109261904D01*
X78147619Y-109309523D01*
X78242857Y-109357142D01*
X78385714Y-109357142D01*
X78480952Y-109309523D01*
X78528571Y-109261904D01*
X78576190Y-109166666D01*
X78576190Y-108785714D01*
X78385714Y-110214285D02*
X79052380Y-110214285D01*
X78004761Y-109976190D02*
X78719047Y-109738095D01*
X78719047Y-110357142D01*
X78052380Y-110642857D02*
X78052380Y-111261904D01*
X78433333Y-110928571D01*
X78433333Y-111071428D01*
X78480952Y-111166666D01*
X78528571Y-111214285D01*
X78623809Y-111261904D01*
X78861904Y-111261904D01*
X78957142Y-111214285D01*
X79004761Y-111166666D01*
X79052380Y-111071428D01*
X79052380Y-110785714D01*
X79004761Y-110690476D01*
X78957142Y-110642857D01*
X93342857Y-68752380D02*
X93676190Y-68276190D01*
X93914285Y-68752380D02*
X93914285Y-67752380D01*
X93533333Y-67752380D01*
X93438095Y-67800000D01*
X93390476Y-67847619D01*
X93342857Y-67942857D01*
X93342857Y-68085714D01*
X93390476Y-68180952D01*
X93438095Y-68228571D01*
X93533333Y-68276190D01*
X93914285Y-68276190D01*
X92485714Y-68085714D02*
X92485714Y-68752380D01*
X92723809Y-67704761D02*
X92961904Y-68419047D01*
X92342857Y-68419047D01*
X91533333Y-68085714D02*
X91533333Y-68752380D01*
X91771428Y-67704761D02*
X92009523Y-68419047D01*
X91390476Y-68419047D01*
X93342857Y-66152380D02*
X93676190Y-65676190D01*
X93914285Y-66152380D02*
X93914285Y-65152380D01*
X93533333Y-65152380D01*
X93438095Y-65200000D01*
X93390476Y-65247619D01*
X93342857Y-65342857D01*
X93342857Y-65485714D01*
X93390476Y-65580952D01*
X93438095Y-65628571D01*
X93533333Y-65676190D01*
X93914285Y-65676190D01*
X92485714Y-65485714D02*
X92485714Y-66152380D01*
X92723809Y-65104761D02*
X92961904Y-65819047D01*
X92342857Y-65819047D01*
X91485714Y-65152380D02*
X91961904Y-65152380D01*
X92009523Y-65628571D01*
X91961904Y-65580952D01*
X91866666Y-65533333D01*
X91628571Y-65533333D01*
X91533333Y-65580952D01*
X91485714Y-65628571D01*
X91438095Y-65723809D01*
X91438095Y-65961904D01*
X91485714Y-66057142D01*
X91533333Y-66104761D01*
X91628571Y-66152380D01*
X91866666Y-66152380D01*
X91961904Y-66104761D01*
X92009523Y-66057142D01*
X61552380Y-69757142D02*
X61076190Y-69423809D01*
X61552380Y-69185714D02*
X60552380Y-69185714D01*
X60552380Y-69566666D01*
X60600000Y-69661904D01*
X60647619Y-69709523D01*
X60742857Y-69757142D01*
X60885714Y-69757142D01*
X60980952Y-69709523D01*
X61028571Y-69661904D01*
X61076190Y-69566666D01*
X61076190Y-69185714D01*
X60885714Y-70614285D02*
X61552380Y-70614285D01*
X60504761Y-70376190D02*
X61219047Y-70138095D01*
X61219047Y-70757142D01*
X60552380Y-71566666D02*
X60552380Y-71376190D01*
X60600000Y-71280952D01*
X60647619Y-71233333D01*
X60790476Y-71138095D01*
X60980952Y-71090476D01*
X61361904Y-71090476D01*
X61457142Y-71138095D01*
X61504761Y-71185714D01*
X61552380Y-71280952D01*
X61552380Y-71471428D01*
X61504761Y-71566666D01*
X61457142Y-71614285D01*
X61361904Y-71661904D01*
X61123809Y-71661904D01*
X61028571Y-71614285D01*
X60980952Y-71566666D01*
X60933333Y-71471428D01*
X60933333Y-71280952D01*
X60980952Y-71185714D01*
X61028571Y-71138095D01*
X61123809Y-71090476D01*
X93982380Y-73557142D02*
X93506190Y-73223809D01*
X93982380Y-72985714D02*
X92982380Y-72985714D01*
X92982380Y-73366666D01*
X93030000Y-73461904D01*
X93077619Y-73509523D01*
X93172857Y-73557142D01*
X93315714Y-73557142D01*
X93410952Y-73509523D01*
X93458571Y-73461904D01*
X93506190Y-73366666D01*
X93506190Y-72985714D01*
X93315714Y-74414285D02*
X93982380Y-74414285D01*
X92934761Y-74176190D02*
X93649047Y-73938095D01*
X93649047Y-74557142D01*
X92982380Y-74842857D02*
X92982380Y-75509523D01*
X93982380Y-75080952D01*
X67042857Y-74552380D02*
X67376190Y-74076190D01*
X67614285Y-74552380D02*
X67614285Y-73552380D01*
X67233333Y-73552380D01*
X67138095Y-73600000D01*
X67090476Y-73647619D01*
X67042857Y-73742857D01*
X67042857Y-73885714D01*
X67090476Y-73980952D01*
X67138095Y-74028571D01*
X67233333Y-74076190D01*
X67614285Y-74076190D01*
X66185714Y-73885714D02*
X66185714Y-74552380D01*
X66423809Y-73504761D02*
X66661904Y-74219047D01*
X66042857Y-74219047D01*
X65519047Y-73980952D02*
X65614285Y-73933333D01*
X65661904Y-73885714D01*
X65709523Y-73790476D01*
X65709523Y-73742857D01*
X65661904Y-73647619D01*
X65614285Y-73600000D01*
X65519047Y-73552380D01*
X65328571Y-73552380D01*
X65233333Y-73600000D01*
X65185714Y-73647619D01*
X65138095Y-73742857D01*
X65138095Y-73790476D01*
X65185714Y-73885714D01*
X65233333Y-73933333D01*
X65328571Y-73980952D01*
X65519047Y-73980952D01*
X65614285Y-74028571D01*
X65661904Y-74076190D01*
X65709523Y-74171428D01*
X65709523Y-74361904D01*
X65661904Y-74457142D01*
X65614285Y-74504761D01*
X65519047Y-74552380D01*
X65328571Y-74552380D01*
X65233333Y-74504761D01*
X65185714Y-74457142D01*
X65138095Y-74361904D01*
X65138095Y-74171428D01*
X65185714Y-74076190D01*
X65233333Y-74028571D01*
X65328571Y-73980952D01*
X94052380Y-77257142D02*
X93576190Y-76923809D01*
X94052380Y-76685714D02*
X93052380Y-76685714D01*
X93052380Y-77066666D01*
X93100000Y-77161904D01*
X93147619Y-77209523D01*
X93242857Y-77257142D01*
X93385714Y-77257142D01*
X93480952Y-77209523D01*
X93528571Y-77161904D01*
X93576190Y-77066666D01*
X93576190Y-76685714D01*
X93385714Y-78114285D02*
X94052380Y-78114285D01*
X93004761Y-77876190D02*
X93719047Y-77638095D01*
X93719047Y-78257142D01*
X94052380Y-78685714D02*
X94052380Y-78876190D01*
X94004761Y-78971428D01*
X93957142Y-79019047D01*
X93814285Y-79114285D01*
X93623809Y-79161904D01*
X93242857Y-79161904D01*
X93147619Y-79114285D01*
X93100000Y-79066666D01*
X93052380Y-78971428D01*
X93052380Y-78780952D01*
X93100000Y-78685714D01*
X93147619Y-78638095D01*
X93242857Y-78590476D01*
X93480952Y-78590476D01*
X93576190Y-78638095D01*
X93623809Y-78685714D01*
X93671428Y-78780952D01*
X93671428Y-78971428D01*
X93623809Y-79066666D01*
X93576190Y-79114285D01*
X93480952Y-79161904D01*
X53952380Y-69757142D02*
X53476190Y-69423809D01*
X53952380Y-69185714D02*
X52952380Y-69185714D01*
X52952380Y-69566666D01*
X53000000Y-69661904D01*
X53047619Y-69709523D01*
X53142857Y-69757142D01*
X53285714Y-69757142D01*
X53380952Y-69709523D01*
X53428571Y-69661904D01*
X53476190Y-69566666D01*
X53476190Y-69185714D01*
X52952380Y-70661904D02*
X52952380Y-70185714D01*
X53428571Y-70138095D01*
X53380952Y-70185714D01*
X53333333Y-70280952D01*
X53333333Y-70519047D01*
X53380952Y-70614285D01*
X53428571Y-70661904D01*
X53523809Y-70709523D01*
X53761904Y-70709523D01*
X53857142Y-70661904D01*
X53904761Y-70614285D01*
X53952380Y-70519047D01*
X53952380Y-70280952D01*
X53904761Y-70185714D01*
X53857142Y-70138095D01*
X52952380Y-71328571D02*
X52952380Y-71423809D01*
X53000000Y-71519047D01*
X53047619Y-71566666D01*
X53142857Y-71614285D01*
X53333333Y-71661904D01*
X53571428Y-71661904D01*
X53761904Y-71614285D01*
X53857142Y-71566666D01*
X53904761Y-71519047D01*
X53952380Y-71423809D01*
X53952380Y-71328571D01*
X53904761Y-71233333D01*
X53857142Y-71185714D01*
X53761904Y-71138095D01*
X53571428Y-71090476D01*
X53333333Y-71090476D01*
X53142857Y-71138095D01*
X53047619Y-71185714D01*
X53000000Y-71233333D01*
X52952380Y-71328571D01*
X57842857Y-69852380D02*
X58176190Y-69376190D01*
X58414285Y-69852380D02*
X58414285Y-68852380D01*
X58033333Y-68852380D01*
X57938095Y-68900000D01*
X57890476Y-68947619D01*
X57842857Y-69042857D01*
X57842857Y-69185714D01*
X57890476Y-69280952D01*
X57938095Y-69328571D01*
X58033333Y-69376190D01*
X58414285Y-69376190D01*
X56938095Y-68852380D02*
X57414285Y-68852380D01*
X57461904Y-69328571D01*
X57414285Y-69280952D01*
X57319047Y-69233333D01*
X57080952Y-69233333D01*
X56985714Y-69280952D01*
X56938095Y-69328571D01*
X56890476Y-69423809D01*
X56890476Y-69661904D01*
X56938095Y-69757142D01*
X56985714Y-69804761D01*
X57080952Y-69852380D01*
X57319047Y-69852380D01*
X57414285Y-69804761D01*
X57461904Y-69757142D01*
X55938095Y-69852380D02*
X56509523Y-69852380D01*
X56223809Y-69852380D02*
X56223809Y-68852380D01*
X56319047Y-68995238D01*
X56414285Y-69090476D01*
X56509523Y-69138095D01*
X89452380Y-73457142D02*
X88976190Y-73123809D01*
X89452380Y-72885714D02*
X88452380Y-72885714D01*
X88452380Y-73266666D01*
X88500000Y-73361904D01*
X88547619Y-73409523D01*
X88642857Y-73457142D01*
X88785714Y-73457142D01*
X88880952Y-73409523D01*
X88928571Y-73361904D01*
X88976190Y-73266666D01*
X88976190Y-72885714D01*
X88452380Y-74361904D02*
X88452380Y-73885714D01*
X88928571Y-73838095D01*
X88880952Y-73885714D01*
X88833333Y-73980952D01*
X88833333Y-74219047D01*
X88880952Y-74314285D01*
X88928571Y-74361904D01*
X89023809Y-74409523D01*
X89261904Y-74409523D01*
X89357142Y-74361904D01*
X89404761Y-74314285D01*
X89452380Y-74219047D01*
X89452380Y-73980952D01*
X89404761Y-73885714D01*
X89357142Y-73838095D01*
X88547619Y-74790476D02*
X88500000Y-74838095D01*
X88452380Y-74933333D01*
X88452380Y-75171428D01*
X88500000Y-75266666D01*
X88547619Y-75314285D01*
X88642857Y-75361904D01*
X88738095Y-75361904D01*
X88880952Y-75314285D01*
X89452380Y-74742857D01*
X89452380Y-75361904D01*
X55552380Y-69757142D02*
X55076190Y-69423809D01*
X55552380Y-69185714D02*
X54552380Y-69185714D01*
X54552380Y-69566666D01*
X54600000Y-69661904D01*
X54647619Y-69709523D01*
X54742857Y-69757142D01*
X54885714Y-69757142D01*
X54980952Y-69709523D01*
X55028571Y-69661904D01*
X55076190Y-69566666D01*
X55076190Y-69185714D01*
X54552380Y-70661904D02*
X54552380Y-70185714D01*
X55028571Y-70138095D01*
X54980952Y-70185714D01*
X54933333Y-70280952D01*
X54933333Y-70519047D01*
X54980952Y-70614285D01*
X55028571Y-70661904D01*
X55123809Y-70709523D01*
X55361904Y-70709523D01*
X55457142Y-70661904D01*
X55504761Y-70614285D01*
X55552380Y-70519047D01*
X55552380Y-70280952D01*
X55504761Y-70185714D01*
X55457142Y-70138095D01*
X54552380Y-71042857D02*
X54552380Y-71661904D01*
X54933333Y-71328571D01*
X54933333Y-71471428D01*
X54980952Y-71566666D01*
X55028571Y-71614285D01*
X55123809Y-71661904D01*
X55361904Y-71661904D01*
X55457142Y-71614285D01*
X55504761Y-71566666D01*
X55552380Y-71471428D01*
X55552380Y-71185714D01*
X55504761Y-71090476D01*
X55457142Y-71042857D01*
X87152380Y-80357142D02*
X86676190Y-80023809D01*
X87152380Y-79785714D02*
X86152380Y-79785714D01*
X86152380Y-80166666D01*
X86200000Y-80261904D01*
X86247619Y-80309523D01*
X86342857Y-80357142D01*
X86485714Y-80357142D01*
X86580952Y-80309523D01*
X86628571Y-80261904D01*
X86676190Y-80166666D01*
X86676190Y-79785714D01*
X86152380Y-81261904D02*
X86152380Y-80785714D01*
X86628571Y-80738095D01*
X86580952Y-80785714D01*
X86533333Y-80880952D01*
X86533333Y-81119047D01*
X86580952Y-81214285D01*
X86628571Y-81261904D01*
X86723809Y-81309523D01*
X86961904Y-81309523D01*
X87057142Y-81261904D01*
X87104761Y-81214285D01*
X87152380Y-81119047D01*
X87152380Y-80880952D01*
X87104761Y-80785714D01*
X87057142Y-80738095D01*
X86485714Y-82166666D02*
X87152380Y-82166666D01*
X86104761Y-81928571D02*
X86819047Y-81690476D01*
X86819047Y-82309523D01*
X57461904Y-94152380D02*
X57461904Y-94961904D01*
X57414285Y-95057142D01*
X57366666Y-95104761D01*
X57271428Y-95152380D01*
X57080952Y-95152380D01*
X56985714Y-95104761D01*
X56938095Y-95057142D01*
X56890476Y-94961904D01*
X56890476Y-94152380D01*
X56461904Y-94247619D02*
X56414285Y-94200000D01*
X56319047Y-94152380D01*
X56080952Y-94152380D01*
X55985714Y-94200000D01*
X55938095Y-94247619D01*
X55890476Y-94342857D01*
X55890476Y-94438095D01*
X55938095Y-94580952D01*
X56509523Y-95152380D01*
X55890476Y-95152380D01*
X73461904Y-80152380D02*
X73461904Y-80961904D01*
X73414285Y-81057142D01*
X73366666Y-81104761D01*
X73271428Y-81152380D01*
X73080952Y-81152380D01*
X72985714Y-81104761D01*
X72938095Y-81057142D01*
X72890476Y-80961904D01*
X72890476Y-80152380D01*
X72509523Y-80152380D02*
X71890476Y-80152380D01*
X72223809Y-80533333D01*
X72080952Y-80533333D01*
X71985714Y-80580952D01*
X71938095Y-80628571D01*
X71890476Y-80723809D01*
X71890476Y-80961904D01*
X71938095Y-81057142D01*
X71985714Y-81104761D01*
X72080952Y-81152380D01*
X72366666Y-81152380D01*
X72461904Y-81104761D01*
X72509523Y-81057142D01*
X102086904Y-72452380D02*
X102086904Y-73261904D01*
X102039285Y-73357142D01*
X101991666Y-73404761D01*
X101896428Y-73452380D01*
X101705952Y-73452380D01*
X101610714Y-73404761D01*
X101563095Y-73357142D01*
X101515476Y-73261904D01*
X101515476Y-72452380D01*
X100610714Y-72785714D02*
X100610714Y-73452380D01*
X100848809Y-72404761D02*
X101086904Y-73119047D01*
X100467857Y-73119047D01*
M02*
