M48
; DRILL file {KiCad (5.1.4)-1} date 2020/06/21 13:40:31
; FORMAT={-:-/ absolute / inch / decimal}
; #@! TF.CreationDate,2020-06-21T13:40:31+09:00
; #@! TF.GenerationSoftware,Kicad,Pcbnew,(5.1.4)-1
; #@! TF.FileFunction,Plated,1,2,PTH
FMAT,2
INCH
T1C0.0118
T2C0.0157
T3C0.0276
T4C0.0315
T5C0.0354
T6C0.0394
T7C0.0400
T8C0.0433
T9C0.0512
T10C0.1220
%
G90
G05
T1
X2.0118Y-3.9646
X2.0118Y-5.1142
X2.0394Y-5.1575
X2.0453Y-4.3799
X2.0472Y-3.6142
X2.0571Y-4.5217
X2.0591Y-3.3071
X2.0866Y-3.7913
X2.1102Y-3.7205
X2.1299Y-3.6142
X2.1378Y-4.9055
X2.1378Y-5.0906
X2.1417Y-3.3307
X2.1752Y-4.7264
X2.1811Y-2.9764
X2.1811Y-3.248
X2.1811Y-3.2913
X2.1969Y-4.2244
X2.2087Y-4.9055
X2.2402Y-4.0039
X2.2795Y-4.9055
X2.2854Y-5.7736
X2.2953Y-4.2244
X2.3156Y-4.8418
X2.3307Y-2.8976
X2.3346Y-5.0591
X2.3465Y-3.3953
X2.3543Y-3.0551
X2.3543Y-5.0197
X2.3583Y-2.7874
X2.378Y-5.1575
X2.3819Y-3.4803
X2.4055Y-4.0709
X2.4094Y-3.7874
X2.4173Y-5.0551
X2.4173Y-5.122
X2.4213Y-4.5512
X2.4252Y-5.8386
X2.4331Y-2.8622
X2.4331Y-2.9646
X2.4331Y-3.0906
X2.4449Y-3.2559
X2.4567Y-3.6142
X2.4606Y-4.4724
X2.4606Y-4.8701
X2.4646Y-5.0197
X2.4724Y-3.815
X2.4921Y-2.878
X2.4921Y-2.9646
X2.4921Y-3.1457
X2.4921Y-3.2362
X2.4925Y-3.3697
X2.5197Y-2.7874
X2.5354Y-3.4528
X2.5472Y-3.8543
X2.5591Y-3.9094
X2.5669Y-2.563
X2.5787Y-3.2008
X2.5827Y-3.5354
X2.5906Y-3.6693
X2.5945Y-3.2953
X2.6024Y-4.0157
X2.6024Y-4.122
X2.6024Y-4.2323
X2.6142Y-3.9606
X2.6181Y-3.1496
X2.6181Y-3.3346
X2.622Y-5.1161
X2.624Y-4.9193
X2.626Y-2.8465
X2.626Y-3.0551
X2.6339Y-4.4921
X2.6378Y-3.2598
X2.6457Y-4.3976
X2.6457Y-4.5591
X2.6457Y-4.6772
X2.6457Y-4.7756
X2.6575Y-4.8268
X2.6614Y-5.2146
X2.6772Y-5.3898
X2.6811Y-4.0157
X2.689Y-3.2087
X2.6929Y-4.565
X2.6969Y-4.9193
X2.7087Y-5.0079
X2.7087Y-5.1654
X2.7087Y-5.2559
X2.7165Y-3.7598
X2.7165Y-4.126
X2.7165Y-4.2244
X2.7165Y-4.3819
X2.7165Y-4.4606
X2.7244Y-3.2638
X2.7264Y-4.5354
X2.7323Y-3.9173
X2.7579Y-5.8031
X2.7677Y-4.874
X2.7953Y-3.1535
X2.7992Y-3.311
X2.9016Y-5.0236
X2.9055Y-4.6732
X2.9094Y-4.9331
X2.9094Y-5.2638
X2.9134Y-4.5197
X2.9366Y-4.3189
X2.9449Y-4.3661
X2.9606Y-4.1181
X2.9764Y-3.2165
X2.9764Y-4.622
X3.0039Y-4.2205
X3.0079Y-4.5276
X3.0118Y-2.8268
X3.0276Y-4.9331
X3.0315Y-4.626
X3.0394Y-4.5669
X3.0433Y-4.248
X3.0512Y-3.7008
X3.0551Y-3.4803
X3.0551Y-4.1693
X3.0591Y-3.7441
X3.063Y-5.0236
X3.063Y-5.2677
X3.063Y-5.3228
X3.063Y-5.3858
X3.0709Y-4.9685
X3.0787Y-3.2953
X3.0827Y-3.5709
X3.0827Y-3.8346
X3.0866Y-3.1811
X3.0906Y-3.4488
X3.0984Y-4.4665
X3.0984Y-5.7717
X3.1181Y-3.874
X3.1181Y-3.9291
X3.1217Y-4.5669
X3.122Y-3.7677
X3.122Y-5.4921
X3.1299Y-3.122
X3.1457Y-3.2244
X3.1476Y-4.6654
X3.1476Y-5.8012
X3.1535Y-4.3976
X3.1713Y-4.7677
X3.189Y-4.1063
X3.1929Y-3.5748
X3.1969Y-3.5157
X3.1969Y-3.7677
X3.1969Y-3.874
X3.1969Y-4.0
X3.1988Y-4.8681
X3.2244Y-4.374
X3.2283Y-3.122
X3.2283Y-5.3228
X3.2362Y-3.6181
X3.2362Y-5.126
X3.2559Y-2.8346
X3.2598Y-4.1102
X3.2638Y-4.2559
X3.2756Y-3.2126
X3.2874Y-3.4567
X3.2972Y-4.7657
X3.2972Y-4.8681
X3.2992Y-4.4665
X3.2992Y-4.5669
X3.2992Y-4.6654
X3.3031Y-3.7677
X3.3031Y-3.874
X3.3307Y-3.122
X3.3386Y-3.4173
X3.3386Y-3.6299
X3.3465Y-3.2598
X3.3465Y-5.9173
X3.3504Y-5.0748
X3.3504Y-5.1732
X3.4213Y-3.2638
X3.4606Y-3.1772
X3.4882Y-3.3425
X3.4921Y-4.1732
X3.5354Y-5.122
X3.5394Y-5.3622
X3.5551Y-4.0
X3.5551Y-4.124
X3.5669Y-3.1969
X3.5669Y-3.3504
X3.5697Y-4.9201
X3.5787Y-3.5197
X3.5945Y-4.1004
X3.6063Y-5.3189
X3.626Y-2.8504
X3.6378Y-5.4882
X3.6811Y-2.8386
X3.6811Y-3.1693
X3.7205Y-5.1929
X3.7362Y-3.2244
X3.7717Y-4.1811
X3.7795Y-5.2244
X3.7874Y-4.1358
X3.811Y-4.6772
X3.811Y-4.8228
X3.811Y-4.9173
X3.811Y-5.1102
X3.815Y-4.874
X3.8209Y-4.1004
X3.8268Y-3.8642
X3.8465Y-5.2677
X3.8524Y-4.5276
X3.8543Y-3.7992
X3.878Y-5.8622
X3.8819Y-5.1063
X3.8976Y-2.563
X3.8976Y-2.7402
X3.9173Y-4.6654
X3.9213Y-4.8071
X3.9331Y-4.0039
X3.9528Y-3.0079
X3.9528Y-4.4449
X3.9882Y-5.1102
X4.0039Y-5.3622
X4.0079Y-4.8071
X4.0197Y-3.0118
X4.0394Y-3.1378
X4.0551Y-5.1535
X4.0591Y-3.4803
X4.063Y-3.748
X4.0748Y-4.3425
X4.0866Y-4.2402
X4.1063Y-4.8071
X4.1299Y-3.9685
X4.1339Y-3.2953
X4.1417Y-3.5157
X4.1575Y-2.6142
X4.1693Y-2.9843
X4.189Y-4.3543
X4.2165Y-3.2441
X4.2165Y-3.6024
X4.2283Y-3.1969
X4.248Y-3.7008
X4.248Y-4.2795
X4.252Y-4.7795
X4.2638Y-2.9843
X4.2638Y-3.1693
T2
X3.8701Y-3.2795
X3.9764Y-3.5591
T3
X2.2396Y-4.5059
X2.2396Y-4.5925
X2.2396Y-4.6791
X2.2396Y-4.7657
X2.2829Y-4.4626
X2.2829Y-4.5492
X2.2829Y-4.6358
X2.2829Y-4.7224
T5
X2.1148Y-4.4488
X2.1148Y-4.7795
X2.5591Y-5.9252
X2.5591Y-6.122
X2.7559Y-5.9252
X2.7559Y-6.122
X2.0866Y-5.9252
X2.0866Y-6.122
X2.2835Y-5.9252
X2.2835Y-6.122
X2.3228Y-5.4921
X2.3228Y-5.689
X2.5197Y-5.4921
X2.5197Y-5.689
X3.5039Y-5.9252
X3.5039Y-6.122
X3.7008Y-5.9252
X3.7008Y-6.122
X3.7402Y-5.4921
X3.7402Y-5.689
X3.937Y-5.4921
X3.937Y-5.689
X3.0315Y-5.9252
X3.0315Y-6.122
X3.2283Y-5.9252
X3.2283Y-6.122
X2.7953Y-5.4921
X2.7953Y-5.689
X2.9921Y-5.4921
X2.9921Y-5.689
X3.9764Y-5.9252
X3.9764Y-6.122
X4.1732Y-5.9252
X4.1732Y-6.122
X3.2677Y-5.4921
X3.2677Y-5.689
X3.4646Y-5.4921
X3.4646Y-5.689
T6
X4.0551Y-4.5244
X4.0551Y-4.6244
X4.0551Y-4.7244
X4.1551Y-4.5244
X4.1551Y-4.6244
X4.1551Y-4.7244
X2.8299Y-2.9134
X2.9299Y-2.9134
X3.0299Y-2.9134
X3.1299Y-2.9134
X3.2299Y-2.9134
X3.3299Y-2.9134
X3.4299Y-2.9134
T7
X3.6402Y-3.3465
X3.6402Y-3.4465
X3.6402Y-3.5465
X3.6402Y-3.6465
X3.6402Y-3.7465
X3.6402Y-3.8465
X3.6402Y-3.9465
X3.6402Y-4.0465
X3.7402Y-3.3465
X3.7402Y-3.4465
X3.7402Y-3.5465
X3.7402Y-3.6465
X3.7402Y-3.7465
X3.7402Y-3.8465
X3.7402Y-3.9465
X3.7402Y-4.0465
X2.8249Y-3.4201
X2.8249Y-3.6201
X2.8249Y-3.8201
X2.8249Y-4.0201
X2.8249Y-4.2201
X2.8249Y-4.4201
X2.8249Y-4.6201
X2.8249Y-4.8201
X2.8249Y-5.0201
X2.8249Y-5.2201
X2.8349Y-3.5201
X2.8349Y-3.7201
X2.8349Y-3.9201
X2.8349Y-4.1201
X2.8349Y-4.3201
X2.8349Y-4.5201
X2.8349Y-4.7201
X2.8349Y-4.9201
X2.8349Y-5.1201
X2.8349Y-5.3201
X3.4249Y-3.4201
X3.4249Y-3.6201
X3.4249Y-3.8201
X3.4249Y-4.0201
X3.4249Y-4.2201
X3.4249Y-4.4201
X3.4249Y-4.6201
X3.4249Y-4.8201
X3.4249Y-5.0201
X3.4249Y-5.2201
X3.4349Y-3.5201
X3.4349Y-3.7201
X3.4349Y-3.9201
X3.4349Y-4.1201
X3.4349Y-4.3201
X3.4349Y-4.5201
X3.4349Y-4.7201
X3.4349Y-4.9201
X3.4349Y-5.1201
X3.4349Y-5.3201
T8
X2.5394Y-4.5768
X2.5394Y-4.6752
X2.5394Y-4.7736
X2.5394Y-4.872
X3.7205Y-4.6752
X3.7205Y-4.872
X3.9272Y-3.8583
X4.0256Y-2.6772
X4.0256Y-3.8583
X4.124Y-3.8583
X4.2224Y-2.6772
X4.2224Y-3.8583
X2.5394Y-4.9705
X2.5394Y-5.0689
X2.5394Y-5.1673
X2.5394Y-5.2657
X3.7205Y-5.0689
X3.7205Y-5.2657
X2.0374Y-5.2362
X2.1358Y-4.0551
X2.1358Y-5.2362
X2.2343Y-5.2362
X2.3327Y-4.0551
X2.3327Y-5.2362
X2.5394Y-4.1831
X2.5394Y-4.2815
X2.5394Y-4.3799
X2.5394Y-4.4783
X3.7205Y-4.2815
X3.7205Y-4.4783
X2.0374Y-3.8583
X2.1358Y-2.6772
X2.1358Y-3.8583
X2.2343Y-3.8583
X2.3327Y-2.6772
X2.3327Y-3.8583
X3.9272Y-5.2362
X4.0256Y-4.0551
X4.0256Y-5.2362
X4.124Y-5.2362
X4.2224Y-4.0551
X4.2224Y-5.2362
T10
X4.1929Y-5.6693
X2.0669Y-5.6693
T4
X2.4724Y-2.6319G85X2.4724Y-2.6909
G05
X2.624Y-2.4724G85X2.6831Y-2.4724
G05
X2.628Y-2.7677G85X2.687Y-2.7677
G05
X3.8898Y-2.1791G85X3.8898Y-2.2382
G05
X4.0413Y-2.0197G85X4.1004Y-2.0197
G05
X4.0453Y-2.315G85X4.1043Y-2.315
G05
X2.0Y-2.1791G85X2.0Y-2.2382
G05
X2.1516Y-2.0197G85X2.2106Y-2.0197
G05
X2.1555Y-2.315G85X2.2146Y-2.315
G05
X2.9449Y-2.6319G85X2.9449Y-2.6909
G05
X3.0965Y-2.4724G85X3.1555Y-2.4724
G05
X3.1004Y-2.7677G85X3.1594Y-2.7677
G05
X3.4173Y-2.1791G85X3.4173Y-2.2382
G05
X3.5689Y-2.0197G85X3.628Y-2.0197
G05
X3.5728Y-2.315G85X3.6319Y-2.315
G05
X2.4724Y-2.1791G85X2.4724Y-2.2382
G05
X2.624Y-2.0197G85X2.6831Y-2.0197
G05
X2.628Y-2.315G85X2.687Y-2.315
G05
X2.9449Y-2.1791G85X2.9449Y-2.2382
G05
X3.0965Y-2.0197G85X3.1555Y-2.0197
G05
X3.1004Y-2.315G85X3.1594Y-2.315
G05
X3.4173Y-2.6319G85X3.4173Y-2.6909
G05
X3.5689Y-2.4724G85X3.628Y-2.4724
G05
X3.5728Y-2.7677G85X3.6319Y-2.7677
G05
T9
X3.315Y-2.2087G85X3.315Y-2.2087
G05
X4.2598Y-2.2087G85X4.2598Y-2.2087
G05
X2.3701Y-2.2087G85X2.3701Y-2.2087
G05
X3.7874Y-2.2087G85X3.7874Y-2.2087
G05
X2.8425Y-2.2087G85X2.8425Y-2.2087
G05
X3.7874Y-2.6614G85X3.7874Y-2.6614
G05
X2.8425Y-2.6614G85X2.8425Y-2.6614
G05
X3.315Y-2.6614G85X3.315Y-2.6614
G05
T0
M30
